<mxfile host="app.diagrams.net" agent="Mozilla/5.0 (X11; Ubuntu; Linux x86_64; rv:133.0) Gecko/20100101 Firefox/133.0" version="25.0.3">
  <diagram name="Page-1" id="LUZ2GSVGhJl6kQ5itg3l">
    <mxGraphModel grid="1" page="1" gridSize="10" guides="1" tooltips="1" connect="1" arrows="1" fold="1" pageScale="1" pageWidth="850" pageHeight="1100" math="0" shadow="0">
      <root>
        <mxCell id="0" />
        <mxCell id="1" parent="0" />
        <mxCell id="eqO_NFKNhgGhrtfG9ZRE-1" value="" style="rounded=0;whiteSpace=wrap;html=1;fillColor=#cbcbcb;fontColor=#333333;strokeColor=#000000;fillStyle=solid;" vertex="1" parent="1">
          <mxGeometry x="1730" y="82.55000000000001" width="591" height="470" as="geometry" />
        </mxCell>
        <mxCell id="eqO_NFKNhgGhrtfG9ZRE-2" value="" style="rounded=0;whiteSpace=wrap;html=1;fillColor=#febf00;strokeWidth=1;perimeterSpacing=4;" vertex="1" parent="1">
          <mxGeometry x="1760" y="124.79000000000002" width="200" height="197.75" as="geometry" />
        </mxCell>
        <mxCell id="eqO_NFKNhgGhrtfG9ZRE-3" value="" style="rounded=0;whiteSpace=wrap;html=1;fillColor=none;dashed=1;" vertex="1" parent="1">
          <mxGeometry x="1778" y="180.33000000000004" width="160" height="134.02" as="geometry" />
        </mxCell>
        <mxCell id="eqO_NFKNhgGhrtfG9ZRE-4" value="&lt;font style=&quot;font-size: 18px;&quot; face=&quot;Times New Roman&quot;&gt;TUG&lt;/font&gt;" style="text;html=1;align=center;verticalAlign=middle;whiteSpace=wrap;rounded=0;fontStyle=1" vertex="1" parent="1">
          <mxGeometry x="1793.83" y="137.07000000000005" width="60" height="30" as="geometry" />
        </mxCell>
        <mxCell id="eqO_NFKNhgGhrtfG9ZRE-5" value="" style="shape=image;verticalLabelPosition=bottom;labelBackgroundColor=default;verticalAlign=top;aspect=fixed;imageAspect=0;image=data:image/svg+xml,PHN2ZyB4bWxucz0iaHR0cDovL3d3dy53My5vcmcvMjAwMC9zdmciIGlkPSJzdmcxMjgzIiB2ZXJzaW9uPSIxLjEiIHdpZHRoPSIxMDAwIiBoZWlnaHQ9IjU4MCIgdmlld0JveD0iMCAwIDEwMDAgNTgwIj4mI3hhOyAgPGRlZnMgaWQ9ImRlZnMxMjg3Ii8+JiN4YTsgICYjeGE7ICA8ZyBpZD0iZzEyODEiIHRyYW5zZm9ybT0idHJhbnNsYXRlKC02MCAtMTAwKSI+JiN4YTsgICAgPGcgaWQ9Imc5ODMiIHRyYW5zZm9ybT0ibWF0cml4KC0wLjc2MzUsMCwwLDAuNzYzNSw5ODYuNTIzMzEsMTAxLjEzKSI+JiN4YTsgICAgICA8ZyBpZD0iZzMyIiB0cmFuc2Zvcm09Im1hdHJpeCgxLjI2NzgsMCwwLDEuMjY3OCwtMzIuODMsLTM0My42NSkiIGZpbGwtcnVsZT0iZXZlbm9kZCI+JiN4YTsgICAgICAgIDxwYXRoIGlkPSJwYXRoMiIgc3Ryb2tlLXdpZHRoPSIwLjUiIHN0cm9rZT0iIzAwMDAwMCIgZmlsbD0iI2NkNzEzNSIgZD0ibSA3NTkuMjksNzM3LjkgYyAwLDAgMTAuMTc5LDMuNzUgMTMuMzkzLDIuMTQyOCAzLjIxNDMsLTEuNjA3MSAxNC4xMDcsLTMuOTI4NiAxNC4yODYsLTExLjc4NiAtMTcuODM3LC0xNi41MTUgLTI0LjI4NCwtMjAuODU3IC0yMy4wMzYsLTQ1LjE3OSAtMC4zNTcxNCwxLjQyODYgLTE5LjgyMSwxNS43MTQgLTE5LjY0MywxOS40NjQgMC4xNzg1NywzLjc1IDMuNTcxNCwyMC43MTQgNy41LDI1LjcxNCAzLjkyODYsNSA3LjMyMTQsOS42NDI5IDcuNSw5LjY0MjkgeiIvPiYjeGE7ICAgICAgICA8cGF0aCBpZD0icGF0aDQiIHN0cm9rZS13aWR0aD0iMC4yIiBzdHJva2U9IiMwMDAwMDAiIGZpbGw9IiNlMmUzZGIiIGQ9Im0gNzcyLjY4LDY4Ni42MiBjIC0yLjMyMTQsLTMuMzkyOCAtOC4yMTQzLC0yLjUgLTguNzUsMy4yMTQzIC0wLjUzNTcxLDUuNzE0MyAxLjA3MTQsMTQuNzMyIDIuMzIxNCwxNS4wODkgMS4yNSwwLjM1NyA0LjEwNzIsLTIuMjMyMSA0LjEwNzIsLTIuMjMyMSAxLjM1ODIsLTUuMjE4NSAzLjg0MzUsLTEwLjM4IDIuMzIxNCwtMTYuMDcxIHoiLz4mI3hhOyAgICAgICAgPHBhdGggaWQ9InBhdGg2IiBvcGFjaXR5PSIwLjExMiIgZD0ibSA3NjkuMTEsNzAzLjM0IGMgMCwwIDIuNSwtMTAuNDQ2IDIuMzIxNCwtMTMuMzkzIC0wLjE3ODYsLTIuOTQ3IC01LjA4OTMsLTEuMDcxNCAtNS4wODkzLC0xLjA3MTQgMCwwIC0xLjMzOTMsNi42MDcxIC0wLjk4MjE1LDguOTI4NiAwLjM1NzE1LDIuMzIxNCAxLjI1LDcuMjMyMSAxLjI1LDcuMjMyMSBsIDIuNSwtMS42OTY0IHoiLz4mI3hhOyAgICAgICAgPHBhdGggaWQ9InBhdGg4IiBzdHJva2Utd2lkdGg9IjAuMiIgc3Ryb2tlPSIjMDAwMDAwIiBmaWxsPSIjZTJlM2RiIiBkPSJtIDc2MS41NCw3MTMuMzkgYyAwLDAgOS4xMDcyLDAuMDg5MyAxMC43MTQsLTAuODAzNTcgMS42MDcxLC0wLjg5Mjg2IDMuMDM1NywtMi4xNDI5IDIuNSwtNC42NDI5IC0wLjUzNTcyLC0yLjUgLTAuNDQ2NDMsLTUuMTc4NiAtMy4xMjUsLTUuMTc4NiAtMi42Nzg1NywwIC0xMC43MTQsMi45NDY0IC0xMC43MTQsMi45NDY0IDAsMCAxLjY5NjQsOC4wMzU3IDAuNjI1LDcuNjc4NiB6Ii8+JiN4YTsgICAgICAgIDxwYXRoIGlkPSJwYXRoMTAiIHN0cm9rZS13aWR0aD0iMC4yIiBzdHJva2U9IiMwMDAwMDAiIGZpbGw9IiNlMmUzZGIiIGQ9Im0gNzY2LjQzLDcxMS4yOSAyLjY3ODYsLTAuMDg5MyBjIDAsMCAtMS4xMjcsOC4xNjkzIDEuNDI4NiwxMy40ODIgMy4zOTI5LDcuMDUzNiA5LjEwNzIsOS40NjQzIDEzLjM5Myw4Ljc1IDQuMjg1NywtMC43MTQyOCA1Ljk4MjEsLTEwLjcxNCA1LjQ0NjQsLTExLjk2NCAtMC41MzU3MiwtMS4yNSAtNy41ODkzLC05LjY0MjkgLTExLjUxOCwtMTAuNzE0IC0zLjkyODcsLTEuMDcxMSAtNC42NDI4LC0xLjQyODYgLTQuNjQyOCwtMS40Mjg2IGwgLTYuNjA3MiwwLjUzNTcxIC0wLjE3ODU2LDEuNDI4NiB6Ii8+JiN4YTsgICAgICAgIDxwYXRoIGlkPSJwYXRoMTIiIHN0cm9rZS13aWR0aD0iMC41IiBzdHJva2U9IiMwMDAwMDAiIGZpbGw9IiNmZjdmMmEiIGQ9Im0gODAyLjQ5LDcyMy45OCBjIDEuNjA5NywtMC42Nzg2NiAxNy43MzgsLTcuMTc3MSAxNy43MzgsLTcuMTc3MSBsIC0wLjQ5MjI2LC00Ni43NzYgLTE5LjAzNCwyLjIwNTYgMS43ODg2LDUxLjc0NyB6Ii8+JiN4YTsgICAgICAgIDxwYXRoIGlkPSJwYXRoMTQiIHN0cm9rZS13aWR0aD0iMC4yIiBzdHJva2U9IiMwMDAwMDAiIGZpbGw9IiNlMmUzZGIiIGQ9Im0gNzY2LjIsNzA3LjA1IC0wLjQ5MTA2LC0xLjExNjEgNi42MDcxLC0xLjI1IGMgMCwwIDEuNjA3MSwtMC4xNzg1NyAzLjIxNDMsLTEuNDI4NiAxLjYwNzIsLTEuMjUgMy4zOTI5LC04LjM5MjkgOC41NzE0LC0xMC4xNzkgNS4xNzg2LC0xLjc4NTcgMTEuOTY0LDguOTI4NiAxMS4wNzEsMTAuMzU3IC0wLjg5MywxLjQyODQgLTcuODEyNSw3LjYzMzkgLTEyLjI3Nyw3LjI3NjggLTQuNDY0MywtMC4zNTcxNCAtOS43ODExLC0zLjQzODYgLTEwLjcxNCwtNC41MDg5IC0zLjQ4MjEsLTAuMDg5MyAtNS4zNTcyLDAuODQ4MjEgLTUuOTgyMiwwLjg0ODIxIHoiLz4mI3hhOyAgICAgICAgPHBhdGggaWQ9InBhdGgxNiIgb3BhY2l0eT0iMC4xMTIiIGQ9Im0gNzc0LjczLDcwNS44NCBjIDAsMCA2LjMzOTMsMy43NSA4LjU3MTQsMy40ODIxIDIuMjMyMSwtMC4yNjc5IDYuOTY0MywtMi45NDY0IDYuOTY0MywtMi45NDY0IGwgLTEuMTYwNywtMTEuODc1IGMgMCwwIC01LDAuNzE0MjkgLTYuNjk2NCwxLjc4NTcgLTEuNjk2NCwxLjA3MTQgLTMuODM5Myw2LjQyODYgLTQuNTUzNiw2Ljk2NDMgLTAuNzE0MjgsMC41MzU3MSAtMy4zOTI4LDEuNzg1NyAtMy4zOTI4LDEuNzg1NyBsIDAuMjY3ODUsMC44MDM1OCB6Ii8+JiN4YTsgICAgICAgIDxwYXRoIGlkPSJwYXRoMTgiIG9wYWNpdHk9IjAuMTEyIiBkPSJtIDc3MC40NSw3MTEuMTEgYyAwLDAgLTEuMzM5MywxMC45ODIgNS4yNjc5LDE2LjI1IDYuNjA3MSw1LjI2NzkgMTQuOTExLDUuODAzNiAxNSwyLjk0NjQgMC4wODkzLC0yLjg1NzEgLTYuMDcxNCwtMTEuMzM5IC05LjczMjIsLTE0LjczMiAtMy42NjA3LC0zLjM5MjkgLTcuOTQ2NCwtNSAtNy45NDY0LC01IGwgLTIuNTg5MywwLjUzNTcxIHoiLz4mI3hhOyAgICAgICAgPHBhdGggaWQ9InBhdGgyMCIgc3Ryb2tlLXdpZHRoPSIwLjUiIHN0cm9rZT0iIzAwMDAwMCIgZmlsbD0iI2ZmN2YyYSIgZD0ibSA3OTcuNjYsNjc4LjA2IGMgLTQuNjQxMSwwLjI3ODMxIC0xNy4wMzEsNS4yNSAtMTcuNjU2LDUuNTYyNSAtMC43MTQyOCwwLjM1NzE0IDAuOTA2MjUsMS45Mzc1IDAuOTA2MjUsMS45Mzc1IDkuNDI5OCwyMC40NjEgMTQuMDA5LDM3LjIzMiAtMS45ODIxLDUwLjQyIC0xLjIwOCwxLjY4MDUgLTUuNDExNywzLjE4NjIgLTguMDQ0NiwzLjg4MzkgLTIuNTc4NywwLjI5NzUzIC00LjMwMzQsLTQuNTYwOCAtNC43ODU3LC01LjI3MjMgLTAuNzI5MDMsLTEuODQxMiAtMy4yMzczLC05LjAyNjQgLTMuNDA2MiwtMTIuNDA2IC0wLjE3ODU3LC0zLjU3MTQgMS4wNjI1LC0xNi4yNSAxLjA2MjUsLTE3LjUgLTEwLjUyNCwxLjU3MTkgLTAuMDM5OSwxLjQ4NDEgLTEwLjcxOSwxLjc4MTIgLTAuMzU3MTUsMCAxLjE2NTIsNy4xMjk0IDEuMzQzOCwxMS41OTQgMC4xNzg1Nyw0LjQ2NDMgNC41NDAyLDE4Ljc3MiA0LjcxODgsMjEuMDk0IDAuMTc2MTQsMi4yODk3IDQuNjk3NCwxLjc5MTkgNy41NjI1LDAuNzUgMi4xNzk3LDAuMTM0NDMgNC4zMDQ1LDAuOTExNTcgNi40Njg4LDAuNTg5MjkgNi40Mzg2LDAuMzk2NyAyNC40NDIsLTkuNDc0NiAyNy4yNDEsLTExLjAwNCA5Ljg4NiwtMTMuODcgMTEuMzc1LC0zOC4wMzkgLTEuMjcyMywtNTEuMjQxIC0wLjI5MDE3LC0wLjE3ODU3IC0wLjc3NDQ5LC0wLjIyNzI2IC0xLjQzNzUsLTAuMTg3NSB6Ii8+JiN4YTsgICAgICAgIDxwYXRoIGlkPSJwYXRoMjIiIHN0cm9rZS13aWR0aD0iMC41IiBzdHJva2U9IiMwMDAwMDAiIGZpbGw9IiNmZjdmMmEiIGQ9Im0gNzUzLjQ4LDcxNS44NCBjIDEuMjUsLTAuMzU3MTQgMTAuMDg5LC0yLjMyMTQgMTAuMDg5LC0yLjMyMTQgMy41OTQ2LC0zLjk1MzEgMi4wNDIxLC03LjY2NjEgLTAuNjI1MDEsLTEwLjk4MiBsIC0xMC44OTMsMi42Nzg2IDAuMjY3ODUsNi4yNSAxLjE2MDcsNC4zNzUgeiIvPiYjeGE7ICAgICAgICA8cGF0aCBpZD0icGF0aDI0IiBzdHJva2Utd2lkdGg9IjAuNSIgc3Ryb2tlPSIjMDAwMDAwIiBmaWxsPSIjZmY3ZjJhIiBkPSJtIDc1NS43MSw3MDYuNTYgYyAtNC45NzkzLC0zLjczMDkgLTcuOTcwNiwwLjU1MzQzIC03LjMyMTQsNS42MjUgMy42NDYxLDguNzcyOSAxMS43MDUsMC44NjA2OSA3LjMyMTQsLTUuNjI1IHoiLz4mI3hhOyAgICAgICAgPHBhdGggaWQ9InBhdGgyNiIgc3Ryb2tlLXdpZHRoPSIwLjUiIHN0cm9rZT0iIzAwMDAwMCIgZmlsbD0iI2ZmN2YyYSIgZD0ibSA2OTUsNzI4LjQ4IDU2Ljk2NCwtMTMuNzUgYyA0Ljg4MywtMS41NDkgMS4zMjg4LC04LjgwMTkgLTEuMjUsLTguMDM1NyBsIC02MCwxNC42NDMgNC4yODU3LDcuMTQyOCB6Ii8+JiN4YTsgICAgICAgIDxwYXRoIGlkPSJwYXRoMjgiIHN0cm9rZS13aWR0aD0iMC41IiBzdHJva2U9IiMwMDAwMDAiIGZpbGw9IiNmZjdmMmEiIGQ9Im0gNzU0LjE3LDcwNS40IGMgMCwwIDcuMzY5NiwtMC45OTc0OCA4LjM3OTcsLTEuNzU1MSAxLjAxMDEsLTAuNzU3NjIgMS4wMDQ5LC0xMS40NTkgNC4yMTkyLC0xNS4zNTEgbCAtOC4zOTUsMi42ODM4IC00LjIwMzksMTQuNDIzIHoiLz4mI3hhOyAgICAgICAgPHBhdGggaWQ9InBhdGgzMCIgb3BhY2l0eT0iMC40MTkiIGQ9Ik0gODE5LjQyLDY2Ny45MiA2OTUsNjkxLjY2MSBsIC0zLjU2MjUsMzIuODQ0IC0zLjIyNTEsNS43NjUyIGMgLTJlLTUsLTJlLTUgNDAuNzIxLC0xMi4xODUgNTAuMDA2LC0xNi44MjggOS4yODU3LC00LjY0MjggMTguOTMzLC01LjcwNTQgMjAuNzE5LC0xMS4wNjIgMS43ODU3LC01LjM1NzEgMy45MzMsLTcuNTA4OSA1LjcxODgsLTguOTM3NSAxLjc4NTcsLTEuNDI4NiAxNi4wNjIsLTcuNSAxNi4wNjIsLTcuNSAtMTBlLTYsMmUtNSAtMi44NTI3LDEuNzgxMiAzLjIxODgsMS43ODEyIDYuMDcxNCwtM2UtNSAxNy41MDQsLTEuNDMzIDI1LjcxOSwtMy4yMTg4IDguMjE0MywtMS43ODU3IDEwLjI1NiwtMy43NDA2IDEwLjI1NiwtMy43NDA2IGwgLTAuNDkwNDYsLTEyLjg0NCB6IG0gLTc2LjAxNSwzMC41MjIgMS40MDYyLDkuNDY4OCAtMTguNzUsNSB2IC0wLjkwNjI1IGwgMC43MTg3NSwtOC4yMTg4IDE2LjYyNSwtNS4zNDM4IHoiLz4mI3hhOyAgICAgIDwvZz4mI3hhOyAgICAgIDxnIGlkPSJnNTAiIHRyYW5zZm9ybT0ibWF0cml4KDAuNjQ0ODYsMS4xMzQ5LDEuMzMyLC0wLjU1NzgyLC0xNDQ0LjgsNDA4LjU2KSI+JiN4YTsgICAgICAgIDxwYXRoIGlkPSJwYXRoMzQiIHN0cm9rZS13aWR0aD0iMC40OTMiIHN0cm9rZT0iIzAwMDAwMCIgZmlsbC1ydWxlPSJldmVub2RkIiBmaWxsPSIjMzMzMzMzIiBkPSJtIDUyNi4yNSw5MzcuNTQgYyAtMS43ODU3LC0wLjcxNDI4IC03LjY3ODYsLTQuMTA3MSAtOS42NDI5LC04LjIxNDMgLTYuOTY0NSwtMTMuMDE4IDAuMjExMjgsLTMwLjgzMSAxNS4zNTcsLTM3LjE0MyAxMS4xMzgsLTMuNzI0MiAxOS40OTksLTAuOTE1MDIgMjcuMTQzLDcuODU3MSAxLjYwNzEsMi42Nzg2IDIuNSwxNS41MzYgMi41LDE1LjUzNiAtMTIuMDk1LDcuMDM4OSAtMjMuODc3LDE0IC0zNS4zNTcsMjEuOTY0IHoiLz4mI3hhOyAgICAgICAgPHBhdGggaWQ9InBhdGgzNiIgc3Ryb2tlLXdpZHRoPSIwLjc4OSIgc3Ryb2tlPSIjMDAwMDAwIiBmaWxsLXJ1bGU9ImV2ZW5vZGQiIGQ9Im0gNTE5LjExLDkyMy43OSBjIC0yLjA5ODgsLTE2LjY4OSAxNi4yMDQsLTMxLjg5OCAzMy4wMzYsLTI4LjIxNCAzLjU3MTQsMS40Mjg2IDExLjA3MSw3LjE0MjkgMTAuMzU3LDE2Ljk2NCAtMC41NzMyOCwyMy40MzEgLTQwLjE4OCw0MS41MjUgLTQzLjM5MywxMS4yNSB6Ii8+JiN4YTsgICAgICAgIDxwYXRoIGlkPSJwYXRoMzgiIGZpbGwtcnVsZT0iZXZlbm9kZCIgZmlsbD0iIzMzMzMzMyIgZD0ibSA1MjcuNDcsOTI5LjY2IGMgMTMuMTMsMTEuMzUzIDM2LjI4OCwtNC43NTE3IDI2Ljk3MiwtMjIuNzQ0IC0xNS40ODQsLTE0LjI3IC0zNS43MDQsNi41Mjk0IC0yNi45NzIsMjIuNzQ0IHoiLz4mI3hhOyAgICAgICAgPHBhdGggaWQ9InBhdGg0MCIgc3Ryb2tlLXdpZHRoPSIwLjQ5MyIgc3Ryb2tlLWRhc2hhcnJheT0iMC40OSwgMC40OSIgc3Ryb2tlPSIjMDAwMDAwIiBmaWxsPSJub25lIiBkPSJtIDUyMS43OSw5MzQuNSBjIDAsMCAtMTAuMDcsLTEyLjAyNCAxLjYwNzIsLTI4LjQ4MiA5Ljg5MDMsLTEzLjk0IDI4LjEyNSwtMTIuNTg5IDI5LjczMiwtMTAuODA0Ii8+JiN4YTsgICAgICAgIDxwYXRoIGlkPSJwYXRoNDIiIHN0cm9rZS13aWR0aD0iMC40OTMiIHN0cm9rZS1kYXNoYXJyYXk9IjAuNDksIDAuNDkiIHN0cm9rZT0iIzAwMDAwMCIgZmlsbD0ibm9uZSIgZD0ibSA1MjAuMTgsOTMzLjE3IGMgLTkuOTU1NCwtMTMuODYyIDIuOTQ2NCwtNDIuODU3IDMwLjQ0NiwtMzkuNDY0Ii8+JiN4YTsgICAgICAgIDxwYXRoIGlkPSJwYXRoNDQiIHN0cm9rZS13aWR0aD0iMC40OTMiIHN0cm9rZS1kYXNoYXJyYXk9IjAuNDksIDAuNDkiIHN0cm9rZT0iIzAwMDAwMCIgZmlsbD0ibm9uZSIgZD0ibSA1MTcuOTUsOTMwLjQgYyAtNy4wMDg5LC0xNC4xMyA0LjY0MjksLTQwLjE3OSAzMS40MjksLTM3Ljg1NyIvPiYjeGE7ICAgICAgICA8cGF0aCBpZD0icGF0aDQ2IiBzdHJva2Utd2lkdGg9IjAuNDkzIiBzdHJva2UtZGFzaGFycmF5PSIwLjQ5LCAwLjQ5IiBzdHJva2U9IiMwMDAwMDAiIGZpbGw9Im5vbmUiIGQ9Im0gNTE2LjE2LDkyNy42MyBjIC00Ljk1NTQsLTE2LjI3MiA3Ljc2NzksLTM3LjIzMiAzMS41MTgsLTM2LjA3MSIvPiYjeGE7ICAgICAgICA8cGF0aCBpZD0icGF0aDQ4IiBzdHJva2Utd2lkdGg9IjAuNDkzIiBzdHJva2UtZGFzaGFycmF5PSIwLjQ5LCAwLjQ5IiBzdHJva2U9IiMwMDAwMDAiIGZpbGw9Im5vbmUiIGQ9Im0gNTE0LjQ2LDkyMy41MiBjIC0wLjY1NjYzLC0xNS4zNjIgNy4zNjgsLTMyLjAxMiAzMC4wODksLTMyLjU4OSIvPiYjeGE7ICAgICAgPC9nPiYjeGE7ICAgICAgPHBhdGggaWQ9InBhdGg1MiIgc3Ryb2tlLXdpZHRoPSIxLjI2OCIgc3Ryb2tlPSIjMDAwMDAwIiBmaWxsLXJ1bGU9ImV2ZW5vZGQiIGZpbGw9IiNmZmVlYWEiIGQ9Im0gMTIzLjgzLDQ3Ny4wNiBjIDAsMCAyMy41NDQsMTguMTExIDM4LjAzMywyMi42MzkgMTQuNDg5LDQuNTI3OCA4Ni45MzMsMTMuNTgzIDkwLjU1NSwxNC40ODkgMy42MjIyLDAuOTA1NTUgMTAxLjQyLDkuOTYxMSAxNTUuNzYsNS40MzMzIDU0LjMzMywtNC41Mjc4IDIzNy4yNiwtMjguMDcyIDIzNy4yNiwtMjguMDcyIGwgNjcuMDExLC0xMS43NzIgMC4yMjY0LC0zLjM5NTggaCAxMC4xODggbCA2LjMzODksMy4zOTU4IGMgMCwwIC0xLjU4NDcsMS44MTExIDIuNzE2Nyw2LjU2NTMgNC4zMDE0LDQuNzU0MiAzLjYyMjIsNi4xMTI1IDYuNzkxNiw1LjIwNjkgMy4xNjk0LC0wLjkwNTU1IDM4LjkzOSwtOS41MDgzIDM4LjkzOSwtOS41MDgzIGwgMjUwLjg2LC02OS4xMDMgYyAwLDAgNy4zNjM4LC0zLjIwMTYgNy4zNjM4LC01LjQ0MjcgMCwtMi4yNDExIDAuOTYwNCwtOC45NjQ1IC00LjgwMjUsLTEwLjI0NSAtNS43NjI5LC0xLjI4MDUgLTEzOC42MywtNTMuNDY3IC0xNDIuMTUsLTUzLjc4NyAtMy41MjE4LC0wLjMyMDE3IC0xNC43MjcsLTIuMjQxMSAtMzYuMTc4LDEuOTIxIC0yMS40NTEsNC4xNjIxIC0yMTEuNjMsNTEuODY2IC0yMTEuNjMsNTEuODY2IDAsMCAtMzYzLjM4LDMzLjkzNyAtMzY5Ljc5LDMzLjYxNyAtNi40MDMyLC0wLjMyMDE3IC0yOS43NzUsNC4xNjIxIC0zOS43LDUuNzYyOSAtOS45MjUsMS42MDA4IC04MC4zNjEsMTUuMDQ4IC04Ni43NjQsMTguNTY5IC02LjQwMzIsMy41MjE4IC0xNS4wNDgsOC4wMDQgLTE3LjYwOSwxMC44ODYgLTIuNTYxMywyLjg4MTUgLTUuMTIyNiw4LjMyNDIgLTUuMTIyNiw4LjMyNDIgbCAxLjcwMjYsMi42NTE1IHoiLz4mI3hhOyAgICAgIDxwYXRoIGlkPSJwYXRoNTQiIHN0cm9rZS13aWR0aD0iMC42MzQiIHN0cm9rZT0iIzAwMDAwMCIgZmlsbC1ydWxlPSJldmVub2RkIiBmaWxsPSIjNmM2NzUzIiBkPSJtIDEzMC4xNyw2MTQuNyBjIDIzLjU0NCwzOS44NDQgNDQuMzcyLDY5LjcyOCA2My4zODksNzcuODc4IDE5LjAxNyw4LjE1IDMxLjY5Myw4LjY4MDUgOTQuNDg4LDQuMjA3NiAzNi41MzQsLTIuNjE1NiA0NC45NjcsLTYuMDE4NyA0NC45NjcsLTYuMDE4NyAwLDAgMTI1LjIyLDE2Ljc1NCAxNjcuNTMsOC4xNSA0MS4yOCwtMi4xMjE4IDE0Ni4wMiwtMjYuOTkyIDIyOS4xLC02MC42NzIgNjAuOTQsLTI0LjcwNCAxMzIuMjEsLTY3LjkxNyAxNDQuODksLTcxLjUzOSAxMi42NzgsLTMuNjIyMiAyOS44ODMsLTIwLjgyOCA2NS4yLC0zNC40MTEgMzUuMzE3LC0xMy41ODMgNjguODIyLC0yMC44MjggNzguNzgzLC0yNi4yNjEgOS45NjExLC01LjQzMzMgMjEuNzMzLC0xMC44NjcgMjIuNjM5LC0xNy4yMDYgMC45MDU1LC02LjMzODkgMTIuMzIyLC0zNS44NzUgMTEuMDQxLC00Ni43NiAtMS4yODA2LC0xMC44ODYgLTIuODgxNCwtMTAuODg2IC00LjE2MjEsLTEzLjc2NyAtMS4yODA2LC0yLjg4MTUgLTEuOTIxLC0yNi4yNTMgLTEuOTIxLC0yNi4yNTMgMCwwIDMuNTIxOCwtMS45MjEgLTM0Ljg5OCwtMTcuMjg5IC0zOC40MTksLTE1LjM2OCAtMTE4LjQ2LC00NC44MjMgLTExOC40NiwtNDQuODIzIDAsMCAtMjguNDk0LC0xLjkyMSAtNDEuNjIxLDAuOTYwNDggLTEzLjEyNywyLjg4MTUgLTIxNy43MSw1My4xNDcgLTIxNy43MSw1My4xNDcgMCwwIC0zNDAuMjYsMzAuNzE2IC0zNDQuMTEsMzAuNzE2IC0zLjg0ODYsMCAtMTguNTY0LDAgLTIyLjg2NSwxLjEzMiAtMzUuMzY3LDYuOTM2OSAtNzAuNDA5LDEzLjI0NyAtMTA1LjcyLDIwLjYwMSAtMi4yNjM5LDAuMjI2MzggLTE1LjE1MywzLjQ3ODMgLTE4LjA5Niw0LjM4MzggLTIuOTQzLDAuOTA1NTYgLTE5LjQ4NCw4Ljk3MzEgLTIxLjk3NSw5LjY1MjIgLTIuNDkwMywwLjY3OTE2IC03LjY5NzIsMi45NDMgLTguNjAyOCw1LjQzMzMgLTAuOTA1NTUsMi40OTAzIC0zLjg0ODYsOS4yODE5IC0zLjg0ODYsOS4yODE5IC01LjMwMzUsNzUuNjQ5IDEwLjk4OCwxMDcuNzUgMjEuOTYsMTM5LjQ2IHoiLz4mI3hhOyAgICAgIDxwYXRoIGlkPSJwYXRoNjMiIGZpbGwtcnVsZT0iZXZlbm9kZCIgZmlsbD0iI2ZmN2YyYSIgZD0ibSAxMDM3LjYsNDk0LjQzIC0xNDAuNDgsMzguNzg2IC0zMDQuMjcsNzcuODQ5IC0xNDIuMTUsMzIuNjA2IC0xMDEuNDIsOS4wNzI1IC0xMjMuMTcsMS44MjI0IC00OC44ODksLTUuNDY3MyAtMjguMjQ4LC00LjA0MSBjIDE2LjAyOCwyNC4yNTQgMzAuNzQ5LDQxLjYzNSA0NC41MzEsNDcuNTQyIDE5LjAxNyw4LjE1IDMxLjY5Myw4LjY3MjQgOTQuNDg5LDQuMTk5NSAzNi41MzQsLTIuNjE1NiA0NC45NjYsLTYuMDIxOSA0NC45NjYsLTYuMDIxOSAtMWUtNSwyZS01IDEyNS4yNCwxNi43NjUgMTY3LjU0LDguMTYxMyA0MS4yOCwtMi4xMjE4IDE0Ni4wMywtMjcuMDE1IDIyOS4xMSwtNjAuNjk1IDYwLjk0LC0yNC43MDQgMTMyLjIsLTY3LjkyOCAxNDQuODgsLTcxLjU1IDEyLjY3OCwtMy42MjIyIDI5Ljg5NSwtMjAuODA1IDY1LjIxMSwtMzQuMzg4IDM1LjMxNiwtMTMuNTgzIDY4LjgsLTIwLjgzMyA3OC43NjEsLTI2LjI2NyA2LjkxNDksLTMuNzcxOCAxNC43MTYsLTcuNTMzMyAxOS4xMzYsLTExLjYwOCB6Ii8+JiN4YTsgICAgICA8cGF0aCBpZD0icGF0aDY1IiBzdHJva2Utd2lkdGg9IjEuMjY4IiBzdHJva2U9IiMwMDAwMDAiIGZpbGwtcnVsZT0iZXZlbm9kZCIgZmlsbD0iI2ZmZWVhYSIgZD0ibSA2MzEuMTksMzk2LjkzIDEyOS45OSwtMzIuNjU2IDc2LjgzOSwtMTkuODUgMzUuMjE4LC01LjEyMjYgMjYuMjUzLDQuNDgyMyAxMjIuOTQsNDYuNzQ0IDE3LjI4OSw4LjMyNDIgMS45MjEsOS42MDQ4IC0yMS4xMzEsOC4zMjQyIC04Ljk2NDUsMy4yMDE2IC0xMzQuNDcsLTQ3LjM4NCAtMjEyLjU5LDQ5LjMwNSAtMzIuNjU2LC0xNC43MjcgLTAuNjQwMzIsLTEwLjI0NSB6Ii8+JiN4YTsgICAgICA8cGF0aCBpZD0icGF0aDY3IiBzdHJva2Utd2lkdGg9IjEuMjY4IiBzdHJva2U9IiMwMDAwMDAiIGZpbGw9Im5vbmUiIGQ9Im0gOTIwLjgzLDM1NS40NCAtMC41NTc5MiwyNi4wNzggNC4wNzUsLTEuMzU4MyIvPiYjeGE7ICAgICAgPHBhdGggaWQ9InBhdGg2OSIgb3BhY2l0eT0iMC4xNSIgZmlsbC1ydWxlPSJldmVub2RkIiBkPSJtIDY0My42Miw0MDAuOTkgMTgwLjY2LC00NS43MyBjIDAsMCAyMi4xODYsLTcuNjk3MiAzMC4zMzYsLTcuNjk3MiA4LjE1LDAgMTguNTY0LC00LjUyNzggMzQuODY0LDAuNDUyNzkgMTYuMyw0Ljk4MDUgMTQ0LjQ0LDUzLjg4IDE0Ni43LDU2LjU5NyAyLjI2MzgsMi43MTY3IDYuNzkxNiwtMi4yNjM5IDYuNzkxNiwtMi4yNjM5IGwgLTE0OC41MSwtNjAuNjcyIC0zOC40ODYsMC40NTI3NyAtMTg3LDQ1LjczIC0zOC45MzksOS41MDgzIDEzLjU4MywzLjYyMjIgeiIvPiYjeGE7ICAgICAgPHBhdGggaWQ9InBhdGg3MSIgc3Ryb2tlLXdpZHRoPSIxLjI2OCIgc3Ryb2tlPSIjMDAwMDAwIiBmaWxsLXJ1bGU9ImV2ZW5vZGQiIGZpbGw9IiNmZmVlYWEiIGQ9Im0gMTEyLjE2LDQ3Mi4yIGMgNy44MjMyLC0xMC45NDYgNDcuMTEyLC0yNC42ODkgNDcuMTEyLC0yNC42ODkgbCAxNDYuNjMsLTIzLjY5MiA0LjQ4MjMsNTYuOTg5IGMgMCwwIC01MC41ODYsMTIuODA2IC02Mi4xMTEsMTIuMTY2IC0xMS41MjYsLTAuNjQwMzMgLTEyLjgwNiwtNC40ODIzIC0xNy45MjksLTQuNDgyMyAtNS4xMjMsMCAtNzQuOTE4LDIwLjQ5IC03OS40LDE5LjIxIC00LjQ4MjMsLTEuMjgwNiAtNDYuMzkxLC0yNC44NjMgLTM4Ljc4NywtMzUuNTAyIHoiLz4mI3hhOyAgICAgIDxwYXRoIGlkPSJwYXRoNzMiIHN0cm9rZS13aWR0aD0iMS4yNjgiIHN0cm9rZT0iIzAwMDAwMCIgZmlsbD0ibm9uZSIgZD0ibSAyMTIuMTIsNDQwLjg0IDEuNTg0Nyw0My40NjcgLTQuNTI3OCwtMC40NTI3OSIvPiYjeGE7ICAgICAgPHBhdGggaWQ9InBhdGg3NSIgb3BhY2l0eT0iMC4xNSIgZmlsbC1ydWxlPSJldmVub2RkIiBkPSJtIDExOC45MSw0NzcuNjIgMC43MDE2NSwtMS4xNjk0IGMgMCwwIDMuODAzNSwtMy4zMjQzIDI0LjkzNCwtMTIuMjg5IDIxLjEzMSwtOC45NjQ1IDE1OC4xNiwtMzQuNTc4IDE1OC4xNiwtMzQuNTc4IGwgLTEuOTIxLC01Ljc2MjkgLTE0NS4zNSwyNC45NzMgLTM4LjQxOSwxNy4yODkgdiA4LjMyNDIgbCAxLjg5ODEsMy4yMTMxIHoiLz4mI3hhOyAgICAgIDxwYXRoIGlkPSJwYXRoNzciIHN0cm9rZS13aWR0aD0iMC42MzQiIHN0cm9rZT0iIzAwMDAwMCIgZmlsbC1ydWxlPSJldmVub2RkIiBmaWxsPSIjNmY3YzkxIiBkPSJtIDI2MC41Nyw0MzMuMTQgMzkuODQ0LC03LjI0NDQgdiAtNS40MzMzIEwgMjU3LjQsNDI3LjI1NCB2IDQuNTI3OCBsIDMuMTY5NCwxLjM1ODMgeiIvPiYjeGE7ICAgICAgPHBhdGggaWQ9InBhdGg3OSIgc3Ryb2tlLXdpZHRoPSIxLjI2OCIgc3Ryb2tlPSIjMDAwMDAwIiBmaWxsLXJ1bGU9ImV2ZW5vZGQiIGZpbGw9IiM4OGFhMDAiIGQ9Im0gODgyLjU5LDM2Ni40MiBjIC0xNC4wNDcsMC4wOSAtMzIuNDA4LDIuOTcxNCAtMzIuNDA4LDIuOTcxNCBsIC0xODEuODUsNDQuMTc0IC0zMi42NDUsOS42MjcyIHYgMjQuOTU5IGwgMzcuMDAzLDYxLjMyOSA4MS40MTUsLTE4Ljg1OCAyNDkuOTEsLTY4LjgxNiAxNC43MzgsLTQuMTk5NSAtMC4xNTg1LC0wLjgzMTk3IC0zNS44NTQsLTE1LjM3MiBjIDAsMCAtNzYuODYyLC0zMC43MTEgLTg4LjM4OCwtMzMuOTEzIC0yLjg4MTQsLTAuODAwNDEgLTcuMDg0MiwtMS4wOTk3IC0xMS43NjYsLTEuMDY5NyB6Ii8+JiN4YTsgICAgICA8ZyBpZD0iZzg1IiB0cmFuc2Zvcm09InRyYW5zbGF0ZSg1MC45NCwtMTUuODYpIiBzdHJva2Utd2lkdGg9IjAuNzYxIiBzdHJva2U9IiMwMDAwMDAiIGZpbGwtcnVsZT0iZXZlbm9kZCI+JiN4YTsgICAgICAgIDxwYXRoIGlkPSJwYXRoODEiIGZpbGw9IiM4OWFkNTMiIGQ9Im0gNzk1Ljk5LDQyOS42OSBjIDAsMCAtNS4wODQ4LC0wLjA3MjUgLTcuMTYzNiwtMC4zNjEzOCAtMS44MDI5LC0wLjI5NjE2IC0xLjI0MDYsMy44MTE0IC0xLjI0MDYsMy44MTE0IDAsMCAyMi4wMDksMTQuMTA1IDI0LjkzNiwxNS4wNjMgMy4wNDA2LDAuOTk1MjggMy40MzYyLDAuODY0ODggOC43NDExLC0wLjMyMDE2IDYuNTQzLC0xLjQ2MTYgMjcuNjQ0LC04LjI3OTQgMjguNTI1LC04Ljk5OTcgMCwwIDEuNjc2OCwtMS44NzkgMC4zMjAxNywtMy44ODc0IC0xMC4yNDEsLTIuMzI4NiAtNDEuNDQ1LC01LjI2NjggLTQxLjQ0NSwtNS4yNjY4IGwgLTEyLjY3MywtMC4wMzg4IHoiLz4mI3hhOyAgICAgICAgPHBhdGggaWQ9InBhdGg4MyIgZmlsbD0iI2FlYzM4OCIgZD0ibSA4MjAuODgsNDQ1LjU5IGMgNC4zMDE0LC0wLjkwNTU1IDE3Ljg2MywtNC45MDQ1IDI2LjAzNSwtNy40NzA4IDMuNjg5NSwtMC45NjU0OSA0Ljg4OTMsLTIuNTYxMyAyLjQ5MDMsLTQuMDc1IC0zLjQzOTQsLTIuMTcwMSAtMTYuMjQzLC04Ljg4NTcgLTIzLjc3MSwtMTEuOTk5IC0yLjg4NTEsLTEuMDMxOCAtMy4wMzAyLC0wLjk3MTg3IC02LjMzODksLTAuNDUyNzkgLTcuNDExLDEuMTYyNiAtMzAuNjY4LDcuMzc3MSAtMzAuNjY4LDcuMzc3MSAwLDAgLTEuNDY1OCwwLjI5MjY4IC0xLjAxMywxLjY1MSAwLjQ1Mjc3LDEuMzU4MyAyNS40ODYsMTUuMjc2IDI1LjQ4NiwxNS4yNzYgMi4wODI4LDAuNjYzNDkgNC4wMDExLDAuNzg3NTQgNy43Nzk2LC0wLjMwNjQzIHoiLz4mI3hhOyAgICAgIDwvZz4mI3hhOyAgICAgIDxnIGlkPSJnOTkiIHRyYW5zZm9ybT0ibWF0cml4KDEuMjg4NCwwLjIzNTgxLC0wLjIzNTgxLDEuMjg4NCwtMjQuNzYsLTI5NC45NCkiIHN0cm9rZS13aWR0aD0iMC4zIiBzdHJva2U9IiMwMDAwMDAiIGZpbGwtcnVsZT0iZXZlbm9kZCIgZmlsbD0iI2YzYjg2OSI+JiN4YTsgICAgICAgIDxwYXRoIGlkPSJwYXRoODciIGQ9Im0gNjk3LjgxLDQzMi45MiBjIC05LjU4OSwwLjUwNjYyIC0xOC4wNTYsMS43MjQ4IC0yNC45NjgsMy44NzUgLTYuOTEyLDIuMTUwMiAtMTIuMzk0LDUuMzI0MiAtMTUuNzcsOS43MTg4IGwgMC45MDUyNSwwLjA5MzcgYyAzLjAyNjMsLTMuOTM5MiA3Ljk0MDUsLTYuODI2NSAxNC42MjYsLTguOTA2MiA2LjY4NTgsLTIuMDc5OCAxNS4wMzEsLTMuMjc3NyAyNC41NjEsLTMuNzgxMiA5LjA4MTMsLTAuNTE2NDYgMjQuNDM2LDQuODM1NSAxMi45NTQsMTcgLTcuMDMyNiw0LjQ3NCAtMTQuMzg2LDcuMjkyNiAtMjEuNDE2LDkuNjU2MiAtMTIuNDAzLDMuOTA4NiAtMjYuODU2LDUuNzc5NiAtMzYuNDU1LC0wLjM0Mzc1IGwgLTEuMDQxMywwLjkzNzUgYyA5Ljc5ODcsNi4yNTEgMjQuNTk2LDQuMzI3IDM3LjIzNiwwLjM0Mzc1IDcuMjIwOSwtMi4zMTgxIDE0Ljc1MywtNS40MjcyIDIxLjk4MSwtOS45Mzc1IDEzLjI3NCwtMTMuNTE3IC0zLjA4MjMsLTE4LjQ5NyAtMTIuNjEzLC0xOC42NTYgeiIvPiYjeGE7ICAgICAgICA8cGF0aCBpZD0icGF0aDg5IiBkPSJtIDY3MC40Niw0NjUuMjQgYyA5LjY4NiwtMC42NjQ1OCAxOC4yMiwtMi4wMTMyIDI1LjE1NywtNC4yNTY0IDYuOTM3NiwtMi4yNDMyIDEyLjQwMywtNS40NzM3IDE1LjcwOCwtOS44NzQ0IGwgLTAuOTE3OTQsLTAuMDc3MiBjIC0yLjk2MjcsMy45NDQ4IC03Ljg2MTEsNi44ODIyIC0xNC41NzIsOS4wNTE4IC02LjcxMDksMi4xNjk2IC0xNS4xMjEsMy40OTYyIC0yNC43NDgsNC4xNTY3IC05LjE3MjIsMC42NjU2MyAtMjQuODM2LC00LjM2MTEgLTEzLjUyNiwtMTYuNTc5IDcuMDAxNCwtNC41NDE4IDE0LjM2OSwtNy40NTMgMjEuNDIsLTkuOTA5MSAxMi40NDgsLTQuMDc0OCAyNy4wMTksLTYuMTcwOSAzNi44OCwtMC4yODM0IGwgMS4wMjk4LC0wLjk0NDMgYyAtMTAuMDY3LC02LjAxMDIgLTI0Ljk4NSwtMy44NTU5IC0zNy42NywwLjI5Njc1IC03LjI0NTcsMi40MTQ0IC0xNC43ODYsNS42MTU4IC0yMS45ODUsMTAuMTk3IC0xMy4wODksMTMuNTg1IDMuNTc4OCwxOC4yMjcgMTMuMjIzLDE4LjIyMiB6Ii8+JiN4YTsgICAgICAgIDxwYXRoIGlkPSJwYXRoOTEiIGQ9Im0gNzAwLjgzLDQzMy45NyBjIC03Ljk5MTYsLTEuNjUyOCAtMTUuMzA5LC0yLjI0MTIgLTIxLjY3NCwtMS40MTU3IC02LjM2NSwwLjgyNTUxIC0xMS45MSwzLjEzOTYgLTE2LjE1MSw3LjMyMTUgbCAwLjcwNjUzLDAuMzE1OTkgYyAzLjgwMTUsLTMuNzQ4NiA4Ljc4NjYsLTUuODcwNSAxNC45NDMsLTYuNjY4OSA2LjE1NjUsLTAuNzk4NDUgMTMuMzY4LC0wLjIxNTUyIDIxLjMxLDEuNDI3MSA3LjU4MDksMS41MjM4IDE4LjI5MSwxMS4xMzQgNC44MDk0LDIyLjIxNCAtNy4yNDk3LDMuNDIzMiAtMTQuMjAxLDQuOTAxNCAtMjAuNzM0LDUuOTQwOSAtMTEuNDM4LDEuNTM4IC0yMy44NTgsMC4yOTgzNCAtMjkuNjEzLC04Ljg0NzggbCAtMS4xNjY1LDAuODE3NjMgYyA1Ljg3NSw5LjMzNjcgMTguNTk0LDEwLjU5NiAzMC4yNSw5LjAyOTEgNi42NzM2LC0wLjk0MzU0IDEzLjg2OSwtMi43MDg2IDIxLjI5LC02LjEyNzQgMTUuNDAxLC0xMi4xOTIgMy43NDc4LC0yMS42MTUgLTMuOTcxLC0yNC4wMDYgeiIvPiYjeGE7ICAgICAgICA8cGF0aCBpZD0icGF0aDkzIiBkPSJtIDY5OC42NCw0MzMuMTIgYyAtOS4yOTgsMC4wNTY4IC0xNy41NjMsMC45MDIyMSAtMjQuMzkyLDIuNzg0OCAtNi44MjksMS44ODI2IC0xMi4zNDksNC44OTEgLTE1LjkyMiw5LjI2MDkgbCAwLjg2Nzc1LDAuMTQwNzEgYyAzLjIwMjQsLTMuOTE3MiA4LjE1MzcsLTYuNjU3MiAxNC43NTksLTguNDc4MiA2LjYwNTMsLTEuODIwOSAxNC43NTEsLTIuNjUxNCAyMy45OTIsLTIuNzA3OSA4LjgwODMsLTAuMDkxNiAyMy4yNiw2LjE3NjIgMTEuMzA3LDE4LjE2OSAtNy4xMDk5LDQuMjc0MyAtMTQuNDEzLDYuODI1IC0yMS4zNyw4LjkyMjEgLTEyLjI1NywzLjQzIC0yNi4zNSw0LjY1ODIgLTM1LjE4OCwtMi4xMjU5IGwgLTEuMDcyMiwwLjkxNjY1IGMgOS4wMjE2LDYuOTI1NCAyMy40NSw1LjY1OTMgMzUuOTQyLDIuMTYzOCA3LjEzOTEsLTIuMDQwOCAxNC42MzUsLTQuODgyNiAyMS45MzYsLTkuMTg0OCAxMy43OCwtMTMuMzAxIC0xLjY2NjIsLTE5LjIzNCAtMTAuODYxLC0xOS44NjEgeiIvPiYjeGE7ICAgICAgICA8cGF0aCBpZD0icGF0aDk1IiBkPSJtIDY2OC4zOCw0NjQuNDMgYyA4LjQ1ODEsMS4wODg4IDE2LjEyLDEuMjAxMSAyMi42NjQsMC4wMTk4IDYuNTQ0MiwtMS4xODEzIDEyLjEwMiwtMy43MzU5IDE2LjEzNiwtNy45OTY2IGwgLTAuNzYzMDIsLTAuMjU4NzMgYyAtMy42MTYyLDMuODE5MiAtOC42MDkxLDYuMTU1NCAtMTQuOTM5LDcuMjk4MSAtNi4zMjk4LDEuMTQyNiAtMTMuODgsMS4wMjkgLTIyLjI4NywtMC4wNTMxIC04LjAxOTQsLTAuOTkwNzEgLTIwLjAxOSwtOS41MjI3IC02Ljk5NTcsLTIwLjk1IDcuMjMwOSwtMy43MjAzIDE0LjMyNiwtNS41NjE5IDIxLjAyNSwtNi45NTgyIDExLjc1NSwtMi4xNzUxIDI0Ljc4MSwtMS43NTQgMzEuNTg2LDYuNjM5MiBsIDEuMTM5NSwtMC44NTM4IGMgLTYuOTQ3MywtOC41NjggLTIwLjI4NSwtOC45OSAtMzIuMjY1LC02Ljc3MzMgLTYuODU0NCwxLjMxMzIgLTE0LjE3OCwzLjQ0NDIgLTIxLjU4Nyw3LjE3MDkgLTE0LjkxOSwxMi42MDkgLTEuOTU1OSwyMC45MDMgNi4yODQ4LDIyLjcxNSB6Ii8+JiN4YTsgICAgICAgIDxwYXRoIGlkPSJwYXRoOTciIGQ9Im0gNjYyLjQxLDQ2NS44MiBjIDguMTY4MSwxLjA4ODggMTUuOCwxLjIwMTEgMjIuNjU5LDAuMDE5OCA2Ljg1ODgsLTEuMTgxMyAyMS44MjQsLTkuMzM1MSAyNS42MTMsLTE0LjMxIGwgLTAuNjk0MTIsLTAuMjU4NzMgYyAtMy44ODgyLDUuMTU4NSAtMTcuNTk1LDEyLjQ2OSAtMjQuMjI5LDEzLjYxMiAtNi42MzQxLDEuMTQyNiAtMTQuMTU0LDEuMDI5IC0yMi4yNzIsLTAuMDUzMSAtNy43NTU2LC0wLjk5MDcxIC0xNy40ODMsLTkuNTIyNyAtMS40MTY1LC0yMC45NSA4LjIyMTYsLTMuNzIwMyAxNS44MDcsLTUuNTYxOSAyMi44NzgsLTYuOTU4MiAxMi4zMzUsLTIuMTc1MSAyNS4yNDgsLTEuNzU0IDI5LjgxOCw2LjYzOTIgbCAxLjM2NjksLTAuODUzOCBjIC00LjY2NTUsLTguNTY4IC0xNy44OTEsLTguOTkgLTMwLjQ2MSwtNi43NzMzIC03LjIwNDIsMS4zMTMyIC0xNS4wOTUsMy40NDQyIC0yMy40OTcsNy4xNzA5IC0xOC4yNzcsMTIuNjA5IC03LjUyMjcsMjAuOTAzIDAuMjM1NCwyMi43MTUgeiIvPiYjeGE7ICAgICAgPC9nPiYjeGE7ICAgICAgPGcgaWQ9ImcxMTMiIHRyYW5zZm9ybT0ibWF0cml4KC0xLjI4ODQsLTAuMjM1ODEsMC4yMzU4MSwtMS4yODg0LDE1MTguMiwxMTkxLjYpIiBzdHJva2Utd2lkdGg9IjAuMyIgc3Ryb2tlPSIjMDAwMDAwIiBmaWxsLXJ1bGU9ImV2ZW5vZGQiIGZpbGw9IiNmM2I4NjkiPiYjeGE7ICAgICAgICA8cGF0aCBpZD0icGF0aDEwMSIgZD0ibSA2OTcuODEsNDMyLjkyIGMgLTkuNTg5LDAuNTA2NjIgLTE4LjA1NiwxLjcyNDggLTI0Ljk2OCwzLjg3NSAtNi45MTIsMi4xNTAyIC0xMi4zOTQsNS4zMjQyIC0xNS43Nyw5LjcxODggbCAwLjkwNTI1LDAuMDkzNyBjIDMuMDI2MywtMy45MzkyIDcuOTQwNSwtNi44MjY1IDE0LjYyNiwtOC45MDYyIDYuNjg1OCwtMi4wNzk4IDE1LjAzMSwtMy4yNzc3IDI0LjU2MSwtMy43ODEyIDkuMDgxMywtMC41MTY0NiAyNC40MzYsNC44MzU1IDEyLjk1NCwxNyAtNy4wMzI2LDQuNDc0IC0xNC4zODYsNy4yOTI2IC0yMS40MTYsOS42NTYyIC0xMi40MDMsMy45MDg2IC0yNi44NTYsNS43Nzk2IC0zNi40NTUsLTAuMzQzNzUgbCAtMS4wNDEzLDAuOTM3NSBjIDkuNzk4Nyw2LjI1MSAyNC41OTYsNC4zMjcgMzcuMjM2LDAuMzQzNzUgNy4yMjA5LC0yLjMxODEgMTQuNzUzLC01LjQyNzIgMjEuOTgxLC05LjkzNzUgMTMuMjc0LC0xMy41MTcgLTMuMDgyMywtMTguNDk3IC0xMi42MTMsLTE4LjY1NiB6Ii8+JiN4YTsgICAgICAgIDxwYXRoIGlkPSJwYXRoMTAzIiBkPSJtIDY3MC40Niw0NjUuMjQgYyA5LjY4NiwtMC42NjQ1OCAxOC4yMiwtMi4wMTMyIDI1LjE1NywtNC4yNTY0IDYuOTM3NiwtMi4yNDMyIDEyLjQwMywtNS40NzM3IDE1LjcwOCwtOS44NzQ0IGwgLTAuOTE3OTQsLTAuMDc3MiBjIC0yLjk2MjcsMy45NDQ4IC03Ljg2MTEsNi44ODIyIC0xNC41NzIsOS4wNTE4IC02LjcxMDksMi4xNjk2IC0xNS4xMjEsMy40OTYyIC0yNC43NDgsNC4xNTY3IC05LjE3MjIsMC42NjU2MyAtMjQuODM2LC00LjM2MTEgLTEzLjUyNiwtMTYuNTc5IDcuMDAxNCwtNC41NDE4IDE0LjM2OSwtNy40NTMgMjEuNDIsLTkuOTA5MSAxMi40NDgsLTQuMDc0OCAyNy4wMTksLTYuMTcwOSAzNi44OCwtMC4yODM0IGwgMS4wMjk4LC0wLjk0NDMgYyAtMTAuMDY3LC02LjAxMDIgLTI0Ljk4NSwtMy44NTU5IC0zNy42NywwLjI5Njc1IC03LjI0NTcsMi40MTQ0IC0xNC43ODYsNS42MTU4IC0yMS45ODUsMTAuMTk3IC0xMy4wODksMTMuNTg1IDMuNTc4OCwxOC4yMjcgMTMuMjIzLDE4LjIyMiB6Ii8+JiN4YTsgICAgICAgIDxwYXRoIGlkPSJwYXRoMTA1IiBkPSJtIDcwMC44Myw0MzMuOTcgYyAtNy45OTE2LC0xLjY1MjggLTE1LjMwOSwtMi4yNDEyIC0yMS42NzQsLTEuNDE1NyAtNi4zNjUsMC44MjU1MSAtMTEuOTEsMy4xMzk2IC0xNi4xNTEsNy4zMjE1IGwgMC43MDY1MywwLjMxNTk5IGMgMy44MDE1LC0zLjc0ODYgOC43ODY2LC01Ljg3MDUgMTQuOTQzLC02LjY2ODkgNi4xNTY1LC0wLjc5ODQ1IDEzLjM2OCwtMC4yMTU1MiAyMS4zMSwxLjQyNzEgNy41ODA5LDEuNTIzOCAxOC4yOTEsMTEuMTM0IDQuODA5NCwyMi4yMTQgLTcuMjQ5NywzLjQyMzIgLTE0LjIwMSw0LjkwMTQgLTIwLjczNCw1Ljk0MDkgLTExLjQzOCwxLjUzOCAtMjMuODU4LDAuMjk4MzQgLTI5LjYxMywtOC44NDc4IGwgLTEuMTY2NSwwLjgxNzYzIGMgNS44NzUsOS4zMzY3IDE4LjU5NCwxMC41OTYgMzAuMjUsOS4wMjkxIDYuNjczNiwtMC45NDM1NCAxMy44NjksLTIuNzA4NiAyMS4yOSwtNi4xMjc0IDE1LjQwMSwtMTIuMTkyIDMuNzQ3OCwtMjEuNjE1IC0zLjk3MSwtMjQuMDA2IHoiLz4mI3hhOyAgICAgICAgPHBhdGggaWQ9InBhdGgxMDciIGQ9Im0gNjk4LjY0LDQzMy4xMiBjIC05LjI5OCwwLjA1NjggLTE3LjU2MywwLjkwMjIxIC0yNC4zOTIsMi43ODQ4IC02LjgyOSwxLjg4MjYgLTEyLjM0OSw0Ljg5MSAtMTUuOTIyLDkuMjYwOSBsIDAuODY3NzUsMC4xNDA3MSBjIDMuMjAyNCwtMy45MTcyIDguMTUzNywtNi42NTcyIDE0Ljc1OSwtOC40NzgyIDYuNjA1MywtMS44MjA5IDE0Ljc1MSwtMi42NTE0IDIzLjk5MiwtMi43MDc5IDguODA4MywtMC4wOTE2IDIzLjI2LDYuMTc2MiAxMS4zMDcsMTguMTY5IC03LjEwOTksNC4yNzQzIC0xNC40MTMsNi44MjUgLTIxLjM3LDguOTIyMSAtMTIuMjU3LDMuNDMgLTI2LjM1LDQuNjU4MiAtMzUuMTg4LC0yLjEyNTkgbCAtMS4wNzIyLDAuOTE2NjUgYyA5LjAyMTYsNi45MjU0IDIzLjQ1LDUuNjU5MyAzNS45NDIsMi4xNjM4IDcuMTM5MSwtMi4wNDA4IDE0LjYzNSwtNC44ODI2IDIxLjkzNiwtOS4xODQ4IDEzLjc4LC0xMy4zMDEgLTEuNjY2MiwtMTkuMjM0IC0xMC44NjEsLTE5Ljg2MSB6Ii8+JiN4YTsgICAgICAgIDxwYXRoIGlkPSJwYXRoMTA5IiBkPSJtIDY2OC4zOCw0NjQuNDMgYyA4LjQ1ODEsMS4wODg4IDE2LjEyLDEuMjAxMSAyMi42NjQsMC4wMTk4IDYuNTQ0MiwtMS4xODEzIDEyLjEwMiwtMy43MzU5IDE2LjEzNiwtNy45OTY2IGwgLTAuNzYzMDIsLTAuMjU4NzMgYyAtMy42MTYyLDMuODE5MiAtOC42MDkxLDYuMTU1NCAtMTQuOTM5LDcuMjk4MSAtNi4zMjk4LDEuMTQyNiAtMTMuODgsMS4wMjkgLTIyLjI4NywtMC4wNTMxIC04LjAxOTQsLTAuOTkwNzEgLTIwLjAxOSwtOS41MjI3IC02Ljk5NTcsLTIwLjk1IDcuMjMwOSwtMy43MjAzIDE0LjMyNiwtNS41NjE5IDIxLjAyNSwtNi45NTgyIDExLjc1NSwtMi4xNzUxIDI0Ljc4MSwtMS43NTQgMzEuNTg2LDYuNjM5MiBsIDEuMTM5NSwtMC44NTM4IGMgLTYuOTQ3MywtOC41NjggLTIwLjI4NSwtOC45OSAtMzIuMjY1LC02Ljc3MzMgLTYuODU0NCwxLjMxMzIgLTE0LjE3OCwzLjQ0NDIgLTIxLjU4Nyw3LjE3MDkgLTE0LjkxOSwxMi42MDkgLTEuOTU1OSwyMC45MDMgNi4yODQ4LDIyLjcxNSB6Ii8+JiN4YTsgICAgICAgIDxwYXRoIGlkPSJwYXRoMTExIiBkPSJtIDY2Mi40MSw0NjUuODIgYyA4LjE2ODEsMS4wODg4IDE1LjgsMS4yMDExIDIyLjY1OSwwLjAxOTggNi44NTg4LC0xLjE4MTMgMjEuODI0LC05LjMzNTEgMjUuNjEzLC0xNC4zMSBsIC0wLjY5NDEyLC0wLjI1ODczIGMgLTMuODg4Miw1LjE1ODUgLTE3LjU5NSwxMi40NjkgLTI0LjIyOSwxMy42MTIgLTYuNjM0MSwxLjE0MjYgLTE0LjE1NCwxLjAyOSAtMjIuMjcyLC0wLjA1MzEgLTcuNzU1NiwtMC45OTA3MSAtMTcuNDgzLC05LjUyMjcgLTEuNDE2NSwtMjAuOTUgOC4yMjE2LC0zLjcyMDMgMTUuODA3LC01LjU2MTkgMjIuODc4LC02Ljk1ODIgMTIuMzM1LC0yLjE3NTEgMjUuMjQ4LC0xLjc1NCAyOS44MTgsNi42MzkyIGwgMS4zNjY5LC0wLjg1MzggYyAtNC42NjU1LC04LjU2OCAtMTcuODkxLC04Ljk5IC0zMC40NjEsLTYuNzczMyAtNy4yMDQyLDEuMzEzMiAtMTUuMDk1LDMuNDQ0MiAtMjMuNDk3LDcuMTcwOSAtMTguMjc3LDEyLjYwOSAtNy41MjI3LDIwLjkwMyAwLjIzNTQsMjIuNzE1IHoiLz4mI3hhOyAgICAgIDwvZz4mI3hhOyAgICAgIDxnIGlkPSJnMTI3IiB0cmFuc2Zvcm09Im1hdHJpeCgtMS4yODg0LC0wLjIzNTgxLDAuMjM1ODEsLTEuMjg4NCwxNTI3LjYsMTE4OC44KSIgc3Ryb2tlLXdpZHRoPSIwLjMiIHN0cm9rZT0iIzAwMDAwMCIgZmlsbC1ydWxlPSJldmVub2RkIiBmaWxsPSIjZjNiODY5Ij4mI3hhOyAgICAgICAgPHBhdGggaWQ9InBhdGgxMTUiIGQ9Im0gNjk3LjgxLDQzMi45MiBjIC05LjU4OSwwLjUwNjYyIC0xOC4wNTYsMS43MjQ4IC0yNC45NjgsMy44NzUgLTYuOTEyLDIuMTUwMiAtMTIuMzk0LDUuMzI0MiAtMTUuNzcsOS43MTg4IGwgMC45MDUyNSwwLjA5MzcgYyAzLjAyNjMsLTMuOTM5MiA3Ljk0MDUsLTYuODI2NSAxNC42MjYsLTguOTA2MiA2LjY4NTgsLTIuMDc5OCAxNS4wMzEsLTMuMjc3NyAyNC41NjEsLTMuNzgxMiA5LjA4MTMsLTAuNTE2NDYgMjQuNDM2LDQuODM1NSAxMi45NTQsMTcgLTcuMDMyNiw0LjQ3NCAtMTQuMzg2LDcuMjkyNiAtMjEuNDE2LDkuNjU2MiAtMTIuNDAzLDMuOTA4NiAtMjYuODU2LDUuNzc5NiAtMzYuNDU1LC0wLjM0Mzc1IGwgLTEuMDQxMywwLjkzNzUgYyA5Ljc5ODcsNi4yNTEgMjQuNTk2LDQuMzI3IDM3LjIzNiwwLjM0Mzc1IDcuMjIwOSwtMi4zMTgxIDE0Ljc1MywtNS40MjcyIDIxLjk4MSwtOS45Mzc1IDEzLjI3NCwtMTMuNTE3IC0zLjA4MjMsLTE4LjQ5NyAtMTIuNjEzLC0xOC42NTYgeiIvPiYjeGE7ICAgICAgICA8cGF0aCBpZD0icGF0aDExNyIgZD0ibSA2NzAuNDYsNDY1LjI0IGMgOS42ODYsLTAuNjY0NTggMTguMjIsLTIuMDEzMiAyNS4xNTcsLTQuMjU2NCA2LjkzNzYsLTIuMjQzMiAxMi40MDMsLTUuNDczNyAxNS43MDgsLTkuODc0NCBsIC0wLjkxNzk0LC0wLjA3NzIgYyAtMi45NjI3LDMuOTQ0OCAtNy44NjExLDYuODgyMiAtMTQuNTcyLDkuMDUxOCAtNi43MTA5LDIuMTY5NiAtMTUuMTIxLDMuNDk2MiAtMjQuNzQ4LDQuMTU2NyAtOS4xNzIyLDAuNjY1NjMgLTI0LjgzNiwtNC4zNjExIC0xMy41MjYsLTE2LjU3OSA3LjAwMTQsLTQuNTQxOCAxNC4zNjksLTcuNDUzIDIxLjQyLC05LjkwOTEgMTIuNDQ4LC00LjA3NDggMjcuMDE5LC02LjE3MDkgMzYuODgsLTAuMjgzNCBsIDEuMDI5OCwtMC45NDQzIGMgLTEwLjA2NywtNi4wMTAyIC0yNC45ODUsLTMuODU1OSAtMzcuNjcsMC4yOTY3NSAtNy4yNDU3LDIuNDE0NCAtMTQuNzg2LDUuNjE1OCAtMjEuOTg1LDEwLjE5NyAtMTMuMDg5LDEzLjU4NSAzLjU3ODgsMTguMjI3IDEzLjIyMywxOC4yMjIgeiIvPiYjeGE7ICAgICAgICA8cGF0aCBpZD0icGF0aDExOSIgZD0ibSA3MDAuODMsNDMzLjk3IGMgLTcuOTkxNiwtMS42NTI4IC0xNS4zMDksLTIuMjQxMiAtMjEuNjc0LC0xLjQxNTcgLTYuMzY1LDAuODI1NTEgLTExLjkxLDMuMTM5NiAtMTYuMTUxLDcuMzIxNSBsIDAuNzA2NTMsMC4zMTU5OSBjIDMuODAxNSwtMy43NDg2IDguNzg2NiwtNS44NzA1IDE0Ljk0MywtNi42Njg5IDYuMTU2NSwtMC43OTg0NSAxMy4zNjgsLTAuMjE1NTIgMjEuMzEsMS40MjcxIDcuNTgwOSwxLjUyMzggMTguMjkxLDExLjEzNCA0LjgwOTQsMjIuMjE0IC03LjI0OTcsMy40MjMyIC0xNC4yMDEsNC45MDE0IC0yMC43MzQsNS45NDA5IC0xMS40MzgsMS41MzggLTIzLjg1OCwwLjI5ODM0IC0yOS42MTMsLTguODQ3OCBsIC0xLjE2NjUsMC44MTc2MyBjIDUuODc1LDkuMzM2NyAxOC41OTQsMTAuNTk2IDMwLjI1LDkuMDI5MSA2LjY3MzYsLTAuOTQzNTQgMTMuODY5LC0yLjcwODYgMjEuMjksLTYuMTI3NCAxNS40MDEsLTEyLjE5MiAzLjc0NzgsLTIxLjYxNSAtMy45NzEsLTI0LjAwNiB6Ii8+JiN4YTsgICAgICAgIDxwYXRoIGlkPSJwYXRoMTIxIiBkPSJtIDY5OC42NCw0MzMuMTIgYyAtOS4yOTgsMC4wNTY4IC0xNy41NjMsMC45MDIyMSAtMjQuMzkyLDIuNzg0OCAtNi44MjksMS44ODI2IC0xMi4zNDksNC44OTEgLTE1LjkyMiw5LjI2MDkgbCAwLjg2Nzc1LDAuMTQwNzEgYyAzLjIwMjQsLTMuOTE3MiA4LjE1MzcsLTYuNjU3MiAxNC43NTksLTguNDc4MiA2LjYwNTMsLTEuODIwOSAxNC43NTEsLTIuNjUxNCAyMy45OTIsLTIuNzA3OSA4LjgwODMsLTAuMDkxNiAyMy4yNiw2LjE3NjIgMTEuMzA3LDE4LjE2OSAtNy4xMDk5LDQuMjc0MyAtMTQuNDEzLDYuODI1IC0yMS4zNyw4LjkyMjEgLTEyLjI1NywzLjQzIC0yNi4zNSw0LjY1ODIgLTM1LjE4OCwtMi4xMjU5IGwgLTEuMDcyMiwwLjkxNjY1IGMgOS4wMjE2LDYuOTI1NCAyMy40NSw1LjY1OTMgMzUuOTQyLDIuMTYzOCA3LjEzOTEsLTIuMDQwOCAxNC42MzUsLTQuODgyNiAyMS45MzYsLTkuMTg0OCAxMy43OCwtMTMuMzAxIC0xLjY2NjIsLTE5LjIzNCAtMTAuODYxLC0xOS44NjEgeiIvPiYjeGE7ICAgICAgICA8cGF0aCBpZD0icGF0aDEyMyIgZD0ibSA2NjguMzgsNDY0LjQzIGMgOC40NTgxLDEuMDg4OCAxNi4xMiwxLjIwMTEgMjIuNjY0LDAuMDE5OCA2LjU0NDIsLTEuMTgxMyAxMi4xMDIsLTMuNzM1OSAxNi4xMzYsLTcuOTk2NiBsIC0wLjc2MzAyLC0wLjI1ODczIGMgLTMuNjE2MiwzLjgxOTIgLTguNjA5MSw2LjE1NTQgLTE0LjkzOSw3LjI5ODEgLTYuMzI5OCwxLjE0MjYgLTEzLjg4LDEuMDI5IC0yMi4yODcsLTAuMDUzMSAtOC4wMTk0LC0wLjk5MDcxIC0yMC4wMTksLTkuNTIyNyAtNi45OTU3LC0yMC45NSA3LjIzMDksLTMuNzIwMyAxNC4zMjYsLTUuNTYxOSAyMS4wMjUsLTYuOTU4MiAxMS43NTUsLTIuMTc1MSAyNC43ODEsLTEuNzU0IDMxLjU4Niw2LjYzOTIgbCAxLjEzOTUsLTAuODUzOCBjIC02Ljk0NzMsLTguNTY4IC0yMC4yODUsLTguOTkgLTMyLjI2NSwtNi43NzMzIC02Ljg1NDQsMS4zMTMyIC0xNC4xNzgsMy40NDQyIC0yMS41ODcsNy4xNzA5IC0xNC45MTksMTIuNjA5IC0xLjk1NTksMjAuOTAzIDYuMjg0OCwyMi43MTUgeiIvPiYjeGE7ICAgICAgICA8cGF0aCBpZD0icGF0aDEyNSIgZD0ibSA2NjIuNDEsNDY1LjgyIGMgOC4xNjgxLDEuMDg4OCAxNS44LDEuMjAxMSAyMi42NTksMC4wMTk4IDYuODU4OCwtMS4xODEzIDIxLjgyNCwtOS4zMzUxIDI1LjYxMywtMTQuMzEgbCAtMC42OTQxMiwtMC4yNTg3MyBjIC0zLjg4ODIsNS4xNTg1IC0xNy41OTUsMTIuNDY5IC0yNC4yMjksMTMuNjEyIC02LjYzNDEsMS4xNDI2IC0xNC4xNTQsMS4wMjkgLTIyLjI3MiwtMC4wNTMxIC03Ljc1NTYsLTAuOTkwNzEgLTE3LjQ4MywtOS41MjI3IC0xLjQxNjUsLTIwLjk1IDguMjIxNiwtMy43MjAzIDE1LjgwNywtNS41NjE5IDIyLjg3OCwtNi45NTgyIDEyLjMzNSwtMi4xNzUxIDI1LjI0OCwtMS43NTQgMjkuODE4LDYuNjM5MiBsIDEuMzY2OSwtMC44NTM4IGMgLTQuNjY1NSwtOC41NjggLTE3Ljg5MSwtOC45OSAtMzAuNDYxLC02Ljc3MzMgLTcuMjA0MiwxLjMxMzIgLTE1LjA5NSwzLjQ0NDIgLTIzLjQ5Nyw3LjE3MDkgLTE4LjI3NywxMi42MDkgLTcuNTIyNywyMC45MDMgMC4yMzU0LDIyLjcxNSB6Ii8+JiN4YTsgICAgICA8L2c+JiN4YTsgICAgICA8ZyBpZD0iZzE0MSIgdHJhbnNmb3JtPSJtYXRyaXgoLTEuMjg4NCwtMC4yMzU4MSwwLjIzNTgxLC0xLjI4ODQsMTUyOS40LDExOTMpIiBzdHJva2Utd2lkdGg9IjAuMyIgc3Ryb2tlPSIjMDAwMDAwIiBmaWxsLXJ1bGU9ImV2ZW5vZGQiIGZpbGw9IiNmM2I4NjkiPiYjeGE7ICAgICAgICA8cGF0aCBpZD0icGF0aDEyOSIgZD0ibSA2OTcuODEsNDMyLjkyIGMgLTkuNTg5LDAuNTA2NjIgLTE4LjA1NiwxLjcyNDggLTI0Ljk2OCwzLjg3NSAtNi45MTIsMi4xNTAyIC0xMi4zOTQsNS4zMjQyIC0xNS43Nyw5LjcxODggbCAwLjkwNTI1LDAuMDkzNyBjIDMuMDI2MywtMy45MzkyIDcuOTQwNSwtNi44MjY1IDE0LjYyNiwtOC45MDYyIDYuNjg1OCwtMi4wNzk4IDE1LjAzMSwtMy4yNzc3IDI0LjU2MSwtMy43ODEyIDkuMDgxMywtMC41MTY0NiAyNC40MzYsNC44MzU1IDEyLjk1NCwxNyAtNy4wMzI2LDQuNDc0IC0xNC4zODYsNy4yOTI2IC0yMS40MTYsOS42NTYyIC0xMi40MDMsMy45MDg2IC0yNi44NTYsNS43Nzk2IC0zNi40NTUsLTAuMzQzNzUgbCAtMS4wNDEzLDAuOTM3NSBjIDkuNzk4Nyw2LjI1MSAyNC41OTYsNC4zMjcgMzcuMjM2LDAuMzQzNzUgNy4yMjA5LC0yLjMxODEgMTQuNzUzLC01LjQyNzIgMjEuOTgxLC05LjkzNzUgMTMuMjc0LC0xMy41MTcgLTMuMDgyMywtMTguNDk3IC0xMi42MTMsLTE4LjY1NiB6Ii8+JiN4YTsgICAgICAgIDxwYXRoIGlkPSJwYXRoMTMxIiBkPSJtIDY3MC40Niw0NjUuMjQgYyA5LjY4NiwtMC42NjQ1OCAxOC4yMiwtMi4wMTMyIDI1LjE1NywtNC4yNTY0IDYuOTM3NiwtMi4yNDMyIDEyLjQwMywtNS40NzM3IDE1LjcwOCwtOS44NzQ0IGwgLTAuOTE3OTQsLTAuMDc3MiBjIC0yLjk2MjcsMy45NDQ4IC03Ljg2MTEsNi44ODIyIC0xNC41NzIsOS4wNTE4IC02LjcxMDksMi4xNjk2IC0xNS4xMjEsMy40OTYyIC0yNC43NDgsNC4xNTY3IC05LjE3MjIsMC42NjU2MyAtMjQuODM2LC00LjM2MTEgLTEzLjUyNiwtMTYuNTc5IDcuMDAxNCwtNC41NDE4IDE0LjM2OSwtNy40NTMgMjEuNDIsLTkuOTA5MSAxMi40NDgsLTQuMDc0OCAyNy4wMTksLTYuMTcwOSAzNi44OCwtMC4yODM0IGwgMS4wMjk4LC0wLjk0NDMgYyAtMTAuMDY3LC02LjAxMDIgLTI0Ljk4NSwtMy44NTU5IC0zNy42NywwLjI5Njc1IC03LjI0NTcsMi40MTQ0IC0xNC43ODYsNS42MTU4IC0yMS45ODUsMTAuMTk3IC0xMy4wODksMTMuNTg1IDMuNTc4OCwxOC4yMjcgMTMuMjIzLDE4LjIyMiB6Ii8+JiN4YTsgICAgICAgIDxwYXRoIGlkPSJwYXRoMTMzIiBkPSJtIDcwMC44Myw0MzMuOTcgYyAtNy45OTE2LC0xLjY1MjggLTE1LjMwOSwtMi4yNDEyIC0yMS42NzQsLTEuNDE1NyAtNi4zNjUsMC44MjU1MSAtMTEuOTEsMy4xMzk2IC0xNi4xNTEsNy4zMjE1IGwgMC43MDY1MywwLjMxNTk5IGMgMy44MDE1LC0zLjc0ODYgOC43ODY2LC01Ljg3MDUgMTQuOTQzLC02LjY2ODkgNi4xNTY1LC0wLjc5ODQ1IDEzLjM2OCwtMC4yMTU1MiAyMS4zMSwxLjQyNzEgNy41ODA5LDEuNTIzOCAxOC4yOTEsMTEuMTM0IDQuODA5NCwyMi4yMTQgLTcuMjQ5NywzLjQyMzIgLTE0LjIwMSw0LjkwMTQgLTIwLjczNCw1Ljk0MDkgLTExLjQzOCwxLjUzOCAtMjMuODU4LDAuMjk4MzQgLTI5LjYxMywtOC44NDc4IGwgLTEuMTY2NSwwLjgxNzYzIGMgNS44NzUsOS4zMzY3IDE4LjU5NCwxMC41OTYgMzAuMjUsOS4wMjkxIDYuNjczNiwtMC45NDM1NCAxMy44NjksLTIuNzA4NiAyMS4yOSwtNi4xMjc0IDE1LjQwMSwtMTIuMTkyIDMuNzQ3OCwtMjEuNjE1IC0zLjk3MSwtMjQuMDA2IHoiLz4mI3hhOyAgICAgICAgPHBhdGggaWQ9InBhdGgxMzUiIGQ9Im0gNjk4LjY0LDQzMy4xMiBjIC05LjI5OCwwLjA1NjggLTE3LjU2MywwLjkwMjIxIC0yNC4zOTIsMi43ODQ4IC02LjgyOSwxLjg4MjYgLTEyLjM0OSw0Ljg5MSAtMTUuOTIyLDkuMjYwOSBsIDAuODY3NzUsMC4xNDA3MSBjIDMuMjAyNCwtMy45MTcyIDguMTUzNywtNi42NTcyIDE0Ljc1OSwtOC40NzgyIDYuNjA1MywtMS44MjA5IDE0Ljc1MSwtMi42NTE0IDIzLjk5MiwtMi43MDc5IDguODA4MywtMC4wOTE2IDIzLjI2LDYuMTc2MiAxMS4zMDcsMTguMTY5IC03LjEwOTksNC4yNzQzIC0xNC40MTMsNi44MjUgLTIxLjM3LDguOTIyMSAtMTIuMjU3LDMuNDMgLTI2LjM1LDQuNjU4MiAtMzUuMTg4LC0yLjEyNTkgbCAtMS4wNzIyLDAuOTE2NjUgYyA5LjAyMTYsNi45MjU0IDIzLjQ1LDUuNjU5MyAzNS45NDIsMi4xNjM4IDcuMTM5MSwtMi4wNDA4IDE0LjYzNSwtNC44ODI2IDIxLjkzNiwtOS4xODQ4IDEzLjc4LC0xMy4zMDEgLTEuNjY2MiwtMTkuMjM0IC0xMC44NjEsLTE5Ljg2MSB6Ii8+JiN4YTsgICAgICAgIDxwYXRoIGlkPSJwYXRoMTM3IiBkPSJtIDY2OC4zOCw0NjQuNDMgYyA4LjQ1ODEsMS4wODg4IDE2LjEyLDEuMjAxMSAyMi42NjQsMC4wMTk4IDYuNTQ0MiwtMS4xODEzIDEyLjEwMiwtMy43MzU5IDE2LjEzNiwtNy45OTY2IGwgLTAuNzYzMDIsLTAuMjU4NzMgYyAtMy42MTYyLDMuODE5MiAtOC42MDkxLDYuMTU1NCAtMTQuOTM5LDcuMjk4MSAtNi4zMjk4LDEuMTQyNiAtMTMuODgsMS4wMjkgLTIyLjI4NywtMC4wNTMxIC04LjAxOTQsLTAuOTkwNzEgLTIwLjAxOSwtOS41MjI3IC02Ljk5NTcsLTIwLjk1IDcuMjMwOSwtMy43MjAzIDE0LjMyNiwtNS41NjE5IDIxLjAyNSwtNi45NTgyIDExLjc1NSwtMi4xNzUxIDI0Ljc4MSwtMS43NTQgMzEuNTg2LDYuNjM5MiBsIDEuMTM5NSwtMC44NTM4IGMgLTYuOTQ3MywtOC41NjggLTIwLjI4NSwtOC45OSAtMzIuMjY1LC02Ljc3MzMgLTYuODU0NCwxLjMxMzIgLTE0LjE3OCwzLjQ0NDIgLTIxLjU4Nyw3LjE3MDkgLTE0LjkxOSwxMi42MDkgLTEuOTU1OSwyMC45MDMgNi4yODQ4LDIyLjcxNSB6Ii8+JiN4YTsgICAgICAgIDxwYXRoIGlkPSJwYXRoMTM5IiBkPSJtIDY2Mi40MSw0NjUuODIgYyA4LjE2ODEsMS4wODg4IDE1LjgsMS4yMDExIDIyLjY1OSwwLjAxOTggNi44NTg4LC0xLjE4MTMgMjEuODI0LC05LjMzNTEgMjUuNjEzLC0xNC4zMSBsIC0wLjY5NDEyLC0wLjI1ODczIGMgLTMuODg4Miw1LjE1ODUgLTE3LjU5NSwxMi40NjkgLTI0LjIyOSwxMy42MTIgLTYuNjM0MSwxLjE0MjYgLTE0LjE1NCwxLjAyOSAtMjIuMjcyLC0wLjA1MzEgLTcuNzU1NiwtMC45OTA3MSAtMTcuNDgzLC05LjUyMjcgLTEuNDE2NSwtMjAuOTUgOC4yMjE2LC0zLjcyMDMgMTUuODA3LC01LjU2MTkgMjIuODc4LC02Ljk1ODIgMTIuMzM1LC0yLjE3NTEgMjUuMjQ4LC0xLjc1NCAyOS44MTgsNi42MzkyIGwgMS4zNjY5LC0wLjg1MzggYyAtNC42NjU1LC04LjU2OCAtMTcuODkxLC04Ljk5IC0zMC40NjEsLTYuNzczMyAtNy4yMDQyLDEuMzEzMiAtMTUuMDk1LDMuNDQ0MiAtMjMuNDk3LDcuMTcwOSAtMTguMjc3LDEyLjYwOSAtNy41MjI3LDIwLjkwMyAwLjIzNTQsMjIuNzE1IHoiLz4mI3hhOyAgICAgIDwvZz4mI3hhOyAgICAgIDxwYXRoIGlkPSJwYXRoMTQzIiBvcGFjaXR5PSIwLjE1IiBmaWxsLXJ1bGU9ImV2ZW5vZGQiIGQ9Im0gODgyLjU5LDM2Ni40MiBjIC0xNC4wNDcsMC4wOSAtMzIuNDA4LDIuOTcxNCAtMzIuNDA4LDIuOTcxNCBsIC0xODEuODUsNDQuMTc0IC0xMS40MSwzLjM2NzUgMjAuMjA1LDE1Ljc2OCBjIDAsMCAxNTAuMzMsLTQ3LjEwNiAxNzIuMDYsLTQ3LjEwNiAyMS43MzMsMmUtNSA0Ny4wODksLTAuOTExMjEgNTcuMDUsNS40Mjc3IDcuMzQxMSw0LjY3MTYgNTUuODEzLDI1LjAwNSA4MC45LDM1LjQxOCBsIDE2Ljg3NywtNC42MzUzIDE0LjczOCwtNC4xOTk1IC0wLjE1ODUsLTAuODMxOTcgLTM1Ljg1NCwtMTUuMzcyIGMgMCwwIC03Ni44NjIsLTMwLjcxMSAtODguMzg4LC0zMy45MTMgLTIuODgxNCwtMC44MDA0MSAtNy4wODQyLC0xLjA5OTcgLTExLjc2NiwtMS4wNjk3IHoiLz4mI3hhOyAgICAgIDxnIGlkPSJnMTU5IiBzdHJva2Utd2lkdGg9IjAuNjU1IiBzdHJva2U9IiMwMDAwMDAiIGZpbGwtcnVsZT0iZXZlbm9kZCIgZmlsbD0iIzQ4NDUzNyI+JiN4YTsgICAgICAgIDxwYXRoIGlkPSJwYXRoMTQ1IiBkPSJtIDY5MCw0MjcuMjggMzMuMjk3LC02LjcyMzQgMS4yODA3LDEyLjE2NiAtMjguMTc0LDE2LjY0OCAtOC45NjQ1LDEuMjgwNiAxLjI4MDcsLTIzLjM3MiBoIDEuMjgwNiB6Ii8+JiN4YTsgICAgICAgIDxwYXRoIGlkPSJwYXRoMTQ3IiBkPSJtIDY4Mi42NCw0MjQuNCAzNC4yNTcsLTYuNDAzMiA1Ljc2MjksMi41NjEzIC00MC4wMiw4LjY0NDQgdiAtNC44MDI0IHoiLz4mI3hhOyAgICAgICAgPHBhdGggaWQ9InBhdGgxNDkiIGQ9Im0gNzIyLjgyLDQyMC43MiAxLjc2MDksLTIuNTYxMyAtNS45NjI2LC0yLjk2MjQgLTEuODgxNCwyLjMyMiA2LjA4MzEsMy4yMDE2IHoiLz4mI3hhOyAgICAgICAgPHBhdGggaWQ9InBhdGgxNTEiIGQ9Im0gNzM1LjYyLDQyNS44NCA1LjkyMywtMC4xNjAwOCBjIDAsMCAxLjkyMSwzLjA0MTUgNC4xNjIxLDMuMjAxNiAyLjI0MTEsMC4xNjAxIDE4LjU2OSwtMi41NjEzIDIwLjMzLC00Ljk2MjUgMS43NjA5LC0yLjQwMTIgMy4wNDE1LC02LjU2MzMgMy4yMDE2LC05LjEyNDYgMC4xNjAwOCwtMi41NjEzIC0zLjIwMTYsLTkuNDQ0OCAtNy41MjM4LC0xMC41NjUgLTQuMzIyMiwtMS4xMjA2IC00Ljk2MjUsLTAuMzIwMTcgLTQuOTYyNSwtMC4zMjAxNyAwLDAgMy42ODE5LDIuMDgxMSAzLjY4MTksNC45NjI1IDAsMi44ODE1IDEuOTIxLDYuMjQzMiAtMS42MDA4LDYuMjQzMiAtMy41MjE4LDAgLTkuMTI0NiwyLjg4MTQgLTEwLjU2NSwxLjI4MDYgLTEuNDQwNywtMS42MDA4IC0xLjI4MDYsLTMuMDQxNSAxLjkyMSwtNi4wODMxIDMuMjAxNiwtMy4wNDE2IDQuMDAyLC00LjY0MjQgMy4zNjE3LC00LjY0MjQgLTAuNjQwMywwIC0xLjEyMDYsLTEuNjAwOCAtMy42ODE5LC0xLjEyMDYgLTIuNTYxMywwLjQ4MDI1IC05LjEyNDYsNi4yNDMyIC05LjQ0NDgsOC4zMjQyIC0wLjMyMDE3LDIuMDgxMSAtMC40ODAyNSw0LjMyMjIgLTAuNDgwMjUsNC4zMjIyIGggLTYuMjQzMiBsIC0wLjE2MDA3LDcuMzYzNyAyLjA4MSwxLjI4MDYgeiIvPiYjeGE7ICAgICAgICA8cGF0aCBpZD0icGF0aDE1MyIgZD0ibSA3MjguMSw0MzIuMDggYyAyLjYxOTQsNC4wOTY5IDYuNzY0NSwxLjgzMjMgNy4wNDM2LC0xLjc2MDkgMS4xMjA2LC03Ljg0NCAxLjEyMDYsLTE2Ljg4OCAtMC4zMjAxNywtMTkuMTMgLTEuNDQwNywtMi4yNDExIC02LjA0NywtMi41OTgyIC04LjI4ODIsMC43NjM0OCAtMi4yNDExLDMuMzYxNyAxLjU2NDgsMTkuOTY3IDEuNTY0OCwyMC4xMjcgeiIvPiYjeGE7ICAgICAgICA8cGF0aCBpZD0icGF0aDE1NSIgZD0ibSA3MjMuNDYsNDIwLjg4IDEuNjAwOCwxMS41MjYgNC40ODIzLC0yLjg4MTUgMC4xMjIyOCwtMTAuNDQ1IC01LjA4NDgsLTAuNjAwNzUgLTEuMTIwNiwyLjQwMTIgeiIvPiYjeGE7ICAgICAgICA8cGF0aCBpZD0icGF0aDE1NyIgZD0ibSA3MTguODIsNDE0Ljk2IGMgMC42NDAzMywwIDcuMDQsMC44MDA0IDcuMDQsMC44MDA0IGwgMy4zNjUzLDIuODAxNCAtNC4zMjIyLC0wLjcyMDM2IC02LjA4MzEsLTIuODgxNCB6Ii8+JiN4YTsgICAgICA8L2c+JiN4YTsgICAgICA8ZyBpZD0iZzE2NSIgdHJhbnNmb3JtPSJtYXRyaXgoMC43OTcxMywtMC4wMTAxOSwwLjAwNTk3OTQsMC40Njc3NSwxNzcuNywyNzcpIiBzdHJva2Utd2lkdGg9IjEuNSIgc3Ryb2tlPSIjMDAwMDAwIiBmaWxsLXJ1bGU9ImV2ZW5vZGQiIGZpbGw9IiM0ODQ1MzciPiYjeGE7ICAgICAgICA8cmVjdCBpZD0icmVjdDE2MSIgeT0iMzA4Ljg0IiB4PSI2MTUuMDk5OTgiIHdpZHRoPSIyNS43MDk5OTkiIHJ5PSI2LjgwMDAwMDIiIHJ4PSIxMi44NiIgaGVpZ2h0PSIxMDUuNzEiLz4mI3hhOyAgICAgICAgPHBhdGggaWQ9InBhdGgxNjMiIGQ9Im0gNjI4LjA3LDMwOC44NCBjIC02Ljg3MTQsMCAtMTIuNDI3LDIuODI2OCAtMTIuODEyLDYuNDA2MiAxLjI0MDgsMy4wNzA1IDYuMzcyOCw1LjM3NSAxMi41NjIsNS4zNzUgNi44MzMsMCAxMi40MDMsLTIuNzkyOCAxMi44NDQsLTYuMzQzOCAwLjAwMSwtMC4wMSAtMC4wMDEsLTAuMDIxMyAwLC0wLjAzMTIgLTEuMjEzNiwtMy4wODk2IC02LjM3ODUsLTUuNDA2MiAtMTIuNTk0LC01LjQwNjIgeiIvPiYjeGE7ICAgICAgPC9nPiYjeGE7ICAgICAgPHBhdGggaWQ9InBhdGgxNjciIHN0cm9rZS13aWR0aD0iMC42MzQiIHN0cm9rZT0iIzAwMDAwMCIgZmlsbC1ydWxlPSJldmVub2RkIiBmaWxsPSIjZmZlZWFhIiBkPSJtIDYzNi44MywzOTYuMDEgMzMuMDUzLDE2LjMgNy42OTcyLDgzLjc2NCAtMjI0LjEyLDMxLjY5NCAtODQuMjE3LDUuODg2MSA2LjMzODksLTYuMzM4OSA2LjMzODksLTk0LjYzIDIzNy4yNiwtNDEuNjU2IDE3LjY1OCw0Ljk4MDUgeiIvPiYjeGE7ICAgICAgPGcgaWQ9ImcxNzMiIHRyYW5zZm9ybT0ibWF0cml4KDEuMjY3OCwwLDAsMS4yNjc4LC0zMi44MywtMzQzLjY1KSIgc3Ryb2tlPSIjMDAwMDAwIiBmaWxsLXJ1bGU9ImV2ZW5vZGQiPiYjeGE7ICAgICAgICA8cGF0aCBpZD0icGF0aDE2OSIgZmlsbD0iI2UzZGJkYiIgZD0ibSAzODQuMzYsNjE2Ljk5IDE3LjY3OCwtMi43Nzc5IDEuMDEwMiw0LjQxOTQgLTAuNTA1MDgsMjAuNTgyIC0xLjI2MjcsMS4wMTAyIC0xNS4wMjYsMi4yNzI4IC0yLjAyMDMsLTEuMTM2NCAwLjEyNjI3LC0yNC4zNyB6Ii8+JiN4YTsgICAgICAgIDxwYXRoIGlkPSJwYXRoMTcxIiBzdHJva2Utd2lkdGg9IjAuNjg3IiBmaWxsPSIjZmZjYzAwIiBkPSJtIDM4NS44Myw2MTUuNDggYyAtMS4zMzY1LDAuMTgxODUgLTIuNDA2MiwxLjM5NzEgLTIuNDA2MiwyLjczMzYgdiAyMi44MTIgYyAwLDEuMzM2NSAxLjA2OTcsMi4yNjA3IDIuNDA2MiwyLjA3ODkgbCAxNS41LC0yLjEwODkgYyAxLjMzNjUsLTAuMTgxODUgMi40MDYyLC0xLjM5NzEgMi40MDYyLC0yLjczMzYgViA2MTUuNDUgYyAwLC0xLjMzNjUgLTEuMDY5NywtMi4yNjA3IC0yLjQwNjIsLTIuMDc4OSB6IG0gMS4wNjI1LDEuMjkyOSAxMy4zNzUsLTEuODE5OCBjIDEuMTk3OSwtMC4xNjI5OSAyLjE1NjIsMC42NjQ5NSAyLjE1NjIsMS44NjI5IHYgMjAuNDM4IGMgMWUtNSwxLjE5NzkgLTAuOTU4MzMsMi4yODY2IC0yLjE1NjIsMi40NDk2IGwgLTEzLjM3NSwxLjgxOTggYyAtMS4xOTc5LDAuMTYzMDIgLTIuMTU2MiwtMC42NjQ5NSAtMi4xNTYyLC0xLjg2MjkgdiAtMjAuNDM4IGMgMCwtMS4xOTc5IDAuOTU4MzMsLTIuMjg2NiAyLjE1NjIsLTIuNDQ5NiB6Ii8+JiN4YTsgICAgICA8L2c+JiN4YTsgICAgICA8cGF0aCBpZD0icGF0aDE3NSIgc3Ryb2tlLXdpZHRoPSIxLjE5NCIgc3Ryb2tlPSIjMDAwMDAwIiBmaWxsLXJ1bGU9ImV2ZW5vZGQiIGZpbGw9IiNmZmVlYWEiIGQ9Im0gNjM1Ljk5LDM5Mi42MiAwLjIwMDU1LDEwNC44OSAtNDYuNTI5LDYuMTE2NSAtMi42MDcyLC0xMDIuODUgMzUuMDk3LC04LjgzNSAxMy44MzgsMC42Nzk2MiB6Ii8+JiN4YTsgICAgICA8ZyBpZD0iZzE4NSIgdHJhbnNmb3JtPSJtYXRyaXgoMS4xMTM2LC0wLjAwMjQyNDYsMC4wMDIxMjk2LDEuMjY3OCw0OC43NCwtMzQzLjA0KSIgc3Ryb2tlPSIjMDAwMDAwIiBmaWxsPSJub25lIj4mI3hhOyAgICAgICAgPHBhdGggaWQ9InBhdGgxNzciIHN0cm9rZS13aWR0aD0iMi40IiBkPSJtIDUxMi41LDU5My4wOCAtMC43MTQyOCw4NS43MTQiLz4mI3hhOyAgICAgICAgPHBhdGggaWQ9InBhdGgxNzkiIHN0cm9rZS13aWR0aD0iMi40IiBkPSJtIDUyMi4xNCw1ODkuODYgMS43ODU3LDEuMDcxNCB2IDgyLjUiLz4mI3hhOyAgICAgICAgPHBhdGggaWQ9InBhdGgxODEiIHN0cm9rZS13aWR0aD0iMS41IiBkPSJtIDUyMy45NCw1OTIuMzggLTExLjA5NCwxLjA2MjUgeiBtIC0wLjM3NSwxMC42ODggLTExLjA2MiwxLjA5MzggeiBtIC0wLjE1NjI1LDExLjYyNSAtMTEuMjUsMC44NzUgeiBtIDAuMTU2MjUsMTEuNTk0IC0xMS43ODEsMS4wOTM4IHogbSAwLDExLjI1IC0xMS43ODEsMS4yNSB6IG0gMCwxMS4yNSAtMTEuMDYyLDEuMDkzOCB6Ii8+JiN4YTsgICAgICAgIDxwYXRoIGlkPSJwYXRoMTgzIiB0cmFuc2Zvcm09Im1hdHJpeCgxLjEzODUsMC4wMDIxNzczLC0wLjAwMTkxMjQsMSwtNzMuMjUsLTAuNjMpIiBzdHJva2Utd2lkdGg9IjIuMjQ5IiBkPSJtIDUxMy4wNCw1OTAuNTggMi41LDIuNDEwNyIvPiYjeGE7ICAgICAgPC9nPiYjeGE7ICAgICAgPHBhdGggaWQ9InBhdGgxODciIHN0cm9rZS13aWR0aD0iMC42MzQiIHN0cm9rZT0iIzAwMDAwMCIgZmlsbC1ydWxlPSJldmVub2RkIiBmaWxsPSIjZmZlZWFhIiBkPSJtIDYxNy4xLDQwNi41MyAwLjY0MDMzLDkwLjkyNiAtMzIuNjU2LDUuNDQyOCAtMC42NDAzMSwtOTAuOTI2IDMyLjY1NiwtNS40NDI4IHoiLz4mI3hhOyAgICAgIDxwYXRoIGlkPSJwYXRoMTg5IiBzdHJva2Utd2lkdGg9IjAuNjM0IiBzdHJva2U9IiMwMDAwMDAiIGZpbGwtcnVsZT0iZXZlbm9kZCIgZmlsbD0iI2QzYmM1ZiIgZD0ibSA1NDIuMiw0MjEuMzcgMC40NTI3Nyw5Mi4zNjYgNDIuNTYxLC00LjA3NSAtMC45MDU1NCwtOTcuMzQ3IC00Mi4xMDgsNC45ODA1IHYgNC4wNzUgeiIvPiYjeGE7ICAgICAgPHBhdGggaWQ9InBhdGgxOTEiIHN0cm9rZS13aWR0aD0iMC42MzQiIHN0cm9rZT0iIzAwMDAwMCIgZmlsbC1ydWxlPSJldmVub2RkIiBmaWxsPSIjZmZlNjgwIiBkPSJtIDU1OC44NCw0MTUuODIgMC45MDU1NCw5Ny41NzQgLTE3LjY1OCwtMC42NzkxOCAtMC45MDU1NSwtMTAxLjY1IDE3LjY1OCw0Ljc1NDIgeiIvPiYjeGE7ICAgICAgPHBhdGggaWQ9InBhdGgxOTMiIHN0cm9rZS13aWR0aD0iMS4yNjgiIHN0cm9rZT0iIzAwMDAwMCIgZmlsbC1ydWxlPSJldmVub2RkIiBmaWxsPSIjZmZlZWFhIiBkPSJtIDI5Ni4wNywzODkuODggLTIuNzg0OSwxMDYuMTkgNTkuMjA0LDQ0LjgyNSAyMy4wOTIsLTEuODExMSA2LjMzODksLTEwOC42NyAtNzguMzMsLTQzLjAxNCAtNy41MTkxLDIuNDc0MiB6Ii8+JiN4YTsgICAgICA8cGF0aCBpZD0icGF0aDE5NSIgb3BhY2l0eT0iMC4xNSIgZmlsbC1ydWxlPSJldmVub2RkIiBkPSJtIDMzOS41OCw0ODMuODUgYyAwLDAgLTcuMDE4LDEyLjIyNSAtMS44MTExLDE4Ljc5IDQuNTY3LDguODE1MSAxOC4xMzQsOC43NTUxIDIyLjQxMiwtMC45MDU1NiAzLjgyNTksLTExLjAzMiAtMi4yODY3LC0yMS43MTggLTEzLjEzLC0xOS42OTYgLTYuNTY1MywyLjcxNjcgLTYuNzkxNywyLjAzNzUgLTcuNDcwOCwxLjgxMTEgeiIvPiYjeGE7ICAgICAgPHBhdGggaWQ9InBhdGgxOTciIG9wYWNpdHk9IjAuMTUiIGZpbGwtcnVsZT0iZXZlbm9kZCIgZD0ibSAyOTYuMzQsNDc1LjQ3IGMgMCwwIDAuOTA1NTQsNS42NTk3IDcuNDcwOCw1LjQzMzMgNi41NjUzLC0wLjIyNjQgMTEuNTQ2LC0yLjAzNzUgMTIuOTA0LC03LjAxOCAxLjM1ODMsLTQuOTgwNiAtMC4yMjY0LC04LjM3NjQgLTAuMjI2NCwtOC4zNzY0IGwgLTEyLjQ1MSwtNy45MjM2IC03LjAxOCwyLjAzNzUgLTIuOTQzMSwxMi42NzggMi4yNjM5LDMuMTY5NCB6Ii8+JiN4YTsgICAgICA8cGF0aCBpZD0icGF0aDE5OSIgc3Ryb2tlLXdpZHRoPSIwLjM4IiBzdHJva2U9IiMwMDAwMDAiIGZpbGwtcnVsZT0iZXZlbm9kZCIgZmlsbD0iI2Q1YzM3OSIgZD0ibSAzMDIuMjMsNDgwIDUuMjA3LC0xLjAxODggLTQuMzAxNCwtMS4zNTgzIC0zLjYyMjIsMS44MTExIDIuNzE2NiwwLjU2NTk4IHoiLz4mI3hhOyAgICAgIDxnIGlkPSJnMjE3IiB0cmFuc2Zvcm09Im1hdHJpeCgxLjIxMzYsMC4zNTE3MywtMC4zOTQ0LDEuMjEsMjM3LjksLTQxNS41NykiIGZpbGwtcnVsZT0iZXZlbm9kZCI+JiN4YTsgICAgICAgIDxwYXRoIGlkPSJwYXRoMjAxIiBmaWxsPSIjZWEzMDI0IiBkPSJtIDMwNS45OSw2NDkuMzkgYyAtMS4wMTk1LC0wLjAxMTkgLTIuMDYwNywwLjEyMTM3IC0zLjA2NjgsMC40NTg1OCAtNS4zNjU4LDEuNzk4NCAtOC4wODgxLDguMTI3MyAtNi4wNzYyLDE0LjEzIDIuMDExOSw2LjAwMjcgOC4wMTksOS40MjI0IDEzLjM4NSw3LjYyMzkgNS4zNjU4LC0xLjc5ODUgOC4wODgxLC04LjEyNzQgNi4wNzYyLC0xNC4xMyAtMS42MzQ3LC00Ljg3NzIgLTUuOTAwMiwtOC4wMzEgLTEwLjMxOCwtOC4wODI1IHogbSAtMS4yMDM4LDcuODI0NSBjIDEuNTEwMywtMC4xMDU5NyAzLjEwMTYsMS4wODk0IDMuNzI2LDIuOTUyMSAwLjcxMzUyLDIuMTI4OCAtMC4wOTMxLDQuMzA4IC0xLjc3Nyw0Ljg3MjQgLTEuNjgzOSwwLjU2NDM5IC0zLjYxNDQsLTAuNjgwMDEgLTQuMzI3OCwtMi44MDg4IC0wLjcxMzUsLTIuMTI4OCAwLjA2NDQsLTQuMzM2NyAxLjc0ODMsLTQuOTAxMSAwLjIxMDQ5LC0wLjA3MDYgMC40MTQ3OSwtMC4wOTk1IDAuNjMwNTUsLTAuMTE0NjUgeiIvPiYjeGE7ICAgICAgICA8cGF0aCBpZD0icGF0aDIwMyIgZmlsbD0iI2RiMGUwZSIgZD0ibSAzMDMuNDcsNjUxLjA4IGMgLTAuNTc5MzgsMC4wNDA2IC0xLjE1NDQsMC4xNTQ0OCAtMS43MTk3LDAuMzQzOTMgLTQuNTIxOSwxLjUxNTYgLTYuNjQ1MSw3LjM4MTcgLTQuNzI5MSwxMy4wOTggMS45MTYsNS43MTY1IDcuMTQzMyw5LjExMDggMTEuNjY1LDcuNTk1MiA0LjUyMTksLTEuNTE1NiA2LjY0NTEsLTcuMzgxNyA0LjcyOTEsLTEzLjA5OCAtMS42NzY1LC01LjAwMiAtNS44ODk5LC04LjIyMzggLTkuOTQ1NSwtNy45MzkyIHogbSAxLjMxODQsNi4xMzM1IGMgMS41MTAzLC0wLjEwNTk3IDMuMTAxNiwxLjA4OTQgMy43MjYsMi45NTIxIDAuNzEzNTIsMi4xMjg4IC0wLjA5MzEsNC4zMDggLTEuNzc3LDQuODcyNCAtMS42ODM5LDAuNTY0MzkgLTMuNjE0NCwtMC42ODAwMSAtNC4zMjc4LC0yLjgwODggLTAuNzEzNSwtMi4xMjg4IDAuMDY0NCwtNC4zMzY3IDEuNzQ4MywtNC45MDExIDAuMjEwNDksLTAuMDcwNSAwLjQxNDc5LC0wLjA5OTUgMC42MzA1NSwtMC4xMTQ2NSB6Ii8+JiN4YTsgICAgICAgIDxwYXRoIGlkPSJwYXRoMjA1IiBmaWxsPSIjOWUxOTBkIiBkPSJtIDMwMy43Niw2NTYuNTMgYyAtMC4yOTY4NiwwLjAyMDggLTAuNTk4ODksMC4wNzQ5IC0wLjg4ODUsMC4xNzE5NyAtMi4zMTY5LDAuNzc2NTUgLTMuNDE3OSwzLjc3NzcgLTIuNDM2Miw2LjcwNjcgMC45ODE3MiwyLjkyOSAzLjY3MzMsNC42NzQ1IDUuOTkwMiwzLjg5NzkgMi4zMTY5LC0wLjc3NjU1IDMuMzg5MywtMy43Nzc3IDIuNDA3NiwtNi43MDY3IC0wLjg1OTAxLC0yLjU2MjkgLTIuOTk1MSwtNC4yMTU3IC01LjA3MywtNC4wNjk5IHogbSAxLjAzMTgsMC42ODc4NyBjIDEuNTEwMywtMC4xMDU5NyAzLjEwMTYsMS4wODk0IDMuNzI2LDIuOTUyMSAwLjcxMzUyLDIuMTI4OCAtMC4wOTMxLDQuMzA4IC0xLjc3Nyw0Ljg3MjQgLTEuNjgzOSwwLjU2NDM5IC0zLjYxNDQsLTAuNjgwMDEgLTQuMzI3OCwtMi44MDg4IC0wLjcxMzUsLTIuMTI4OCAwLjA2NDQsLTQuMzM2NyAxLjc0ODMsLTQuOTAxMSAwLjIxMDQ5LC0wLjA3MDUgMC40MTQ3OSwtMC4wOTk1IDAuNjMwNTUsLTAuMTE0NjUgeiIvPiYjeGE7ICAgICAgICA8cGF0aCBpZD0icGF0aDIwNyIgZmlsbD0iI2Y5ZjlmOSIgZD0ibSAzMDMuMTMsNjU2LjU4IGMgMCwwIC0xLjM1OTYsLTMuMTIxMiAwLjA5MTcsLTUuNDM1NCAwLjk3ODIsLTEuNTU5OSAxLjUyMDMsLTEuNjE1NCAxLjUyMDMsLTEuNjE1NCBsIDEuODY0NywtMC4xOTk2OSBjIDAsMCAtMS40NDExLDEuNDMxNCAtMS44MDIxLDIuMDU0MSAtMS42OTcyLDIuOTI3NiAwLjE2ODUxLDUuMjc5OCAwLjE2ODUxLDUuMjc5OCBsIC0xLjg0MywtMC4wODM1IHoiLz4mI3hhOyAgICAgICAgPHBhdGggaWQ9InBhdGgyMDkiIGZpbGw9IiNmOWY5ZjkiIGQ9Im0gMzA4Ljk4LDY2Mi41MSBjIDAsMCAyLjM5OTEsMS4wMTAyIDQuNjcyLC0wLjUwNTA3IDIuMjcyOSwtMS41MTUyNyAzLjE1NjcsLTIuNzE0OCAzLjE1NjcsLTIuNzE0OCBsIDAuMDYzMSwyLjA4MzQgYyAwLDAgMC4wMzg0LDAuMTc2OTQgLTIuNzc3OSwyLjI3MjggLTIuNzE0OCwyLjAyMDMgLTUuMTEzOSwwLjYzMTM1IC01LjExMzksMC42MzEzNSB2IC0xLjc2NzggeiIvPiYjeGE7ICAgICAgICA8cGF0aCBpZD0icGF0aDIxMSIgZmlsbD0iI2Y5ZjlmOSIgZD0ibSAyOTYuMTgsNjU5Ljk3IGMgMS40NTIxLDEuNzA0NiAzLjkxODIsMC45NDYzNCAzLjkxODIsMC45NDYzNCAwLDAgMC4wMTIyLDEuMzg4MyAwLjEzMDA5LDEuODM3OSAtMi43MTcsLTAuMDQxNSAtMi4zMTk5LC0wLjAxMTggLTMuODEwNCwtMC40NDEyOSAtMC4yODIyOSwtMS42MTEgLTAuMzEzNDcsLTAuNzgwOTggLTAuMjM3ODgsLTIuMzQzIHoiLz4mI3hhOyAgICAgICAgPHBhdGggaWQ9InBhdGgyMTMiIGZpbGw9IiNmOWY5ZjkiIGQ9Im0gMzAzLjQxLDY3MS44IGMgLTAuNjQ2MTIsLTEuMDE4NiAtMC41NjQ4NywtNS4wMTc2IDAuNDgwNjgsLTQuNzIzMyAxLjE0NiwwLjQ3Mjg1IDEuMzk2MiwwLjA5MzcgMS41MTQsMC41NDMyOCAtMS4xNTQ0LDIuOTQ5NiAtMC4xMzIzNywzLjM4MSAtMC4xNDk2OCw0LjczNzMgLTEuMjc1NiwtMC4xNjAwOSAtMS44NzYsLTAuNDkwOCAtMS44NDUsLTAuNTU3MjYgeiIvPiYjeGE7ICAgICAgICA8cGF0aCBpZD0icGF0aDIxNSIgZmlsbD0iI2Y5ZjlmOSIgZD0ibSAzMDIuMDMsNjYwLjY0IGMgLTEuODUxNSwwLjQ5OTI4IC0xLjkzLDAuMjc2NyAtMS45MywwLjI3NjcgMCwwIDAuMDEyMiwxLjM4ODMgMC4xMzAwOSwxLjgzNzkgLTIuNzE3LC0wLjA0MTUgMC4yNjk0MiwwLjMwMDY5IDEuOTQ4NSwtMC40ODU5MyAtMC4wNTkxLC0wLjcxODEzIDAuNjY4NjcsMC4xMTE4NyAtMC4xNDg2LC0xLjYyODcgeiIvPiYjeGE7ICAgICAgPC9nPiYjeGE7ICAgICAgPGcgaWQ9ImcyMjUiIHRyYW5zZm9ybT0ibWF0cml4KDEuMjY3OCwwLDAsMS4yNjc4LC0zMi44MywtMzQzLjY1KSIgc3Ryb2tlLXdpZHRoPSIwLjMiIHN0cm9rZT0iIzAwMDAwMCIgZmlsbC1ydWxlPSJldmVub2RkIj4mI3hhOyAgICAgICAgPHBhdGggaWQ9InBhdGgyMTkiIGZpbGw9IiNkNWMzNzkiIGQ9Im0gMjk5LjYyLDY3MS41NSAzLjM0OTMsLTAuNzQxMjIgLTMuMTk5NiwtMC43NjA1IC0yLjUzNDMsMC41NTM3MSB6Ii8+JiN4YTsgICAgICAgIDxwYXRoIGlkPSJwYXRoMjIxIiBmaWxsPSIjZmZlNjgwIiBkPSJtIDI5OC41LDY1OS4yMiAtMS4yNjk1LDExLjU2MSAyLjQ3NzUsMC44Njc5MiAxLjAwODUsLTExLjc2NSAtMi4yMTY1LC0wLjY2Mzg3IHoiLz4mI3hhOyAgICAgICAgPHBhdGggaWQ9InBhdGgyMjMiIGZpbGw9IiNmZmU2ODAiIGQ9Im0gMjkwLjkzLDY1NS41MyAxNi45NzEsOC42MjU5IDMuODg5MSwtMC43NzczNiAwLjE3NDU5LC0yLjEyMzcgLTMuODg1NSwwLjY4ODUgLTE2Ljc4OSwtOC42OTcyIC0wLjM2MDQzLDIuMjgzOCB6Ii8+JiN4YTsgICAgICA8L2c+JiN4YTsgICAgICA8ZyBpZD0iZzI0MyIgdHJhbnNmb3JtPSJtYXRyaXgoMS4yNTIzLDAuMTk3NjcsLTAuMTk3NjcsMS4yNTIzLDUyLjA4LC00MjMuODgpIiBmaWxsLXJ1bGU9ImV2ZW5vZGQiPiYjeGE7ICAgICAgICA8cGF0aCBpZD0icGF0aDIyNyIgZmlsbD0iI2VhMzAyNCIgZD0ibSAzMDUuOTksNjQ5LjM5IGMgLTEuMDE5NSwtMC4wMTE5IC0yLjA2MDcsMC4xMjEzNyAtMy4wNjY4LDAuNDU4NTggLTUuMzY1OCwxLjc5ODQgLTguMDg4MSw4LjEyNzMgLTYuMDc2MiwxNC4xMyAyLjAxMTksNi4wMDI3IDguMDE5LDkuNDIyNCAxMy4zODUsNy42MjM5IDUuMzY1OCwtMS43OTg1IDguMDg4MSwtOC4xMjc0IDYuMDc2MiwtMTQuMTMgLTEuNjM0NywtNC44NzcyIC01LjkwMDIsLTguMDMxIC0xMC4zMTgsLTguMDgyNSB6IG0gLTEuMjAzOCw3LjgyNDUgYyAxLjUxMDMsLTAuMTA1OTcgMy4xMDE2LDEuMDg5NCAzLjcyNiwyLjk1MjEgMC43MTM1MiwyLjEyODggLTAuMDkzMSw0LjMwOCAtMS43NzcsNC44NzI0IC0xLjY4MzksMC41NjQzOSAtMy42MTQ0LC0wLjY4MDAxIC00LjMyNzgsLTIuODA4OCAtMC43MTM1LC0yLjEyODggMC4wNjQ0LC00LjMzNjcgMS43NDgzLC00LjkwMTEgMC4yMTA0OSwtMC4wNzA2IDAuNDE0NzksLTAuMDk5NSAwLjYzMDU1LC0wLjExNDY1IHoiLz4mI3hhOyAgICAgICAgPHBhdGggaWQ9InBhdGgyMjkiIGZpbGw9IiNkYjBlMGUiIGQ9Im0gMzAzLjQ3LDY1MS4wOCBjIC0wLjU3OTM4LDAuMDQwNiAtMS4xNTQ0LDAuMTU0NDggLTEuNzE5NywwLjM0MzkzIC00LjUyMTksMS41MTU2IC02LjY0NTEsNy4zODE3IC00LjcyOTEsMTMuMDk4IDEuOTE2LDUuNzE2NSA3LjE0MzMsOS4xMTA4IDExLjY2NSw3LjU5NTIgNC41MjE5LC0xLjUxNTYgNi42NDUxLC03LjM4MTcgNC43MjkxLC0xMy4wOTggLTEuNjc2NSwtNS4wMDIgLTUuODg5OSwtOC4yMjM4IC05Ljk0NTUsLTcuOTM5MiB6IG0gMS4zMTg0LDYuMTMzNSBjIDEuNTEwMywtMC4xMDU5NyAzLjEwMTYsMS4wODk0IDMuNzI2LDIuOTUyMSAwLjcxMzUyLDIuMTI4OCAtMC4wOTMxLDQuMzA4IC0xLjc3Nyw0Ljg3MjQgLTEuNjgzOSwwLjU2NDM5IC0zLjYxNDQsLTAuNjgwMDEgLTQuMzI3OCwtMi44MDg4IC0wLjcxMzUsLTIuMTI4OCAwLjA2NDQsLTQuMzM2NyAxLjc0ODMsLTQuOTAxMSAwLjIxMDQ5LC0wLjA3MDUgMC40MTQ3OSwtMC4wOTk1IDAuNjMwNTUsLTAuMTE0NjUgeiIvPiYjeGE7ICAgICAgICA8cGF0aCBpZD0icGF0aDIzMSIgZmlsbD0iIzllMTkwZCIgZD0ibSAzMDMuNzYsNjU2LjUzIGMgLTAuMjk2ODYsMC4wMjA4IC0wLjU5ODg5LDAuMDc0OSAtMC44ODg1LDAuMTcxOTcgLTIuMzE2OSwwLjc3NjU1IC0zLjQxNzksMy43Nzc3IC0yLjQzNjIsNi43MDY3IDAuOTgxNzIsMi45MjkgMy42NzMzLDQuNjc0NSA1Ljk5MDIsMy44OTc5IDIuMzE2OSwtMC43NzY1NSAzLjM4OTMsLTMuNzc3NyAyLjQwNzYsLTYuNzA2NyAtMC44NTkwMSwtMi41NjI5IC0yLjk5NTEsLTQuMjE1NyAtNS4wNzMsLTQuMDY5OSB6IG0gMS4wMzE4LDAuNjg3ODcgYyAxLjUxMDMsLTAuMTA1OTcgMy4xMDE2LDEuMDg5NCAzLjcyNiwyLjk1MjEgMC43MTM1MiwyLjEyODggLTAuMDkzMSw0LjMwOCAtMS43NzcsNC44NzI0IC0xLjY4MzksMC41NjQzOSAtMy42MTQ0LC0wLjY4MDAxIC00LjMyNzgsLTIuODA4OCAtMC43MTM1LC0yLjEyODggMC4wNjQ0LC00LjMzNjcgMS43NDgzLC00LjkwMTEgMC4yMTA0OSwtMC4wNzA1IDAuNDE0NzksLTAuMDk5NSAwLjYzMDU1LC0wLjExNDY1IHoiLz4mI3hhOyAgICAgICAgPHBhdGggaWQ9InBhdGgyMzMiIGZpbGw9IiNmOWY5ZjkiIGQ9Im0gMzAzLjEzLDY1Ni41OCBjIDAsMCAtMS4zNTk2LC0zLjEyMTIgMC4wOTE3LC01LjQzNTQgMC45NzgyLC0xLjU1OTkgMS41MjAzLC0xLjYxNTQgMS41MjAzLC0xLjYxNTQgbCAxLjg2NDcsLTAuMTk5NjkgYyAwLDAgLTEuNDQxMSwxLjQzMTQgLTEuODAyMSwyLjA1NDEgLTEuNjk3MiwyLjkyNzYgMC4xNjg1MSw1LjI3OTggMC4xNjg1MSw1LjI3OTggbCAtMS44NDMsLTAuMDgzNSB6Ii8+JiN4YTsgICAgICAgIDxwYXRoIGlkPSJwYXRoMjM1IiBmaWxsPSIjZjlmOWY5IiBkPSJtIDMwOC45OCw2NjIuNTEgYyAwLDAgMi4zOTkxLDEuMDEwMiA0LjY3MiwtMC41MDUwNyAyLjI3MjksLTEuNTE1MjcgMy4xNTY3LC0yLjcxNDggMy4xNTY3LC0yLjcxNDggbCAwLjA2MzEsMi4wODM0IGMgMCwwIDAuMDM4NCwwLjE3Njk0IC0yLjc3NzksMi4yNzI4IC0yLjcxNDgsMi4wMjAzIC01LjExMzksMC42MzEzNSAtNS4xMTM5LDAuNjMxMzUgdiAtMS43Njc4IHoiLz4mI3hhOyAgICAgICAgPHBhdGggaWQ9InBhdGgyMzciIGZpbGw9IiNmOWY5ZjkiIGQ9Im0gMjk2LjE4LDY1OS45NyBjIDEuNDUyMSwxLjcwNDYgMy45MTgyLDAuOTQ2MzQgMy45MTgyLDAuOTQ2MzQgMCwwIDAuMDEyMiwxLjM4ODMgMC4xMzAwOSwxLjgzNzkgLTIuNzE3LC0wLjA0MTUgLTIuMzE5OSwtMC4wMTE4IC0zLjgxMDQsLTAuNDQxMjkgLTAuMjgyMjksLTEuNjExIC0wLjMxMzQ3LC0wLjc4MDk4IC0wLjIzNzg4LC0yLjM0MyB6Ii8+JiN4YTsgICAgICAgIDxwYXRoIGlkPSJwYXRoMjM5IiBmaWxsPSIjZjlmOWY5IiBkPSJtIDMwMy40MSw2NzEuOCBjIC0wLjY0NjEyLC0xLjAxODYgLTAuNTY0ODcsLTUuMDE3NiAwLjQ4MDY4LC00LjcyMzMgMS4xNDYsMC40NzI4NSAxLjM5NjIsMC4wOTM3IDEuNTE0LDAuNTQzMjggLTEuMTU0NCwyLjk0OTYgLTAuMTMyMzcsMy4zODEgLTAuMTQ5NjgsNC43MzczIC0xLjI3NTYsLTAuMTYwMDkgLTEuODc2LC0wLjQ5MDggLTEuODQ1LC0wLjU1NzI2IHoiLz4mI3hhOyAgICAgICAgPHBhdGggaWQ9InBhdGgyNDEiIGZpbGw9IiNmOWY5ZjkiIGQ9Im0gMzAyLjAzLDY2MC42NCBjIC0xLjg1MTUsMC40OTkyOCAtMS45MywwLjI3NjcgLTEuOTMsMC4yNzY3IDAsMCAwLjAxMjIsMS4zODgzIDAuMTMwMDksMS44Mzc5IC0yLjcxNywtMC4wNDE1IDAuMjY5NDIsMC4zMDA2OSAxLjk0ODUsLTAuNDg1OTMgLTAuMDU5MSwtMC43MTgxMyAwLjY2ODY3LDAuMTExODcgLTAuMTQ4NiwtMS42Mjg3IHoiLz4mI3hhOyAgICAgIDwvZz4mI3hhOyAgICAgIDxwYXRoIGlkPSJwYXRoMjQ1IiBzdHJva2Utd2lkdGg9IjAuMzgiIHN0cm9rZT0iIzAwMDAwMCIgZmlsbC1ydWxlPSJldmVub2RkIiBmaWxsPSIjZmZlNjgwIiBkPSJtIDMwMi4yMyw0ODAgMC42NzkxNywtMTMuODEgLTIuNjAzNSwtMy4wNTYyIC0wLjc5MjM2LDE2LjMgMi43MTY2LDAuNTY1OTggeiIvPiYjeGE7ICAgICAgPGcgaWQ9ImcyNTEiIHRyYW5zZm9ybT0ibWF0cml4KDEuMjY3OCwwLDAsMS4yNjc4LC04MS41LC0zNzUuMTIpIiBzdHJva2U9IiMwMDAwMDAiIGZpbGwtcnVsZT0iZXZlbm9kZCI+JiN4YTsgICAgICAgIDxwYXRoIGlkPSJwYXRoMjQ3IiBzdHJva2Utd2lkdGg9IjAuMiIgZmlsbD0iI2UzZGJkYiIgZD0ibSAzMDUuMDMsNjA3LjUyIGMgMi40MTQ4LC0wLjQ0NDE2IDEyLjY3OCwzLjY1MDcgMTIuNjc4LDMuNjUwNyBsIDAuNjUzMDIsMy43MDUxIC0xLjIxOTQsMjYuMzg1IC0xLjE3MzQsLTAuMDYxMyAtMTIuMTY5LC04LjI2MjkgLTAuMzIzODgsLTIuMzg2NCBjIDAsMCAtMC42ODc0NywtMjIuNjE4IDEuNTU0OCwtMjMuMDMxIHoiLz4mI3hhOyAgICAgICAgPHBhdGggaWQ9InBhdGgyNDkiIHN0cm9rZS13aWR0aD0iMC41OTgiIGZpbGw9IiNmZmNjMDAiIGQ9Im0gMzA1LjUsNjA2LjggYyAtMC45ODc3LC0wLjY1Njk0IC0xLjgxNTcsLTAuMTEwNzkgLTEuODYyNSwxLjIyODYgbCAtMC43OTk0MSwyMi44NiBjIC0wLjA0NjgsMS4zMzkzIDAuNzA2MTksMi45MzcxIDEuNjkzOSwzLjU5NCBsIDExLjQ1NCw3LjYxODYgYyAwLjk4NzcsMC42NTY5NCAxLjgxNTcsMC4xMTA3OCAxLjg2MjUsLTEuMjI4NiBsIDAuNzk5NDEsLTIyLjg2IGMgMC4wNDY4LC0xLjMzOTMgLTAuNzA2MiwtMi45MzcxIC0xLjY5MzksLTMuNTk0IHogbSAwLjczNDgyLDEuOTYyOCA5Ljg4NDEsNi41NzQxIGMgMC44ODUyOCwwLjU4ODgxIDEuNTU5OSwyLjAyMDIgMS41MTc5LDMuMjIwNiBsIC0wLjcxNjE4LDIwLjQ4IGMgLTAuMDQyLDEuMjAwNCAtMC43ODM3OCwxLjY4OTcgLTEuNjY5LDEuMTAxIGwgLTkuODg0MSwtNi41NzQxIGMgLTAuODg1MjYsLTAuNTg4OCAtMS41NTk5LC0yLjAyMDIgLTEuNTE3OSwtMy4yMjA2IGwgMC43MTYxOCwtMjAuNDggYyAwLjA0MiwtMS4yMDA0IDAuNzgzNzcsLTEuNjg5OCAxLjY2OSwtMS4xMDA5IHoiLz4mI3hhOyAgICAgIDwvZz4mI3hhOyAgICAgIDxnIGlkPSJnMjcxIiB0cmFuc2Zvcm09Im1hdHJpeCgxLjI2NzgsMCwwLDEuMjY3OCwtMzIuODMsLTM0My42NSkiIHN0cm9rZT0iIzAwMDAwMCIgZmlsbC1ydWxlPSJldmVub2RkIiBmaWxsPSIjNDg0NTM3Ij4mI3hhOyAgICAgICAgPGcgaWQ9ImcyNTciIHRyYW5zZm9ybT0ibWF0cml4KC0wLjAzNDg1NiwtMC4zMDUwOCwwLjc5ODkxLC0wLjA4NzM3NSwtMTU2LjM0LDc4Ni40NSkiIHN0cm9rZS13aWR0aD0iMC41NTMiPiYjeGE7ICAgICAgICAgIDxwYXRoIGlkPSJwYXRoMjUzIiBkPSJtIDIyNS43Miw1OTIuOTcgYyAtMi42MjgyLDAgLTQuNzE4OCwxLjExMDggLTQuNzE4OCwyLjUgdiA1NC41NjIgYyAwLDEuMzg5MyAyLjA5MDUsMi41IDQuNzE4OCwyLjUgMi42MjgyLDAgNC43NSwtMS4xMTA3IDQuNzUsLTIuNSBWIDU5NS40NyBjIDAsLTEuMzg5MyAtMi4xMjE4LC0yLjUgLTQuNzUsLTIuNSB6Ii8+JiN4YTsgICAgICAgICAgPHBhdGggaWQ9InBhdGgyNTUiIGQ9Im0gMjI1Ljc3LDU5Mi45NSBjIC0yLjUzNTUsMCAtNC41ODU1LDEuMDQzIC00LjcyNzYsMi4zNjM4IDAuNDU3ODQsMS4xMzMgMi4zNTE1LDEuOTgzMyA0LjYzNTQsMS45ODMzIDIuNTIxMywwIDQuNTc2NSwtMS4wMzA1IDQuNzM5MiwtMi4zNDA4IDQuNmUtNCwtMC4wMDQgLTQuM2UtNCwtMC4wMDggMCwtMC4wMTE1IC0wLjQ0NzgsLTEuMTQgLTIuMzUzNiwtMS45OTQ4IC00LjY0NjksLTEuOTk0OCB6Ii8+JiN4YTsgICAgICAgIDwvZz4mI3hhOyAgICAgICAgPGcgaWQ9ImcyNjMiIHRyYW5zZm9ybT0ibWF0cml4KDAuMzY4OTksMCwwLDAuMzY4OTksOTEuMTksNTM5LjEpIiBzdHJva2Utd2lkdGg9IjEuNSI+JiN4YTsgICAgICAgICAgPHJlY3QgaWQ9InJlY3QyNTkiIHk9IjMwOC44NCIgeD0iNjE1LjA5OTk4IiB3aWR0aD0iMjUuNzA5OTk5IiByeT0iNi44MDAwMDAyIiByeD0iMTIuODYiIGhlaWdodD0iMTA1LjcxIi8+JiN4YTsgICAgICAgICAgPHBhdGggaWQ9InBhdGgyNjEiIGQ9Im0gNjI4LjA3LDMwOC44NCBjIC02Ljg3MTQsMCAtMTIuNDI3LDIuODI2OCAtMTIuODEyLDYuNDA2MiAxLjI0MDgsMy4wNzA1IDYuMzcyOCw1LjM3NSAxMi41NjIsNS4zNzUgNi44MzMsMCAxMi40MDMsLTIuNzkyOCAxMi44NDQsLTYuMzQzOCAwLjAwMSwtMC4wMSAtMC4wMDEsLTAuMDIxMyAwLC0wLjAzMTIgLTEuMjEzNiwtMy4wODk2IC02LjM3ODUsLTUuNDA2MiAtMTIuNTk0LC01LjQwNjIgeiIvPiYjeGE7ICAgICAgICA8L2c+JiN4YTsgICAgICAgIDxnIGlkPSJnMjY5IiB0cmFuc2Zvcm09Im1hdHJpeCgwLjM2ODk5LDAsMCwwLjM2ODk5LDExMS4wMSw1MzcuNTgpIiBzdHJva2Utd2lkdGg9IjEuNSI+JiN4YTsgICAgICAgICAgPHJlY3QgaWQ9InJlY3QyNjUiIHk9IjMwOC44NCIgeD0iNjE1LjA5OTk4IiB3aWR0aD0iMjUuNzA5OTk5IiByeT0iNi44MDAwMDAyIiByeD0iMTIuODYiIGhlaWdodD0iMTA1LjcxIi8+JiN4YTsgICAgICAgICAgPHBhdGggaWQ9InBhdGgyNjciIGQ9Im0gNjI4LjA3LDMwOC44NCBjIC02Ljg3MTQsMCAtMTIuNDI3LDIuODI2OCAtMTIuODEyLDYuNDA2MiAxLjI0MDgsMy4wNzA1IDYuMzcyOCw1LjM3NSAxMi41NjIsNS4zNzUgNi44MzMsMCAxMi40MDMsLTIuNzkyOCAxMi44NDQsLTYuMzQzOCAwLjAwMSwtMC4wMSAtMC4wMDEsLTAuMDIxMyAwLC0wLjAzMTIgLTEuMjEzNiwtMy4wODk2IC02LjM3ODUsLTUuNDA2MiAtMTIuNTk0LC01LjQwNjIgeiIvPiYjeGE7ICAgICAgICA8L2c+JiN4YTsgICAgICA8L2c+JiN4YTsgICAgICA8ZyBpZD0iZzI3NyIgdHJhbnNmb3JtPSJtYXRyaXgoMS4yNjc4LDAsMCwxLjI2NzgsLTMyLjgzLC0zNDMuNjUpIiBzdHJva2U9IiMwMDAwMDAiIGZpbGwtcnVsZT0iZXZlbm9kZCI+JiN4YTsgICAgICAgIDxwYXRoIGlkPSJwYXRoMjczIiBzdHJva2Utd2lkdGg9IjAuMiIgZmlsbD0iI2UzZGJkYiIgZD0ibSAzMDUuMDMsNjA3LjUyIGMgMi40MTQ4LC0wLjQ0NDE2IDEyLjY3OCwzLjY1MDcgMTIuNjc4LDMuNjUwNyBsIDAuNjUzMDIsMy43MDUxIC0xLjIxOTQsMjYuMzg1IC0xLjE3MzQsLTAuMDYxMyAtMTIuMTY5LC04LjI2MjkgLTAuMzIzODgsLTIuMzg2NCBjIDAsMCAtMC42ODc0NywtMjIuNjE4IDEuNTU0OCwtMjMuMDMxIHoiLz4mI3hhOyAgICAgICAgPHBhdGggaWQ9InBhdGgyNzUiIHN0cm9rZS13aWR0aD0iMC41OTgiIGZpbGw9IiNmZmNjMDAiIGQ9Im0gMzA1LjUsNjA2LjggYyAtMC45ODc3LC0wLjY1Njk0IC0xLjgxNTcsLTAuMTEwNzkgLTEuODYyNSwxLjIyODYgbCAtMC43OTk0MSwyMi44NiBjIC0wLjA0NjgsMS4zMzkzIDAuNzA2MTksMi45MzcxIDEuNjkzOSwzLjU5NCBsIDExLjQ1NCw3LjYxODYgYyAwLjk4NzcsMC42NTY5NCAxLjgxNTcsMC4xMTA3OCAxLjg2MjUsLTEuMjI4NiBsIDAuNzk5NDEsLTIyLjg2IGMgMC4wNDY4LC0xLjMzOTMgLTAuNzA2MiwtMi45MzcxIC0xLjY5MzksLTMuNTk0IHogbSAwLjczNDgyLDEuOTYyOCA5Ljg4NDEsNi41NzQxIGMgMC44ODUyOCwwLjU4ODgxIDEuNTU5OSwyLjAyMDIgMS41MTc5LDMuMjIwNiBsIC0wLjcxNjE4LDIwLjQ4IGMgLTAuMDQyLDEuMjAwNCAtMC43ODM3OCwxLjY4OTcgLTEuNjY5LDEuMTAxIGwgLTkuODg0MSwtNi41NzQxIGMgLTAuODg1MjYsLTAuNTg4OCAtMS41NTk5LC0yLjAyMDIgLTEuNTE3OSwtMy4yMjA2IGwgMC43MTYxOCwtMjAuNDggYyAwLjA0MiwtMS4yMDA0IDAuNzgzNzcsLTEuNjg5OCAxLjY2OSwtMS4xMDA5IHoiLz4mI3hhOyAgICAgIDwvZz4mI3hhOyAgICAgIDxwYXRoIGlkPSJwYXRoMjc5IiBmaWxsLXJ1bGU9ImV2ZW5vZGQiIGZpbGw9IiNmMmMyMDAiIGQ9Im0gMzI2LjksNDkyLjQ1IDQuNzU0MiwtNzkuNjg5IDQuMDc1LDEuMTMxOSAtNC41Mjc4LDgzLjk5IC00LjMwMTQsLTUuNDMzMyB6Ii8+JiN4YTsgICAgICA8cGF0aCBpZD0icGF0aDI4MSIgb3BhY2l0eT0iMC4xNSIgZmlsbC1ydWxlPSJldmVub2RkIiBkPSJtIDMwMC43OCwzOTQuMzcgLTAuNjQwMzMsMy4yMDE2IDcxLjA3Niw0My44NjIgOS45MjUsMC4zMjAxNiA5MC4yODYsLTguNjQ0NCA3MS4zOTYsLTEwLjI0NSAtMC4zMjAxNiw2LjQwMzIgMTYuOTY5LC0xLjkyMSAyNi4yNTMsLTEwLjg4NiAzMS42OTYsLTUuNDQyNyAtMC42NDAzMiwtNC40ODIzIC0xMzcuNjcsMTguNTY5IC0xMDMuNDEsMTAuODg2IC03NS41NTgsLTQ5Ljk0NSAwLjY0MDMzLDguMzI0MiB6Ii8+JiN4YTsgICAgICA8cGF0aCBpZD0icGF0aDI4MyIgc3Ryb2tlLXdpZHRoPSIwLjg4NyIgc3Ryb2tlPSIjMDAwMDAwIiBmaWxsPSJub25lIiBkPSJtIDMzMS45LDQxMy4yMSAtNS4yMjk2LDg3LjYzNSB6IG0gNC4yNzg3LDAuMjM3NyAtNS4xOSw4Ny41OTUgeiIvPiYjeGE7ICAgICAgPHBhdGggaWQ9InBhdGgyODUiIHN0cm9rZS13aWR0aD0iMS4yNjgiIHN0cm9rZT0iIzAwMDAwMCIgZmlsbC1ydWxlPSJldmVub2RkIiBmaWxsPSIjODhhYTAwIiBkPSJtIDI4My45NywzNzQuNTIgMjM3LjQsLTQzLjcwNSAxMTUuOTEsNjMuMTYyIC0yOS42NTcsMy4xNjk0IDkuNzM0Nyw2LjExMjUgLTEyMS44LDIxLjI4IC0xMjQuMDYsMTEuNzcyIC0zOC45MzksLTI1LjM1NiAtMjguMDcyLC0xOC41NjQgLTE5LjAxNywtMTEuMzE5IC0xLjUwMjIsLTYuNTUzMiB6Ii8+JiN4YTsgICAgICA8cGF0aCBpZD0icGF0aDI4NyIgb3BhY2l0eT0iMC4xNSIgZmlsbC1ydWxlPSJldmVub2RkIiBkPSJtIDM2My4zNSwzODEuMDcgYyAwLDAgLTQuOTgwNiwyLjI2MzkgLTEuODExMSw0LjUyNzggMy4xNjk0LDIuMjYzOSAyMC4zNzUsMTQuOTQyIDIwLjM3NSwxNC45NDIgbCA0NC4zNzIsMTYuNzUzIDEwMS40MiwtMTQuNDg5IGMgMCwwIDQuOTgwNiwzLjE2OTQgOS4wNTU1LDIuNzE2NyA0LjA3NSwtMC40NTI3NyA2OC44MjIsLTkuMDU1NSA2OC44MjIsLTkuMDU1NSB2IC02Ljc5MTcgYyAwLDAgNi4zMzg5LC0wLjQ1Mjc3IDguMTUsLTMuMTY5NCAxLjgxMTEsLTIuNzE2NyAtMS4zNTgzLC01Ljg4NjEgLTEuMzU4MywtNS44ODYxIGwgLTE3NC43NywzLjYyMjIgLTc0LjI1NiwtMy4xNjk0IHoiLz4mI3hhOyAgICAgIDxwYXRoIGlkPSJwYXRoMjg5IiBmaWxsLXJ1bGU9ImV2ZW5vZGQiIGZpbGw9IiMxZTFmMGMiIGQ9Im0gNjEzLjQ1LDQwMS4yNSBjIDAuMDk4NCwwLjY0ODY1IC0wLjU0NTYxLDEuNTI3NiAtMS43ODI4LDEuNzE1MyAtMS4yMzcyLDAuMTg3NzYgLTIuNjE0MywtMC40NTk5IC0yLjcxMjgsLTEuMTA4NSAtMC4wOTg1LC0wLjY0ODYgMC41OTg2NiwtMS41MzQxIDEuODM1OCwtMS43MjE5IDEuMjM3MiwtMC4xODc3NyAyLjU2MTMsMC40NjY0MyAyLjY1OTcsMS4xMTUxIHoiLz4mI3hhOyAgICAgIDxwYXRoIGlkPSJwYXRoMjkxIiBmaWxsLXJ1bGU9ImV2ZW5vZGQiIGZpbGw9IiMxZTFmMGMiIGQ9Im0gNDc5Ljc4LDQxOS40MiBjIDAuMDk4NCwwLjY0ODY1IC0wLjU0NTYyLDEuNTI3NiAtMS43ODI4LDEuNzE1MyAtMS4yMzcyLDAuMTg3NzYgLTIuNjE0MywtMC40NTk5IC0yLjcxMjgsLTEuMTA4NSAtMC4wOTg1LC0wLjY0ODY0IDAuNTk4NjUsLTEuNTM0MSAxLjgzNTgsLTEuNzIxOSAxLjIzNzIsLTAuMTg3NzcgMi41NjEzLDAuNDY2NDMgMi42NTk4LDEuMTE1MSB6Ii8+JiN4YTsgICAgICA8cGF0aCBpZD0icGF0aDI5MyIgZmlsbC1ydWxlPSJldmVub2RkIiBmaWxsPSIjMWUxZjBjIiBkPSJtIDU0Mi43LDQxMC40NSBjIDAuMDk4NCwwLjY0ODY1IC0wLjU0NTYxLDEuNTI3NiAtMS43ODI4LDEuNzE1MyAtMS4yMzcyLDAuMTg3NzUgLTIuNjE0MywtMC40NTk5IC0yLjcxMjgsLTEuMTA4NiAtMC4wOTg0LC0wLjY0ODYzIDAuNTk4NjYsLTEuNTM0MSAxLjgzNTgsLTEuNzIxOCAxLjIzNzIsLTAuMTg3NzcgMi41NjEzLDAuNDY2NDMgMi42NTk3LDEuMTE1MSB6Ii8+JiN4YTsgICAgICA8cGF0aCBpZD0icGF0aDI5NSIgZmlsbC1ydWxlPSJldmVub2RkIiBmaWxsPSIjMWUxZjBjIiBkPSJtIDYwMy4zNyw0MDIuMjEgYyAwLjA5ODQsMC42NDg2NSAtMC41NDU2MSwxLjUyNzYgLTEuNzgyOCwxLjcxNTMgLTEuMjM3MiwwLjE4Nzc2IC0yLjYxNDMsLTAuNDU5OSAtMi43MTI4LC0xLjEwODUgLTAuMDk4NSwtMC42NDg2NCAwLjU5ODY1LC0xLjUzNDEgMS44MzU4LC0xLjcyMTkgMS4yMzcyLC0wLjE4Nzc3IDIuNTYxMywwLjQ2NjQzIDIuNjU5NywxLjExNTEgeiIvPiYjeGE7ICAgICAgPHBhdGggaWQ9InBhdGgyOTciIGZpbGwtcnVsZT0iZXZlbm9kZCIgZmlsbD0iIzFlMWYwYyIgZD0ibSA2MjkuNjIsMzkwLjc2IGMgMC4wOTg0LDAuNjQ4NjUgLTAuNTQ1NjEsMS41Mjc2IC0xLjc4MjgsMS43MTUzIC0xLjIzNzIsMC4xODc3NiAtMi42MTQzLC0wLjQ1OTkgLTIuNzEyOCwtMS4xMDg1IC0wLjA5ODUsLTAuNjQ4NjQgMC41OTg2NSwtMS41MzQxIDEuODM1OCwtMS43MjE5IDEuMjM3MiwtMC4xODc3NyAyLjU2MTMsMC40NjY0MyAyLjY1OTcsMS4xMTUxIHoiLz4mI3hhOyAgICAgIDxwYXRoIGlkPSJwYXRoMjk5IiBmaWxsLXJ1bGU9ImV2ZW5vZGQiIGZpbGw9IiMxZTFmMGMiIGQ9Im0gMzY5LjgxLDQyMy41OCBjIDAuMDk4NCwwLjY0ODY0IC0wLjU0NTYxLDEuNTI3NiAtMS43ODI4LDEuNzE1MyAtMS4yMzcyLDAuMTg3NzUgLTIuNjE0MywtMC40NTk5IC0yLjcxMjgsLTEuMTA4NiAtMC4wOTg0LC0wLjY0ODYzIDAuNTk4NjYsLTEuNTM0MSAxLjgzNTgsLTEuNzIxOCAxLjIzNzIsLTAuMTg3NzcgMi41NjEzLDAuNDY2NDIgMi42NTk3LDEuMTE1MSB6Ii8+JiN4YTsgICAgICA8cGF0aCBpZD0icGF0aDMwMSIgZmlsbC1ydWxlPSJldmVub2RkIiBmaWxsPSIjMWUxZjBjIiBkPSJtIDM0NS40OCw0MDkuNDkgYyAwLjA5ODQsMC42NDg2NCAtMC41NDU2MSwxLjUyNzYgLTEuNzgyOCwxLjcxNTMgLTEuMjM3MiwwLjE4Nzc2IC0yLjYxNDMsLTAuNDU5ODkgLTIuNzEyOCwtMS4xMDg1IC0wLjA5ODQsLTAuNjQ4NjMgMC41OTg2NiwtMS41MzQxIDEuODM1OCwtMS43MjE4IDEuMjM3MiwtMC4xODc3NyAyLjU2MTMsMC40NjY0MiAyLjY1OTcsMS4xMTUxIHoiLz4mI3hhOyAgICAgIDxwYXRoIGlkPSJwYXRoMzAzIiBmaWxsLXJ1bGU9ImV2ZW5vZGQiIGZpbGw9IiMxZTFmMGMiIGQ9Im0gMzIxLjYyLDM5My4zMiBjIDAuMDk4NCwwLjY0ODY1IC0wLjU0NTYxLDEuNTI3NiAtMS43ODI4LDEuNzE1MyAtMS4yMzcyLDAuMTg3NzYgLTIuNjE0MywtMC40NTk5IC0yLjcxMjgsLTEuMTA4NSAtMC4wOTg0LC0wLjY0ODYzIDAuNTk4NjUsLTEuNTM0MSAxLjgzNTgsLTEuNzIxOSAxLjIzNzIsLTAuMTg3NzcgMi41NjEzLDAuNDY2NDMgMi42NTk3LDEuMTE1MSB6Ii8+JiN4YTsgICAgICA8cGF0aCBpZD0icGF0aDMwNSIgZmlsbC1ydWxlPSJldmVub2RkIiBmaWxsPSIjMWUxZjBjIiBkPSJtIDI5Ny43NywzNzkuNTYgYyAwLjA5ODQsMC42NDg2NCAtMC41NDU2MiwxLjUyNzYgLTEuNzgyOCwxLjcxNTMgLTEuMjM3MiwwLjE4Nzc2IC0yLjYxNDMsLTAuNDU5ODkgLTIuNzEyOCwtMS4xMDg1IC0wLjA5ODUsLTAuNjQ4NjMgMC41OTg2NSwtMS41MzQxIDEuODM1OCwtMS43MjE4IDEuMjM3MiwtMC4xODc3OCAyLjU2MTMsMC40NjY0MiAyLjY1OTgsMS4xMTUxIHoiLz4mI3hhOyAgICAgIDxwYXRoIGlkPSJwYXRoMzA3IiBmaWxsLXJ1bGU9ImV2ZW5vZGQiIGZpbGw9IiMxZTFmMGMiIGQ9Im0gMzE2LjAyLDM3Mi4wMyBjIDAuMDk4NCwwLjY0ODY1IC0wLjU0NTYyLDEuNTI3NiAtMS43ODI4LDEuNzE1MyAtMS4yMzcyLDAuMTg3NzUgLTIuNjE0MywtMC40NTk5IC0yLjcxMjgsLTEuMTA4NiAtMC4wOTg0LC0wLjY0ODYzIDAuNTk4NjYsLTEuNTM0MSAxLjgzNTgsLTEuNzIxOCAxLjIzNzIsLTAuMTg3NzcgMi41NjEzLDAuNDY2NDMgMi42NTk4LDEuMTE1MSB6Ii8+JiN4YTsgICAgICA8cGF0aCBpZD0icGF0aDMwOSIgZmlsbC1ydWxlPSJldmVub2RkIiBmaWxsPSIjMWUxZjBjIiBkPSJtIDQxMC40Nyw0MjUuODIgYyAwLjA5ODQsMC42NDg2NCAtMC41NDU2MSwxLjUyNzYgLTEuNzgyOCwxLjcxNTMgLTEuMjM3MiwwLjE4Nzc2IC0yLjYxNDMsLTAuNDU5OSAtMi43MTI4LC0xLjEwODUgLTAuMDk4NCwtMC42NDg2MyAwLjU5ODY2LC0xLjUzNDEgMS44MzU4LC0xLjcyMTkgMS4yMzcyLC0wLjE4Nzc3IDIuNTYxMywwLjQ2NjQzIDIuNjU5NywxLjExNTEgeiIvPiYjeGE7ICAgICAgPHBhdGggaWQ9InBhdGgzMTEiIHN0cm9rZS13aWR0aD0iMS4yNjgiIHN0cm9rZT0iIzAwMDAwMCIgZmlsbC1ydWxlPSJldmVub2RkIiBmaWxsPSIjMjIyNDFjIiBkPSJtIDMxNi43Miw0MDAuNTQgdiAzLjYyMjIgbCAxMi40NTEsNy40NzA4IDEuMTMyLC0yLjcxNjcgLTEzLjU4MywtOC4zNzY0IHoiLz4mI3hhOyAgICAgIDxwYXRoIGlkPSJwYXRoMzEzIiBzdHJva2Utd2lkdGg9IjAuMzgiIHN0cm9rZT0iIzAwMDAwMCIgZmlsbC1ydWxlPSJldmVub2RkIiBmaWxsPSIjZmZlNjgwIiBkPSJtIDI5Ny45Myw0NjIuNTcgMTEuOTk5LDcuNDcwOCA3LjkyMzYsLTAuMTEzMiAwLjQ1Mjc5LC0yLjk0MyAtOC4zNzY0LC0wLjMzOTU4IC0xMS4zMTksLTguMTUgLTIuMjYzOSwzLjM5NTggMS41ODQ3LDAuNjc5MTYgeiIvPiYjeGE7ICAgICAgPGcgaWQ9ImczMjEiIHN0cm9rZS13aWR0aD0iMC42MzQiIHN0cm9rZT0iIzAwMDAwMCIgZmlsbC1ydWxlPSJldmVub2RkIiBmaWxsPSIjNWY4ZGQzIj4mI3hhOyAgICAgICAgPHBhdGggaWQ9InBhdGgzMTUiIGQ9Im0gNjA5Ljc4LDQwMS41NiAyNS45MjIsLTMuMDU2MiAwLjExMzE4LC00LjQxNDYgLTMwLjExLDIuNDkwMyA0LjA3NSw0Ljk4MDYgeiIvPiYjeGE7ICAgICAgICA8cGF0aCBpZD0icGF0aDMxNyIgZD0ibSAyODMuODEsMzgyLjIgMjUuNjEzLDE2LjI3MyBjIC0xMC44MjMsMTQuMDI3IDMuMTQ1OCwxNC44MjUgOC4wMDQsLTIuMTg2MiAwLDAgLTMxLjM3NiwtMTguMjQ5IC0zMi4zMzYsLTE5LjUzIC0wLjk2LC0xLjI4MSAtMS4yODA2LC0yLjI0MTEgLTEuMjgwNiwtMi4yNDExIHYgNy42ODM5IHoiLz4mI3hhOyAgICAgICAgPHBhdGggaWQ9InBhdGgzMTkiIGQ9Im0gMzI5Ljc4LDQxMi4yNyBjIDAsMCAzOC44NzksMjYuMjc2IDQzLjM2MSwyNi4yNzYgNC40ODIzLDAgMTA5LjE4LC04LjY0NDQgMTA5LjE4LC04LjY0NDQgMCwwIDEyOC43LC0yMC4xNyAxMzIuMjMsLTIwLjQ5IDMuNTIxOCwtMC4zMjAxNSA0LjM1MywwLjExMzIgNC4wMzI4LC0xLjgwNzggLTAuMzIwMTYsLTEuOTIxIDAuNjc5MTcsLTQuNzA4NyAtMS4yNDE4LC00LjcwODcgLTEuOTIwOTcsMCAtMTU1LjUxLDIxLjI0NCAtMTU3LjExLDIxLjU2NCAtMS42MDA4LDAuMzIwMTcgLTgxLjk2MSw3LjY4MzkgLTgzLjg4Miw3LjM2MzcgLTEuOTIxLC0wLjMyMDIgLTUuNDQyOCwtMi41NjEzIC03LjY4MzksLTMuODQxOSAtMi4yNDExLC0xLjI4MDYgLTMyLjI4MSwtMTkuMzk3IC0zNi43NjQsLTIwLjAzOCBsIC0yLjExNTIsNC4zMjY5IHoiLz4mI3hhOyAgICAgIDwvZz4mI3hhOyAgICAgIDxwYXRoIGlkPSJwYXRoMzIzIiBzdHJva2Utd2lkdGg9IjAuNjM0IiBzdHJva2U9IiMwMDAwMDAiIGZpbGwtcnVsZT0iZXZlbm9kZCIgZmlsbD0iIzg4YWEwMCIgZD0ibSAxNjguNjYsNDk1LjYyIDY5LjI3NSwtMTQuMDM2IGMgMCwwIDIxLjUzMiwtNC4zNTkxIDI2LjA2LC0zLjkwNjMgNC41Mjc4LDAuNDUyNzcgMjUuMzY5LC0wLjY0MDMzIDI1LjM2OSwtMC42NDAzMyBsIDMxLjQyOSwyMS4yOTkgLTUyLjA2OSwzNC44NjQgYyAwLDAgLTk1Ljk4OSwtMTguNTY0IC05Ny4zNDcsLTIwLjM3NSAtMS4zNTgsLTEuODExIC0xMy4xMywtMTUuMzk0IC0xMy4xMywtMTUuMzk0IGwgMTAuNDE0LC0xLjgxMTEgeiIvPiYjeGE7ICAgICAgPHBhdGggaWQ9InBhdGgzMjUiIHN0cm9rZS13aWR0aD0iMS4yNjgiIHN0cm9rZT0iIzAwMDAwMCIgZmlsbC1ydWxlPSJldmVub2RkIiBmaWxsPSIjMjIyNDFjIiBkPSJtIDI0Mi40Niw0ODAuMjMgYyAwLDAgNS44ODYxLDYuNzkxNiAxNy4yMDYsNi4zMzg5IDExLjMxOSwtMC40NTI3NyAzMi42LC0zLjE2OTQgMzMuNTA2LC01LjQzMzMgMC45MDU1NCwtMi4yNjM5IC0wLjQ1Mjc5LC03LjI0NDQgLTAuNDUyNzksLTcuMjQ0NCAwLDAgLTEzLjU4MywtMS44MTExIC0zMS42OTQsMi4yNjM5IC0xOC4xMTEsNC4wNzUgLTE4LjU2NCwzLjYyMjIgLTE4LjU2NCw0LjA3NSB6Ii8+JiN4YTsgICAgICA8cGF0aCBpZD0icGF0aDMyNyIgc3Ryb2tlLXdpZHRoPSIxLjMwOTgiIG9wYWNpdHk9IjAuMTUiIGZpbGwtcnVsZT0iZXZlbm9kZCIgZD0ibSAyNjIuOTU4NzEsNDc3LjY1NzcyIGMgLTYuMDk3NTIsMC4xMDc2IC0yNS4wMDkzMywzLjk3MDM5IC0yNS4wMDkzMywzLjk3MDI2IGwgLTY5LjI1NTY3LDEzLjk5OTE1IC0xMC40Mzc1MywxLjg0MTg0IGMgMWUtNSwtMmUtNSAxMS43ODA2LDEzLjUzODA5IDEzLjEzODYsMTUuMzQ5NTQgMC4xMzE0OCwwLjE3NTI4IDEuMzc5MjIsMC42MDcwOCAzLjExMDc3LDEuMDY0MjIgbCA0MC43Njc1MywtOC4wNjM0IGMgMC4yMDc4NSwwLjg2MjQ3IDEuNzY1NjEsNi4zOTAyNiA4LjE4NjI1LDcuNjEzMjIgNi45NDYyNiwxLjMyMzE2IDE4LjUwNDg1LDUuMzEzMzMgMjIuMTQzNDgsMi4wMDU1NiAzLjYzODQ5LC0zLjMwNzc3IDguNjM2NTYsLTYuMjg3ODIgOC42MzY1NiwtMTEuOTExMDYgMCwtMi4zOTYyOCAtMC4xNDg2NCwtNC4wOTAyNCAtMC4yODY1MiwtNS4zNjIwNiBsIDUxLjUzMjc3LC0xMC4xOTE4MSAtMTEuOTUxOTMsLTkuMzMyMzMgYyAwLDAgLTI0Ljk4MzEyLC0wLjQ4ODY2IC0yOS41MTExLC0wLjk0MTQxIC0wLjI4Mjk5LC0wLjAyODMgLTAuNjU3NzIsLTAuMDQ4MSAtMS4wNjQyMSwtMC4wNDA5IHoiLz4mI3hhOyAgICAgIDxnIGlkPSJnMzUxIiB0cmFuc2Zvcm09InRyYW5zbGF0ZSgtMC4yNCwxLjY5KSIgc3Ryb2tlPSIjMDAwMDAwIiBmaWxsLXJ1bGU9ImV2ZW5vZGQiIGZpbGw9IiM0ODQ1MzciPiYjeGE7ICAgICAgICA8cGF0aCBpZD0icGF0aDMyOSIgc3Ryb2tlLXdpZHRoPSIwLjMwOSIgZD0ibSAyNzAuMjYsNDIwLjA1IDE1LjkwMiwtNC40MTgzIGMgMS4wNzQ0LC0wLjI5ODUxIDEuNzE1NSwtMS4zMjEzIDEuNDQxNiwtMi4zMDcxIC0wLjI3MzksLTAuOTg1OCAtMS4zNTQsLTEuNTQyOSAtMi40Mjg0LC0xLjI0NDQgbCAtMTUuOTAyLDQuNDE4MyAwLjk4Njc5LDMuNTUxNSB6Ii8+JiN4YTsgICAgICAgIDxnIGlkPSJnMzM1IiB0cmFuc2Zvcm09Im1hdHJpeCgxLjI2NzgsMCwwLDEuMjY3OCwtMTEuMjIsLTM0OC4yOSkiIHN0cm9rZS13aWR0aD0iMC41NTMiPiYjeGE7ICAgICAgICAgIDxwYXRoIGlkPSJwYXRoMzMxIiBkPSJtIDIyNS43Miw1OTIuOTcgYyAtMi42MjgyLDAgLTQuNzE4OCwxLjExMDggLTQuNzE4OCwyLjUgdiA1NC41NjIgYyAwLDEuMzg5MyAyLjA5MDUsMi41IDQuNzE4OCwyLjUgMi42MjgyLDAgNC43NSwtMS4xMTA3IDQuNzUsLTIuNSBWIDU5NS40NyBjIDAsLTEuMzg5MyAtMi4xMjE4LC0yLjUgLTQuNzUsLTIuNSB6Ii8+JiN4YTsgICAgICAgICAgPHBhdGggaWQ9InBhdGgzMzMiIGQ9Im0gMjI1Ljc3LDU5Mi45NSBjIC0yLjUzNTUsMCAtNC41ODU1LDEuMDQzIC00LjcyNzYsMi4zNjM4IDAuNDU3ODQsMS4xMzMgMi4zNTE1LDEuOTgzMyA0LjYzNTQsMS45ODMzIDIuNTIxMywwIDQuNTc2NSwtMS4wMzA1IDQuNzM5MiwtMi4zNDA4IDQuNmUtNCwtMC4wMDQgLTQuM2UtNCwtMC4wMDggMCwtMC4wMTE1IC0wLjQ0NzgsLTEuMTQgLTIuMzUzNiwtMS45OTQ4IC00LjY0NjksLTEuOTk0OCB6Ii8+JiN4YTsgICAgICAgIDwvZz4mI3hhOyAgICAgICAgPHBhdGggaWQ9InBhdGgzMzciIHN0cm9rZS13aWR0aD0iMC4zMDkiIGQ9Im0gMjU3LjMsNDIzLjQxIDE1LjkwMiwtNC40MTgzIGMgMS4wNzQ0LC0wLjI5ODUxIDEuNzE1NSwtMS4zMjEzIDEuNDQxNiwtMi4zMDcxIC0wLjI3MzksLTAuOTg1NzggLTEuMzU0LC0xLjU0MjkgLTIuNDI4NCwtMS4yNDQ0IGwgLTE1LjkwMiw0LjQxODMgMC45ODY3OCwzLjU1MTUgeiIvPiYjeGE7ICAgICAgICA8ZyBpZD0iZzM0MyIgdHJhbnNmb3JtPSJtYXRyaXgoMS4yNjc4LDAsMCwxLjIwOTIsLTMwLjkxLC0zMDguOTQpIiBzdHJva2Utd2lkdGg9IjAuNTUzIj4mI3hhOyAgICAgICAgICA8cGF0aCBpZD0icGF0aDMzOSIgZD0ibSAyMjUuNzIsNTkyLjk3IGMgLTIuNjI4MiwwIC00LjcxODgsMS4xMTA4IC00LjcxODgsMi41IHYgNTQuNTYyIGMgMCwxLjM4OTMgMi4wOTA1LDIuNSA0LjcxODgsMi41IDIuNjI4MiwwIDQuNzUsLTEuMTEwNyA0Ljc1LC0yLjUgViA1OTUuNDcgYyAwLC0xLjM4OTMgLTIuMTIxOCwtMi41IC00Ljc1LC0yLjUgeiIvPiYjeGE7ICAgICAgICAgIDxwYXRoIGlkPSJwYXRoMzQxIiBkPSJtIDIyNS43Nyw1OTIuOTUgYyAtMi41MzU1LDAgLTQuNTg1NSwxLjA0MyAtNC43Mjc2LDIuMzYzOCAwLjQ1Nzg0LDEuMTMzIDIuMzUxNSwxLjk4MzMgNC42MzU0LDEuOTgzMyAyLjUyMTMsMCA0LjU3NjUsLTEuMDMwNSA0LjczOTIsLTIuMzQwOCA0LjZlLTQsLTAuMDA0IC00LjNlLTQsLTAuMDA4IDAsLTAuMDExNSAtMC40NDc4LC0xLjE0IC0yLjM1MzYsLTEuOTk0OCAtNC42NDY5LC0xLjk5NDggeiIvPiYjeGE7ICAgICAgICA8L2c+JiN4YTsgICAgICAgIDxnIGlkPSJnMzQ5IiB0cmFuc2Zvcm09Im1hdHJpeCgxLjI2NzgsMCwwLDEuMjY3OCwtMzIuODMsLTM0My42NSkiIHN0cm9rZS13aWR0aD0iMC4yNDQiPiYjeGE7ICAgICAgICAgIDxwYXRoIGlkPSJwYXRoMzQ1IiBkPSJtIDIxNy45OSw2MDguMDIgNy44MTEsLTIuMTAxMiBjIDAuODQ3NDYsLTAuMjM1NDYgMS4zNTMyLC0xLjA0MjIgMS4xMzcxLC0xLjgxOTggLTAuMjE2MDUsLTAuNzc3NTcgLTEuMDY4LC0xLjIxNyAtMS45MTU1LC0wLjk4MTU4IGwgLTcuNjk5NCwyLjE0NTggMC42NjY3NSwyLjc1NjcgeiIvPiYjeGE7ICAgICAgICAgIDxwYXRoIGlkPSJwYXRoMzQ3IiBkPSJtIDIxNy41Myw2MDUuMjUgYyAtMC4xLDAuMDAzIC0wLjE3OTY3LDAuMDEgLTAuMjgxMjUsMC4wMzEyIC0wLjAwMiw0LjZlLTQgLTAuMDI5LC01ZS00IC0wLjAzMTIsMCAtMC42NTg2MSwwLjMyNTY4IC0xLjAwMSwxLjA0MDMgLTAuODEyNSwxLjcxODggMC4xNzk4LDAuNjQ3MDcgMC44MDc0MSwxLjA3OTEgMS41LDEuMDYyNSAwLjAxLC0yLjRlLTQgMC4wMjEzLDQuMWUtNCAwLjAzMTIsMCBsIDAuMzQzNzUsLTAuMDkzNyBjIDAuNjE0MTksLTAuMzM5OTkgMC45NjI5NSwtMS4wMDIyIDAuNzgxMjUsLTEuNjU2MiAtMC4xODEzNSwtMC42NTI3MiAtMC44MzEzNiwtMS4wODU5IC0xLjUzMTIsLTEuMDYyNSB6Ii8+JiN4YTsgICAgICAgIDwvZz4mI3hhOyAgICAgIDwvZz4mI3hhOyAgICAgIDxnIGlkPSJnMzY1IiB0cmFuc2Zvcm09InRyYW5zbGF0ZSgwLC0zLjk3KSIgZmlsbC1ydWxlPSJldmVub2RkIj4mI3hhOyAgICAgICAgPHBhdGggaWQ9InBhdGgzNTMiIHN0cm9rZS13aWR0aD0iMC42NTUiIHN0cm9rZT0iIzAwMDAwMCIgZmlsbD0iIzIyMjQxYyIgZD0ibSAyMTUuMDIsNTA2Ljk4IGMgLTAuMzU0OTksMi44MTM0IDQuNzE4Myw5LjQwOTggMjAuNDU5LDguOTg4NyAxNS4yNiwtMC40MTE0MSAxNy45MDYsLTkuMjQ4MSAxNy44NTEsLTEyLjA1NCAtMTEuMTgxLC0xMS4xNTYgLTM1LjE0OCwtNi4wNjI1IC0zOC4zMSwzLjA2NTggeiIvPiYjeGE7ICAgICAgICA8cGF0aCBpZD0icGF0aDM1NSIgc3Ryb2tlLXdpZHRoPSIwLjU4NSIgc3Ryb2tlPSIjMDAwMDAwIiBmaWxsPSIjNDg0NTM3IiBkPSJtIDIxNy45OSw0ODAuODcgMC4zMzMxOCwyNC4xODYgYyAwLDAgNi40NzMxLDEwLjczNCAyMS45MDcsNy40OTI4IDguNjcxNiwtMS44MjEzIDEwLjA2NiwtOC45Nzg4IDEwLjA2NiwtOC45Nzg4IGwgLTAuNTM4MTUsLTIzLjcyOSAtMTcuNTA1LC01LjU3MDYgLTE0LjI2Miw2LjYwMDQgeiIvPiYjeGE7ICAgICAgICA8cGF0aCBpZD0icGF0aDM1NyIgc3Ryb2tlLXdpZHRoPSIxLjMwOTgiIG9wYWNpdHk9IjAuMTgxIiBkPSJtIDI0NC4xMjM3OCw0NzguMDYzNzYgYyAtNi41MjY2LDAuNTYwMzIgLTIyLjUxMTUzLDEuOTIzODMgLTIzLjEyNTgzLDEuOTIzODMgLTAuNDE2NiwtMWUtNSAtMS44MDEyMywxLjk5OTAyIC0yLjk0NzA1LDMuODA2NTQgbCAwLjE2MzczLDUuOTc1OTYgLTAuMDgxOSwtMC4wODE5IDAuMjA0NjUsMTUuMzkwMTUgYyAyZS01LC0xMGUtNiA2LjQ2NDI2LDEwLjczMTk4IDIxLjg5ODU1LDcuNDkwNDkgOC42NzE3OSwtMS44MjEyOCAxMC4wNjkwOSwtOC45NjQwMSAxMC4wNjkwOSwtOC45NjQwMSBsIC0wLjMyNzQ1LC0xNC43NzU4NiAtMC4wNDA5LDAuMDQwOSAtMC4xNjM3MiwtOS4wMDQ4NyAtNS42NDg1MSwtMS44MDA5OCB6IG0gNC44MzE1OSwxMS4wODIzNCAwLjE5OTY3LDE0LjQ2Njc1IGMgLTUuNzE4NzIsMTIuMjgzMyAtMjQuNDgyNzgsOC4yMjk3MyAtMjkuNTk2MjQsMS4wODAyMSBsIC0wLjI0MjI2LC0xMy40ODk2MyBjIDE0LjM5NzMyLDUuNDI4NDcgMjIuMDMzNDUsMy4xOTMzIDI5LjYzOTQ2LC0yLjA1NjUxIHoiLz4mI3hhOyAgICAgICAgPHBhdGggaWQ9InBhdGgzNTkiIHN0cm9rZS13aWR0aD0iMC42NTUiIHN0cm9rZT0iIzAwMDAwMCIgZmlsbD0iIzc4NjcyMSIgZD0ibSAyMTIuOTEsNDgxLjk1IGMgLTAuMzU0OTksMi44MTM0IDYuMTIxNiw5LjQwOTggMjEuODYyLDguOTg4NyAxNS4yNiwtMC40MTE0MSAxOS43NzcsLTguODk3MyAxOS43MjIsLTExLjcwNCAtMTEuMTgxLC0xMS4xNTYgLTM4LjQyMywtNi40MTMzIC00MS41ODQsMi43MTUgeiIvPiYjeGE7ICAgICAgICA8cGF0aCBpZD0icGF0aDM2MSIgdHJhbnNmb3JtPSJtYXRyaXgoMS4zNTcyLDAsMCwxLjczODYsLTE0NC4zMywtMzQ1LjM1KSIgb3BhY2l0eT0iMC4xODEiIGQ9Im0gMjgyLjE0LDQ3NC44MiBjIDAsMS4wODQ4IC0xLjg3ODgsMS45NjQzIC00LjE5NjQsMS45NjQzIC0yLjMxNzYsMCAtNC4xOTY0LC0wLjg3OTQ0IC00LjE5NjQsLTEuOTY0MyAwLC0xLjA4NDg2IDEuODc4OCwtMS45NjQzIDQuMTk2NCwtMS45NjQzIDIuMzE3NiwwIDQuMTk2NCwwLjg3OTQ0IDQuMTk2NCwxLjk2NDMgeiIvPiYjeGE7ICAgICAgICA8cGF0aCBpZD0icGF0aDM2MyIgdHJhbnNmb3JtPSJtYXRyaXgoMS4yODc2LDAsMCwxLjczODYsLTEyNC45NiwtMzQ2LjIxKSIgc3Ryb2tlLXdpZHRoPSIwLjQzOCIgc3Ryb2tlPSIjMDAwMDAwIiBmaWxsPSIjNzg2NzIxIiBkPSJtIDI4Mi4xNCw0NzQuODIgYyAwLDEuMDg0OCAtMS44Nzg4LDEuOTY0MyAtNC4xOTY0LDEuOTY0MyAtMi4zMTc2LDAgLTQuMTk2NCwtMC44Nzk0NCAtNC4xOTY0LC0xLjk2NDMgMCwtMS4wODQ4NiAxLjg3ODgsLTEuOTY0MyA0LjE5NjQsLTEuOTY0MyAyLjMxNzYsMCA0LjE5NjQsMC44Nzk0NCA0LjE5NjQsMS45NjQzIHoiLz4mI3hhOyAgICAgIDwvZz4mI3hhOyAgICAgIDxwYXRoIGlkPSJwYXRoMzY3IiBzdHJva2Utd2lkdGg9IjEuMjY4IiBzdHJva2U9IiMwMDAwMDAiIGZpbGwtcnVsZT0iZXZlbm9kZCIgZmlsbD0iIzQ4NDUzNyIgZD0ibSAxNjguNTUsNDk0LjI2IDIuMjQxMSwxMS44NDYgYyAwLDAgLTI4LjE3NCwxLjkyMSAtMjguODE1LC0xLjYwMDggLTAuNjQwMzIsLTMuNTIxOCAwLC0xNi45NjkgMCwtMTYuOTY5IGwgMjYuNTczLDYuNzIzNCB6Ii8+JiN4YTsgICAgICA8ZyBpZD0iZzM3NSIgdHJhbnNmb3JtPSJtYXRyaXgoMS4yNjc4LDAsMCwxLjI2NzgsLTMyLjgzLC0zNDMuNjUpIiBzdHJva2Utd2lkdGg9IjAuNSIgc3Ryb2tlPSIjMDAwMDAwIiBmaWxsLXJ1bGU9ImV2ZW5vZGQiPiYjeGE7ICAgICAgICA8cGF0aCBpZD0icGF0aDM2OSIgZmlsbD0iI2U0ZDM5MSIgZD0ibSAyNDcuNjgsNjgwLjIyIDAuMTc4NTcsLTEyLjMyMSAxMi42NzksNS41MzU3IC0wLjcxNDI4LDkuNjQyOSAtMTIuMTQzLC0yLjg1NzIgeiIvPiYjeGE7ICAgICAgICA8cGF0aCBpZD0icGF0aDM3MSIgZmlsbD0iI2U0ZDhhOCIgZD0ibSAyOTEuMjUsNjgwLjkzIHYgLTEzLjAzNiBsIC0zMy4zOTMsNi45NjQzIHYgOC41NzE0IGwgMzMuMzkzLC0yLjUgeiIvPiYjeGE7ICAgICAgICA8cGF0aCBpZD0icGF0aDM3MyIgZmlsbD0iI2ZmZWVhYSIgZD0ibSAyNDYuOTYsNjY4LjQzIDEwLjUzNiw3Ljg1NzEgMzUsLTguNTcxNCAwLjE3ODU3LC0xLjYwNzEgLTEyLjE0MywtOS44MjE0IC0zMy4wMzYsOC4yMTQzIGMgMCwwIC0wLjg5Mjg2LDQuNDY0MyAtMC41MzU3MSwzLjkyODYgeiIvPiYjeGE7ICAgICAgPC9nPiYjeGE7ICAgICAgPHBhdGggaWQ9InBhdGgzNzciIHN0cm9rZS13aWR0aD0iMS4yNjgiIHN0cm9rZT0iIzAwMDAwMCIgZmlsbC1ydWxlPSJldmVub2RkIiBmaWxsPSIjNDg0NTM3IiBkPSJtIDkxMC43Niw0MDQuMTYgYyAyLjk0MDMsMi4yNzQgNy4wODE0LDEuMTY2NyAxMC4wNzQsLTAuNTY1OTcgMCwwIDAuMTEzMiwtMjQuMzM3IDAuMjI2NCwtMjQuOTAzIDAuOTU2ODgsLTYuODE1OCAxMC40MjUsLTQuMzM2IDEwLjg2NywxLjkyNDMgMS42OTc5LDQuNzU0MiAxLjEyODIsMzIuNDIzIDEuMTI4MiwzMi40MjMgMy4yNDg1LDIuNDc3MSA3Ljc3NzEsMi45MjYyIDEwLjU4NywwLjc5OTkgMCwwIC0wLjA1NiwtMjkuMDM1IC0wLjczNTEyLC0zMC41MDYgMC4wOTA4LC0xNy41NDYgLTIyLjE4LC0yNi4yIC0zMS42OTQsLTguOTQyNCAtMC45MDU1NiwyLjk0MzEgLTAuNTY1OTgsMjkuNzcgLTAuNDUyNzgsMjkuNzcgeiIvPiYjeGE7ICAgICAgPHBhdGggaWQ9InBhdGgzNzkiIHN0cm9rZS13aWR0aD0iMS4yNjgiIHN0cm9rZT0iIzAwMDAwMCIgZmlsbC1ydWxlPSJldmVub2RkIiBmaWxsPSIjNmM2NzUzIiBkPSJtIDk4My40OCw0MTguMzMgYyA1LjIxNzgsLTAuOTU3NTMgMTAuNzAxLDQuMjIzNSAxMC43MDEsNC4yMjM1IGwgMy4zOTU4LDMuMzM5MiA2LjExMjUsLTQuNzU0MiAwLjM5NjIsLTAuNTA5MzggYyAwLDAgLTE0LjAzNCwtNy41NzE1IC0xNy4xODUsLTguNzg1OCAtMTEuMTczLC0yLjA2MzMgLTE1LjQ1NywxMC43ODIgLTIwLjA1NiwxOC44MDQgMCwwIDEuNDA3Miw0LjQyNDIgNi4xMjk4LDAuNzI2OTQgNC43MjI2LC0zLjY5NzMgNS4zMDE3LC0xMi4wODkgMTAuNTA1LC0xMy4wNDQgeiIvPiYjeGE7ICAgICAgPGcgaWQ9Imc0MDMiIHRyYW5zZm9ybT0ibWF0cml4KDEuMjY3OCwwLDAsMS4yNjc4LC0zMi44MywtMzQzLjY1KSIgc3Ryb2tlPSIjMDAwMDAwIiBmaWxsLXJ1bGU9ImV2ZW5vZGQiIGZpbGw9IiM0ODQ1MzciPiYjeGE7ICAgICAgICA8cGF0aCBpZD0icGF0aDM4MSIgc3Ryb2tlLXdpZHRoPSIwLjI0NCIgZD0ibSA1NzEuODcsNjM5LjggMTIuODI3LC0yLjIyNTkgYyAwLjg2NjYxLC0wLjE1MDM5IDEuNDQ5NywtMC45MDMwOSAxLjMxMTcsLTEuNjk4MiAtMC4xMzc5OSwtMC43OTUxNCAtMC45NDIyNiwtMS4zMTY4IC0xLjgwODksLTEuMTY2NCBsIC0xMi44MjcsMi4yMjU5IDAuNDk3MTMsMi44NjQ3IHoiLz4mI3hhOyAgICAgICAgPGcgaWQ9ImczODciIHRyYW5zZm9ybT0ibWF0cml4KDAuMzY4OTksMCwwLDAuMzY4OTksMzQyLjA4LDUxMi4wOCkiIHN0cm9rZS13aWR0aD0iMS41Ij4mI3hhOyAgICAgICAgICA8cmVjdCBpZD0icmVjdDM4MyIgeT0iMzA4Ljg0IiB4PSI2MTUuMDk5OTgiIHdpZHRoPSIyNS43MDk5OTkiIHJ5PSI2LjgwMDAwMDIiIHJ4PSIxMi44NiIgaGVpZ2h0PSIxMDUuNzEiLz4mI3hhOyAgICAgICAgICA8cGF0aCBpZD0icGF0aDM4NSIgZD0ibSA2MjguMDcsMzA4Ljg0IGMgLTYuODcxNCwwIC0xMi40MjcsMi44MjY4IC0xMi44MTIsNi40MDYyIDEuMjQwOCwzLjA3MDUgNi4zNzI4LDUuMzc1IDEyLjU2Miw1LjM3NSA2LjgzMywwIDEyLjQwMywtMi43OTI4IDEyLjg0NCwtNi4zNDM4IDAuMDAxLC0wLjAxIC0wLjAwMSwtMC4wMjEzIDAsLTAuMDMxMiAtMS4yMTM2LC0zLjA4OTYgLTYuMzc4NSwtNS40MDYyIC0xMi41OTQsLTUuNDA2MiB6Ii8+JiN4YTsgICAgICAgIDwvZz4mI3hhOyAgICAgICAgPHBhdGggaWQ9InBhdGgzODkiIHN0cm9rZS13aWR0aD0iMC4yNDQiIGQ9Im0gNTU4LjU4LDY0MS45NiAxMi44MjcsLTIuMjI1OSBjIDAuODY2NjEsLTAuMTUwMzkgMS40NDk3LC0wLjkwMzA5IDEuMzExNywtMS42OTgyIC0wLjEzOCwtMC43OTUxNCAtMC45NDIyNiwtMS4zMTY4IC0xLjgwODksLTEuMTY2NCBsIC0xMi44MjcsMi4yMjU5IDAuNDk3MTQsMi44NjQ3IHoiLz4mI3hhOyAgICAgICAgPGcgaWQ9ImczOTUiIHRyYW5zZm9ybT0ibWF0cml4KDAuMzY4OTksMCwwLDAuMzY4OTksMzI1LjQyLDUxNC44NikiIHN0cm9rZS13aWR0aD0iMS41Ij4mI3hhOyAgICAgICAgICA8cmVjdCBpZD0icmVjdDM5MSIgeT0iMzA4Ljg0IiB4PSI2MTUuMDk5OTgiIHdpZHRoPSIyNS43MDk5OTkiIHJ5PSI2LjgwMDAwMDIiIHJ4PSIxMi44NiIgaGVpZ2h0PSIxMDUuNzEiLz4mI3hhOyAgICAgICAgICA8cGF0aCBpZD0icGF0aDM5MyIgZD0ibSA2MjguMDcsMzA4Ljg0IGMgLTYuODcxNCwwIC0xMi40MjcsMi44MjY4IC0xMi44MTIsNi40MDYyIDEuMjQwOCwzLjA3MDUgNi4zNzI4LDUuMzc1IDEyLjU2Miw1LjM3NSA2LjgzMywwIDEyLjQwMywtMi43OTI4IDEyLjg0NCwtNi4zNDM4IDAuMDAxLC0wLjAxIC0wLjAwMSwtMC4wMjEzIDAsLTAuMDMxMiAtMS4yMTM2LC0zLjA4OTYgLTYuMzc4NSwtNS40MDYyIC0xMi41OTQsLTUuNDA2MiB6Ii8+JiN4YTsgICAgICAgIDwvZz4mI3hhOyAgICAgICAgPGcgaWQ9Imc0MDEiIHRyYW5zZm9ybT0ibWF0cml4KDAuOTk1MDgsMC4wOTkwMjMsLTAuMDk5MDIzLDAuOTk1MDgsMzg4LjYzLDE3Ljc3KSIgc3Ryb2tlLXdpZHRoPSIwLjI0NCI+JiN4YTsgICAgICAgICAgPHBhdGggaWQ9InBhdGgzOTciIGQ9Im0gMjE3Ljk5LDYwOC4wMiA3LjgxMSwtMi4xMDEyIGMgMC44NDc0NiwtMC4yMzU0NiAxLjM1MzIsLTEuMDQyMiAxLjEzNzEsLTEuODE5OCAtMC4yMTYwNSwtMC43Nzc1NyAtMS4wNjgsLTEuMjE3IC0xLjkxNTUsLTAuOTgxNTggbCAtNy42OTk0LDIuMTQ1OCAwLjY2Njc1LDIuNzU2NyB6Ii8+JiN4YTsgICAgICAgICAgPHBhdGggaWQ9InBhdGgzOTkiIGQ9Im0gMjE3LjUzLDYwNS4yNSBjIC0wLjEsMC4wMDMgLTAuMTc5NjcsMC4wMSAtMC4yODEyNSwwLjAzMTIgLTAuMDAyLDQuNmUtNCAtMC4wMjksLTVlLTQgLTAuMDMxMiwwIC0wLjY1ODYxLDAuMzI1NjggLTEuMDAxLDEuMDQwMyAtMC44MTI1LDEuNzE4OCAwLjE3OTgsMC42NDcwNyAwLjgwNzQxLDEuMDc5MSAxLjUsMS4wNjI1IDAuMDEsLTIuNGUtNCAwLjAyMTMsNC4xZS00IDAuMDMxMiwwIGwgMC4zNDM3NSwtMC4wOTM3IGMgMC42MTQxOSwtMC4zMzk5OSAwLjk2Mjk1LC0xLjAwMjIgMC43ODEyNSwtMS42NTYyIC0wLjE4MTM1LC0wLjY1MjcyIC0wLjgzMTM2LC0xLjA4NTkgLTEuNTMxMiwtMS4wNjI1IHoiLz4mI3hhOyAgICAgICAgPC9nPiYjeGE7ICAgICAgPC9nPiYjeGE7ICAgICAgPHBhdGggaWQ9InBhdGg0MDUiIHN0cm9rZS13aWR0aD0iMC4yNTQiIHN0cm9rZT0iIzAwMDAwMCIgZmlsbC1ydWxlPSJldmVub2RkIiBmaWxsPSIjZmZmZmZmIiBkPSJtIDE1MC43Nyw2NDcuMyBjIDAsMCA1OS43NjcsOC4zNzY0IDYzLjYxNSw4LjE1IDMuODQ4NiwtMC4yMjYzOCA4Ny42MTIsLTAuMjI2MzggODcuNjEyLC0wLjIyNjM4IGwgNjEuMzUxLC0wLjkwNTU2IGMgMCwwIDIwLjYwMSwtMS41ODQ3IDI2LjQ4OCwtMi4yNjM5IDUuODg2MSwtMC42NzkxOCA1OS43NjcsLTUuMjA3IDY0LjA2OCwtNi41NjUzIDQuMzAxNCwtMS4zNTgzIDQzLjAxNCwtOC4zNzY0IDUxLjM5LC0xMC4xODggOC4zNzY0LC0xLjgxMTEgNjQuNzQ3LC0xNC45NDIgNjQuNzQ3LC0xNC45NDIgbCAxODUuNjQsLTQ2LjQxIDEwOS4zNSwtMjkuMjA0IGMgMCwwIDg3LjYxMiwtMjUuMTI5IDg5LjQyNCwtMjUuODA4IDEuODExMSwtMC42NzkxNyA2NS40MjYsLTE3LjY1OCA2NS40MjYsLTE3LjY1OCBsIDE5LjQ2OSwtNC41Mjc4IDAuNjc5MiwtNS40MzMzIC02Mi40ODMsMTUuODQ3IC0xMDAuMDYsMjkuMjA0IC0yNjAuOCw2Ny4yMzcgLTY4LjE0MywxNi45NzkgYyAwLDAgLTg4LjA2NSwxOC43OSAtOTEuNjg3LDE4Ljc5IC0zLjYyMjIsMCAtNTEuMTY0LDYuMTEyNSAtNTQuNTYsNi43OTE2IC0zLjM5NTgsMC42NzkxNiAtODAuNTk0LDQuOTgwNiAtODUuMzQ4LDQuNzU0MiAtNC43NTQsLTAuMjI2NCAtOTUuNTM2LDAuMjI2MzkgLTEwMS40MiwtMC4yMjYzOSAtNS44ODQsLTAuNDUyNzggLTY4LjE0MywtOC42MDI4IC02OC4xNDMsLTguNjAyOCBsIDMuMzk1OCw1LjIwNyB6Ii8+JiN4YTsgICAgICA8cGF0aCBpZD0icGF0aDQwNyIgc3Ryb2tlLXdpZHRoPSIxLjI2OCIgc3Ryb2tlPSIjMDAwMDAwIiBmaWxsLXJ1bGU9ImV2ZW5vZGQiIGZpbGw9IiM0ODQ1MzciIGQ9Im0gMTE4Ljc3LDQ3OC44NiAyNy42OTMsLTEuNTc1OSA2LjcyMzQsMC4zMjAxNiAxNS4zNjgsMTYuNjQ4IC0yNC4wMTIsMi41NjEzIC0yMC40OSwtMTIuMTY2IC01LjI4MTYsLTUuNzg3OSB6Ii8+JiN4YTsgICAgICA8cGF0aCBpZD0icGF0aDQwOSIgc3Ryb2tlLXdpZHRoPSIxLjI2OCIgc3Ryb2tlPSIjMDAwMDAwIiBmaWxsLXJ1bGU9ImV2ZW5vZGQiIGZpbGw9IiMyMjI0MWMiIGQ9Im0gMjU3LjQsNTEzLjA1IDUyLjUyMiwtMTA1Ljk1IDguMTUsLTMuODQ4NiAtMTBlLTYsLTYuNTY1MyBjIDAsMCAtOS41MDgzLDMuNjIyMiAtMTEuMzE5LDQuMzAxNCAtMS44MTExLDAuNjc5MTcgLTU4LjQwOCwxMTQuMzMgLTU4LjQwOCwxMTQuMzMgbCA1Ljg4NjEsMi4wMzc1IDMuMTY5NCwtNC4zMDE0IHoiLz4mI3hhOyAgICAgIDxnIGlkPSJnNDE5IiB0cmFuc2Zvcm09Im1hdHJpeCgxLjI2NzgsMCwwLDEuMjY3OCwtMzIuODMsLTM0My42NSkiIHN0cm9rZS1saW5lY2FwPSJyb3VuZCIgc3Ryb2tlPSIjM2YzYzExIiBmaWxsPSJub25lIj4mI3hhOyAgICAgICAgPHBhdGggaWQ9InBhdGg0MTEiIHN0cm9rZS13aWR0aD0iMi4yIiBkPSJtIDUwNy44Niw1MzYuMzQgYyAwLDAgMTcuNSw3LjQ1NTQgMTguOTI5LDkuOTU1NCAxLjQyODYsMi41IDEuNDI4Niw1My41NzEgMS40Mjg2LDUzLjU3MSBsIC0yLjAzNjQsMC4xMDQ2Ii8+JiN4YTsgICAgICAgIDxwYXRoIGlkPSJwYXRoNDEzIiBzdHJva2Utd2lkdGg9IjIuMiIgZD0ibSA1MjEuNjEsNTQyLjkgLTAuNzg4MjYsMzYuMjA3Ii8+JiN4YTsgICAgICAgIDxwYXRoIGlkPSJwYXRoNDE1IiBzdHJva2Utd2lkdGg9IjEuNSIgZD0ibSA1MDguNTMsNTYyLjkgMTEuOTY2LDUuODE4OSIvPiYjeGE7ICAgICAgICA8cGF0aCBpZD0icGF0aDQxNyIgc3Ryb2tlLXdpZHRoPSIxLjUiIGQ9Im0gNTA3Ljc3LDU1MC4yMiAxMy4zMDQsNSIvPiYjeGE7ICAgICAgPC9nPiYjeGE7ICAgICAgPHBhdGggaWQ9InBhdGg0MjEiIHN0cm9rZS13aWR0aD0iMS4yNjgiIHN0cm9rZT0iIzAwMDAwMCIgZmlsbD0ibm9uZSIgZD0ibSA5NjQuMTksMzcyLjkyIC0wLjU1NzkyLDE5LjM1NSAzLjI3NDYsLTAuMjM3NzciLz4mI3hhOyAgICAgIDxwYXRoIGlkPSJwYXRoNDIzIiBzdHJva2Utd2lkdGg9IjEuMjY4IiBzdHJva2U9IiMwMDAwMDAiIGZpbGw9Im5vbmUiIGQ9Im0gOTk4LjE1LDM4NS44NCBjIC0wLjEwNTIsMi43NDQxIC0wLjM0NzcsMTkuODYzIC0wLjM0NzcsMTkuODYzIGwgMi43MTY3LDAuNTA3NzEiLz4mI3hhOyAgICAgIDxnIGlkPSJnNDMxIiB0cmFuc2Zvcm09Im1hdHJpeCgxLjI2NzgsMCwwLDEuMjY3OCwtMzIuNiwtMzQ0Ljc4KSIgc3Ryb2tlPSIjMDAwMDAwIiBmaWxsLXJ1bGU9ImV2ZW5vZGQiPiYjeGE7ICAgICAgICA8cGF0aCBpZD0icGF0aDQyNSIgZmlsbD0iI2M4MzczNyIgZD0ibSA2NTIuODEsNjQzLjUgMC4yNTI1NCw1LjkzNDYgaCA0LjY3MiBsIC0xLjAxMDIsLTYuODE4NSBjIDAsMCAtMS42NDE1LC0wLjg4Mzg5IC0yLjc3NzksLTAuMTI2MjcgLTEuMTM2NCwwLjc1NzYxIC0wLjYzMTM0LDAuODgzODggLTEuMTM2NCwxLjAxMDIgeiIvPiYjeGE7ICAgICAgICA8cGF0aCBpZD0icGF0aDQyNyIgZmlsbD0iI2M4MzczNyIgZD0ibSA2NDcuNzYsNjQyLjQ5IGMgMCwwIDIuMDIwMyw0LjE2NjkgNy43MDI0LDMuMjgzIDUuNjgyMSwtMC44ODM4OCA2LjQzOTcsLTMuMTU2NyA2LjMxMzUsLTMuNzg4MSAtMC4xMjYyNywtMC42MzEzNCAtMS45MjIyLC0yLjkxNzEgLTcuMDcxMSwtMi43Nzc5IC00LjU0NTcsMC4xMjYyNyAtNS4zMDMzLDEuMTM2NCAtNi45NDQ4LDMuMjgzIHoiLz4mI3hhOyAgICAgICAgPHBhdGggaWQ9InBhdGg0MjkiIGZpbGw9IiNlOWFmYWYiIGQ9Im0gNjUwLjY2LDY0Mi42MiBjIDAsMCAwLjI1MjU0LC0xLjI2MjcgMi45MDQyLC0xLjUxNTIgMi42NTE2NiwtMC4yNTI1IDQuOTI0NSwwIDUuMTc3LDAuNjMxMzQgMC4yNTI1NCwwLjYzMTM1IC0xLjAxMDIsMi4wMjAzIC0zLjE1NjcsMi4wMjAzIC0yLjE0NjYsMCAtMy43ODgxLDAuNjMxMzUgLTQuOTI0NSwtMS4xMzY0IHoiLz4mI3hhOyAgICAgIDwvZz4mI3hhOyAgICAgIDxwYXRoIGlkPSJwYXRoNDMzIiBzdHJva2Utd2lkdGg9IjAuNjM0IiBzdHJva2U9IiMwMDAwMDAiIGZpbGwtcnVsZT0iZXZlbm9kZCIgZmlsbD0iI2I3YzhiZSIgZD0ibSA2NDAuNDUsMzk3LjgyIDE3NS4yMiwtNDMuNDY3IGMgMCwwIDMxLjI0MiwtOS41MDgzIDQxLjIwMywtMTAuNDE0IDkuOTYxMSwtMC45MDU1NSAzMS4yNDIsLTAuNDUyNzggMzcuMTI4LDEuMzU4MyA1Ljg4NjEsMS44MTExIDEzMy4xMiw1Mi4wNjkgMTM1LjgzLDUzLjQyOCAyLjcxNjYsMS4zNTgzIDcuNjk3Miw0LjUyNzggNi4zMzg5LDYuMzM4OSAtMS4zNTg0LDEuODExMSAxLjM1ODMsNC45ODA2IC04LjYwMjgsOC4xNSAtOS45NjExLDMuMTY5NCAtMjEyLjM3LDU5LjYzMiAtMjg3LjUxLDc4LjMzIC00LjYzMSwyLjIwOTkgLTEyLjg0MywtNy44NjIxIC0xMi44NDMsLTcuODYyMSAwLDAgMS44OTUsMTIuMzMzIDcuMzI4NCwxMi4zMzMgNS40MzMzLDAgMTAzLjc3LC0yNC44NDYgMTAzLjc3LC0yNC44NDYgbCAxMzIuNjYsLTM3LjEyOCA2Ny40NjQsLTE5LjQ2OSBjIDAsMCA2Ljc5MTcsLTMuMTY5NCA3LjI0NDUsLTguMTUgMC40NTI3LC00Ljk4MDYgMy42MjIyLC02Ljc5MTcgLTE1Ljg0NywtMTQuNDg5IC0xOS40NywtNy42OTcyIC0xMjMuNjEsLTQ3LjU0MiAtMTIzLjYxLC00Ny41NDIgMCwwIC0xNC45NDIsLTQuOTgwNiAtMjMuNTQ0LC00Ljk4MDYgLTguNjAyOCwwIC0yMy45OTcsLTAuOTA1NTQgLTM3LjEyOCwyLjI2MzkgLTEzLjEzMSwzLjE2OTQ0IC0yMDkuNjQsNTIuMDY5IC0yMDkuNjQsNTIuMDY5IGwgNC41Mjc4LDQuMDc1IHoiLz4mI3hhOyAgICAgIDxnIGlkPSJnNDM5IiB0cmFuc2Zvcm09Im1hdHJpeCgxLjI2NzgsMCwwLDEuMjY3OCwtMzcuOTUsLTMzNC4yMSkiIHN0cm9rZS13aWR0aD0iMC4yNSIgc3Ryb2tlPSIjMDAwMDAwIiBmaWxsLXJ1bGU9ImV2ZW5vZGQiIGZpbGw9IiMyMjI0MWMiPiYjeGE7ICAgICAgICA8cGF0aCBpZD0icGF0aDQzNSIgZD0ibSAyMzIuNCw2NTkuNiA5Ljk3NTMsNy4zODY3IDMuNTM1NSwtMC40NDE5NSAtMTAuMTY1LC03LjAwNzkgLTMuMzQ2MSwwLjA2MzEgeiIvPiYjeGE7ICAgICAgICA8cGF0aCBpZD0icGF0aDQzNyIgZD0ibSAyMzIuNCw2NTkuNiA5Ljk3NTMsNy4zODY3IC0wLjYzMTM1LDEuMDczMyAtOS41OTY0LC03LjA3MTEgMC4yNTI1NCwtMS4zODkgeiIvPiYjeGE7ICAgICAgPC9nPiYjeGE7ICAgICAgPGcgaWQ9Imc0NDUiIHRyYW5zZm9ybT0ibWF0cml4KDEuMjY3OCwwLDAsMS4yNjc4LC0yOC4xOSwtMzUwLjU0KSIgc3Ryb2tlLXdpZHRoPSIwLjI1IiBzdHJva2U9IiMwMDAwMDAiIGZpbGwtcnVsZT0iZXZlbm9kZCIgZmlsbD0iIzIyMjQxYyI+JiN4YTsgICAgICAgIDxwYXRoIGlkPSJwYXRoNDQxIiBkPSJtIDIzMi40LDY1OS42IDkuOTc1Myw3LjM4NjcgMy41MzU1LC0wLjQ0MTk1IC0xMC4xNjUsLTcuMDA3OSAtMy4zNDYxLDAuMDYzMSB6Ii8+JiN4YTsgICAgICAgIDxwYXRoIGlkPSJwYXRoNDQzIiBkPSJtIDIzMi40LDY1OS42IDkuOTc1Myw3LjM4NjcgLTAuNjMxMzUsMS4wNzMzIC05LjU5NjQsLTcuMDcxMSAwLjI1MjU0LC0xLjM4OSB6Ii8+JiN4YTsgICAgICA8L2c+JiN4YTsgICAgICA8ZyBpZD0iZzQ1MSIgdHJhbnNmb3JtPSJtYXRyaXgoMS4yNjc4LDAsMCwxLjI2NzgsLTE5LjIyLC0zNjguOTQpIiBzdHJva2Utd2lkdGg9IjAuMjUiIHN0cm9rZT0iIzAwMDAwMCIgZmlsbC1ydWxlPSJldmVub2RkIiBmaWxsPSIjMjIyNDFjIj4mI3hhOyAgICAgICAgPHBhdGggaWQ9InBhdGg0NDciIGQ9Im0gMjMyLjQsNjU5LjYgOS45NzUzLDcuMzg2NyAzLjUzNTUsLTAuNDQxOTUgLTEwLjE2NSwtNy4wMDc5IC0zLjM0NjEsMC4wNjMxIHoiLz4mI3hhOyAgICAgICAgPHBhdGggaWQ9InBhdGg0NDkiIGQ9Im0gMjMyLjQsNjU5LjYgOS45NzUzLDcuMzg2NyAtMC42MzEzNSwxLjA3MzMgLTkuNTk2NCwtNy4wNzExIDAuMjUyNTQsLTEuMzg5IHoiLz4mI3hhOyAgICAgIDwvZz4mI3hhOyAgICAgIDxnIGlkPSJnNDU3IiB0cmFuc2Zvcm09Im1hdHJpeCgxLjI2NzgsMCwwLDEuMjY3OCwtMTAuNzQsLTM4Ni4yMykiIHN0cm9rZS13aWR0aD0iMC4yNSIgc3Ryb2tlPSIjMDAwMDAwIiBmaWxsLXJ1bGU9ImV2ZW5vZGQiIGZpbGw9IiMyMjI0MWMiPiYjeGE7ICAgICAgICA8cGF0aCBpZD0icGF0aDQ1MyIgZD0ibSAyMzIuNCw2NTkuNiA5Ljk3NTMsNy4zODY3IDMuNTM1NSwtMC40NDE5NSAtMTAuMTY1LC03LjAwNzkgLTMuMzQ2MSwwLjA2MzEgeiIvPiYjeGE7ICAgICAgICA8cGF0aCBpZD0icGF0aDQ1NSIgZD0ibSAyMzIuNCw2NTkuNiA5Ljk3NTMsNy4zODY3IC0wLjYzMTM1LDEuMDczMyAtOS41OTY0LC03LjA3MTEgMC4yNTI1NCwtMS4zODkgeiIvPiYjeGE7ICAgICAgPC9nPiYjeGE7ICAgICAgPGcgaWQ9Imc0NjMiIHRyYW5zZm9ybT0ibWF0cml4KDEuMjY3OCwwLDAsMS4yNjc4LC0yLjA5LC00MDMuMzYpIiBzdHJva2Utd2lkdGg9IjAuMjUiIHN0cm9rZT0iIzAwMDAwMCIgZmlsbC1ydWxlPSJldmVub2RkIiBmaWxsPSIjMjIyNDFjIj4mI3hhOyAgICAgICAgPHBhdGggaWQ9InBhdGg0NTkiIGQ9Im0gMjMyLjQsNjU5LjYgOS45NzUzLDcuMzg2NyAxLjcwNDYsLTEuNDUyMSAtOC4zMzM4LC01Ljk5NzggLTMuMzQ2MSwwLjA2MzEgeiIvPiYjeGE7ICAgICAgICA8cGF0aCBpZD0icGF0aDQ2MSIgZD0ibSAyMzIuNCw2NTkuNiA5Ljk3NTMsNy4zODY3IC0wLjYzMTM1LDEuMDczMyAtOS41OTY0LC03LjA3MTEgMC4yNTI1NCwtMS4zODkgeiIvPiYjeGE7ICAgICAgPC9nPiYjeGE7ICAgICAgPGcgaWQ9Imc0NzciIHRyYW5zZm9ybT0ibWF0cml4KDEuMjY3OCwwLDAsMS4yNjc4LC0zMi44MywtMzQzLjY1KSIgc3Ryb2tlLWxpbmVjYXA9InJvdW5kIiBzdHJva2U9IiMzZjNjMTEiIGZpbGw9Im5vbmUiPiYjeGE7ICAgICAgICA8cGF0aCBpZD0icGF0aDQ2NSIgc3Ryb2tlLXdpZHRoPSIxLjUiIGQ9Im0gMjc3LjE0LDU1Ny4zNiBjIDAsMCAtMjQuNjQzLC0xMS4wNzEgLTIzLjU3MSwtMTMuMjE0IDEuMDcyLC0yLjE0MyA1My4yMTcsLTExLjY1NiA1My4yMTcsLTExLjY1NiIvPiYjeGE7ICAgICAgICA8cGF0aCBpZD0icGF0aDQ2NyIgc3Ryb2tlLXdpZHRoPSIxLjUiIGQ9Im0gMjc3LjE0LDU3MS42NSBjIDAsMCAtMjQuNjQzLC0xMS4wNzEgLTIzLjU3MSwtMTMuMjE0IDEuMDcyLC0yLjE0MyA1NS4zNjQsLTEyLjI4NyA1NS4zNjQsLTEyLjI4NyIvPiYjeGE7ICAgICAgICA8cGF0aCBpZD0icGF0aDQ2OSIgc3Ryb2tlLXdpZHRoPSIyLjIiIGQ9Im0gMjI4LjIxLDY0MC41OCA0NSwtOTIuMTQzIGMgMCwwIDMuMjE0MywxLjc4NTcgMy41NzE0LC0wLjM1NzE0IDAuMzU3MTUsLTIuMTQyOSAtMjIuNSwtMTUuMzU3IC0yMi41LC0xNS4zNTcgMCwwIC0yLjE0MjgsLTIuMTQyOCAyLjUsLTMuMjE0MyA0LjY0MjksLTEuMDcxNCA0Ny45NjksLTguNzE1NiA0Ny45NjksLTguNzE1NiIvPiYjeGE7ICAgICAgICA8cGF0aCBpZD0icGF0aDQ3MSIgc3Ryb2tlLXdpZHRoPSIyLjIiIGQ9Im0gMjU3Ljg2LDUzNS4yMiAxLjAwODMsMzUuMTg4Ii8+JiN4YTsgICAgICAgIDxwYXRoIGlkPSJwYXRoNDczIiBzdHJva2Utd2lkdGg9IjIuMiIgZD0ibSAyNzIuMTQsNTI3LjcyIDEuMDcxNCwzNi40MDUiLz4mI3hhOyAgICAgICAgPHBhdGggaWQ9InBhdGg0NzUiIHN0cm9rZS13aWR0aD0iMS41IiBkPSJtIDI3Ny43Nyw1ODEuMiAtMC42Mjk0OSwtMzMuODQyIi8+JiN4YTsgICAgICA8L2c+JiN4YTsgICAgICA8ZyBpZD0iZzQ4MyIgdHJhbnNmb3JtPSJtYXRyaXgoMS4yNjc4LDAsMCwxLjI2NzgsNi41NSwtNDIwLjQ5KSIgc3Ryb2tlLXdpZHRoPSIwLjI1IiBzdHJva2U9IiMwMDAwMDAiIGZpbGwtcnVsZT0iZXZlbm9kZCIgZmlsbD0iIzIyMjQxYyI+JiN4YTsgICAgICAgIDxwYXRoIGlkPSJwYXRoNDc5IiBkPSJtIDIzMi40LDY1OS42IDkuOTc1Myw3LjM4NjcgMS4yNjI3LC0xLjc5OTMgLTcuODkxOCwtNS42NTA1IC0zLjM0NjEsMC4wNjMxIHoiLz4mI3hhOyAgICAgICAgPHBhdGggaWQ9InBhdGg0ODEiIGQ9Im0gMjMyLjQsNjU5LjYgOS45NzUzLDcuMzg2NyAtMC42MzEzNSwxLjA3MzMgLTkuNTk2NCwtNy4wNzExIDAuMjUyNTQsLTEuMzg5IHoiLz4mI3hhOyAgICAgIDwvZz4mI3hhOyAgICAgIDxwYXRoIGlkPSJwYXRoNDg1IiBzdHJva2Utd2lkdGg9IjEuMjY4IiBzdHJva2U9IiMwMDAwMDAiIGZpbGwtcnVsZT0iZXZlbm9kZCIgZmlsbD0iIzIyMjQxYyIgZD0ibSAyNzEuNDQsNTIwLjUyIDQ5LjM1MywtMTAzLjIzIDExLjU0NiwtMy42MjIyIC0wLjQ1Mjc3LC02Ljc5MTcgLTE0LjI2Miw0LjMwMTQgLTU0LjMzMywxMDkuMzUgaCA4LjE1IHoiLz4mI3hhOyAgICAgIDxwYXRoIGlkPSJwYXRoNDg3IiBzdHJva2Utd2lkdGg9IjAuNjM0IiBzdHJva2U9IiMwMDAwMDAiIGZpbGwtcnVsZT0iZXZlbm9kZCIgZmlsbD0iIzZmN2M5MSIgZD0ibSAyNDkuMDksNDM1LjE5IGMgMCwwIC03MS44MjksMTUuNjA3IC04Mi42OTYsMTcuNDE4IC0xMC44NjcsMS44MTExIC0zNi4wMTgsOS44MTEyIC00MC41NDYsMTEuNjIyIC00LjUyNzgsMS44MTExIC03Ljk0OTEsMTMuMzI4IC0zLjgyOTEsMTcuNTA1IDMuNzA4LDMuNzU5MiAxOC4wOSwxNS41MDIgNTIuNTI1LDIxLjU4MyA1LjM1MDUsMC45NDQ4NyA3MC42MzMsMTEuNzcyIDkwLjU1NSwxMi42NzggMTkuOTIyLDAuOTA1NTUgOTAuNTU1LDIuNzE2NyA5NS45ODksMi43MTY3IDUuNDMzMywwIDcwLjYzMywtMS44MTExIDgxLjUsLTIuNzE2NyAxMC44NjcsLTAuOTA1NTYgMTA5LjU3LC0xNC40ODkgMTM0LjkzLC0xNi4zIDI1LjM1NiwtMS44MTExIDExNC4xLC0xNS4zOTQgMTE0LjEsLTE1LjM5NCBsIDMyLjgzNywtNS44MTExIDQuNDM3OCwyLjgzMzYgYyAwLDAgMS42NjQyLDEyLjAzMyA2LjE5MiwxMi4wMzMgNC41Mjc4LDAgNy44NzA3LDAuODU5MDkgNy4zNjE0LDEuMjgzNCAtMTYuNDE0LDcuMjA3IC0zMjguNjUsNDQuNDk3IC01MTAuODUsMzIuMjIyIC0xMDcuNzYsLTEzLjU4MyAtMTIzLjkyLC00OC42OTYgLTEyMy45MiwtNDguNjk2IDAsMCAtMS4wNjMsLTQuMjYyNCA0Ljc5MTcsLTE0LjAyMSA5LjI0NiwtNy4wNjkgMjcuNjY0LC0xMy4zNDkgMzIuMTkyLC0xNC4yNTUgNC41Mjc4LC0wLjkwNTU0IDcwLjc0NywtMTMuOTkxIDcwLjc0NywtMTMuOTkxIGwgMzMuNjgyLC02LjgzNjYgdiA2LjEyNjIgeiIvPiYjeGE7ICAgICAgPHBhdGggaWQ9InBhdGg0ODkiIHN0cm9rZS13aWR0aD0iMC42MzQiIHN0cm9rZT0iIzAwMDAwMCIgZmlsbC1ydWxlPSJldmVub2RkIiBmaWxsPSIjNWY4ZGQzIiBkPSJtIDEwNy42OSw0NzguMzIgLTAuNzU3MjYsMTkuNzA4IGMgMCwwIDEwLjIzMiwxNS41OTUgMzAuNTYyLDIwLjg3OCAyMC4zMyw1LjI4MyA1Ny45NDksMTQuNDA3IDY2LjU5NCwxNS4wNDggOC42NDQ0LDAuNjQwMzMgNTIuMzQ2LDYuODgzNSA2NS45NTMsNi43MjM0IDEzLjYwNywtMC4xNjAwOCA5Ny42NDksNC44MDI0IDEwNS44MSw0LjQ4MjMgOC4xNjQxLC0wLjMyMDE1IDU2LjUwOSwtMi4yNDExIDY0LjUxMywtMi4yNDExIDguMDA0LDAgMTMwLjk1LC0xNi4wMDggMTMwLjk1LC0xNi4wMDggNTguODEzLC0xMC4zMzkgMTE5LjI4LC0xNS4yNDggMTc2LjQ5LC0zMy4yNDcgLTMuMDA0MSwwIC04LjYzMDksLTAuNTA0MTcgLTEzLjE1LC0zLjM0MzUgLTUuNDU1NSwtMy40MjggLTUuODkxMywtOC44NzgyIC01Ljg5MTMsLTguODc4MiAwLDAgLTk3Ljg5NSwxOC4yNTUgLTEyOS4yNywyMi43MzcgLTMxLjM3Niw0LjQ4MjMgLTEwNy45LDE0LjQwNyAtMTA3LjksMTQuNDA3IDAsMCAtMjUuMjkzLDIuNTYxMyAtMzIuOTc3LDMuMjAxNiAtNy42ODM5LDAuNjQwMzMgLTYyLjc1Miw1Ljc2MjkgLTg0LjIwMyw0LjgwMjQgLTIxLjQ1MSwtMC45NjA0OCAtMTM2LjM5LC04LjAwNCAtMTQ0LjA3LC04LjY0NDQgLTcuNjgzOSwtMC42NDAzMiAtNjAuMTksLTkuOTI1IC02My43MTIsLTEwLjg4NiAtMy41MjE4LC0wLjk2MDQ5IC0zMi4zMzYsLTcuMzYzNyAtMzQuODk4LC0xMC4yNDUgLTguNDg5NiwtNC45MDg2IC0xOC4wNjMsLTExLjE5IC0yNC4wNDIsLTE4LjQ5NSB6Ii8+JiN4YTsgICAgICA8ZyBpZD0iZzQ5OSIgdHJhbnNmb3JtPSJtYXRyaXgoMS4yNjc4LDAsMCwxLjI2NzgsLTMyLjgzLC0zNDMuNjUpIiBzdHJva2U9IiMwMDAwMDAiIGZpbGwtcnVsZT0iZXZlbm9kZCI+JiN4YTsgICAgICAgIDxwYXRoIGlkPSJwYXRoNDkxIiBmaWxsPSIjZTNkYmRiIiBkPSJtIDQyMC43Myw2MTIuNDQgMTcuNjc4LC0yLjc3NzkgMS4wMTAyLDQuNDE5NCAtMC41MDUwOCwyMC41ODIgLTEuMjYyNywxLjAxMDIgLTE1LjAyNiwyLjI3MjggLTIuMDIwMywtMS4xMzY0IDAuMTI2MjcsLTI0LjM3IHoiLz4mI3hhOyAgICAgICAgPHBhdGggaWQ9InBhdGg0OTMiIHN0cm9rZS13aWR0aD0iMC42ODciIGZpbGw9IiNmZmNjMDAiIGQ9Im0gNDIyLjIsNjExLjQ0IGMgLTEuMzM2NSwwLjE4MTg1IC0yLjQwNjIsMS4zOTcxIC0yLjQwNjIsMi43MzM2IHYgMjIuODEyIGMgMCwxLjMzNjUgMS4wNjk3LDIuMjYwNyAyLjQwNjIsMi4wNzg5IGwgMTUuNSwtMi4xMDg5IGMgMS4zMzY1LC0wLjE4MTg1IDIuNDA2MiwtMS4zOTcxIDIuNDA2MiwtMi43MzM2IFYgNjExLjQxIGMgMCwtMS4zMzY1IC0xLjA2OTcsLTIuMjYwNyAtMi40MDYyLC0yLjA3ODkgeiBtIDEuMDYyNSwxLjI5MjkgMTMuMzc1LC0xLjgxOTggYyAxLjE5NzksLTAuMTYyOTkgMi4xNTYyLDAuNjY0OTUgMi4xNTYyLDEuODYyOSB2IDIwLjQzOCBjIDEwZS02LDEuMTk3OSAtMC45NTgzMywyLjI4NjYgLTIuMTU2MiwyLjQ0OTYgbCAtMTMuMzc1LDEuODE5OCBjIC0xLjE5NzksMC4xNjMwMiAtMi4xNTYyLC0wLjY2NDk1IC0yLjE1NjIsLTEuODYyOSB2IC0yMC40MzggYyAwLC0xLjE5NzkgMC45NTgzMywtMi4yODY2IDIuMTU2MiwtMi40NDk2IHoiLz4mI3hhOyAgICAgICAgPHBhdGggaWQ9InBhdGg0OTUiIGZpbGw9IiNlM2RiZGIiIGQ9Im0gMzQ1LjIxLDYxOC42OCBjIDIuNDE0OCwtMC40NDQxNiAxNi43ODUsLTAuNzI0MzQgMTYuNzg1LC0wLjcyNDM0IGwgMC42NTMwMiwzLjcwNTEgMC4zODc3OCwyMC43NiAtMS43MDkxLDEuNzI0NCAtMTUuNDcyLDEuMzggLTIuMDIwMywtMS4xMzY0IGMgMCwwIC0wLjg2NjA0LC0yNS4yOTcgMS4zNzYzLC0yNS43MDkgeiIvPiYjeGE7ICAgICAgICA8cGF0aCBpZD0icGF0aDQ5NyIgc3Ryb2tlLXdpZHRoPSIwLjY4NyIgZmlsbD0iI2ZmY2MwMCIgZD0ibSAzNDUuNjgsNjE4LjIgYyAtMS4zMzY1LDAuMDg1NCAtMi40MDYyLDEuMjIzNSAtMi40MDYyLDIuNTYgdiAyMi44MTIgYyAwLDEuMzM2NSAxLjA2OTcsMi4zMzc5IDIuNDA2MiwyLjI1MjUgbCAxNS41LC0wLjk5MDQ4IGMgMS4zMzY1LC0wLjA4NTQgMi40MDYyLC0xLjIyMzQgMi40MDYyLC0yLjU2IHYgLTIyLjgxMiBjIDAsLTEuMzM2NSAtMS4wNjk3LC0yLjMzNzkgLTIuNDA2MiwtMi4yNTI1IHogbSAxLjA2MjUsMS4zNjk2IDEzLjM3NSwtMC44NTQ2OCBjIDEuMTk3OSwtMC4wNzY1IDIuMTU2MiwwLjgyMDUzIDIuMTU2MiwyLjAxODQgdiAyMC40MzggYyAxMGUtNiwxLjE5NzkgLTAuOTU4MzMsMi4yMTc1IC0yLjE1NjIsMi4yOTQgbCAtMTMuMzc1LDAuODU0NjggYyAtMS4xOTc5LDAuMDc2NiAtMi4xNTYyLC0wLjgyMDUzIC0yLjE1NjIsLTIuMDE4NCB2IC0yMC40MzggYyAwLC0xLjE5NzkgMC45NTgzMywtMi4yMTc1IDIuMTU2MiwtMi4yOTQgeiIvPiYjeGE7ICAgICAgPC9nPiYjeGE7ICAgICAgPHBhdGggaWQ9InBhdGg1MDEiIHN0cm9rZS13aWR0aD0iMS4yNjgiIHN0cm9rZT0iIzAwMDAwMCIgZmlsbC1ydWxlPSJldmVub2RkIiBmaWxsPSIjNmM2NzUzIiBkPSJtIDgzMy41LDM1NS4yIGMgMCwwIDAuMjI2MzksLTMuNjc4OCAyLjc3MzMsLTQuMDE4NCAyLjU0NjksLTAuMzM5NTkgMjEuODMsNC44NDg1IDI2LjI2MSw5Ljk2MTEgNS43NzY0LDYuNjY1MSA4Ljc0NDQsMTkuNzkyIDEyLjY3OCwyOS4yMDQgMCwwIC01Ljg4NjEsMS4xMzIgLTYuMTEyNSwwLjIyNjQgLTAuMjI2MzksLTAuOTA1NTYgLTkuNzM0NywtMjMuOTk3IC05LjczNDcsLTIzLjk5NyAtNS40NTM0LC0zLjc0OTIgLTI1Ljg2NSwtMTEuMzc2IC0yNS44NjUsLTExLjM3NiB6Ii8+JiN4YTsgICAgICA8cGF0aCBpZD0icGF0aDUwMyIgc3Ryb2tlLXdpZHRoPSIxLjI2OCIgc3Ryb2tlPSIjMDAwMDAwIiBmaWxsPSJub25lIiBkPSIiLz4mI3hhOyAgICAgIDxwYXRoIGlkPSJwYXRoNTA1IiBzdHJva2Utd2lkdGg9IjEuMjY4IiBzdHJva2U9IiMwMDAwMDAiIGZpbGw9Im5vbmUiIGQ9IiIvPiYjeGE7ICAgICAgPHBhdGggaWQ9InBhdGg1MDciIHN0cm9rZS13aWR0aD0iMC42MzQiIHN0cm9rZT0iIzAwMDAwMCIgZmlsbD0ibm9uZSIgZD0ibSA0ODkuMTUsMzM2LjU4IDEuNjU3OSwxLjkzMTIiLz4mI3hhOyAgICAgIDxwYXRoIGlkPSJwYXRoNTA5IiBvcGFjaXR5PSIwLjQxOSIgZmlsbC1ydWxlPSJldmVub2RkIiBkPSJtIDI0MC4zNCw2NzQuMDIgYyAtMS45OTQyLDAuMDM1NCAtMi4yMjQzLDAuNzgxMDQgLTEuOTQxMywxLjM0NyBsIDU3LjQ4NiwyMC43OTkgYyAyOS44ODcsLTIuNTA0OCAzNy4xMjIsLTUuMzg4IDM3LjEyMiwtNS4zODggMCwwIDQuODM2NywwLjYyMzEyIDExLjQxLDEuNDI2MiBsIC0xLjQyNjIsLTAuNTE1MDQgYyAxMGUtNiwyZS01IC04OS42NjEsLTE0Ljk0NyAtOTYuOTA2LC0xNi43NTggLTIuNzE2NywtMC42NzkxNiAtNC41NDgxLC0wLjkzMjQ0IC01Ljc0NDYsLTAuOTExMjIgeiIvPiYjeGE7ICAgICAgPHBhdGggaWQ9InBhdGg1MTUiIHN0cm9rZS13aWR0aD0iMS4yNjgiIHN0cm9rZT0iIzAwMDAwMCIgZmlsbD0ibm9uZSIgZD0ibSA4MTcuODQsMzUzLjU1IDEuNzYwOSwyMC4wMSAtMi4yNDExLDEuMTIwNiIvPiYjeGE7ICAgICAgPHBhdGggaWQ9InBhdGg1MTciIHN0cm9rZS13aWR0aD0iMS4yNjgiIHN0cm9rZT0iIzAwMDAwMCIgZmlsbD0ibm9uZSIgZD0ibSA3NzguNDYsMzYzLjYzIDEuNzYwOSwyMC4wMSAtMi4yNDExLDEuMTIwNiIvPiYjeGE7ICAgICAgPHBhdGggaWQ9InBhdGg1MTkiIHN0cm9rZS13aWR0aD0iMS4yNjgiIHN0cm9rZT0iIzAwMDAwMCIgZmlsbD0ibm9uZSIgZD0ibSA3MjcuNCwzNzYuMTIgMS43NjA5LDIwLjAxIC0yLjI0MTEsMS4xMjA2Ii8+JiN4YTsgICAgICA8cGF0aCBpZD0icGF0aDUyMSIgc3Ryb2tlLXdpZHRoPSIxLjI2OCIgc3Ryb2tlPSIjMDAwMDAwIiBmaWxsPSJub25lIiBkPSJtIDY3MS44NSwzOTAuMiAxLjc2MDksMjAuMDEgLTIuMjQxMSwxLjEyMDYiLz4mI3hhOyAgICAgIDxnIGlkPSJnNTQ1IiBzdHJva2U9IiMwMDAwMDAiIGZpbGwtcnVsZT0iZXZlbm9kZCIgZmlsbD0iIzQ4NDUzNyI+JiN4YTsgICAgICAgIDxwYXRoIGlkPSJwYXRoNTIzIiBzdHJva2Utd2lkdGg9IjAuMzA5IiBkPSJtIDE1MC40Nyw0NjEuOTYgLTE0LjI5MiwtOC4yNTQ5IGMgLTAuOTY1NTksLTAuNTU3NzIgLTEuMzMwNiwtMS43MDgzIC0wLjgxODgyLC0yLjU5NDMgMC41MTE3MywtMC44ODU5NiAxLjY5NjksLTEuMTU1MyAyLjY2MjQsLTAuNTk3NTYgbCAxNC4yOTIsOC4yNTQ5IC0xLjg0MzYsMy4xOTE5IHoiLz4mI3hhOyAgICAgICAgPGcgaWQ9Imc1MjkiIHRyYW5zZm9ybT0ibWF0cml4KDAuMzkwNDQsMCwwLDAuMzg0MTgsLTk3LjUsMzIyLjY2KSIgc3Ryb2tlLXdpZHRoPSIxLjY1NSI+JiN4YTsgICAgICAgICAgPHJlY3QgaWQ9InJlY3Q1MjUiIHk9IjMwOC44NCIgeD0iNjE1LjA5OTk4IiB3aWR0aD0iMjUuNzA5OTk5IiByeT0iNi44MDAwMDAyIiByeD0iMTIuODYiIGhlaWdodD0iMTA1LjcxIi8+JiN4YTsgICAgICAgICAgPHBhdGggaWQ9InBhdGg1MjciIGQ9Im0gNjI4LjA3LDMwOC44NCBjIC02Ljg3MTQsMCAtMTIuNDI3LDIuODI2OCAtMTIuODEyLDYuNDA2MiAxLjI0MDgsMy4wNzA1IDYuMzcyOCw1LjM3NSAxMi41NjIsNS4zNzUgNi44MzMsMCAxMi40MDMsLTIuNzkyOCAxMi44NDQsLTYuMzQzOCAwLjAwMSwtMC4wMSAtMC4wMDEsLTAuMDIxMyAwLC0wLjAzMTIgLTEuMjEzNiwtMy4wODk2IC02LjM3ODUsLTUuNDA2MiAtMTIuNTk0LC01LjQwNjIgeiIvPiYjeGE7ICAgICAgICA8L2c+JiN4YTsgICAgICAgIDxwYXRoIGlkPSJwYXRoNTMxIiBzdHJva2Utd2lkdGg9IjAuMzA5IiBkPSJtIDE2My4xLDQ2OC43NCAtMTQuMjkyLC04LjI1NDkgYyAtMC45NjU1OSwtMC41NTc3MiAtMS4zMzA2LC0xLjcwODMgLTAuODE4ODIsLTIuNTk0MyAwLjUxMTczLC0wLjg4NTk2IDEuNjk2OSwtMS4xNTUzIDIuNjYyNCwtMC41OTc1NiBsIDE0LjI5Miw4LjI1NDkgLTEuODQzNiwzLjE5MTkgeiIvPiYjeGE7ICAgICAgICA8ZyBpZD0iZzUzNyIgdHJhbnNmb3JtPSJtYXRyaXgoMC4zOTA0NCwwLDAsMC40MDgwNywtODQuNjgsMzIzLjkyKSIgc3Ryb2tlLXdpZHRoPSIxLjYwNiI+JiN4YTsgICAgICAgICAgPHJlY3QgaWQ9InJlY3Q1MzMiIHk9IjMwOC44NCIgeD0iNjE1LjA5OTk4IiB3aWR0aD0iMjUuNzA5OTk5IiByeT0iNi44MDAwMDAyIiByeD0iMTIuODYiIGhlaWdodD0iMTA1LjcxIi8+JiN4YTsgICAgICAgICAgPHBhdGggaWQ9InBhdGg1MzUiIGQ9Im0gNjI4LjA3LDMwOC44NCBjIC02Ljg3MTQsMCAtMTIuNDI3LDIuODI2OCAtMTIuODEyLDYuNDA2MiAxLjI0MDgsMy4wNzA1IDYuMzcyOCw1LjM3NSAxMi41NjIsNS4zNzUgNi44MzMsMCAxMi40MDMsLTIuNzkyOCAxMi44NDQsLTYuMzQzOCAwLjAwMSwtMC4wMSAtMC4wMDEsLTAuMDIxMyAwLC0wLjAzMTIgLTEuMjEzNiwtMy4wODk2IC02LjM3ODUsLTUuNDA2MiAtMTIuNTk0LC01LjQwNjIgeiIvPiYjeGE7ICAgICAgICA8L2c+JiN4YTsgICAgICAgIDxnIGlkPSJnNTQzIiB0cmFuc2Zvcm09Im1hdHJpeCgtMS4yNDIyLC0wLjI1MzI0LC0wLjI1MzI0LDEuMjQyMiw1OTYuNjksLTIyNy42KSIgc3Ryb2tlLXdpZHRoPSIwLjI0NCI+JiN4YTsgICAgICAgICAgPHBhdGggaWQ9InBhdGg1MzkiIGQ9Im0gMjE3Ljk5LDYwOC4wMiA3LjgxMSwtMi4xMDEyIGMgMC44NDc0NiwtMC4yMzU0NiAxLjM1MzIsLTEuMDQyMiAxLjEzNzEsLTEuODE5OCAtMC4yMTYwNSwtMC43Nzc1NyAtMS4wNjgsLTEuMjE3IC0xLjkxNTUsLTAuOTgxNTggbCAtNy42OTk0LDIuMTQ1OCAwLjY2Njc1LDIuNzU2NyB6Ii8+JiN4YTsgICAgICAgICAgPHBhdGggaWQ9InBhdGg1NDEiIGQ9Im0gMjE3LjUzLDYwNS4yNSBjIC0wLjEsMC4wMDMgLTAuMTc5NjcsMC4wMSAtMC4yODEyNSwwLjAzMTIgLTAuMDAyLDQuNmUtNCAtMC4wMjksLTVlLTQgLTAuMDMxMiwwIC0wLjY1ODYxLDAuMzI1NjggLTEuMDAxLDEuMDQwMyAtMC44MTI1LDEuNzE4OCAwLjE3OTgsMC42NDcwNyAwLjgwNzQxLDEuMDc5MSAxLjUsMS4wNjI1IDAuMDEsLTIuNGUtNCAwLjAyMTMsNC4xZS00IDAuMDMxMiwwIGwgMC4zNDM3NSwtMC4wOTM3IGMgMC42MTQxOSwtMC4zMzk5OSAwLjk2Mjk1LC0xLjAwMjIgMC43ODEyNSwtMS42NTYyIC0wLjE4MTM1LC0wLjY1MjcyIC0wLjgzMTM2LC0xLjA4NTkgLTEuNTMxMiwtMS4wNjI1IHoiLz4mI3hhOyAgICAgICAgPC9nPiYjeGE7ICAgICAgPC9nPiYjeGE7ICAgICAgPGcgaWQ9Imc1ODUiIHN0cm9rZT0iIzAwMDAwMCIgZmlsbD0ibm9uZSI+JiN4YTsgICAgICAgIDxwYXRoIGlkPSJwYXRoNTQ3IiBzdHJva2Utd2lkdGg9IjEuMzA5OCIgZD0ibSAxMzguNTY3LDU0Mi41MTkwMSBjIDAsMCAzMi43NDUsLTM4LjM1ODggNDAuMjI5MiwtMzguMzU4OCA3LjQ4NDU5LDAgNi43ODI5MywwLjcwMTY3IDYuNzgyOTMsMC43MDE2NyIvPiYjeGE7ICAgICAgICA8cGF0aCBpZD0icGF0aDU0OSIgc3Ryb2tlLXdpZHRoPSIxLjMwOTgiIGQ9Im0gMTI0LjUzOTA0LDU0MC42NDYgLTEuMDUyNTEsLTQ5LjIzNDA3IDUuMTM3NTYsLTQuODk4MTMiLz4mI3hhOyAgICAgICAgPHBhdGggaWQ9InBhdGg1NTEiIHN0cm9rZS13aWR0aD0iMS4zMDk4IiBkPSJtIDE1MC43MzUwNCw1NDkuNzYyMjEgMzMuMjEyNiwtMjUuMjYwOCAyMC4xMTQ2LDM1Ljc4NTA0Ii8+JiN4YTsgICAgICAgIDxwYXRoIGlkPSJwYXRoNTUzIiBzdHJva2Utd2lkdGg9IjEuMzA5OCIgZD0ibSAyMzUuODcyMDQsNTcyLjIyNTI4IDQzLjAzNjEsLTM5LjA1OTU1IDI5LjAwMjksMzguMzU4ODEiLz4mI3hhOyAgICAgICAgPHBhdGggaWQ9InBhdGg1NTUiIHN0cm9rZS13aWR0aD0iMS4zMDk4IiBkPSJtIDE5OC45MDk0OSw1MDcuMjA2ODEgLTAuNDYyMzYsNi4zMDQxOSAyMS4wNDk3OSw1MS42ODk5NSAyOS40NzA1LC00Ny4wMTI2NSB2IC00LjY3NzgyIi8+JiN4YTsgICAgICAgIDxwYXRoIGlkPSJwYXRoNTU3IiBzdHJva2Utd2lkdGg9IjEuMzA5OCIgZD0ibSAzMzUuNTA4NTMsNTcyLjIyNTI4IDUzLjc5NDc5LC0zNC4zODIyNSA0Mi4xMDA5MSwyOS45MzgxIi8+JiN4YTsgICAgICAgIDxwYXRoIGlkPSJwYXRoNTU5IiBzdHJva2Utd2lkdGg9IjEuMzA5OCIgZD0ibSAzMjYuODUwNzUsNTY4LjcxNTAxIDE0LjczNTI1LC00NC45MDc4IDExLjQ2MDc1LC01LjE0NTY4Ii8+JiN4YTsgICAgICAgIDxwYXRoIGlkPSJwYXRoNTYxIiBzdHJva2Utd2lkdGg9IjEuMzA5OCIgZD0ibSA0MTIuNjk1MDQsNTE3LjQ4ODc0IDE0LjAzMzIsNy4yNTA2NiAxMy41NjU2LDM2Ljk1NDY5IDcuOTUyMzIsLTEuNDAzMzIgMTIuMTYyNDEsLTM4LjM1ODggNi4zMTUwNywtOS4xMjE4NCIvPiYjeGE7ICAgICAgICA8cGF0aCBpZD0icGF0aDU2MyIgc3Ryb2tlLXdpZHRoPSIxLjMwOTgiIGQ9Im0gNDY3Ljg3NjkyLDU2OS42NTgwNyAzNi40OTc1NywtMzkuMzA0NDggMzAuODczMywyOS45MzgxIi8+JiN4YTsgICAgICAgIDxwYXRoIGlkPSJwYXRoNTY1IiBzdHJva2Utd2lkdGg9IjEuMzA5OCIgZD0ibSA1NDcuNDA3OTcsNTQ5LjA2ODAxIC0zMC44NzMyOSwtMzMuNjgwMTkgLTE0LjAyMjcyLC03LjAxMTM2Ii8+JiN4YTsgICAgICAgIDxwYXRoIGlkPSJwYXRoNTY3IiBzdHJva2Utd2lkdGg9IjEuMzA5OCIgZD0ibSA1NjMuMDg2MjgsNTQ5LjMwMzc4IDMuOTc2MTYsLTQxLjM5ODg1IHYgLTcuMjM3MTciLz4mI3hhOyAgICAgICAgPHBhdGggaWQ9InBhdGg1NjkiIHN0cm9rZS13aWR0aD0iMS4zMDk4IiBkPSJtIDU3OS4yMjMwMSw1NTYuMDg4NTQgNDAuMjI5MiwtNDIuNTY4NSAzNy42NTY3NSwyNi42NjM2Ii8+JiN4YTsgICAgICAgIDxwYXRoIGlkPSJwYXRoNTcxIiBzdHJva2Utd2lkdGg9IjEuMzA5OCIgZD0ibSA2NzAuOTA5MDEsNTI0Ljc0NTAzIC0zOC4zNTg4LC0yNi4xOTYgLTE0Ljk2OTcsLTQuNjc3ODIiLz4mI3hhOyAgICAgICAgPHBhdGggaWQ9InBhdGg1NzMiIHN0cm9rZS13aWR0aD0iMS4zMDk4IiBkPSJtIDY4NC4wMDcwMSw1MjIuODcyMDEgMS44NzExOCwtMzIuNzQ1IC00LjY3NzgyLC00LjY3NzgyIi8+JiN4YTsgICAgICAgIDxwYXRoIGlkPSJwYXRoNTc1IiBzdHJva2Utd2lkdGg9IjEuMzA5OCIgZD0ibSA3MDEuNzgxLDUzMC4zNTA5NyAyNy4wMTQ2MiwtNDguODMxOTYiLz4mI3hhOyAgICAgICAgPHBhdGggaWQ9InBhdGg1NzciIHN0cm9rZS13aWR0aD0iMS4zMDk4IiBkPSJtIDc5MC45MTI4OSw0NzguMjA3ODMgNC40MzA0LDMuNDk0ODEgOS4zNTU2NCwxNy43NzUzIDAuOTM1NTcsLTE5LjY0NyAtNC4xOTM3MSwtNC40MzA0Ii8+JiN4YTsgICAgICAgIDxwYXRoIGlkPSJwYXRoNTc5IiBzdHJva2Utd2lkdGg9IjEuMzA5OCIgZD0ibSA4OTEuNzAyLDQ1MC44MzMwMSA5LjM1NTY0LDEuODcxMTggMTIuMTYyNDEsMTcuNzc1MyA1LjYxMzQxLC0yMy4zODkxIC03LjQ4NDU5LC0zLjc0MjIzIi8+JiN4YTsgICAgICAgIDxwYXRoIGlkPSJwYXRoNTgxIiBzdHJva2Utd2lkdGg9IjEuMzA5OCIgZD0ibSA5ODQuMzE3OTYsNDI1LjU2Njk3IDYuNTQ5LDIuODA2NzcgMTIuMTYyNDQsMTUuOTA0OSB2IC0yMC41ODIxOSBsIC01LjYxMzQ0LC0zLjc0MjM2Ii8+JiN4YTsgICAgICAgIDxwYXRoIGlkPSJwYXRoNTgzIiBzdHJva2Utd2lkdGg9IjEuMzA5OCIgZD0ibSAyOTUuMjcxNDcsNTE2LjU1ODc4IDQuNjc3ODIsNi4wODEyNyAxOS40MTI1NSw0Ny4yNDU3OSIvPiYjeGE7ICAgICAgPC9nPiYjeGE7ICAgICAgPGcgaWQ9Imc3NjMiIHRyYW5zZm9ybT0ibWF0cml4KDEuMjY3OCwwLDAsMS4yNjc4LC0zMi44MywtMzQzLjY1KSI+JiN4YTsgICAgICAgIDxnIGlkPSJnNTk5IiBzdHJva2Utd2lkdGg9IjAuMyIgc3Ryb2tlPSIjMDAwMDAwIiBmaWxsLXJ1bGU9ImV2ZW5vZGQiPiYjeGE7ICAgICAgICAgIDxwYXRoIGlkPSJwYXRoNTg3IiBmaWxsPSIjNmI2NDRjIiBkPSJtIDM3NC4xMSw0NDkuNSAwLjg5Mjg2LDcuMTQyOSAxLjI1LC0wLjM1NzE1IC0xLjQyODYsLTcuODU3MSAtMC43MTQyOSwxLjA3MTQgeiIvPiYjeGE7ICAgICAgICAgIDxwYXRoIGlkPSJwYXRoNTg5IiBmaWxsPSIjNmI2NDRjIiBkPSJtIDM3My41Nyw0NTMuNDMgMy41NzE0LC0wLjUzNTcxIDEuNjA3MSwzLjAzNTcgLTYuMjUsMS45NjQzIDEuMDcxNCwtNC40NjQzIHoiLz4mI3hhOyAgICAgICAgICA8cGF0aCBpZD0icGF0aDU5MSIgZmlsbD0iI2E0YTA5NCIgZD0ibSAzNjIuMzIsNDQyLjgxIDE1LjcxNCwtMC4yNjc4NyAyLjMyMTQsMS4wNzE0IC0wLjUzNTcxLDUuODkyOSAtMTMuNDM4LDIuMTQyOCAtMy4xNjk2LC0xLjk2NDMgLTAuODkyODcsLTYuODc1IHoiLz4mI3hhOyAgICAgICAgICA8cGF0aCBpZD0icGF0aDU5MyIgZmlsbD0iIzk1OTE4MSIgZD0ibSAzNjQuMjksNDQyLjkgYyAwLDAgMi41LC0wLjcxNDI5IDMuMDM1NywzLjM5MjggMC41MzU3MSw0LjEwNzIgMC4xNzg1Nyw1LjcxNDMgLTEuNDI4Niw1LjUzNTcgLTEuNjA3MiwtMC4xNzg1NyAtNC41MDg5LC0wLjg5Mjg2IC00LjY4NzUsLTMuMDM1NyAtMC42MDA5OCwtMS40NjkzIC0xLjc2MjYsLTYuNDk4MiAzLjA4MDQsLTUuODkyOCB6Ii8+JiN4YTsgICAgICAgICAgPHBhdGggaWQ9InBhdGg1OTUiIGZpbGw9IiM2YjY0NGMiIGQ9Im0gMzY3LjI4LDQ0Ni4xNiAtMy4zNzUsMC4xNTYyNSAwLjE4NzUsMi41OTM4IDMuNDY4OCwwLjAzMTIgYyAtMC4wMTUxLC0wLjczMjE3IC0wLjExMzk4LC0xLjYxMzQgLTAuMjUsLTIuNjU2MiAtMC4wMDYsLTAuMDQ1MiAtMC4wMjQ5LC0wLjA4MDkgLTAuMDMxMiwtMC4xMjUgeiIvPiYjeGE7ICAgICAgICAgIDxwYXRoIGlkPSJwYXRoNTk3IiBmaWxsPSIjNmI2NDRjIiBkPSJtIDM2NS4wNCw0NDcuNiBjIDguMmUtNCwwLjQ3NDM5IC0wLjE5MTUzLDAuOTEzMiAtMC41MDQ0MSwxLjE1MDcgLTAuMzEyODgsMC4yMzc1MSAtMC42OTg2LDAuMjM3NTEgLTEuMDExNSwwIC0wLjMxMjg4LC0wLjIzNzUgLTAuNTA1MjMsLTAuNjc2MzEgLTAuNTA0NDEsLTEuMTUwNyAtOC4yZS00LC0wLjQ3NDM5IDAuMTkxNTMsLTAuOTEzMiAwLjUwNDQxLC0xLjE1MDcgMC4zMTI4OCwtMC4yMzc1MSAwLjY5ODYsLTAuMjM3NTEgMS4wMTE1LDAgMC4zMTI4OCwwLjIzNzUgMC41MDUyMywwLjY3NjMxIDAuNTA0NDEsMS4xNTA3IHoiLz4mI3hhOyAgICAgICAgPC9nPiYjeGE7ICAgICAgICA8cGF0aCBpZD0icGF0aDYwMSIgc3Ryb2tlPSIjMDAwMDAwIiBmaWxsPSJub25lIiBkPSJtIDQ5NC44Niw0NjMuOTYgYyAwLDAgMS4yNjI3LC0yLjY1MTYgMi42NTE2LC0yLjY1MTYgMS4zODg5LDAgNC41NDU3LDEuNzY3OCA0LjU0NTcsMS43Njc4IDAsMCAwLjYzMTM1LDAuMTI2MjcgMC4xMjYyNywwLjg4Mzg4IC0wLjUwNTA4LDAuNzU3NjEgLTIuMTQ2Niw0LjE2NjkgLTIuMTQ2Niw0LjE2NjkgbCAtNS44MDg0LC0xLjAxMDIgMC42MzEzNSwtMy4xNTY3IHoiLz4mI3hhOyAgICAgICAgPGcgaWQ9Imc2MDciIHRyYW5zZm9ybT0idHJhbnNsYXRlKDAsMS43OSkiIGZpbGwtcnVsZT0iZXZlbm9kZCI+JiN4YTsgICAgICAgICAgPHBhdGggaWQ9InBhdGg2MDMiIHN0cm9rZT0iIzAwMDAwMCIgZmlsbD0iIzZjNTM1MyIgZD0ibSA0ODEuNDMsNDU5LjA2IGMgMCwwIC0wLjUzNTcxLC02LjI1IDIuOTQ2NCwtMTEuMTYxIDMuNDgyMSwtNC45MTA3IDcuNjc4NiwtNy41ODkzIDEwLjM1NywtNy45NDY0IDIuNjc4NiwtMC4zNTcxNSAyLjU4OTMsLTAuNTM1NzIgMi41ODkzLC0wLjUzNTcyIGwgMC42MjUsNS45ODIyIGMgMCwwIC0yLjUsMC43MTQyOCAtNS4zNTcxLDIuNSAtMi44NTcyLDEuNzg1NyAtNC40NjQzLDQuMzc1IC00LjgyMTQsNS44MDM2IC0wLjM1NzEsMS40Mjg2IC0wLjQ0NjQzLDguMjE0MyAtMC40NDY0Myw4LjIxNDMgbCAtNi44NzUsLTAuNjI1IDAuOTgyMTQsLTIuMjMyMSB6Ii8+JiN4YTsgICAgICAgICAgPHBhdGggaWQ9InBhdGg2MDUiIG9wYWNpdHk9IjAuMTUiIGQ9Im0gNDk3LjU2LDQ0MS44MSBjIC0yLjY4NTIsMC44MTI4OCAtNi4zNTE1LDIuMjI3NyAtOSw0LjQ2ODggLTIuMjI4MiwxLjg4NTQgLTQuMDk2LDMuMTA4NCAtNS40Njg4LDMuODc1IC0yLjAzMTQsNC4zNzU5IC0xLjY1NjIsOC45MDYyIC0xLjY1NjIsOC45MDYyIGwgLTEsMi4yMTg4IDYuODc1LDAuNjI1IGMgMCwwIDAuMTExNjIsLTYuNzkwMiAwLjQ2ODc1LC04LjIxODggMC4zNTcxNCwtMS40Mjg2IDEuOTU1NCwtMy45OTU1IDQuODEyNSwtNS43ODEyIDIuODU3MSwtMS43ODU3IDUuMzQzNywtMi41IDUuMzQzOCwtMi41IGwgLTAuMzc1LC0zLjU5MzggeiIvPiYjeGE7ICAgICAgICA8L2c+JiN4YTsgICAgICAgIDxwYXRoIGlkPSJwYXRoNjA5IiBzdHJva2Utd2lkdGg9IjAuNSIgc3Ryb2tlPSIjMDAwMDAwIiBmaWxsLXJ1bGU9ImV2ZW5vZGQiIGZpbGw9IiM2ZjdjOTEiIGQ9Im0gNDY0LjA5LDQ5My41NiBjIC00Ljg2MTksLTQuMzEyOSAtNC4xOTkzLC04LjU0ODIgLTQuMTk5MywtOC41NDgyIGwgMTYuNzE2LC0yNS4yODEgMjMuOTcsNy41NTgzIGMgMCwwIDIuMTQyOSwwLjcxNDI5IDIuODU3MSwyLjE0MjkgMC43MTQyOSwxLjQyODYgMS4wNzE0LDE3LjExOSAxLjA3MTQsMTcuMTE5IGwgLTMuMjU1NSwxLjU2OTQgYyAwLDAgLTI4LjkxMiwzLjk3NTggLTM3LjE2LDUuNDM5NiB6Ii8+JiN4YTsgICAgICAgIDxwYXRoIGlkPSJwYXRoNjExIiBzdHJva2U9IiMwMDAwMDAiIGZpbGwtcnVsZT0iZXZlbm9kZCIgZmlsbD0iIzQ4NDUzNyIgZD0ibSA1MDEuNzksNTc1LjMyIGMgMCwwIDIuMDIwMywxLjUxNTIgMy43ODgxLDAuMjUyNTQgMS43Njc4LC0xLjI2MjcgNC4yOTMxLC0xLjUxNTIgMy4wMzA0LC0yLjc3NzkgLTEuMjYyNywtMS4yNjI3IC0xLjUxNTIsLTU4LjU4OSAtMS41MTUyLC01OC41ODkgMCwwIDMuNTM1NSwtMC4yNTI1NCAxLjAxMDIsLTIuMDIwMyAtMi41MjU0LC0xLjc2NzggLTYuNTY2LC0xLjUxNTIgLTYuNTY2LC0xLjUxNTIgbCAwLjI1MjUzLDY0LjY1IHoiLz4mI3hhOyAgICAgICAgPHBhdGggaWQ9InBhdGg2MTMiIHN0cm9rZT0iIzAwMDAwMCIgZmlsbC1ydWxlPSJldmVub2RkIiBmaWxsPSIjZmY3ZjJhIiBkPSJtIDQ0MS40Myw1ODQuMTUgYyAwLDAgMy4yMTQzLDQuMjg1NyA4LjkyODYsMy45Mjg2IDUuNzE0MywtMC4zNTcxNSA1MS4wNzEsLTYuNDI4NiA1MS4wNzEsLTYuNDI4NiBsIDIuMTQyOSwtNzEuNzg2IC0yLjE0MjksLTEuNzg1NyAtNDQuMjg2LDAuNzE0MjggLTE1LjcxNCw3NS4zNTcgeiIvPiYjeGE7ICAgICAgICA8cGF0aCBpZD0icGF0aDYxNSIgc3Ryb2tlLXdpZHRoPSIwLjUiIHN0cm9rZT0iIzAwMDAwMCIgZmlsbC1ydWxlPSJldmVub2RkIiBmaWxsPSIjNWY4ZGQzIiBkPSJtIDQ1Ni40Myw1MTAuNTggYyAwLDAgMS43ODU3LDIuMTQyOCA1LDIuMTQyOCAzLjIxNDMsMCA0Mi41LC00LjY0MjggNDIuNSwtNC42NDI4IGwgMC43MTQyOSwtMTguNTcxIC0yLjg1NzEsLTEuMDcxNCAtMzcuODU3LDUuMzU3MSAtNi40Mjg2LC0yLjg1NzEgLTEuMDcxNCwxOS42NDMgeiIvPiYjeGE7ICAgICAgICA8cGF0aCBpZD0icGF0aDYxNyIgb3BhY2l0eT0iMC4xNSIgZmlsbC1ydWxlPSJldmVub2RkIiBkPSJtIDQ0Ny4xNCw1ODYuNjUgYyAxLjQyODYsLTUuNzE0MyAxMy41NzEsLTczLjkyOSAxMy41NzEsLTczLjkyOSBsIDMuNTcxNCwtMjAuNzE0IC02LjQyODYsLTMuMjE0MyAtMjMuNTcxLDkyLjg1NyAxMi44NTcsNSB6Ii8+JiN4YTsgICAgICAgIDxwYXRoIGlkPSJwYXRoNjE5IiBzdHJva2Utd2lkdGg9IjAuNSIgc3Ryb2tlPSIjMDAwMDAwIiBmaWxsLXJ1bGU9ImV2ZW5vZGQiIGZpbGw9IiM1MzVkNmMiIGQ9Im0gNDUzLjQzLDQ4MS41NyBjIDEuNzg1NywtMS43ODU3IDMuOTI4NiwtMS40Mjg2IDMuOTI4NiwtMS40Mjg2IGwgMTAuNzE0LC0yNC4yODYgOC41NzE0LDMuOTI4NiAtMTIuNjA2LDMzLjc4NCAtOS43NDksLTQuMzYzIC0wLjg1OTEsLTcuNjM1IHoiLz4mI3hhOyAgICAgICAgPHBhdGggaWQ9InBhdGg2MjEiIHN0cm9rZT0iIzAwMDAwMCIgZmlsbC1ydWxlPSJldmVub2RkIiBmaWxsPSIjZmZlZWFhIiBkPSJtIDM1My4wNSw1MDEuMzIgYyAwLDAgOS4zNDM5LDk0Ljk1NCAxMC42MDcsOTUuNDU5IDEuMjYyNywwLjUwNTA4IDc4LjUzOSwtMTAuNjA3IDc4LjUzOSwtMTAuNjA3IDAsMCAxNy45MywtOTIuOTM0IDE3LjQyNSwtOTQuMTk3IC0wLjUwNTA4LC0xLjI2MjcgLTAuMjUyNTQsLTIuNzc3OSAtMS41MTUyLC0yLjUyNTQgLTEuMjYyNywwLjI1MjUzIC0xMDQuOCwxMS42MTcgLTEwNS4wNiwxMS44NjkgeiIvPiYjeGE7ICAgICAgICA8cGF0aCBpZD0icGF0aDYyMyIgc3Ryb2tlPSIjMDAwMDAwIiBmaWxsLXJ1bGU9ImV2ZW5vZGQiIGZpbGw9IiNmZmVlYWEiIGQ9Im0gMjk4Ljc1LDQ3My41NCBjIDAsMCAyLjUyNTQsNy44Mjg3IDguNTg2MywxMC44NTkgNi4wNjA5LDMuMDMwNSA0Ni4yMTQsMTcuNDI1IDQ2LjIxNCwxNy40MjUgbCAxMC4zNTQsOTQuNDQ5IGMgMCwwIC0zMy41ODgsLTEwLjYwNyAtMzUuMzU1LC0xMi4xMjIgLTEuNzY3OCwtMS41MTUyIC0xMy42MzcsLTguODM4OCAtMTMuNjM3LC04LjgzODggbCAtMS43Njc4LC0zLjI4MyBjIDAsMCAtOS4wOTE0LC01OS4wOTQgLTkuMDkxNCwtNjAuMTA0IDAsLTEuMDEgLTUuNTU1OCwtMzQuMDkzIC01LjU1NTgsLTM2LjExMyAwLC0yLjAyMDMgLTAuMjUyNTQsLTIuMDIwMyAwLjI1MjU0LC0yLjI3MjggeiIvPiYjeGE7ICAgICAgICA8cGF0aCBpZD0icGF0aDYyNSIgc3Ryb2tlLXdpZHRoPSIwLjUiIHN0cm9rZT0iIzAwMDAwMCIgZmlsbC1ydWxlPSJldmVub2RkIiBmaWxsPSIjODAzMzAwIiBkPSJtIDM5MC4xNyw1NzcuMDggMy41MzU1LC03NS4xMyAyNC43NDksLTIuNzc3OSAtNC43OTgyLDc2LjY0NSAtMjMuNDg2LDEuMjYyNyB6Ii8+JiN4YTsgICAgICAgIDxwYXRoIGlkPSJwYXRoNjI3IiBzdHJva2Utd2lkdGg9IjAuMjk5NzM2IiBzdHJva2U9IiMwMDAwMDAiIGZpbGwtcnVsZT0iZXZlbm9kZCIgZmlsbD0iIzQ4NDUzNyIgZD0ibSA0NDAuMTY1MTQsNDI0Ljk0NTIgYyAtMTYuNjU0MywtOS4zNDM4OSAtMTMuMDgzNDksMzAuMTQ1NiAtMTMuMTkzOTIsMzAuNDQ2OTEgbCAtOC43NjQxMywwLjU0NzI0IGMgMC43MTc4MywtMTUuNTUyMzggLTEuODM5OTEsLTQ1LjE4NTI2IDIyLjMwNDMzLC00MS42MTg0IDQuNzMxODksMC41NTkyIC0wLjcwMzExLDkuOTEwMjMgLTAuMzQ1OTcsMTAuNjI0ODcgeiIvPiYjeGE7ICAgICAgICA8cGF0aCBpZD0icGF0aDYyOSIgc3Ryb2tlPSIjMDAwMDAwIiBmaWxsLXJ1bGU9ImV2ZW5vZGQiIGZpbGw9IiNjOGM0YjciIGQ9Im0gMjk4LDQ3Mi4yOCAxNi4xNjIsLTEwLjg1OSAyNC4yNDQsLTIuNTI1NCA2MS4xMTQsLTYuMDYwOSAzNi4zNjYsLTMuNzg4MSAyNS4wMDEsMTMuMzg0IC0zLjc4ODEsMTQuMzk1IDQuMDQwNiwxMS42MTcgLTAuNzU3NjIsMi4wMjAzIC0zLjUzNTUsLTEuMDEwMiAtMTA0LjU1LDEyLjYyNyBjIDAsMCAtNDUuNDU3LC0xNi40MTUgLTQ4LjIzNSwtMTguOTQgLTIuNzc4LC0yLjUyNSAtNi41NjYsLTkuODQ5IC02LjA2MDksLTEwLjg1OSB6Ii8+JiN4YTsgICAgICAgIDxwYXRoIGlkPSJwYXRoNjMxIiBzdHJva2Utd2lkdGg9IjAuMjA3IiBzdHJva2U9IiMwMDAwMDAiIGZpbGwtcnVsZT0iZXZlbm9kZCIgZmlsbD0iIzRkNGQ0ZCIgZD0ibSAzMDEuNTEsNDcyLjAyIC0wLjE3OTYzLC0wLjIwMzQ1IGMgMCwwIC0wLjcyNjk0LDAuNDcxOTMgLTAuNTgwNTMsMC44NTIzOSAwLjE0NjQsMC4zODA0NSAwLjYzNjQzLDAuMTQ2NDYgMC43MzQ3NSwwLjAzODcgMC4wOTgzLC0wLjEwNzczIDAuMzAxNTIsLTAuNDA2MDcgMC4zMDE1MiwtMC40MDYwNyBsIC0wLjE4ODUyLC0wLjE3MjA2IGMgMCwwIC0wLjE3MTU2LDAuNDI1OTQgLTAuMzEwNDEsMC40Mzc0NCAtMC4xMzg4NCwwLjAxMTUgLTAuMjQwMDMsLTAuMTY5NzIgLTAuMTYxODMsLTAuMjY2MiAwLjA3ODIsLTAuMDk2NSAwLjMyMTksLTAuMjk4NTkgMC4zODQ2NSwtMC4yODA4IHoiLz4mI3hhOyAgICAgICAgPHBhdGggaWQ9InBhdGg2MzMiIHN0cm9rZS13aWR0aD0iMC4zOTk5MTEiIHN0cm9rZT0iIzAwMDAwMCIgZmlsbC1ydWxlPSJldmVub2RkIiBmaWxsPSIjYzhjNGI3IiBkPSJtIDQzMC4yMzQ0LDQ1Ny42OTUzNSBjIDAsMCA2Ljk2NDMsLTE1Ljg5MzEzIDkuNjQyODQsLTE2LjQyODcxIDIuNjc4NTQsLTAuNTM1NzEgMi44NTcxMiwwIDMuMzkyODYsMS4wNzE0IDAuNTM1NzEsMS4wNzE0IDcuMzIxMzcsMTQuODIxMTcgNy4zMjEzNywxNC44MjExNyBsIC0yMC4zNTY4MywwLjUzNTcxIHoiLz4mI3hhOyAgICAgICAgPHBhdGggaWQ9InBhdGg2MzUiIHN0cm9rZS13aWR0aD0iMC43IiBzdHJva2U9IiMwMDAwMDAiIGZpbGwtcnVsZT0iZXZlbm9kZCIgZmlsbD0iI2UzZGJkYiIgZD0ibSAzNjAuOTMsNDg0LjQxIGMgMCwwIDAuMzAyNzgsLTEuNjU3MiAyLjE5NDgsLTEuNzQ0NSAxLjg5MiwtMC4wODcyIDE5LjE0MywtMS41MTQ4IDE5LjE0MywtMS41MTQ4IDAsMCAyLjAwMDcsLTAuNDcxNDcgMi4xNjc2LDAuNDA1NjYgMC4xNjY4NSwwLjg3NzEyIDQuMjIwMyw5LjI4NTYgNC4yMjAzLDkuMjg1NiAwLDAgMC42ODMwMywxLjEwNjEgLTAuNjc1MzcsMS44MDA4IC0xLjM1ODQsMC42OTQ2NSAtMjUuMDAyLDMuMzAxOCAtMjUuMDAyLDMuMzAxOCAwLDAgLTIuMDQ3MiwtMC41Mzc2IC0xLjgzNTcsLTEuNDMyMiAwLjIxMTU2LC0wLjg5NDU4IC0wLjQ2NTMyLC0xMC4wOTEgLTAuMjEzMDUsLTEwLjEwMiB6Ii8+JiN4YTsgICAgICAgIDxwYXRoIGlkPSJwYXRoNjM3IiBzdHJva2Utd2lkdGg9IjAuNyIgc3Ryb2tlPSIjMDAwMDAwIiBmaWxsLXJ1bGU9ImV2ZW5vZGQiIGZpbGw9IiNlM2RiZGIiIGQ9Im0gMzk0LjUsNDgxLjIgYyAwLDAgMy4yODMsOS43MjI3IDQuNDE5NCw5Ljk3NTMgMS4xMzY0LDAuMjUyNiAxMy44OSwtMC41MDUwOCAxNS4xNTIsLTEuMDEwMiAxLjI2MjcsLTAuNTA1MDggMi4zOTkxLDAuMjUyNTMgMS4xMzY0LC0yLjAyMDMgLTEuMjYyNywtMi4yNzI4MyAtMi45MDQyLC04LjcxMjYgLTQuNDE5NCwtOC44Mzg4IC0xLjUxNTIsLTAuMTI2MiAtMTYuNDE1LDEuNjQxNSAtMTYuMjg5LDEuODk0IHoiLz4mI3hhOyAgICAgICAgPHBhdGggaWQ9InBhdGg2MzkiIHN0cm9rZS13aWR0aD0iMC43IiBzdHJva2U9IiMwMDAwMDAiIGZpbGwtcnVsZT0iZXZlbm9kZCIgZmlsbD0iI2UzZGJkYiIgZD0ibSA0MjAuNiw0NzcuODQgYyAwLDAgLTEuMDEwMiwwLjUwNTA4IC0wLjUwNTA4LDEuNzY3OCAwLjUwNTEyLDEuMjYyNzIgMi4yNzI4LDYuMzEzNCAzLjE1NjcsNy4wNzExIDAuODgzODgsMC43NTc2MSAyMC43MDgsLTEuNzY3OCAyMS44NDUsLTEuODk0IDEuMTM2NCwtMC4xMjYyNyA4LjIwNzUsMC4yNTI1NCA5LjM0MzksLTAuNTA1MDggMS4xMzY0LC0wLjc1NzYxIC02LjE4NzIsLTkuMDkxNCAtNy44Mjg3LC05LjQ3MDIgLTEuNjQxNSwtMC4zNzg4IC0yNS42MzMsMy4wMzA1IC0yNi4wMTEsMy4wMzA1IHoiLz4mI3hhOyAgICAgICAgPHBhdGggaWQ9InBhdGg2NDEiIHN0cm9rZS13aWR0aD0iMC43IiBzdHJva2U9IiMwMDAwMDAiIGZpbGwtcnVsZT0iZXZlbm9kZCIgZmlsbD0iI2UzZGJkYiIgZD0ibSAzNDcuNzQsNDkzLjI0IGMgMCwtMC43NTc2MiAzLjQwOTMsLTguOTY1MSAxLjI2MjcsLTEwLjEwMiAtMi4xNDY2LC0xLjEzNjQgLTEwLjQ4LC0zLjQwOTMgLTEwLjQ4LC0zLjQwOTMgMCwwIDAuMTI2MjcsLTAuMzc4ODEgLTAuODgzODgsMC4xMjYyNyAtMS4wMTAyLDAuNTA1MDcgLTYuMzEzNCw3LjgyODcgLTYuMzEzNCw3LjgyODcgMCwwIC0wLjEyNjI3LDAuNTA1MDggMC42MzEzNCwwLjg4Mzg4IDAuNzU3NjIsMC4zNzg4MSAxNS42NTcsNC42NzIgMTUuNzg0LDQuNjcyIHoiLz4mI3hhOyAgICAgICAgPHBhdGggaWQ9InBhdGg2NDMiIHN0cm9rZS13aWR0aD0iMC43IiBzdHJva2U9IiMwMDAwMDAiIGZpbGwtcnVsZT0iZXZlbm9kZCIgZmlsbD0iI2UzZGJkYiIgZD0ibSAzMTQuNTQsNDgxLjI1IDYuNTY2LDMuNDA5MyBjIDAsMCAwLjUwNTA4LDAuMjUyNTQgMS43Njc4LC0wLjM3ODgxIDEuMjYyNywtMC42MzEzNCA1LjkzNDYsLTYuOTQ0OCA1LjkzNDYsLTYuOTQ0OCAwLDAgLTAuMTI2MjcsLTAuODgzODkgLTAuODgzODgsLTEuMzg5IC0wLjc1NzYxLC0wLjUwNTA4IC02LjQzOTcsLTIuNjUxNiAtNi40Mzk3LC0yLjY1MTYgMCwwIC0xLjEzNjQsLTAuODgzODkgLTEuODk0LC0wLjI1MjU0IC0wLjc1NzYxLDAuNjMxMzQgLTUuOTM0Niw2Ljk0NDggLTUuOTM0Niw2Ljk0NDggMCwwIDAuMjUyNTMsMi4wMjAzIDAuODgzODgsMS4yNjI3IHoiLz4mI3hhOyAgICAgICAgPHBhdGggaWQ9InBhdGg2NDUiIHN0cm9rZS13aWR0aD0iMC43IiBzdHJva2U9IiMwMDAwMDAiIGZpbGwtcnVsZT0iZXZlbm9kZCIgZmlsbD0iI2UzZGJkYiIgZD0ibSAzMDQuMDYsNDc0LjM0IGMgMCwwIDMuMjgzLDIuNjUxNiA0LjA0MDYsMi42NTE2IDAuNzU3NjEsMCAxLjM4OSwwIDIuMTQ2NiwtMS4wMTAyIDAuNzU3NjIsLTEuMDEwMiA1LjA1MDgsLTUuNjgyMSA1LjA1MDgsLTUuNjgyMSAwLDAgLTIuMzk5MSwtNC43OTgyIC0zLjQwOTMsLTQuNjcyIC0xLjAxMDIsMC4xMjYyIC05LjA5MTQsNi4zMTM1IC05LjA5MTQsNi4zMTM1IDAsMCAwLjEyNjI3LDIuMDIwMyAwLjYzMTM0LDIuMTQ2NiAwLjUwNTA4LDAuMTI2MjcgMC43NTc2MiwwLjEyNjI3IDAuNjMxMzUsMC4yNTI1NCB6Ii8+JiN4YTsgICAgICAgIDxwYXRoIGlkPSJwYXRoNjQ3IiBzdHJva2Utd2lkdGg9IjAuNiIgc3Ryb2tlPSIjMDAwMDAwIiBmaWxsPSJub25lIiBkPSJtIDMzMS45Niw1MzguMiBjIDAsMCAtMC4xMjYyNywyLjc3NzkgMi4xNDY2LDMuNTM1NSAyLjI3MjgsMC43NTc2MSAxNi42NjgsNS41NTU4IDE2LjY2OCw1LjU1NTggMCwwIDEuMjYyNywtMC41MDUwOCAxLjI2MjcsLTIuMDIwMyAwLC0xLjUxNTIgLTIuNzc3OSwtMzQuODUgLTIuNzc3OSwtMzQuODUgMCwwIDAsLTEuMjYyNyAtMy41MzU1LC0zLjAzMDUgLTMuNTM1NSwtMS43Njc4IC0xNi45MiwtNC4yOTMxIC0xNi45MiwtNC4yOTMxIDAsMCAtMC43NTc2MSwtMC43NTc2MiAtMS4wMTAyLDAuNTA1MDcgLTAuMjUyNTksMS4yNjI2OSA0LjIzLDM2LjA1IDQuMTY2OSwzNC41OTggeiIvPiYjeGE7ICAgICAgICA8cGF0aCBpZD0icGF0aDY0OSIgc3Ryb2tlLXdpZHRoPSIwLjYiIHN0cm9rZT0iIzAwMDAwMCIgZmlsbD0ibm9uZSIgZD0ibSAzNjEuMTMsNTEwLjE2IGMgMCwwIC0wLjEyNjI3LC0zLjAzMDQgMS44OTQsLTMuNzg4MSAyLjAyMDMsLTAuNzU3NjEgMjMuNDg2LC0yLjUyNTQgMjMuNDg2LC0yLjUyNTQgMCwwIDIuMzk5MSwxLjI2MjcgMi4xNDY2LDIuNTI1NCAtMC4yNTI1LDEuMjYyNyAtMS41MTUyLDM1LjM1NSAtMS41MTUyLDM1LjM1NSAwLDAgMC41MDUwOCwyLjc3NzkgLTEuNzY3OCwyLjc3NzkgLTIuMjcyOCwwIC0xOS4wNjcsMy4xNTY3IC0xOS4wNjcsMy4xNTY3IDAsMCAtMS43MDQ2LDAuNjk0NDggLTIuMzk5MSwtMS4zODkgLTAuNjk0NDgsLTExLjQyNyAtMi43Nzc5LC0zNi4xMTMgLTIuNzc3OSwtMzYuMTEzIHoiLz4mI3hhOyAgICAgICAgPHBhdGggaWQ9InBhdGg2NTEiIHN0cm9rZS13aWR0aD0iMC41IiBzdHJva2U9IiMwMDAwMDAiIGZpbGwtcnVsZT0iZXZlbm9kZCIgZmlsbD0iIzUwMmQxNiIgZD0ibSAzOTgsNTA0LjYxIC0xLjUxNTIsMzUuMzU1IDE2LjY2OCwtMS43Njc4IDIuMTQ2NiwtMzUuNjA4IC0xNy4yOTksMi4wMjAzIHoiLz4mI3hhOyAgICAgICAgPHBhdGggaWQ9InBhdGg2NTMiIHN0cm9rZS13aWR0aD0iMC42IiBzdHJva2U9IiMwMDAwMDAiIGZpbGw9Im5vbmUiIGQ9Im0gNDIzLDUwMi44NCBjIDAsMCAxLjEzNjQsLTQuMDQwNiAzLjkxNDMsLTQuNTQ1NyAyLjc3NzksLTAuNTA1MDcgMjUuMTI4LC0yLjM5OTEgMjUuMTI4LC0yLjM5OTEgMCwwIDIuMDIwMywxLjI2MjcgMi4yNzI4LDIuNzc3OSAwLjI1MjU0LDEuNTE1MiAtNS45MzQ2LDM2LjExMyAtNS45MzQ2LDM2LjExMyAwLDAgMC4yNTI1NCwyLjE0NjYgLTIuMjcyOCwyLjM5OTEgLTIuNTI1NCwwLjI1MjU0IC0yMi4zNSwzLjI4MyAtMjMuMzYsMi43Nzc5IC0xLjAxMDIsLTAuNTA1MDcgLTIuMTQ2NiwtMC4xMjYyNyAtMi4xNDY2LC0xLjY0MTUgMCwtMS41MTUyMyAyLjM5OTEsLTM1LjczNCAyLjM5OTEsLTM1LjQ4MiB6Ii8+JiN4YTsgICAgICAgIDxwYXRoIGlkPSJwYXRoNjU1IiBzdHJva2Utd2lkdGg9IjAuNiIgc3Ryb2tlPSIjMDAwMDAwIiBmaWxsPSJub25lIiBkPSJtIDMxMy40Niw1MjYuMTQgYyAwLDAgMC42MzEzNSwwLjg4Mzg5IDAuOTQ3MDIsMS4wMTAyIGwgOS4wOTE0LDMuNzI0OSBjIDAsMCAxLjAxMDIsMC4yNTI1NCAwLjc1NzYyLC0xLjAxMDIgLTAuMjUyNTgsLTEuMjYyNzQgLTMuMjUxNCwtMzEuMjIgLTMuMjUxNCwtMzEuMjIgMCwwIDAuMjcxMzQsLTEuOTc5MiAtMi4wODM0LC0yLjU4ODUgLTQuMzU2MywtMS4zODkgLTYuODc1LC0yLjEwNiAtOS44ODA2LC0yLjQ5MzggLTEuMTM2NCwwLjE4OTQgLTEuMjYyNywwIC0wLjk0NzAxLDIuMzk5MSAyLjg2MTUsMTQuNjkgNS4zNjY0LDMwLjQzMSA1LjM2NjQsMzAuMTc4IHoiLz4mI3hhOyAgICAgICAgPHBhdGggaWQ9InBhdGg2NTciIHN0cm9rZS13aWR0aD0iMC42IiBzdHJva2U9IiMwMDAwMDAiIGZpbGw9Im5vbmUiIGQ9Im0gMzE1LjY3LDUzMC4xMSA4LjgzODgsNC4yOTMxIDEuNTE1MiwxMy44OSAtNy41NzYxLC00Ljc5ODIgLTIuNzc3OSwtMTMuMzg0IHoiLz4mI3hhOyAgICAgICAgPHBhdGggaWQ9InBhdGg2NTkiIHN0cm9rZS13aWR0aD0iMC42IiBzdHJva2U9IiMwMDAwMDAiIGZpbGw9Im5vbmUiIGQ9Im0gMzA2LjU4LDUyMS4wMiAzLjI4MywyLjI3MjggLTQuNTQ1NywtMzEuODIgLTQuNzk4MiwtNy4zMjM2IDYuMDYwOSwzNi44NzEgeiIvPiYjeGE7ICAgICAgICA8cGF0aCBpZD0icGF0aDY2MSIgdHJhbnNmb3JtPSJtYXRyaXgoMS4wNTgyLC0wLjIzMjYxLDAuMjc2MzksMS4wNTMzLC0xNzIuNDIsNDQuNzEpIiBzdHJva2Utd2lkdGg9IjAuNTUzIiBzdHJva2U9IiMwMDAwMDAiIGZpbGw9Im5vbmUiIGQ9Im0gMzI1LjI3LDU1Ny45OSBjIDAsMi4zNjY5IC0xLjc5ODksNC4yODU3IC00LjAxNzksNC4yODU3IC0yLjIxOSwwIC00LjAxNzksLTEuOTE4OCAtNC4wMTc5LC00LjI4NTcgMCwtMi4zNjY5IDEuNzk4OSwtNC4yODU3IDQuMDE3OSwtNC4yODU3IDIuMjE5LDAgNC4wMTc5LDEuOTE4OCA0LjAxNzksNC4yODU3IHoiLz4mI3hhOyAgICAgICAgPHBhdGggaWQ9InBhdGg2NjMiIHRyYW5zZm9ybT0ibWF0cml4KDAuNjY1NzIsLTAuMTQ2MzQsMC4xODM2MywwLjY5OTgxLDQuNzYsMjE1LjE4KSIgc3Ryb2tlLXdpZHRoPSIwLjcxOSIgc3Ryb2tlPSIjMDAwMDAwIiBmaWxsPSJub25lIiBkPSJtIDMyNS4yNyw1NTcuOTkgYyAwLDIuMzY2OSAtMS43OTg5LDQuMjg1NyAtNC4wMTc5LDQuMjg1NyAtMi4yMTksMCAtNC4wMTc5LC0xLjkxODggLTQuMDE3OSwtNC4yODU3IDAsLTIuMzY2OSAxLjc5ODksLTQuMjg1NyA0LjAxNzksLTQuMjg1NyAyLjIxOSwwIDQuMDE3OSwxLjkxODggNC4wMTc5LDQuMjg1NyB6Ii8+JiN4YTsgICAgICAgIDxwYXRoIGlkPSJwYXRoNjY1IiBzdHJva2Utd2lkdGg9IjAuNSIgc3Ryb2tlPSIjMDAwMDAwIiBmaWxsLXJ1bGU9ImV2ZW5vZGQiIGZpbGw9IiNlM2RiZGIiIGQ9Im0gMzk4LDUwNC40OCAtMS4zODEzLDMzLjYzMiAxNS4yNzEsLTEuNDMzNiAxLjg5NCwtMzMuOTU5IC0xNS43ODQsMS43NjAxIHoiLz4mI3hhOyAgICAgICAgPHBhdGggaWQ9InBhdGg2NjciIHN0cm9rZS13aWR0aD0iMC42IiBzdHJva2U9IiMwMDAwMDAiIGZpbGwtcnVsZT0iZXZlbm9kZCIgZmlsbD0iI2UzZGJkYiIgZD0ibSA0MjMsNTAyLjg0IGMgMCwwIDEuMTM2NCwtNC4wNDA2IDMuOTE0MywtNC41NDU3IDIuNzc3OSwtMC41MDUwNyAyNC4zNywtMi4yNzI4IDI0LjM3LC0yLjI3MjggMCwwIDEuNjQxNSwxLjg5NCAxLjg5NCwzLjQwOTMgMC4yNTI1NCwxLjUxNTIgLTUuOTM0NiwzNS4xMDMgLTUuOTM0NiwzNS4xMDMgMCwwIDAuNzU3NjEsMS43Njc4IC0xLjc2NzgsMi4wMjAzIC0yLjUyNTQsMC4yNTI1NCAtMjEuMzUzLDIuOTAyNiAtMjIuNDc2LDIuNzc3OSAtMS4xMzY0LC0wLjEyNjI2IC0yLjI3MjgsLTAuMTI2MjcgLTIuMjcyOCwtMS42NDE1IDAsLTEuNTE1MjMgMi4wMjAzLC0zNC43MjQgMi4yNzI4LC0zNC44NSB6Ii8+JiN4YTsgICAgICAgIDxwYXRoIGlkPSJwYXRoNjY5IiBzdHJva2Utd2lkdGg9IjAuNiIgc3Ryb2tlPSIjMDAwMDAwIiBmaWxsLXJ1bGU9ImV2ZW5vZGQiIGZpbGw9IiNlM2RiZGIiIGQ9Im0gMzYxLjEzLDUxMC4xNiBjIDAsMCAtMC4xMjYyNywtMy4wMzA0IDEuODk0LC0zLjc4ODEgMi4wMjAzLC0wLjc1NzYxIDIyLjA5NywtMi41MjU0IDIyLjA5NywtMi41MjU0IDAsMCAyLjM5OTEsMi4wMjAzIDIuMTQ2NiwzLjI4MyAtMC4yNTI1LDEuMjYyNyAtMS4yNjI3LDMzLjg0IC0xLjI2MjcsMzMuODQgMCwwIDAuNTA1MDgsMi43Nzc5IC0xLjc2NzgsMi43Nzc5IC0yLjI3MjgsMCAtMTkuNTcyLDMuNDA5MyAtMTkuNTcyLDMuNDA5MyAwLDAgLTAuMDYzMSwtMC41NjgyMSAtMC43NTc2MiwtMi42NTE2IC0wLjY5NDQ4LC0xMS40MjcgLTIuNzc3OSwtMzQuMzQ1IC0yLjc3NzksLTM0LjM0NSB6Ii8+JiN4YTsgICAgICAgIDxwYXRoIGlkPSJwYXRoNjcxIiBzdHJva2Utd2lkdGg9IjAuNiIgc3Ryb2tlPSIjMDAwMDAwIiBmaWxsLXJ1bGU9ImV2ZW5vZGQiIGZpbGw9IiNlM2RiZGIiIGQ9Im0gMzMyLjk3LDUzOS4wMiBjIDAsMCAwLjI1MjU0LDAuNzU3NjIgMS42NDE1LDEuNjQxNSAyLjAyMTIsMS4yODYyIDE2LjE2Miw1LjM2NjQgMTYuMTYyLDUuMzY2NCAwLDAgMS4yNjI3LDAuNzU3NjEgMS4yNjI3LC0wLjc1NzYyIDAsLTEuNTE1MiAtMi43Nzc5LC0zNC44NSAtMi43Nzc5LC0zNC44NSAwLDAgMCwtMS4yNjI3IC0zLjUzNTUsLTMuMDMwNSAtMy41MzU1LC0xLjc2NzggLTE1Ljk3MywtNC4xMDM3IC0xNS45NzMsLTQuMTAzNyAwLDAgLTAuODgzODksMC4xMjYyNyAtMS4xMzY0LDEuMzg5IC0wLjI1MjUxLDEuMjYyNzMgNC43MzUxLDM1Ljc5NyA0LjM1NjMsMzQuMzQ1IHoiLz4mI3hhOyAgICAgICAgPHBhdGggaWQ9InBhdGg2NzMiIHN0cm9rZS13aWR0aD0iMC42IiBzdHJva2U9IiMwMDAwMDAiIGZpbGwtcnVsZT0iZXZlbm9kZCIgZmlsbD0iI2UzZGJkYiIgZD0ibSAzMTQuMjIsNTI1LjUgYyAwLDAgMC42MzEzNSwwLjg4Mzg5IDAuOTQ3MDIsMS4wMTAyIGwgOC41ODYzLDMuNTk4NyBjIDAsMCAwLjc1NzYyLDEuMDEwMiAwLjUwNTA4LC0wLjI1MjU0IC0wLjI1MjU0LC0xLjI2Mjc0IC0zLjI1MTQsLTMxLjIyIC0zLjI1MTQsLTMxLjIyIDAsMCAtMC4wMTI4LC0xLjkxNiAtMi4zNjc2LC0yLjUyNTQgLTQuMzU2MywtMS4zODkgLTYuMTg2LC0yLjEwNzMgLTkuMTkxNSwtMi40OTUxIC0xLjEzNjQsMC4xODk0IC0wLjUwOTU1LDIuMDQ1NSAtMC4xODM5OCwzLjMxNTkgMi44NjE1LDE0LjY5IDQuOTU2LDI4LjgyMSA0Ljk1NiwyOC41NjggeiIvPiYjeGE7ICAgICAgICA8cGF0aCBpZD0icGF0aDY3NSIgc3Ryb2tlLXdpZHRoPSIwLjYiIHN0cm9rZT0iIzAwMDAwMCIgZmlsbC1ydWxlPSJldmVub2RkIiBmaWxsPSIjZTNkYmRiIiBkPSJtIDMwNy4yMSw1MjAuMTMgMi4zMDA4LDEuNjQ3OCAtNC4xODg1LC0zMC4zMDIgLTMuNzI2OCwtNS42MjcyIDUuNjE0NSwzNC4yODEgeiIvPiYjeGE7ICAgICAgICA8ZyBpZD0iZzcwNyIgdHJhbnNmb3JtPSJtYXRyaXgoMC43ODg3OCwwLDAsMC43ODg3OCwyNS44OSwyNzEuMDcpIiBzdHJva2U9IiMwMDAwMDAiPiYjeGE7ICAgICAgICAgIDxnIGlkPSJnNjk5IiB0cmFuc2Zvcm09Im1hdHJpeCgxLjI2NzgsMCwwLDEuMjY3OCwtMzMuNDcsLTMzOC41MykiPiYjeGE7ICAgICAgICAgICAgPHBhdGggaWQ9InBhdGg2NzciIGZpbGwtcnVsZT0iZXZlbm9kZCIgZmlsbD0iIzIyMjQxYyIgZD0ibSA0MzYuNDEsNDUzLjU0IDEyLjUyMiwtMTMxLjE4IDcuMTQyOSwtMC43MTQyOCAtMTIuNDIxLDEzNC4xMSAtNy4yNDM4LC0yLjIxNDYgeiIvPiYjeGE7ICAgICAgICAgICAgPHBhdGggaWQ9InBhdGg2NzkiIGZpbGwtcnVsZT0iZXZlbm9kZCIgZmlsbD0iIzQ1NDgzNyIgZD0ibSA0NDMuMjEsNDU2LjE1IDEwLjM1NywtMTM0Ljg2IDUuNzE0MywtMS4wNzE0IC03Ljk4MzQsMTM0LjE3IC04LjA4OCwxLjc2NzggeiIvPiYjeGE7ICAgICAgICAgICAgPHBhdGggaWQ9InBhdGg2ODEiIGZpbGwtcnVsZT0iZXZlbm9kZCIgZmlsbD0iIzIyMjQxYyIgZD0ibSA0NTMuMDgsMzIyLjYxIGMgMy43ODU2LC0wLjY2Nzc2IDYuOTQwOCwtMS42MTYyIDEwLjc5MiwtMS42ODk5IDAuNjEwNDMsLTEuMTM0OSAtMC41NDIyMiwtMS45NzM4IC0wLjUxOTc0LC0yLjAxOTkgLTIuNzY3OSwwIC0xLjg0MTMsMC4yNTY2IC00Ljk3MTYsMC42NjgxNiAtMy4xMzAzLDAuNDExNTUgLTguNDM3OCwwLjQyNzE4IC0xMS44NTksMC4yOTM4NyAtMC44NDgyMiwwLjQwMTc4IC0wLjI2Nzg2LDEuNjk2NCAtMC4yNjc4NiwxLjY5NjQgMS45ODA5LDAuNzE5NTYgNC43Mjg0LDEuMDM1NiA2LjgyNjUsMS4wNTEzIHoiLz4mI3hhOyAgICAgICAgICAgIDxwYXRoIGlkPSJwYXRoNjgzIiBmaWxsPSJub25lIiBkPSJtIDQ1Ny41OSwzNDMuODggOS4xOTY0LDMuNTcxNCIvPiYjeGE7ICAgICAgICAgICAgPHBhdGggaWQ9InBhdGg2ODUiIGZpbGw9Im5vbmUiIGQ9Im0gNDcwLjYyLDM2Mi45IDAuMTc4NTcsLTIuNTg5MyAtMy4zOTI5LC0xLjMzOTMgLTAuMjY3ODUsLTIxLjQyOSA1LjI2NzgsMC44MDM1OCIvPiYjeGE7ICAgICAgICAgICAgPHBhdGggaWQ9InBhdGg2ODciIGZpbGw9Im5vbmUiIGQ9Im0gNDMxLjc5LDMyNC4zMyA0LjgyMTQsMi4xNDI5IC0wLjQ0NjQzLDE5LjgyMSAtNS40NDY0LC0wLjE3ODU3Ii8+JiN4YTsgICAgICAgICAgICA8cGF0aCBpZD0icGF0aDY4OSIgZmlsbD0ibm9uZSIgZD0ibSA0MzYuMzQsMzM2LjkyIDExLjg3NSwzLjMwMzYiLz4mI3hhOyAgICAgICAgICAgIDxwYXRoIGlkPSJwYXRoNjkxIiBmaWxsPSJub25lIiBkPSJtIDQ0MS4yNSwzMjYuNjUgNS41MzU3LC0wLjA4OTMiLz4mI3hhOyAgICAgICAgICAgIDxwYXRoIGlkPSJwYXRoNjkzIiBmaWxsPSJub25lIiBkPSJtIDQ0NC45MSwzMjYuNjUgMC4yNjc4NiwxMC40NDYgNC4zNzUsMC44OTI4NSIvPiYjeGE7ICAgICAgICAgICAgPHBhdGggaWQ9InBhdGg2OTUiIGZpbGwtcnVsZT0iZXZlbm9kZCIgZmlsbD0iIzQ1NDgzNyIgZD0ibSA0MzUsMzc5LjMzIGMgMCwwIDYuMDcxNCwyLjMyMTQgOC41NzE0LDUuNzE0MyAyLjUsMy4zOTI5IDIuMTQyOSwtNC44MjE0IDIuMTQyOSwtNC44MjE0IGwgLTEwLjcxNCwtMC44OTI4NiB6Ii8+JiN4YTsgICAgICAgICAgICA8cGF0aCBpZD0icGF0aDY5NyIgZmlsbD0ibm9uZSIgZD0ibSA0NDAuNzEsMzgwLjIyIC0wLjE3ODU4LC05LjI4NTcgLTQuNjQyOCwwLjE3ODU3IC0wLjE3ODU3LDEuNDI4NiIvPiYjeGE7ICAgICAgICAgIDwvZz4mI3hhOyAgICAgICAgICA8cGF0aCBpZD0icGF0aDcwMSIgc3Ryb2tlLXdpZHRoPSIwLjI1NCIgZmlsbC1ydWxlPSJldmVub2RkIiBmaWxsPSIjM2EzOTM3IiBkPSJtIDQ4OC41NiwyNDkuMDEgMi43MjE0LC00OS45NDUgMy41MjE4LC0wLjE2MDA4IC0zLjUyMTgsNTEuMjI2IC0yLjcyMTQsLTEuMTIwNiB6Ii8+JiN4YTsgICAgICAgICAgPHBhdGggaWQ9InBhdGg3MDMiIHN0cm9rZS13aWR0aD0iMC4yNTQiIGZpbGwtcnVsZT0iZXZlbm9kZCIgZmlsbD0iIzNhMzkzNyIgZD0ibSA0ODguNTYsMjM5LjA5IC01LjEyMjYsOC4zMjQyIGMgMCwwIDEuNjAwOCw1LjYwMjggNi44ODM1LDMuMzYxNyA1LjI4MjcsLTIuMjQxMSA1LjI4MjcsLTMuMDQxNSA1LjI4MjcsLTMuMDQxNSBsIC0zLjUyMTgsLTguNjQ0NCB6Ii8+JiN4YTsgICAgICAgICAgPHBhdGggaWQ9InBhdGg3MDUiIHN0cm9rZS13aWR0aD0iMC4yNTQiIGZpbGwtcnVsZT0iZXZlbm9kZCIgZmlsbD0iIzgwODA4MCIgZD0ibSA0OTEuMTgsMTk5LjE4IGMgMCwwIDAuOTYwNSwxLjI4MDYgMi40MDEyLDAuNjQwMzEgMS40NDA3LC0wLjY0MDMxIDEuNjAwOCwtMi4yNDExIC0wLjQ4MDI0LC0yLjA4MSAtMi4wODExLDAuMTYwMDggLTIuMDgxMSwwLjgwMDQgLTEuOTIxLDEuNDQwNyB6Ii8+JiN4YTsgICAgICAgIDwvZz4mI3hhOyAgICAgICAgPHBhdGggaWQ9InBhdGg3MDkiIHN0cm9rZS13aWR0aD0iMC4zOTk5MTEiIHN0cm9rZT0iIzAwMDAwMCIgZmlsbC1ydWxlPSJldmVub2RkIiBmaWxsPSIjYzhjNGI3IiBkPSJtIDQzNi41NDQ2NCw0NjEuMjI5MDggYyAwLDAgNi45NjQzLC0xNS44OTMxMyA5LjY0Mjg0LC0xNi40Mjg3MSAyLjY3ODU0LC0wLjUzNTcxIDIuODU3MTIsMCAzLjM5Mjg2LDEuMDcxNCAwLjUzNTcxLDEuMDcxNCA3LjMyMTM3LDE0LjgyMTE4IDcuMzIxMzcsMTQuODIxMTggbCAtMjAuMzU2ODMsMC41MzU3MSB6Ii8+JiN4YTsgICAgICAgIDxnIGlkPSJnNzE1IiB0cmFuc2Zvcm09InRyYW5zbGF0ZSgxLjAzLC0xNy4xNSkiIHN0cm9rZT0iIzAwMDAwMCIgZmlsbC1ydWxlPSJldmVub2RkIiBmaWxsPSIjNmM2NzUzIj4mI3hhOyAgICAgICAgICA8cGF0aCBpZD0icGF0aDcxMSIgc3Ryb2tlLXdpZHRoPSIwLjMyMDI2MSIgZD0ibSA0NTIuMzA3MjEsMzg0LjM2OTcyIGMgLTAuMzk1OCwwLjA0ODYgLTAuNzQyNjIsMC41ODIzNSAtMC44Mzk0LDEuMTk0NDcgLTAuMTEwNjMsMC42OTk2MiAwLjAxNjYsMS4zNzkyOSAwLjQ4NDI3LDEuNDg1MDggMC4xMDgxNCwwLjAyNDUgMC4yMzc5OSwwLjAwNSAwLjM1NTEzLC0wLjAzMjMgbCA0Ni4yOTUyNywxMC4xNjk2MyAwLjMyMjg1LC0yLjE2MzExIC00Ni4xMzQxMiwtMTAuNDYwMTMgYyAtMC4wMTM0LC0wLjAxMzQgLTAuMDE4NCwtMC4wMjAxIC0wLjAzMjMsLTAuMDMyMyAtMC4wODUyLC0wLjA3NTEgLTAuMTkwMDIsLTAuMTM4NjcgLTAuMjkwNTYsLTAuMTYxNDIgLTAuMDU4NCwtMC4wMTMyIC0wLjEwNDg4LC0wLjAwNyAtMC4xNjE0MiwwIHoiLz4mI3hhOyAgICAgICAgICA8cGF0aCBpZD0icGF0aDcxMyIgdHJhbnNmb3JtPSJtYXRyaXgoMC44OTQ0LDAuMTY5MTcsLTAuMTkzNTgsMS4wMjM1LDM2LjE1LDY2LjM4KSIgc3Ryb2tlLXdpZHRoPSIwLjMiIGQ9Im0gNTY3LjcyLDIyOC41IGMgNS45ZS00LDAuMzc1MjQgLTAuMTgyMjMsMC43MjIyNCAtMC40Nzk0NCwwLjkxMDA1IC0wLjI5NzIxLDAuMTg3OCAtMC42NjM1NSwwLjE4NzggLTAuOTYwNzYsMCAtMC4yOTcyMSwtMC4xODc4MSAtMC40ODAwMywtMC41MzQ4MSAtMC40Nzk0NCwtMC45MTAwNSAtNS45ZS00LC0wLjM3NTI0IDAuMTgyMjMsLTAuNzIyMjQgMC40Nzk0NCwtMC45MTAwNSAwLjI5NzIxLC0wLjE4NzggMC42NjM1NSwtMC4xODc4IDAuOTYwNzYsMCAwLjI5NzIxLDAuMTg3ODEgMC40ODAwMywwLjUzNDgxIDAuNDc5NDQsMC45MTAwNSB6Ii8+JiN4YTsgICAgICAgIDwvZz4mI3hhOyAgICAgICAgPHBhdGggaWQ9InBhdGg3MTciIHN0cm9rZS13aWR0aD0iMC4yMDY2MiIgc3Ryb2tlPSIjMDAwMDAwIiBmaWxsPSJub25lIiBkPSJNIDQ1OS4xMTUzNCw0ODcuNDAwNzggNDkxLjQ2Njg2LDM3Ny4zMDMzMiIvPiYjeGE7ICAgICAgICA8cGF0aCBpZD0icGF0aDcxOSIgc3Ryb2tlLXdpZHRoPSIwLjIwNjYyIiBzdHJva2U9IiMwMDAwMDAiIGZpbGwtcnVsZT0iZXZlbm9kZCIgZmlsbD0iI2FhNDQwMCIgZD0ibSA0ODkuMDU0NTcsMzg1LjIwNjUzIGMgMCwwIC03LjI0MDg5LC0wLjg3NjI3IC05LjA4NTcsMS41MjE5NiAtMS44NDQ4LDIuMzk4MjQgLTQuMjg5MjIsNC40Mjc1NiAtOC4xNjMzNSw0LjYxMjA3IC0zLjg3NDEyLDAuMTg0NTEgLTUuMDI3MTYsMS4yOTEzOCAtNS4wMjcxNiwxLjI5MTM4IDAuMDI1NSwwLjIyMDk4IDMuNTg0NTQsMTIuNDQzNjkgMy41NTEyOCwxMi4yMjE1NyA0LjY1MDkxLC0wLjUwNjE1IDUuNDMyMDQsLTIuNTQ0OTQgOC45MDEyOSwtNC4xOTY5NyAxLjQ3NTg5LDAgNC44NDI2NiwxLjQ3NTg5IDQuODQyNjYsMS40NzU4OSIvPiYjeGE7ICAgICAgICA8cGF0aCBpZD0icGF0aDcyMSIgc3Ryb2tlLXdpZHRoPSIxLjAzMzEiIG9wYWNpdHk9IjAuMTk1IiBmaWxsLXJ1bGU9ImV2ZW5vZGQiIGQ9Im0gNDgwLjIwMDkxLDM4Ni41NTk4OSBjIDAsMCAtMC4xNzQ2NSwwLjExNDczIC0wLjIyNTk5LDAuMTYxNDIgLTAuMDIzMywwLjAzMDMgLTAuMDQxMSwwLjA2NjcgLTAuMDY0NiwwLjA5NjkgLTEuNTY4ODcsMi4wMTQ3NSAtMy41ODY2MiwzLjc0ODI5IC02LjUyMTQ1LDQuMzI2MSAwLjI2NDE3LDAuODA2MjYgMi44NjkwMyw4Ljc4MzUyIDMuMTk2MjEsMTEuMTA1ODMgMC43MjExNiwtMC41MDY1NiAxLjQ4MTA1LC0xLjAyMzMxIDIuNDg1ODQsLTEuNTE3NDIgMC4wMjI3LC0wLjA0MDQgMC4xMjkxNCwtMC4xNTE4MiAwLjEyOTE0LC0wLjE2MTQyIGwgMS4wMDA4MiwtMTQuMDEwOSB6Ii8+JiN4YTsgICAgICAgIDxwYXRoIGlkPSJwYXRoNzIzIiBzdHJva2Utd2lkdGg9IjAuMjA2NjIiIHN0cm9rZT0iIzAwMDAwMCIgZmlsbD0ibm9uZSIgZD0iTSAzNTMuOTc2NzUsNDk0LjkzMjA4IDQ1MS4xNzU5NiwzMjYuNjE5NDMgMzAxLjIxMTE3LDQ3Mi40MzExNiIvPiYjeGE7ICAgICAgICA8cGF0aCBpZD0icGF0aDcyNSIgc3Ryb2tlLXdpZHRoPSIwLjIwNjYyIiBzdHJva2U9IiMwMDAwMDAiIGZpbGwtcnVsZT0iZXZlbm9kZCIgZmlsbD0iIzRkNGQ0ZCIgZD0ibSAzNTQuMDY5NzMsNDk0LjUyOTE3IC0wLjIyODI5LC0wLjE0Njc2IGMgMCwwIC0wLjU3MDcxLDAuNjUyMjUgLTAuMzI2MTEsMC45NzgzNyAwLjI0NDU4LDAuMzI2MTIgMC42NTIyMywtMC4wMzI2IDAuNzE3NDYsLTAuMTYzMDYgMC4wNjUyLC0wLjEzMDQ1IDAuMTc5MzcsLTAuNDcyODggMC4xNzkzNywtMC40NzI4OCBsIC0wLjIyODI4LC0wLjExNDE0IGMgMCwwIC0wLjA0ODksMC40NTY1NyAtMC4xNzkzNywwLjUwNTQ5IC0wLjEzMDQ1LDAuMDQ4OSAtMC4yNzcyMSwtMC4wOTc4IC0wLjIyODI5LC0wLjIxMTk4IDAuMDQ4OSwtMC4xMTQxNSAwLjIyODI5LC0wLjM3NTA0IDAuMjkzNTEsLTAuMzc1MDQgeiIvPiYjeGE7ICAgICAgICA8ZyBpZD0iZzczOSIgdHJhbnNmb3JtPSJtYXRyaXgoMS4wMzMxLDAsMCwxLjAzMzEsLTg1LjM3LDE2MC4yOCkiIHN0cm9rZT0iIzAwMDAwMCIgZmlsbC1ydWxlPSJldmVub2RkIiBmaWxsPSIjZmZmZmZmIj4mI3hhOyAgICAgICAgICA8cGF0aCBpZD0icGF0aDcyNyIgc3Ryb2tlLXdpZHRoPSIwLjI4MiIgZD0ibSA0MTAuNzUsMjkzLjc5IDEuNzYzOCwtMS4xMzM4IDYuMDQ3MiwtMC4zNzc5NSAxLjM4NTgsMS42Mzc4IGMgMCwwIC0yLjUxOTYsMS42Mzc4IC00Ljc4NzQsMS4yNTk4IC0yLjI2NzcsLTAuMzc3OTUgLTQuNTM1NCwtMS4yNTk4IC00LjQwOTQsLTEuMzg1OCB6Ii8+JiN4YTsgICAgICAgICAgPHBhdGggaWQ9InBhdGg3MjkiIHN0cm9rZS13aWR0aD0iMC4yODIiIGQ9Im0gNDEzLjAxLDI4Ny40OSBjIC0wLjEyNTk4LDAuNzU1OSAtMC4yNTE5Niw1LjE2NTMgLTAuMjUxOTYsNS4xNjUzIDAsMCAtMC4yNTE5NywwLjg4MTg3IDEuMzg1OCwxLjEzMzggMS42Mzc4LDAuMjUxOTcgMy41Mjc1LC0wLjUwMzkzIDMuNTI3NSwtMC41MDM5MyAwLDAgLTAuMzc3OTUsLTUuMjkxMyAtMC41MDM5MywtNS45MjEyIC0wLjEyNTk4LC0wLjYyOTkgLTQuMDMxNSwtMC4xMjU5OCAtNC4xNTc0LDAuMTI1OTkgeiIvPiYjeGE7ICAgICAgICAgIDxnIGlkPSJnNzM3IiB0cmFuc2Zvcm09Im1hdHJpeCgwLjg0NDA5LDAsMCwwLjg0NDA5LDY0LjA4LDUwLjA0KSIgc3Ryb2tlLXdpZHRoPSIwLjQiPiYjeGE7ICAgICAgICAgICAgPHBhdGggaWQ9InBhdGg3MzEiIGZpbGw9IiNmZmZmZmYiIGQ9Im0gNDAyLjc0LDI2OC44NSAxOS40MDIsLTAuNzEwNzggYyA3Ljc1ODQsMS4yNzMzIDguMDE4MSwxMS4yNyAyLjAwMTEsMTIuODg5IC0xLjc2NzgsMC41MDUwNyAtMjAuNjQ1LDEuNzc0NCAtMjAuNjQ1LDEuNzc0NCAtNy40NTU1LC0wLjU5NDcxIC04LjQyNTIsLTEyLjE5OCAtMC43NTc2MiwtMTMuOTUzIHoiLz4mI3hhOyAgICAgICAgICAgIDxwYXRoIGlkPSJwYXRoNzMzIiBmaWxsPSIjZmZmZmZmIiBkPSJtIDQwMy4wNiwyNjguODEgYyA4LjM0ODUsLTAuMDI3MiA5LjY4NiwxMi43NjEgMC43NDYyMywxMy45OTQiLz4mI3hhOyAgICAgICAgICAgIDxwYXRoIGlkPSJwYXRoNzM1IiBmaWxsPSIjYjNiM2IzIiBkPSJtIDQwNS4zLDI3NS45NiBjIDAsMS40MiAtMC45MDU1MiwyLjU3MjUgLTIuMDIxMiwyLjU3MjUgLTEuMTE1NjgsMCAtMi4wMjEzLC0xLjE1MjUgLTIuMDIxMywtMi41NzI1IDAsLTEuNDIgMC45MDU1MywtMi41NzI1IDIuMDIxMywtMi41NzI1IDAuNjI5MjksMCAxLjE5MTcsMC4zNjY2MiAxLjU2MjUsMC45NDEwOSAwLjI4NjYxLDAuNDQ0MDYgMC40NTg3MywxLjAxMjMgMC40NTg3MywxLjYzMTQgeiIvPiYjeGE7ICAgICAgICAgIDwvZz4mI3hhOyAgICAgICAgPC9nPiYjeGE7ICAgICAgICA8ZyBpZD0iZzc0NyIgdHJhbnNmb3JtPSJtYXRyaXgoMS4wMzMxLDAsMCwxLjAzMzEsLTg2Ljg0LDE2MS4zKSI+JiN4YTsgICAgICAgICAgPHBhdGggaWQ9InBhdGg3NDEiIHRyYW5zZm9ybT0ibWF0cml4KC0wLjMyMDk2LC0wLjkxNzEzLDAuNzM3ODUsLTAuMTY2MzYsMjg3LjkyLDc4My4wMSkiIHN0cm9rZS13aWR0aD0iMC4yMzQiIHN0cm9rZT0iIzAwMDAwMCIgZmlsbD0iI2ZmZmZmZiIgZD0ibSA0MjAuMzYsMzQ4LjkzIGMgMCw0LjMzOTQgLTMuMDM4MSw3Ljg1NzEgLTYuNzg1Nyw3Ljg1NzEgLTMuNzQ3NiwwIC02Ljc4NTcsLTMuNTE3OCAtNi43ODU3LC03Ljg1NzEgMCwtNC4zMzkzIDMuMDM4MSwtNy44NTcxIDYuNzg1NywtNy44NTcxIDMuNzQ3NiwwIDYuNzg1NywzLjUxNzggNi43ODU3LDcuODU3MSB6Ii8+JiN4YTsgICAgICAgICAgPHBhdGggaWQ9InBhdGg3NDMiIHRyYW5zZm9ybT0ibWF0cml4KC0wLjEwMTk3LC0wLjI5MTM4LDAuMjM0NDIsLTAuMDUyODU0LDM3Mi4zMSw0ODUuMDYpIiBkPSJtIDQyMC4zNiwzNDguOTMgYyAwLDQuMzM5NCAtMy4wMzgxLDcuODU3MSAtNi43ODU3LDcuODU3MSAtMy43NDc2LDAgLTYuNzg1NywtMy41MTc4IC02Ljc4NTcsLTcuODU3MSAwLC00LjMzOTMgMy4wMzgxLC03Ljg1NzEgNi43ODU3LC03Ljg1NzEgMy43NDc2LDAgNi43ODU3LDMuNTE3OCA2Ljc4NTcsNy44NTcxIHoiLz4mI3hhOyAgICAgICAgICA8cGF0aCBpZD0icGF0aDc0NSIgdHJhbnNmb3JtPSJtYXRyaXgoLTAuMDUxMjY3LC0wLjE0NjQ5LDAuMTE3ODYsLTAuMDI2NTcyLDM5MS43Niw0MTYuMTUpIiBmaWxsPSIjNzg2NzIxIiBkPSJtIDQyMC4zNiwzNDguOTMgYyAwLDQuMzM5NCAtMy4wMzgxLDcuODU3MSAtNi43ODU3LDcuODU3MSAtMy43NDc2LDAgLTYuNzg1NywtMy41MTc4IC02Ljc4NTcsLTcuODU3MSAwLC00LjMzOTMgMy4wMzgxLC03Ljg1NzEgNi43ODU3LC03Ljg1NzEgMy43NDc2LDAgNi43ODU3LDMuNTE3OCA2Ljc4NTcsNy44NTcxIHoiLz4mI3hhOyAgICAgICAgPC9nPiYjeGE7ICAgICAgICA8cGF0aCBpZD0icGF0aDc0OSIgc3Ryb2tlLXdpZHRoPSIwLjIwNjYyIiBzdHJva2U9IiMwMDAwMDAiIGZpbGwtcnVsZT0iZXZlbm9kZCIgZmlsbD0iIzMzMzMzMyIgZD0ibSA0MzIuNjc4MzEsNDY3LjEzMTM2IGMgMC4wNDE5LDAuMDI2MSA0LjM4NzU3LDQuNzIwMTMgNC4zODc1Nyw0LjcyMDEzIGwgMTUuMTc4MzEsLTAuOTM4MjMgLTAuMDc5OSwtMC43MDEzMSBjIDAsMCAtMTcuMzgxOTEsLTYuNjc0MzQgLTE4LjIxMTQ5LC01LjkzNjQgLTAuODMwMTcsMC43Mzc5NCAtMS4yMTU0NCwxLjM4MjcgLTEuMjc0NjQsMi44NTU4IHoiLz4mI3hhOyAgICAgICAgPHBhdGggaWQ9InBhdGg3NTEiIHN0cm9rZS13aWR0aD0iMC4yMDY2MiIgc3Ryb2tlPSIjMDAwMDAwIiBmaWxsLXJ1bGU9ImV2ZW5vZGQiIGZpbGw9IiMzMzMzMzMiIGQ9Im0gNDMyLjgzMzI3LDQ2Ni43MDc3OSBjIDAuMDc0NSwwLjE1NjUxIDQuMjg5NzQsNC40MjY2MyA0LjI4OTc0LDQuNDI2NjMgbCAxNS4wODEyLC0wLjc0MjU2IC00LjA1ODY0LC02LjE4MDExIGMgMCwwIC0xMi45MTM3NSwtMC4xODQ0OCAtMTMuNzQ0MzYsMC41NTM0NCAtMC44MzAxNywwLjczNzkzIC0xLjQ2MDA4LDAuNTY3MzUgLTEuNTY4MTQsMS45NDI2NCB6Ii8+JiN4YTsgICAgICAgIDxwYXRoIGlkPSJwYXRoNzUzIiBzdHJva2Utd2lkdGg9IjAuMjA2NjIiIHN0cm9rZT0iIzAwMDAwMCIgZmlsbC1ydWxlPSJldmVub2RkIiBmaWxsPSIjMWExYTFhIiBkPSJtIDQzMi43NTA2Miw0NjYuNDI4ODUgMC4xNzk4NiwtNS45MTkyNSBjIDAsMCAxNC42NzEwNSwtMC45MDY1OCAxNC42NzEwNSwtMC41Mzc2MiAwLDAuMzY4OTcgMC4yNzY3Miw2LjE4MDIxIDAuMjc2NzIsNi4xODAyMSBsIC0xNS4xMjc2OSwwLjI3NjcyIHoiLz4mI3hhOyAgICAgICAgPHBhdGggaWQ9InBhdGg3NTUiIHN0cm9rZS13aWR0aD0iMC4yMDY2MiIgc3Ryb2tlPSIjMDAwMDAwIiBmaWxsLXJ1bGU9ImV2ZW5vZGQiIGQ9Im0gNDQ3Ljc4MjIzLDQ2Ni4zNDYyMSBjIDAuOTIyNCwwLjczNzkyIDQuMzE0ODQsNC4yOTkwNCA0LjQwNzEsMy44Mzc4NiAwLjA5MjIsLTAuNDYxMiAtMC4yOTkxMSwtOC4yMjcyIC0wLjI5OTExLC04LjIyNzIgbCAtNC4yMDAyOCwtMi4wNjc1NCAwLjA5MjMsNi40NTY4OCB6Ii8+JiN4YTsgICAgICAgIDxwYXRoIGlkPSJwYXRoNzU3IiBzdHJva2Utd2lkdGg9IjEuMDMzMSIgZmlsbC1ydWxlPSJldmVub2RkIiBmaWxsPSIjZDQwMDAwIiBkPSJtIDQ0Mi44OTU2Nyw0NjcuMDY5MzggYyAwLDAgMC4yMTk4NywtNS4xODQ1MSAwLjM0MTA5LC01LjE4MDQ4IDAuMzQ4NCwtMy4wMjM1OCA0Ljk4MzA2LC0yLjM0MjM1IDUuNDgwODEsLTAuMDc0NyAwLjM2MDQ0LDAuMTk1NzggMC4zNjc3NCw1Ljg4OTgxIDAuMzY3NzQsNS44ODk4MSAwLDAgLTEuNTU4NjQsMS44NDM4OCAtNi4xODk2MSwtMC42MzQ2NCB6Ii8+JiN4YTsgICAgICAgIDxwYXRoIGlkPSJwYXRoNzU5IiBzdHJva2Utd2lkdGg9IjEuMDMzMSIgb3BhY2l0eT0iMC4zMTYiIGZpbGwtcnVsZT0iZXZlbm9kZCIgZD0ibSA0NDQuMjM4Nyw0NjAuMjYxMjUgYyAtMC4wMzg4LDAgLTAuMjUwOTQsMC4zMjQ2MyAtMC41ODExMiwwLjUxODUxIC0wLjIxMTk2LDAuMjkyMDMgLTAuMzY4MTUsMC42NTAyNiAtMC40MTk3LDEuMDk3NjcgLTAuMTIxMjIsLTAuMDA0IC0wLjM1NTE2LDUuMTk3NzMgLTAuMzU1MTMsNS4xOTc3MyA0LjYzMDk4LDIuNDc4NTEgNi4xOTg2LDAuNjEzNDEgNi4xOTg2LDAuNjEzNCAwLDAgMC4wMDIsLTAuNjc3MTkgMCwtMC45MzYyNCAtMC4xNzExNSwtMC4xMDAxOSAtMC4zNzE3NCwtMC4xNzQ0NiAtMC42NDU2OSwtMC4xNjE0MiAtMi41NzM4NiwtMS4wNTg3MyAtNC41MzcwNiwtMy4zNTU5MyAtNC4xOTY5NiwtNi4zMjk3IHoiLz4mI3hhOyAgICAgICAgPHBhdGggaWQ9InBhdGg3NjEiIHN0cm9rZS13aWR0aD0iMC4yMDY2MiIgc3Ryb2tlPSIjMDAwMDAwIiBmaWxsPSJub25lIiBkPSJtIDQzNy4wMzc5OSw0NzEuODQyMyAwLjA2NTIsLTAuNzUwMDgiLz4mI3hhOyAgICAgIDwvZz4mI3hhOyAgICAgIDxnIGlkPSJnNzgzIiB0cmFuc2Zvcm09Im1hdHJpeCgxLjI2NzgsMCwwLDEuMjY3OCwtMzIuODMsLTM0My42NSkiIHN0cm9rZS1saW5lY2FwPSJyb3VuZCIgc3Ryb2tlPSIjM2YzYzExIiBmaWxsPSJub25lIj4mI3hhOyAgICAgICAgPHBhdGggaWQ9InBhdGg3NjUiIHN0cm9rZS13aWR0aD0iMi4yIiBkPSJtIDUwNy44Niw1ODcuMTcgYyAtMC45NzQyNSwtMjMuODk5IC0xLjY5NDQsLTI5Ljk4OCAtMi4yMTMxLC0zNi4wMDYgLTYuNDI4NiwwIC0xMDMuMTUsMTMuMzQxIC0xMDMuMTUsMTMuMzQxIDAsMCAtNzUuMzU3LDcuODU3MSAtNzcuMTQzLDcuMTQyOSAtMS43ODU3LC0wLjcxNDI5IC00LjI4NTcsLTEuNzg1NyAtNi43ODU3LC0zLjIxNDMgLTIuNSwtMS40Mjg2IC0yMy4yMTQsLTEyLjUgLTIzLjIxNCwtMTIuNSAwLDAgLTYuNzg1NywtMi4xNDI5IC04LjU3MTQsLTEuMDcxNCAtMS43ODU3LDEuMDcxNCAtNTEuMDcxLDk3Ljg1NyAtNTEuMDcxLDk3Ljg1NyIvPiYjeGE7ICAgICAgICA8cGF0aCBpZD0icGF0aDc2NyIgc3Ryb2tlLXdpZHRoPSIyLjIiIGQ9Im0gNDUzLjU3LDU1Ny43NyAtMS40Mjg2LDM2LjY0MiIvPiYjeGE7ICAgICAgICA8cGF0aCBpZD0icGF0aDc2OSIgc3Ryb2tlLXdpZHRoPSIyLjIiIGQ9Im0gNDAzLjkzLDU2NC41IC0xLjQyODYsMzcuMTQzIi8+JiN4YTsgICAgICAgIDxwYXRoIGlkPSJwYXRoNzcxIiBzdHJva2Utd2lkdGg9IjIuMiIgZD0ibSAzNDkuMjksNTcwLjU4IC0xLjQyODYsMzYuMTU0Ii8+JiN4YTsgICAgICAgIDxwYXRoIGlkPSJwYXRoNzczIiBzdHJva2Utd2lkdGg9IjIuMiIgZD0ibSAzMTYuMDcsNTY4LjA4IC0wLjI5NDAxLDM2LjcyMSIvPiYjeGE7ICAgICAgICA8cGF0aCBpZD0icGF0aDc3NSIgc3Ryb2tlLXdpZHRoPSIyLjIiIGQ9Im0gMjk2Ljc5LDU1Ny43MiAxMGUtNiwzNS42NDkiLz4mI3hhOyAgICAgICAgPHBhdGggaWQ9InBhdGg3NzciIGQ9Im0gMjk2LjY0LDU4My4wNiAyNS41MDUsMTYuMDkzIDE3OC41NywtMjAuMzU3Ii8+JiN4YTsgICAgICAgIDxwYXRoIGlkPSJwYXRoNzc5IiBzdHJva2Utd2lkdGg9IjEuNSIgZD0ibSAyOTYuNyw1NzAuMzcgYyAwLDAgMjUuNDQsMTQuODUyIDI3LjIyNiwxNC44NTIgMS43ODU3LDAgMTc2Ljc5LC0yMC4zNTcgMTc2Ljc5LC0yMC4zNTciLz4mI3hhOyAgICAgICAgPHBhdGggaWQ9InBhdGg3ODEiIHN0cm9rZS13aWR0aD0iMi4yIiBkPSJtIDUwMS43OSw1NTIgLTEuNzIyNiwzNS45NTQiLz4mI3hhOyAgICAgIDwvZz4mI3hhOyAgICAgIDxnIGlkPSJnODA1IiB0cmFuc2Zvcm09Im1hdHJpeCgxLjI2NzgsMCwwLDEuMjY3OCwtMTIzLjY4LC01ODMuNDcpIj4mI3hhOyAgICAgICAgPHBhdGggaWQ9InBhdGg3ODUiIHN0cm9rZS13aWR0aD0iMC41IiBzdHJva2U9IiMwMDAwMDAiIGZpbGwtcnVsZT0iZXZlbm9kZCIgZmlsbD0iIzMzMzMzMyIgZD0ibSA1MjYuMjUsOTM3LjU0IGMgLTEuNzg1NywtMC43MTQyOCAtNy42Nzg2LC00LjEwNzEgLTkuNjQyOSwtOC4yMTQzIC02Ljk2NDUsLTEzLjAxOCAwLjIxMTI4LC0zMC44MzEgMTUuMzU3LC0zNy4xNDMgMTEuMTM4LC0zLjcyNDIgMTkuNDk5LC0wLjkxNTAyIDI3LjE0Myw3Ljg1NzEgMS42MDcxLDIuNjc4NiAyLjUsMTUuNTM2IDIuNSwxNS41MzYgLTEyLjA5NSw3LjAzODkgLTIzLjg3NywxNCAtMzUuMzU3LDIxLjk2NCB6Ii8+JiN4YTsgICAgICAgIDxwYXRoIGlkPSJwYXRoNzg3IiBzdHJva2Utd2lkdGg9IjAuOCIgc3Ryb2tlPSIjMDAwMDAwIiBmaWxsLXJ1bGU9ImV2ZW5vZGQiIGZpbGw9IiMzMzMzMzMiIGQ9Im0gNTE5LjExLDkyMy43OSBjIC0yLjA5ODgsLTE2LjY4OSAxNi4yMDQsLTMxLjg5OCAzMy4wMzYsLTI4LjIxNCAzLjU3MTQsMS40Mjg2IDExLjA3MSw3LjE0MjkgMTAuMzU3LDE2Ljk2NCAtMC41NzMyOCwyMy40MzEgLTQwLjE4OCw0MS41MjUgLTQzLjM5MywxMS4yNSB6Ii8+JiN4YTsgICAgICAgIDxwYXRoIGlkPSJwYXRoNzg5IiBmaWxsLXJ1bGU9ImV2ZW5vZGQiIGZpbGw9IiM0ZDRkNGQiIGQ9Im0gNTI1LjM4LDkzMS42OSBjIDE1LjA5OCwxNS42NTIgNDAuOTc0LC03Ljc5MzggMzIuNTMxLC0yNy4zNDUgLTE3LjUzNywtMTcuNjYgLTQ2LjIwMyw4LjAyOCAtMzIuNTMxLDI3LjM0NSB6Ii8+JiN4YTsgICAgICAgIDxwYXRoIGlkPSJwYXRoNzkxIiBmaWxsLXJ1bGU9ImV2ZW5vZGQiIGZpbGw9IiMzMzMzMzMiIGQ9Im0gNTI3LjQ3LDkyOS42NiBjIDEzLjEzLDExLjM1MyAzNi4yODgsLTQuNzUxNyAyNi45NzIsLTIyLjc0NCAtMTUuNDg0LC0xNC4yNyAtMzUuNzA0LDYuNTI5NCAtMjYuOTcyLDIyLjc0NCB6Ii8+JiN4YTsgICAgICAgIDxwYXRoIGlkPSJwYXRoNzkzIiBzdHJva2U9IiMwMDAwMDAiIGZpbGwtcnVsZT0iZXZlbm9kZCIgZD0ibSA1MzMuMDQsOTI1LjIyIGMgMTEuNTM4LDguMjc3NiAyMS44MjgsLTMuMTE5MiAxNi4zMzIsLTEzLjczMyAtMTAuNjA5LC04LjczNDQgLTIxLjQ4Myw0LjE2NzggLTE2LjMzMiwxMy43MzMgeiIvPiYjeGE7ICAgICAgICA8cGF0aCBpZD0icGF0aDc5NSIgc3Ryb2tlLXdpZHRoPSIwLjUiIHN0cm9rZS1kYXNoYXJyYXk9IjAuNSwgMC41IiBzdHJva2U9IiMwMDAwMDAiIGZpbGw9Im5vbmUiIGQ9Im0gNTIxLjc5LDkzNC41IGMgMCwwIC0xMC4wNywtMTIuMDI0IDEuNjA3MiwtMjguNDgyIDkuODkwMywtMTMuOTQgMjguMTI1LC0xMi41ODkgMjkuNzMyLC0xMC44MDQiLz4mI3hhOyAgICAgICAgPHBhdGggaWQ9InBhdGg3OTciIHN0cm9rZS13aWR0aD0iMC41IiBzdHJva2UtZGFzaGFycmF5PSIwLjUsIDAuNSIgc3Ryb2tlPSIjMDAwMDAwIiBmaWxsPSJub25lIiBkPSJtIDUyMC4xOCw5MzMuMTcgYyAtOS45NTU0LC0xMy44NjIgMi45NDY0LC00Mi44NTcgMzAuNDQ2LC0zOS40NjQiLz4mI3hhOyAgICAgICAgPHBhdGggaWQ9InBhdGg3OTkiIHN0cm9rZS13aWR0aD0iMC41IiBzdHJva2UtZGFzaGFycmF5PSIwLjUsIDAuNSIgc3Ryb2tlPSIjMDAwMDAwIiBmaWxsPSJub25lIiBkPSJtIDUxNy45NSw5MzAuNCBjIC03LjAwODksLTE0LjEzIDQuNjQyOSwtNDAuMTc5IDMxLjQyOSwtMzcuODU3Ii8+JiN4YTsgICAgICAgIDxwYXRoIGlkPSJwYXRoODAxIiBzdHJva2Utd2lkdGg9IjAuNSIgc3Ryb2tlLWRhc2hhcnJheT0iMC41LCAwLjUiIHN0cm9rZT0iIzAwMDAwMCIgZmlsbD0ibm9uZSIgZD0ibSA1MTYuMTYsOTI3LjYzIGMgLTQuOTU1NCwtMTYuMjcyIDcuNzY3OSwtMzcuMjMyIDMxLjUxOCwtMzYuMDcxIi8+JiN4YTsgICAgICAgIDxwYXRoIGlkPSJwYXRoODAzIiBzdHJva2Utd2lkdGg9IjAuNSIgc3Ryb2tlLWRhc2hhcnJheT0iMC41LCAwLjUiIHN0cm9rZT0iIzAwMDAwMCIgZmlsbD0ibm9uZSIgZD0ibSA1MTQuNDYsOTIzLjUyIGMgLTAuNjU2NjMsLTE1LjM2MiA3LjM2OCwtMzIuMDEyIDMwLjA4OSwtMzIuNTg5Ii8+JiN4YTsgICAgICA8L2c+JiN4YTsgICAgICA8ZyBpZD0iZzgyNyIgdHJhbnNmb3JtPSJtYXRyaXgoMS4yNjc4LDAsMCwxLjI2NzgsLTIuNzUsLTYwNy4xNCkiPiYjeGE7ICAgICAgICA8cGF0aCBpZD0icGF0aDgwNyIgc3Ryb2tlLXdpZHRoPSIwLjUiIHN0cm9rZT0iIzAwMDAwMCIgZmlsbC1ydWxlPSJldmVub2RkIiBmaWxsPSIjMzMzMzMzIiBkPSJtIDUyNi4yNSw5MzcuNTQgYyAtMS43ODU3LC0wLjcxNDI4IC03LjY3ODYsLTQuMTA3MSAtOS42NDI5LC04LjIxNDMgLTYuOTY0NSwtMTMuMDE4IDAuMjExMjgsLTMwLjgzMSAxNS4zNTcsLTM3LjE0MyAxMS4xMzgsLTMuNzI0MiAxOS40OTksLTAuOTE1MDIgMjcuMTQzLDcuODU3MSAxLjYwNzEsMi42Nzg2IDIuNSwxNS41MzYgMi41LDE1LjUzNiAtMTIuMDk1LDcuMDM4OSAtMjMuODc3LDE0IC0zNS4zNTcsMjEuOTY0IHoiLz4mI3hhOyAgICAgICAgPHBhdGggaWQ9InBhdGg4MDkiIHN0cm9rZS13aWR0aD0iMC44IiBzdHJva2U9IiMwMDAwMDAiIGZpbGwtcnVsZT0iZXZlbm9kZCIgZmlsbD0iIzMzMzMzMyIgZD0ibSA1MTkuMTEsOTIzLjc5IGMgLTIuMDk4OCwtMTYuNjg5IDE2LjIwNCwtMzEuODk4IDMzLjAzNiwtMjguMjE0IDMuNTcxNCwxLjQyODYgMTEuMDcxLDcuMTQyOSAxMC4zNTcsMTYuOTY0IC0wLjU3MzI4LDIzLjQzMSAtNDAuMTg4LDQxLjUyNSAtNDMuMzkzLDExLjI1IHoiLz4mI3hhOyAgICAgICAgPHBhdGggaWQ9InBhdGg4MTEiIGZpbGwtcnVsZT0iZXZlbm9kZCIgZmlsbD0iIzRkNGQ0ZCIgZD0ibSA1MjUuMzgsOTMxLjY5IGMgMTUuMDk4LDE1LjY1MiA0MC45NzQsLTcuNzkzOCAzMi41MzEsLTI3LjM0NSAtMTcuNTM3LC0xNy42NiAtNDYuMjAzLDguMDI4IC0zMi41MzEsMjcuMzQ1IHoiLz4mI3hhOyAgICAgICAgPHBhdGggaWQ9InBhdGg4MTMiIGZpbGwtcnVsZT0iZXZlbm9kZCIgZmlsbD0iIzMzMzMzMyIgZD0ibSA1MjcuNDcsOTI5LjY2IGMgMTMuMTMsMTEuMzUzIDM2LjI4OCwtNC43NTE3IDI2Ljk3MiwtMjIuNzQ0IC0xNS40ODQsLTE0LjI3IC0zNS43MDQsNi41Mjk0IC0yNi45NzIsMjIuNzQ0IHoiLz4mI3hhOyAgICAgICAgPHBhdGggaWQ9InBhdGg4MTUiIHN0cm9rZT0iIzAwMDAwMCIgZmlsbC1ydWxlPSJldmVub2RkIiBkPSJtIDUzMy4wNCw5MjUuMjIgYyAxMS41MzgsOC4yNzc2IDIxLjgyOCwtMy4xMTkyIDE2LjMzMiwtMTMuNzMzIC0xMC42MDksLTguNzM0NCAtMjEuNDgzLDQuMTY3OCAtMTYuMzMyLDEzLjczMyB6Ii8+JiN4YTsgICAgICAgIDxwYXRoIGlkPSJwYXRoODE3IiBzdHJva2Utd2lkdGg9IjAuNSIgc3Ryb2tlLWRhc2hhcnJheT0iMC41LCAwLjUiIHN0cm9rZT0iIzAwMDAwMCIgZmlsbD0ibm9uZSIgZD0ibSA1MjEuNzksOTM0LjUgYyAwLDAgLTEwLjA3LC0xMi4wMjQgMS42MDcyLC0yOC40ODIgOS44OTAzLC0xMy45NCAyOC4xMjUsLTEyLjU4OSAyOS43MzIsLTEwLjgwNCIvPiYjeGE7ICAgICAgICA8cGF0aCBpZD0icGF0aDgxOSIgc3Ryb2tlLXdpZHRoPSIwLjUiIHN0cm9rZS1kYXNoYXJyYXk9IjAuNSwgMC41IiBzdHJva2U9IiMwMDAwMDAiIGZpbGw9Im5vbmUiIGQ9Im0gNTIwLjE4LDkzMy4xNyBjIC05Ljk1NTQsLTEzLjg2MiAyLjk0NjQsLTQyLjg1NyAzMC40NDYsLTM5LjQ2NCIvPiYjeGE7ICAgICAgICA8cGF0aCBpZD0icGF0aDgyMSIgc3Ryb2tlLXdpZHRoPSIwLjUiIHN0cm9rZS1kYXNoYXJyYXk9IjAuNSwgMC41IiBzdHJva2U9IiMwMDAwMDAiIGZpbGw9Im5vbmUiIGQ9Im0gNTE3Ljk1LDkzMC40IGMgLTcuMDA4OSwtMTQuMTMgNC42NDI5LC00MC4xNzkgMzEuNDI5LC0zNy44NTciLz4mI3hhOyAgICAgICAgPHBhdGggaWQ9InBhdGg4MjMiIHN0cm9rZS13aWR0aD0iMC41IiBzdHJva2UtZGFzaGFycmF5PSIwLjUsIDAuNSIgc3Ryb2tlPSIjMDAwMDAwIiBmaWxsPSJub25lIiBkPSJtIDUxNi4xNiw5MjcuNjMgYyAtNC45NTU0LC0xNi4yNzIgNy43Njc5LC0zNy4yMzIgMzEuNTE4LC0zNi4wNzEiLz4mI3hhOyAgICAgICAgPHBhdGggaWQ9InBhdGg4MjUiIHN0cm9rZS13aWR0aD0iMC41IiBzdHJva2UtZGFzaGFycmF5PSIwLjUsIDAuNSIgc3Ryb2tlPSIjMDAwMDAwIiBmaWxsPSJub25lIiBkPSJtIDUxNC40Niw5MjMuNTIgYyAtMC42NTY2MywtMTUuMzYyIDcuMzY4LC0zMi4wMTIgMzAuMDg5LC0zMi41ODkiLz4mI3hhOyAgICAgIDwvZz4mI3hhOyAgICAgIDxnIGlkPSJnODQ5IiB0cmFuc2Zvcm09Im1hdHJpeCgxLjI2NzgsMCwwLDEuMjY3OCwxMjUuNjMsLTY0MC40KSI+JiN4YTsgICAgICAgIDxwYXRoIGlkPSJwYXRoODI5IiBzdHJva2Utd2lkdGg9IjAuNSIgc3Ryb2tlPSIjMDAwMDAwIiBmaWxsLXJ1bGU9ImV2ZW5vZGQiIGZpbGw9IiMzMzMzMzMiIGQ9Im0gNTI2LjI1LDkzNy41NCBjIC0xLjc4NTcsLTAuNzE0MjggLTcuNjc4NiwtNC4xMDcxIC05LjY0MjksLTguMjE0MyAtNi45NjQ1LC0xMy4wMTggMC4yMTEyOCwtMzAuODMxIDE1LjM1NywtMzcuMTQzIDExLjEzOCwtMy43MjQyIDE5LjQ5OSwtMC45MTUwMiAyNy4xNDMsNy44NTcxIDEuNjA3MSwyLjY3ODYgMi41LDE1LjUzNiAyLjUsMTUuNTM2IC0xMi4wOTUsNy4wMzg5IC0yMy44NzcsMTQgLTM1LjM1NywyMS45NjQgeiIvPiYjeGE7ICAgICAgICA8cGF0aCBpZD0icGF0aDgzMSIgc3Ryb2tlLXdpZHRoPSIwLjgiIHN0cm9rZT0iIzAwMDAwMCIgZmlsbC1ydWxlPSJldmVub2RkIiBmaWxsPSIjMzMzMzMzIiBkPSJtIDUxOS4xMSw5MjMuNzkgYyAtMi4wOTg4LC0xNi42ODkgMTYuMjA0LC0zMS44OTggMzMuMDM2LC0yOC4yMTQgMy41NzE0LDEuNDI4NiAxMS4wNzEsNy4xNDI5IDEwLjM1NywxNi45NjQgLTAuNTczMjgsMjMuNDMxIC00MC4xODgsNDEuNTI1IC00My4zOTMsMTEuMjUgeiIvPiYjeGE7ICAgICAgICA8cGF0aCBpZD0icGF0aDgzMyIgZmlsbC1ydWxlPSJldmVub2RkIiBmaWxsPSIjNGQ0ZDRkIiBkPSJtIDUyNS4zOCw5MzEuNjkgYyAxNS4wOTgsMTUuNjUyIDQwLjk3NCwtNy43OTM4IDMyLjUzMSwtMjcuMzQ1IC0xNy41MzcsLTE3LjY2IC00Ni4yMDMsOC4wMjggLTMyLjUzMSwyNy4zNDUgeiIvPiYjeGE7ICAgICAgICA8cGF0aCBpZD0icGF0aDgzNSIgZmlsbC1ydWxlPSJldmVub2RkIiBmaWxsPSIjMzMzMzMzIiBkPSJtIDUyNy40Nyw5MjkuNjYgYyAxMy4xMywxMS4zNTMgMzYuMjg4LC00Ljc1MTcgMjYuOTcyLC0yMi43NDQgLTE1LjQ4NCwtMTQuMjcgLTM1LjcwNCw2LjUyOTQgLTI2Ljk3MiwyMi43NDQgeiIvPiYjeGE7ICAgICAgICA8cGF0aCBpZD0icGF0aDgzNyIgc3Ryb2tlPSIjMDAwMDAwIiBmaWxsLXJ1bGU9ImV2ZW5vZGQiIGQ9Im0gNTMzLjA0LDkyNS4yMiBjIDExLjUzOCw4LjI3NzYgMjEuODI4LC0zLjExOTIgMTYuMzMyLC0xMy43MzMgLTEwLjYwOSwtOC43MzQ0IC0yMS40ODMsNC4xNjc4IC0xNi4zMzIsMTMuNzMzIHoiLz4mI3hhOyAgICAgICAgPHBhdGggaWQ9InBhdGg4MzkiIHN0cm9rZS13aWR0aD0iMC41IiBzdHJva2UtZGFzaGFycmF5PSIwLjUsIDAuNSIgc3Ryb2tlPSIjMDAwMDAwIiBmaWxsPSJub25lIiBkPSJtIDUyMS43OSw5MzQuNSBjIDAsMCAtMTAuMDcsLTEyLjAyNCAxLjYwNzIsLTI4LjQ4MiA5Ljg5MDMsLTEzLjk0IDI4LjEyNSwtMTIuNTg5IDI5LjczMiwtMTAuODA0Ii8+JiN4YTsgICAgICAgIDxwYXRoIGlkPSJwYXRoODQxIiBzdHJva2Utd2lkdGg9IjAuNSIgc3Ryb2tlLWRhc2hhcnJheT0iMC41LCAwLjUiIHN0cm9rZT0iIzAwMDAwMCIgZmlsbD0ibm9uZSIgZD0ibSA1MjAuMTgsOTMzLjE3IGMgLTkuOTU1NCwtMTMuODYyIDIuOTQ2NCwtNDIuODU3IDMwLjQ0NiwtMzkuNDY0Ii8+JiN4YTsgICAgICAgIDxwYXRoIGlkPSJwYXRoODQzIiBzdHJva2Utd2lkdGg9IjAuNSIgc3Ryb2tlLWRhc2hhcnJheT0iMC41LCAwLjUiIHN0cm9rZT0iIzAwMDAwMCIgZmlsbD0ibm9uZSIgZD0ibSA1MTcuOTUsOTMwLjQgYyAtNy4wMDg5LC0xNC4xMyA0LjY0MjksLTQwLjE3OSAzMS40MjksLTM3Ljg1NyIvPiYjeGE7ICAgICAgICA8cGF0aCBpZD0icGF0aDg0NSIgc3Ryb2tlLXdpZHRoPSIwLjUiIHN0cm9rZS1kYXNoYXJyYXk9IjAuNSwgMC41IiBzdHJva2U9IiMwMDAwMDAiIGZpbGw9Im5vbmUiIGQ9Im0gNTE2LjE2LDkyNy42MyBjIC00Ljk1NTQsLTE2LjI3MiA3Ljc2NzksLTM3LjIzMiAzMS41MTgsLTM2LjA3MSIvPiYjeGE7ICAgICAgICA8cGF0aCBpZD0icGF0aDg0NyIgc3Ryb2tlLXdpZHRoPSIwLjUiIHN0cm9rZS1kYXNoYXJyYXk9IjAuNSwgMC41IiBzdHJva2U9IiMwMDAwMDAiIGZpbGw9Im5vbmUiIGQ9Im0gNTE0LjQ2LDkyMy41MiBjIC0wLjY1NjYzLC0xNS4zNjIgNy4zNjgsLTMyLjAxMiAzMC4wODksLTMyLjU4OSIvPiYjeGE7ICAgICAgPC9nPiYjeGE7ICAgICAgPGcgaWQ9Imc4NzEiIHRyYW5zZm9ybT0ibWF0cml4KDEuMjMzMSwwLDAsMS4yMzMxLDI1NC40MiwtNjM4Ljc1KSI+JiN4YTsgICAgICAgIDxwYXRoIGlkPSJwYXRoODUxIiBzdHJva2Utd2lkdGg9IjAuNTc1IiBzdHJva2U9IiMwMDAwMDAiIGZpbGwtcnVsZT0iZXZlbm9kZCIgZmlsbD0iIzMzMzMzMyIgZD0ibSA1MjYuMjUsOTM3LjU0IGMgLTEuNzg1NywtMC43MTQyOCAtNy42Nzg2LC00LjEwNzEgLTkuNjQyOSwtOC4yMTQzIC02Ljk2NDUsLTEzLjAxOCAwLjIxMTI4LC0zMC44MzEgMTUuMzU3LC0zNy4xNDMgMTEuMTM4LC0zLjcyNDIgMTkuNDk5LC0wLjkxNTAyIDI3LjE0Myw3Ljg1NzEgMS42MDcxLDIuNjc4NiAyLjUsMTUuNTM2IDIuNSwxNS41MzYgLTEyLjA5NSw3LjAzODkgLTIzLjg3NywxNCAtMzUuMzU3LDIxLjk2NCB6Ii8+JiN4YTsgICAgICAgIDxwYXRoIGlkPSJwYXRoODUzIiBzdHJva2Utd2lkdGg9IjAuOTIiIHN0cm9rZT0iIzAwMDAwMCIgZmlsbC1ydWxlPSJldmVub2RkIiBmaWxsPSIjMzMzMzMzIiBkPSJtIDUxOS4xMSw5MjMuNzkgYyAtMi4wOTg4LC0xNi42ODkgMTYuMjA0LC0zMS44OTggMzMuMDM2LC0yOC4yMTQgMy41NzE0LDEuNDI4NiAxMS4wNzEsNy4xNDI5IDEwLjM1NywxNi45NjQgLTAuNTczMjgsMjMuNDMxIC00MC4xODgsNDEuNTI1IC00My4zOTMsMTEuMjUgeiIvPiYjeGE7ICAgICAgICA8cGF0aCBpZD0icGF0aDg1NSIgZmlsbC1ydWxlPSJldmVub2RkIiBmaWxsPSIjNGQ0ZDRkIiBkPSJtIDUyNS4zOCw5MzEuNjkgYyAxNS4wOTgsMTUuNjUyIDQwLjk3NCwtNy43OTM4IDMyLjUzMSwtMjcuMzQ1IC0xNy41MzcsLTE3LjY2IC00Ni4yMDMsOC4wMjggLTMyLjUzMSwyNy4zNDUgeiIvPiYjeGE7ICAgICAgICA8cGF0aCBpZD0icGF0aDg1NyIgZmlsbC1ydWxlPSJldmVub2RkIiBmaWxsPSIjMzMzMzMzIiBkPSJtIDUyNy40Nyw5MjkuNjYgYyAxMy4xMywxMS4zNTMgMzYuMjg4LC00Ljc1MTcgMjYuOTcyLC0yMi43NDQgLTE1LjQ4NCwtMTQuMjcgLTM1LjcwNCw2LjUyOTQgLTI2Ljk3MiwyMi43NDQgeiIvPiYjeGE7ICAgICAgICA8cGF0aCBpZD0icGF0aDg1OSIgc3Ryb2tlLXdpZHRoPSIxLjE1MSIgc3Ryb2tlPSIjMDAwMDAwIiBmaWxsLXJ1bGU9ImV2ZW5vZGQiIGQ9Im0gNTMzLjA0LDkyNS4yMiBjIDExLjUzOCw4LjI3NzYgMjEuODI4LC0zLjExOTIgMTYuMzMyLC0xMy43MzMgLTEwLjYwOSwtOC43MzQ0IC0yMS40ODMsNC4xNjc4IC0xNi4zMzIsMTMuNzMzIHoiLz4mI3hhOyAgICAgICAgPHBhdGggaWQ9InBhdGg4NjEiIHN0cm9rZS13aWR0aD0iMC41NzUiIHN0cm9rZS1kYXNoYXJyYXk9IjAuNTgsIDAuNTgiIHN0cm9rZT0iIzAwMDAwMCIgZmlsbD0ibm9uZSIgZD0ibSA1MjEuNzksOTM0LjUgYyAwLDAgLTEwLjA3LC0xMi4wMjQgMS42MDcyLC0yOC40ODIgOS44OTAzLC0xMy45NCAyOC4xMjUsLTEyLjU4OSAyOS43MzIsLTEwLjgwNCIvPiYjeGE7ICAgICAgICA8cGF0aCBpZD0icGF0aDg2MyIgc3Ryb2tlLXdpZHRoPSIwLjU3NSIgc3Ryb2tlLWRhc2hhcnJheT0iMC41OCwgMC41OCIgc3Ryb2tlPSIjMDAwMDAwIiBmaWxsPSJub25lIiBkPSJtIDUyMC4xOCw5MzMuMTcgYyAtOS45NTU0LC0xMy44NjIgMi45NDY0LC00Mi44NTcgMzAuNDQ2LC0zOS40NjQiLz4mI3hhOyAgICAgICAgPHBhdGggaWQ9InBhdGg4NjUiIHN0cm9rZS13aWR0aD0iMC41NzUiIHN0cm9rZS1kYXNoYXJyYXk9IjAuNTgsIDAuNTgiIHN0cm9rZT0iIzAwMDAwMCIgZmlsbD0ibm9uZSIgZD0ibSA1MTcuOTUsOTMwLjQgYyAtNy4wMDg5LC0xNC4xMyA0LjY0MjksLTQwLjE3OSAzMS40MjksLTM3Ljg1NyIvPiYjeGE7ICAgICAgICA8cGF0aCBpZD0icGF0aDg2NyIgc3Ryb2tlLXdpZHRoPSIwLjU3NSIgc3Ryb2tlLWRhc2hhcnJheT0iMC41OCwgMC41OCIgc3Ryb2tlPSIjMDAwMDAwIiBmaWxsPSJub25lIiBkPSJtIDUxNi4xNiw5MjcuNjMgYyAtNC45NTU0LC0xNi4yNzIgNy43Njc5LC0zNy4yMzIgMzEuNTE4LC0zNi4wNzEiLz4mI3hhOyAgICAgICAgPHBhdGggaWQ9InBhdGg4NjkiIHN0cm9rZS13aWR0aD0iMC41NzUiIHN0cm9rZS1kYXNoYXJyYXk9IjAuNTgsIDAuNTgiIHN0cm9rZT0iIzAwMDAwMCIgZmlsbD0ibm9uZSIgZD0ibSA1MTQuNDYsOTIzLjUyIGMgLTAuNjU2NjMsLTE1LjM2MiA3LjM2OCwtMzIuMDEyIDMwLjA4OSwtMzIuNTg5Ii8+JiN4YTsgICAgICA8L2c+JiN4YTsgICAgICA8ZyBpZD0iZzg5MyIgdHJhbnNmb3JtPSJtYXRyaXgoMS4xMDE5LDAsMCwxLjEwMTksNDE0LjQ3LC01NDcuMTMpIj4mI3hhOyAgICAgICAgPHBhdGggaWQ9InBhdGg4NzMiIHN0cm9rZS13aWR0aD0iMC41NzUiIHN0cm9rZT0iIzAwMDAwMCIgZmlsbC1ydWxlPSJldmVub2RkIiBmaWxsPSIjMzMzMzMzIiBkPSJtIDUyNi4yNSw5MzcuNTQgYyAtMS43ODU3LC0wLjcxNDI4IC03LjY3ODYsLTQuMTA3MSAtOS42NDI5LC04LjIxNDMgLTYuOTY0NSwtMTMuMDE4IDAuMjExMjgsLTMwLjgzMSAxNS4zNTcsLTM3LjE0MyAxMS4xMzgsLTMuNzI0MiAxOS40OTksLTAuOTE1MDIgMjcuMTQzLDcuODU3MSAxLjYwNzEsMi42Nzg2IDIuNSwxNS41MzYgMi41LDE1LjUzNiAtMTIuMDk1LDcuMDM4OSAtMjMuODc3LDE0IC0zNS4zNTcsMjEuOTY0IHoiLz4mI3hhOyAgICAgICAgPHBhdGggaWQ9InBhdGg4NzUiIHN0cm9rZS13aWR0aD0iMC45MiIgc3Ryb2tlPSIjMDAwMDAwIiBmaWxsLXJ1bGU9ImV2ZW5vZGQiIGZpbGw9IiMzMzMzMzMiIGQ9Im0gNTE5LjExLDkyMy43OSBjIC0yLjA5ODgsLTE2LjY4OSAxNi4yMDQsLTMxLjg5OCAzMy4wMzYsLTI4LjIxNCAzLjU3MTQsMS40Mjg2IDExLjA3MSw3LjE0MjkgMTAuMzU3LDE2Ljk2NCAtMC41NzMyOCwyMy40MzEgLTQwLjE4OCw0MS41MjUgLTQzLjM5MywxMS4yNSB6Ii8+JiN4YTsgICAgICAgIDxwYXRoIGlkPSJwYXRoODc3IiBmaWxsLXJ1bGU9ImV2ZW5vZGQiIGZpbGw9IiM0ZDRkNGQiIGQ9Im0gNTI1LjM4LDkzMS42OSBjIDE1LjA5OCwxNS42NTIgNDAuOTc0LC03Ljc5MzggMzIuNTMxLC0yNy4zNDUgLTE3LjUzNywtMTcuNjYgLTQ2LjIwMyw4LjAyOCAtMzIuNTMxLDI3LjM0NSB6Ii8+JiN4YTsgICAgICAgIDxwYXRoIGlkPSJwYXRoODc5IiBmaWxsLXJ1bGU9ImV2ZW5vZGQiIGZpbGw9IiMzMzMzMzMiIGQ9Im0gNTI3LjQ3LDkyOS42NiBjIDEzLjEzLDExLjM1MyAzNi4yODgsLTQuNzUxNyAyNi45NzIsLTIyLjc0NCAtMTUuNDg0LC0xNC4yNyAtMzUuNzA0LDYuNTI5NCAtMjYuOTcyLDIyLjc0NCB6Ii8+JiN4YTsgICAgICAgIDxwYXRoIGlkPSJwYXRoODgxIiBzdHJva2Utd2lkdGg9IjEuMTUxIiBzdHJva2U9IiMwMDAwMDAiIGZpbGwtcnVsZT0iZXZlbm9kZCIgZD0ibSA1MzMuMDQsOTI1LjIyIGMgMTEuNTM4LDguMjc3NiAyMS44MjgsLTMuMTE5MiAxNi4zMzIsLTEzLjczMyAtMTAuNjA5LC04LjczNDQgLTIxLjQ4Myw0LjE2NzggLTE2LjMzMiwxMy43MzMgeiIvPiYjeGE7ICAgICAgICA8cGF0aCBpZD0icGF0aDg4MyIgc3Ryb2tlLXdpZHRoPSIwLjU3NSIgc3Ryb2tlLWRhc2hhcnJheT0iMC41OCwgMC41OCIgc3Ryb2tlPSIjMDAwMDAwIiBmaWxsPSJub25lIiBkPSJtIDUyMS43OSw5MzQuNSBjIDAsMCAtMTAuMDcsLTEyLjAyNCAxLjYwNzIsLTI4LjQ4MiA5Ljg5MDMsLTEzLjk0IDI4LjEyNSwtMTIuNTg5IDI5LjczMiwtMTAuODA0Ii8+JiN4YTsgICAgICAgIDxwYXRoIGlkPSJwYXRoODg1IiBzdHJva2Utd2lkdGg9IjAuNTc1IiBzdHJva2UtZGFzaGFycmF5PSIwLjU4LCAwLjU4IiBzdHJva2U9IiMwMDAwMDAiIGZpbGw9Im5vbmUiIGQ9Im0gNTIwLjE4LDkzMy4xNyBjIC05Ljk1NTQsLTEzLjg2MiAyLjk0NjQsLTQyLjg1NyAzMC40NDYsLTM5LjQ2NCIvPiYjeGE7ICAgICAgICA8cGF0aCBpZD0icGF0aDg4NyIgc3Ryb2tlLXdpZHRoPSIwLjU3NSIgc3Ryb2tlLWRhc2hhcnJheT0iMC41OCwgMC41OCIgc3Ryb2tlPSIjMDAwMDAwIiBmaWxsPSJub25lIiBkPSJtIDUxNy45NSw5MzAuNCBjIC03LjAwODksLTE0LjEzIDQuNjQyOSwtNDAuMTc5IDMxLjQyOSwtMzcuODU3Ii8+JiN4YTsgICAgICAgIDxwYXRoIGlkPSJwYXRoODg5IiBzdHJva2Utd2lkdGg9IjAuNTc1IiBzdHJva2UtZGFzaGFycmF5PSIwLjU4LCAwLjU4IiBzdHJva2U9IiMwMDAwMDAiIGZpbGw9Im5vbmUiIGQ9Im0gNTE2LjE2LDkyNy42MyBjIC00Ljk1NTQsLTE2LjI3MiA3Ljc2NzksLTM3LjIzMiAzMS41MTgsLTM2LjA3MSIvPiYjeGE7ICAgICAgICA8cGF0aCBpZD0icGF0aDg5MSIgc3Ryb2tlLXdpZHRoPSIwLjU3NSIgc3Ryb2tlLWRhc2hhcnJheT0iMC41OCwgMC41OCIgc3Ryb2tlPSIjMDAwMDAwIiBmaWxsPSJub25lIiBkPSJtIDUxNC40Niw5MjMuNTIgYyAtMC42NTY2MywtMTUuMzYyIDcuMzY4LC0zMi4wMTIgMzAuMDg5LC0zMi41ODkiLz4mI3hhOyAgICAgIDwvZz4mI3hhOyAgICAgIDxnIGlkPSJnOTE1IiB0cmFuc2Zvcm09Im1hdHJpeCgxLjE4MjksMC40NjA3LC0wLjQ0NjE0LDEuMjIxNSwyMTMuNjMsLTc3Ny4wNykiPiYjeGE7ICAgICAgICA8cGF0aCBpZD0icGF0aDg5NSIgc3Ryb2tlLXdpZHRoPSIwLjQ5MyIgc3Ryb2tlPSIjMDAwMDAwIiBmaWxsLXJ1bGU9ImV2ZW5vZGQiIGZpbGw9IiMzMzMzMzMiIGQ9Im0gNTI2LjI1LDkzNy41NCBjIC0xLjc4NTcsLTAuNzE0MjggLTcuNjc4NiwtNC4xMDcxIC05LjY0MjksLTguMjE0MyAtNi45NjQ1LC0xMy4wMTggMC4yMTEyOCwtMzAuODMxIDE1LjM1NywtMzcuMTQzIDExLjEzOCwtMy43MjQyIDE5LjQ5OSwtMC45MTUwMiAyNy4xNDMsNy44NTcxIDEuNjA3MSwyLjY3ODYgMi41LDE1LjUzNiAyLjUsMTUuNTM2IC0xMi4wOTUsNy4wMzg5IC0yMy44NzcsMTQgLTM1LjM1NywyMS45NjQgeiIvPiYjeGE7ICAgICAgICA8cGF0aCBpZD0icGF0aDg5NyIgc3Ryb2tlLXdpZHRoPSIwLjc4OSIgc3Ryb2tlPSIjMDAwMDAwIiBmaWxsLXJ1bGU9ImV2ZW5vZGQiIGZpbGw9IiMzMzMzMzMiIGQ9Im0gNTE5LjExLDkyMy43OSBjIC0yLjA5ODgsLTE2LjY4OSAxNi4yMDQsLTMxLjg5OCAzMy4wMzYsLTI4LjIxNCAzLjU3MTQsMS40Mjg2IDExLjA3MSw3LjE0MjkgMTAuMzU3LDE2Ljk2NCAtMC41NzMyOCwyMy40MzEgLTQwLjE4OCw0MS41MjUgLTQzLjM5MywxMS4yNSB6Ii8+JiN4YTsgICAgICAgIDxwYXRoIGlkPSJwYXRoODk5IiBmaWxsLXJ1bGU9ImV2ZW5vZGQiIGZpbGw9IiM0ZDRkNGQiIGQ9Im0gNTI1LjM4LDkzMS42OSBjIDE1LjA5OCwxNS42NTIgNDAuOTc0LC03Ljc5MzggMzIuNTMxLC0yNy4zNDUgLTE3LjUzNywtMTcuNjYgLTQ2LjIwMyw4LjAyOCAtMzIuNTMxLDI3LjM0NSB6Ii8+JiN4YTsgICAgICAgIDxwYXRoIGlkPSJwYXRoOTAxIiBmaWxsLXJ1bGU9ImV2ZW5vZGQiIGZpbGw9IiMzMzMzMzMiIGQ9Im0gNTI3LjQ3LDkyOS42NiBjIDEzLjEzLDExLjM1MyAzNi4yODgsLTQuNzUxNyAyNi45NzIsLTIyLjc0NCAtMTUuNDg0LC0xNC4yNyAtMzUuNzA0LDYuNTI5NCAtMjYuOTcyLDIyLjc0NCB6Ii8+JiN4YTsgICAgICAgIDxwYXRoIGlkPSJwYXRoOTAzIiBzdHJva2Utd2lkdGg9IjAuOTg3IiBzdHJva2U9IiMwMDAwMDAiIGZpbGwtcnVsZT0iZXZlbm9kZCIgZD0ibSA1MzMuMDQsOTI1LjIyIGMgMTEuNTM4LDguMjc3NiAyMS44MjgsLTMuMTE5MiAxNi4zMzIsLTEzLjczMyAtMTAuNjA5LC04LjczNDQgLTIxLjQ4Myw0LjE2NzggLTE2LjMzMiwxMy43MzMgeiIvPiYjeGE7ICAgICAgICA8cGF0aCBpZD0icGF0aDkwNSIgc3Ryb2tlLXdpZHRoPSIwLjQ5MyIgc3Ryb2tlLWRhc2hhcnJheT0iMC40OSwgMC40OSIgc3Ryb2tlPSIjMDAwMDAwIiBmaWxsPSJub25lIiBkPSJtIDUyMS43OSw5MzQuNSBjIDAsMCAtMTAuMDcsLTEyLjAyNCAxLjYwNzIsLTI4LjQ4MiA5Ljg5MDMsLTEzLjk0IDI4LjEyNSwtMTIuNTg5IDI5LjczMiwtMTAuODA0Ii8+JiN4YTsgICAgICAgIDxwYXRoIGlkPSJwYXRoOTA3IiBzdHJva2Utd2lkdGg9IjAuNDkzIiBzdHJva2UtZGFzaGFycmF5PSIwLjQ5LCAwLjQ5IiBzdHJva2U9IiMwMDAwMDAiIGZpbGw9Im5vbmUiIGQ9Im0gNTIwLjE4LDkzMy4xNyBjIC05Ljk1NTQsLTEzLjg2MiAyLjk0NjQsLTQyLjg1NyAzMC40NDYsLTM5LjQ2NCIvPiYjeGE7ICAgICAgICA8cGF0aCBpZD0icGF0aDkwOSIgc3Ryb2tlLXdpZHRoPSIwLjQ5MyIgc3Ryb2tlLWRhc2hhcnJheT0iMC40OSwgMC40OSIgc3Ryb2tlPSIjMDAwMDAwIiBmaWxsPSJub25lIiBkPSJtIDUxNy45NSw5MzAuNCBjIC03LjAwODksLTE0LjEzIDQuNjQyOSwtNDAuMTc5IDMxLjQyOSwtMzcuODU3Ii8+JiN4YTsgICAgICAgIDxwYXRoIGlkPSJwYXRoOTExIiBzdHJva2Utd2lkdGg9IjAuNDkzIiBzdHJva2UtZGFzaGFycmF5PSIwLjQ5LCAwLjQ5IiBzdHJva2U9IiMwMDAwMDAiIGZpbGw9Im5vbmUiIGQ9Im0gNTE2LjE2LDkyNy42MyBjIC00Ljk1NTQsLTE2LjI3MiA3Ljc2NzksLTM3LjIzMiAzMS41MTgsLTM2LjA3MSIvPiYjeGE7ICAgICAgICA8cGF0aCBpZD0icGF0aDkxMyIgc3Ryb2tlLXdpZHRoPSIwLjQ5MyIgc3Ryb2tlLWRhc2hhcnJheT0iMC40OSwgMC40OSIgc3Ryb2tlPSIjMDAwMDAwIiBmaWxsPSJub25lIiBkPSJtIDUxNC40Niw5MjMuNTIgYyAtMC42NTY2MywtMTUuMzYyIDcuMzY4LC0zMi4wMTIgMzAuMDg5LC0zMi41ODkiLz4mI3hhOyAgICAgIDwvZz4mI3hhOyAgICAgIDxnIGlkPSJnOTM3IiB0cmFuc2Zvcm09Im1hdHJpeCgwLjkwNjI1LDAuODg4OTUsLTAuODkwNzUsMC45NDc0OCw2NTAuMDYsLTc0OC40MykiPiYjeGE7ICAgICAgICA8cGF0aCBpZD0icGF0aDkxNyIgc3Ryb2tlLXdpZHRoPSIwLjQ5MyIgc3Ryb2tlPSIjMDAwMDAwIiBmaWxsLXJ1bGU9ImV2ZW5vZGQiIGZpbGw9IiMzMzMzMzMiIGQ9Im0gNTI2LjI1LDkzNy41NCBjIC0xLjc4NTcsLTAuNzE0MjggLTcuNjc4NiwtNC4xMDcxIC05LjY0MjksLTguMjE0MyAtNi45NjQ1LC0xMy4wMTggMC4yMTEyOCwtMzAuODMxIDE1LjM1NywtMzcuMTQzIDExLjEzOCwtMy43MjQyIDE5LjQ5OSwtMC45MTUwMiAyNy4xNDMsNy44NTcxIDEuNjA3MSwyLjY3ODYgMi41LDE1LjUzNiAyLjUsMTUuNTM2IC0xMi4wOTUsNy4wMzg5IC0yMy44NzcsMTQgLTM1LjM1NywyMS45NjQgeiIvPiYjeGE7ICAgICAgICA8cGF0aCBpZD0icGF0aDkxOSIgc3Ryb2tlLXdpZHRoPSIwLjc4OSIgc3Ryb2tlPSIjMDAwMDAwIiBmaWxsLXJ1bGU9ImV2ZW5vZGQiIGZpbGw9IiMzMzMzMzMiIGQ9Im0gNTE5LjExLDkyMy43OSBjIC0yLjA5ODgsLTE2LjY4OSAxNi4yMDQsLTMxLjg5OCAzMy4wMzYsLTI4LjIxNCAzLjU3MTQsMS40Mjg2IDExLjA3MSw3LjE0MjkgMTAuMzU3LDE2Ljk2NCAtMC41NzMyOCwyMy40MzEgLTQwLjE4OCw0MS41MjUgLTQzLjM5MywxMS4yNSB6Ii8+JiN4YTsgICAgICAgIDxwYXRoIGlkPSJwYXRoOTIxIiBmaWxsLXJ1bGU9ImV2ZW5vZGQiIGZpbGw9IiM0ZDRkNGQiIGQ9Im0gNTI1LjM4LDkzMS42OSBjIDE1LjA5OCwxNS42NTIgNDAuOTc0LC03Ljc5MzggMzIuNTMxLC0yNy4zNDUgLTE3LjUzNywtMTcuNjYgLTQ2LjIwMyw4LjAyOCAtMzIuNTMxLDI3LjM0NSB6Ii8+JiN4YTsgICAgICAgIDxwYXRoIGlkPSJwYXRoOTIzIiBmaWxsLXJ1bGU9ImV2ZW5vZGQiIGZpbGw9IiMzMzMzMzMiIGQ9Im0gNTI3LjQ3LDkyOS42NiBjIDEzLjEzLDExLjM1MyAzNi4yODgsLTQuNzUxNyAyNi45NzIsLTIyLjc0NCAtMTUuNDg0LC0xNC4yNyAtMzUuNzA0LDYuNTI5NCAtMjYuOTcyLDIyLjc0NCB6Ii8+JiN4YTsgICAgICAgIDxwYXRoIGlkPSJwYXRoOTI1IiBzdHJva2Utd2lkdGg9IjAuOTg3IiBzdHJva2U9IiMwMDAwMDAiIGZpbGwtcnVsZT0iZXZlbm9kZCIgZD0ibSA1MzMuMDQsOTI1LjIyIGMgMTEuNTM4LDguMjc3NiAyMS44MjgsLTMuMTE5MiAxNi4zMzIsLTEzLjczMyAtMTAuNjA5LC04LjczNDQgLTIxLjQ4Myw0LjE2NzggLTE2LjMzMiwxMy43MzMgeiIvPiYjeGE7ICAgICAgICA8cGF0aCBpZD0icGF0aDkyNyIgc3Ryb2tlLXdpZHRoPSIwLjQ5MyIgc3Ryb2tlLWRhc2hhcnJheT0iMC40OSwgMC40OSIgc3Ryb2tlPSIjMDAwMDAwIiBmaWxsPSJub25lIiBkPSJtIDUyMS43OSw5MzQuNSBjIDAsMCAtMTAuMDcsLTEyLjAyNCAxLjYwNzIsLTI4LjQ4MiA5Ljg5MDMsLTEzLjk0IDI4LjEyNSwtMTIuNTg5IDI5LjczMiwtMTAuODA0Ii8+JiN4YTsgICAgICAgIDxwYXRoIGlkPSJwYXRoOTI5IiBzdHJva2Utd2lkdGg9IjAuNDkzIiBzdHJva2UtZGFzaGFycmF5PSIwLjQ5LCAwLjQ5IiBzdHJva2U9IiMwMDAwMDAiIGZpbGw9Im5vbmUiIGQ9Im0gNTIwLjE4LDkzMy4xNyBjIC05Ljk1NTQsLTEzLjg2MiAyLjk0NjQsLTQyLjg1NyAzMC40NDYsLTM5LjQ2NCIvPiYjeGE7ICAgICAgICA8cGF0aCBpZD0icGF0aDkzMSIgc3Ryb2tlLXdpZHRoPSIwLjQ5MyIgc3Ryb2tlLWRhc2hhcnJheT0iMC40OSwgMC40OSIgc3Ryb2tlPSIjMDAwMDAwIiBmaWxsPSJub25lIiBkPSJtIDUxNy45NSw5MzAuNCBjIC03LjAwODksLTE0LjEzIDQuNjQyOSwtNDAuMTc5IDMxLjQyOSwtMzcuODU3Ii8+JiN4YTsgICAgICAgIDxwYXRoIGlkPSJwYXRoOTMzIiBzdHJva2Utd2lkdGg9IjAuNDkzIiBzdHJva2UtZGFzaGFycmF5PSIwLjQ5LCAwLjQ5IiBzdHJva2U9IiMwMDAwMDAiIGZpbGw9Im5vbmUiIGQ9Im0gNTE2LjE2LDkyNy42MyBjIC00Ljk1NTQsLTE2LjI3MiA3Ljc2NzksLTM3LjIzMiAzMS41MTgsLTM2LjA3MSIvPiYjeGE7ICAgICAgICA8cGF0aCBpZD0icGF0aDkzNSIgc3Ryb2tlLXdpZHRoPSIwLjQ5MyIgc3Ryb2tlLWRhc2hhcnJheT0iMC40OSwgMC40OSIgc3Ryb2tlPSIjMDAwMDAwIiBmaWxsPSJub25lIiBkPSJtIDUxNC40Niw5MjMuNTIgYyAtMC42NTY2MywtMTUuMzYyIDcuMzY4LC0zMi4wMTIgMzAuMDg5LC0zMi41ODkiLz4mI3hhOyAgICAgIDwvZz4mI3hhOyAgICAgIDxnIGlkPSJnOTU5IiB0cmFuc2Zvcm09Im1hdHJpeCgtMC4yMzk5NCwxLjI0NjYsLTEuMjgxOSwtMC4yMTg2NSwxNTIwLjMsMTE5LjYpIj4mI3hhOyAgICAgICAgPHBhdGggaWQ9InBhdGg5MzkiIHN0cm9rZS13aWR0aD0iMC40OTMiIHN0cm9rZT0iIzAwMDAwMCIgZmlsbC1ydWxlPSJldmVub2RkIiBmaWxsPSIjMzMzMzMzIiBkPSJtIDUyNi4yNSw5MzcuNTQgYyAtMS43ODU3LC0wLjcxNDI4IC03LjY3ODYsLTQuMTA3MSAtOS42NDI5LC04LjIxNDMgLTYuOTY0NSwtMTMuMDE4IDAuMjExMjgsLTMwLjgzMSAxNS4zNTcsLTM3LjE0MyAxMS4xMzgsLTMuNzI0MiAxOS40OTksLTAuOTE1MDIgMjcuMTQzLDcuODU3MSAxLjYwNzEsMi42Nzg2IDIuNSwxNS41MzYgMi41LDE1LjUzNiAtMTIuMDk1LDcuMDM4OSAtMjMuODc3LDE0IC0zNS4zNTcsMjEuOTY0IHoiLz4mI3hhOyAgICAgICAgPHBhdGggaWQ9InBhdGg5NDEiIHN0cm9rZS13aWR0aD0iMC43ODkiIHN0cm9rZT0iIzAwMDAwMCIgZmlsbC1ydWxlPSJldmVub2RkIiBmaWxsPSIjMzMzMzMzIiBkPSJtIDUxOS4xMSw5MjMuNzkgYyAtMi4wOTg4LC0xNi42ODkgMTYuMjA0LC0zMS44OTggMzMuMDM2LC0yOC4yMTQgMy41NzE0LDEuNDI4NiAxMS4wNzEsNy4xNDI5IDEwLjM1NywxNi45NjQgLTAuNTczMjgsMjMuNDMxIC00MC4xODgsNDEuNTI1IC00My4zOTMsMTEuMjUgeiIvPiYjeGE7ICAgICAgICA8cGF0aCBpZD0icGF0aDk0MyIgZmlsbC1ydWxlPSJldmVub2RkIiBmaWxsPSIjNGQ0ZDRkIiBkPSJtIDUyNS4zOCw5MzEuNjkgYyAxNS4wOTgsMTUuNjUyIDQwLjk3NCwtNy43OTM4IDMyLjUzMSwtMjcuMzQ1IC0xNy41MzcsLTE3LjY2IC00Ni4yMDMsOC4wMjggLTMyLjUzMSwyNy4zNDUgeiIvPiYjeGE7ICAgICAgICA8cGF0aCBpZD0icGF0aDk0NSIgZmlsbC1ydWxlPSJldmVub2RkIiBmaWxsPSIjMzMzMzMzIiBkPSJtIDUyNy40Nyw5MjkuNjYgYyAxMy4xMywxMS4zNTMgMzYuMjg4LC00Ljc1MTcgMjYuOTcyLC0yMi43NDQgLTE1LjQ4NCwtMTQuMjcgLTM1LjcwNCw2LjUyOTQgLTI2Ljk3MiwyMi43NDQgeiIvPiYjeGE7ICAgICAgICA8cGF0aCBpZD0icGF0aDk0NyIgc3Ryb2tlLXdpZHRoPSIwLjk4NyIgc3Ryb2tlPSIjMDAwMDAwIiBmaWxsLXJ1bGU9ImV2ZW5vZGQiIGQ9Im0gNTMzLjA0LDkyNS4yMiBjIDExLjUzOCw4LjI3NzYgMjEuODI4LC0zLjExOTIgMTYuMzMyLC0xMy43MzMgLTEwLjYwOSwtOC43MzQ0IC0yMS40ODMsNC4xNjc4IC0xNi4zMzIsMTMuNzMzIHoiLz4mI3hhOyAgICAgICAgPHBhdGggaWQ9InBhdGg5NDkiIHN0cm9rZS13aWR0aD0iMC40OTMiIHN0cm9rZS1kYXNoYXJyYXk9IjAuNDksIDAuNDkiIHN0cm9rZT0iIzAwMDAwMCIgZmlsbD0ibm9uZSIgZD0ibSA1MjEuNzksOTM0LjUgYyAwLDAgLTEwLjA3LC0xMi4wMjQgMS42MDcyLC0yOC40ODIgOS44OTAzLC0xMy45NCAyOC4xMjUsLTEyLjU4OSAyOS43MzIsLTEwLjgwNCIvPiYjeGE7ICAgICAgICA8cGF0aCBpZD0icGF0aDk1MSIgc3Ryb2tlLXdpZHRoPSIwLjQ5MyIgc3Ryb2tlLWRhc2hhcnJheT0iMC40OSwgMC40OSIgc3Ryb2tlPSIjMDAwMDAwIiBmaWxsPSJub25lIiBkPSJtIDUyMC4xOCw5MzMuMTcgYyAtOS45NTU0LC0xMy44NjIgMi45NDY0LC00Mi44NTcgMzAuNDQ2LC0zOS40NjQiLz4mI3hhOyAgICAgICAgPHBhdGggaWQ9InBhdGg5NTMiIHN0cm9rZS13aWR0aD0iMC40OTMiIHN0cm9rZS1kYXNoYXJyYXk9IjAuNDksIDAuNDkiIHN0cm9rZT0iIzAwMDAwMCIgZmlsbD0ibm9uZSIgZD0ibSA1MTcuOTUsOTMwLjQgYyAtNy4wMDg5LC0xNC4xMyA0LjY0MjksLTQwLjE3OSAzMS40MjksLTM3Ljg1NyIvPiYjeGE7ICAgICAgICA8cGF0aCBpZD0icGF0aDk1NSIgc3Ryb2tlLXdpZHRoPSIwLjQ5MyIgc3Ryb2tlLWRhc2hhcnJheT0iMC40OSwgMC40OSIgc3Ryb2tlPSIjMDAwMDAwIiBmaWxsPSJub25lIiBkPSJtIDUxNi4xNiw5MjcuNjMgYyAtNC45NTU0LC0xNi4yNzIgNy43Njc5LC0zNy4yMzIgMzEuNTE4LC0zNi4wNzEiLz4mI3hhOyAgICAgICAgPHBhdGggaWQ9InBhdGg5NTciIHN0cm9rZS13aWR0aD0iMC40OTMiIHN0cm9rZS1kYXNoYXJyYXk9IjAuNDksIDAuNDkiIHN0cm9rZT0iIzAwMDAwMCIgZmlsbD0ibm9uZSIgZD0ibSA1MTQuNDYsOTIzLjUyIGMgLTAuNjU2NjMsLTE1LjM2MiA3LjM2OCwtMzIuMDEyIDMwLjA4OSwtMzIuNTg5Ii8+JiN4YTsgICAgICA8L2c+JiN4YTsgICAgICA8ZyBpZD0iZzk4MSIgdHJhbnNmb3JtPSJtYXRyaXgoLTAuNTY4NzMsMS4xMzQ5LC0xLjE3NDcsLTAuNTU3ODIsMTUxMi4xLDQ2OS4wMikiPiYjeGE7ICAgICAgICA8cGF0aCBpZD0icGF0aDk2MSIgc3Ryb2tlLXdpZHRoPSIwLjQ5MyIgc3Ryb2tlPSIjMDAwMDAwIiBmaWxsLXJ1bGU9ImV2ZW5vZGQiIGZpbGw9IiMzMzMzMzMiIGQ9Im0gNTI2LjI1LDkzNy41NCBjIC0xLjc4NTcsLTAuNzE0MjggLTcuNjc4NiwtNC4xMDcxIC05LjY0MjksLTguMjE0MyAtNi45NjQ1LC0xMy4wMTggMC4yMTEyOCwtMzAuODMxIDE1LjM1NywtMzcuMTQzIDExLjEzOCwtMy43MjQyIDE5LjQ5OSwtMC45MTUwMiAyNy4xNDMsNy44NTcxIDEuNjA3MSwyLjY3ODYgMi41LDE1LjUzNiAyLjUsMTUuNTM2IC0xMi4wOTUsNy4wMzg5IC0yMy44NzcsMTQgLTM1LjM1NywyMS45NjQgeiIvPiYjeGE7ICAgICAgICA8cGF0aCBpZD0icGF0aDk2MyIgc3Ryb2tlLXdpZHRoPSIwLjc4OSIgc3Ryb2tlPSIjMDAwMDAwIiBmaWxsLXJ1bGU9ImV2ZW5vZGQiIGZpbGw9IiMzMzMzMzMiIGQ9Im0gNTE5LjExLDkyMy43OSBjIC0yLjA5ODgsLTE2LjY4OSAxNi4yMDQsLTMxLjg5OCAzMy4wMzYsLTI4LjIxNCAzLjU3MTQsMS40Mjg2IDExLjA3MSw3LjE0MjkgMTAuMzU3LDE2Ljk2NCAtMC41NzMyOCwyMy40MzEgLTQwLjE4OCw0MS41MjUgLTQzLjM5MywxMS4yNSB6Ii8+JiN4YTsgICAgICAgIDxwYXRoIGlkPSJwYXRoOTY1IiBmaWxsLXJ1bGU9ImV2ZW5vZGQiIGZpbGw9IiM0ZDRkNGQiIGQ9Im0gNTI1LjM4LDkzMS42OSBjIDE1LjA5OCwxNS42NTIgNDAuOTc0LC03Ljc5MzggMzIuNTMxLC0yNy4zNDUgLTE3LjUzNywtMTcuNjYgLTQ2LjIwMyw4LjAyOCAtMzIuNTMxLDI3LjM0NSB6Ii8+JiN4YTsgICAgICAgIDxwYXRoIGlkPSJwYXRoOTY3IiBmaWxsLXJ1bGU9ImV2ZW5vZGQiIGZpbGw9IiMzMzMzMzMiIGQ9Im0gNTI3LjQ3LDkyOS42NiBjIDEzLjEzLDExLjM1MyAzNi4yODgsLTQuNzUxNyAyNi45NzIsLTIyLjc0NCAtMTUuNDg0LC0xNC4yNyAtMzUuNzA0LDYuNTI5NCAtMjYuOTcyLDIyLjc0NCB6Ii8+JiN4YTsgICAgICAgIDxwYXRoIGlkPSJwYXRoOTY5IiBzdHJva2Utd2lkdGg9IjAuOTg3IiBzdHJva2U9IiMwMDAwMDAiIGZpbGwtcnVsZT0iZXZlbm9kZCIgZD0ibSA1MzMuMDQsOTI1LjIyIGMgMTEuNTM4LDguMjc3NiAyMS44MjgsLTMuMTE5MiAxNi4zMzIsLTEzLjczMyAtMTAuNjA5LC04LjczNDQgLTIxLjQ4Myw0LjE2NzggLTE2LjMzMiwxMy43MzMgeiIvPiYjeGE7ICAgICAgICA8cGF0aCBpZD0icGF0aDk3MSIgc3Ryb2tlLXdpZHRoPSIwLjQ5MyIgc3Ryb2tlLWRhc2hhcnJheT0iMC40OSwgMC40OSIgc3Ryb2tlPSIjMDAwMDAwIiBmaWxsPSJub25lIiBkPSJtIDUyMS43OSw5MzQuNSBjIDAsMCAtMTAuMDcsLTEyLjAyNCAxLjYwNzIsLTI4LjQ4MiA5Ljg5MDMsLTEzLjk0IDI4LjEyNSwtMTIuNTg5IDI5LjczMiwtMTAuODA0Ii8+JiN4YTsgICAgICAgIDxwYXRoIGlkPSJwYXRoOTczIiBzdHJva2Utd2lkdGg9IjAuNDkzIiBzdHJva2UtZGFzaGFycmF5PSIwLjQ5LCAwLjQ5IiBzdHJva2U9IiMwMDAwMDAiIGZpbGw9Im5vbmUiIGQ9Im0gNTIwLjE4LDkzMy4xNyBjIC05Ljk1NTQsLTEzLjg2MiAyLjk0NjQsLTQyLjg1NyAzMC40NDYsLTM5LjQ2NCIvPiYjeGE7ICAgICAgICA8cGF0aCBpZD0icGF0aDk3NSIgc3Ryb2tlLXdpZHRoPSIwLjQ5MyIgc3Ryb2tlLWRhc2hhcnJheT0iMC40OSwgMC40OSIgc3Ryb2tlPSIjMDAwMDAwIiBmaWxsPSJub25lIiBkPSJtIDUxNy45NSw5MzAuNCBjIC03LjAwODksLTE0LjEzIDQuNjQyOSwtNDAuMTc5IDMxLjQyOSwtMzcuODU3Ii8+JiN4YTsgICAgICAgIDxwYXRoIGlkPSJwYXRoOTc3IiBzdHJva2Utd2lkdGg9IjAuNDkzIiBzdHJva2UtZGFzaGFycmF5PSIwLjQ5LCAwLjQ5IiBzdHJva2U9IiMwMDAwMDAiIGZpbGw9Im5vbmUiIGQ9Im0gNTE2LjE2LDkyNy42MyBjIC00Ljk1NTQsLTE2LjI3MiA3Ljc2NzksLTM3LjIzMiAzMS41MTgsLTM2LjA3MSIvPiYjeGE7ICAgICAgICA8cGF0aCBpZD0icGF0aDk3OSIgc3Ryb2tlLXdpZHRoPSIwLjQ5MyIgc3Ryb2tlLWRhc2hhcnJheT0iMC40OSwgMC40OSIgc3Ryb2tlPSIjMDAwMDAwIiBmaWxsPSJub25lIiBkPSJtIDUxNC40Niw5MjMuNTIgYyAtMC42NTY2MywtMTUuMzYyIDcuMzY4LC0zMi4wMTIgMzAuMDg5LC0zMi41ODkiLz4mI3hhOyAgICAgIDwvZz4mI3hhOyAgICA8L2c+JiN4YTsgICAgPGcgaWQ9ImcxMjc5IiB0cmFuc2Zvcm09InRyYW5zbGF0ZSg3LjgyIC00LjEpIiBmb250LXNpemU9IjE0IiBmb250LWZhbWlseT0iRGVqYVZ1IFNhbnMsc2Fucy1zZXJpZixTYW5zIi8+JiN4YTsgIDwvZz4mI3hhOzwvc3ZnPg==;" vertex="1" parent="1">
          <mxGeometry x="1843.83" y="124.79000000000002" width="82.34" height="47.75" as="geometry" />
        </mxCell>
        <mxCell id="eqO_NFKNhgGhrtfG9ZRE-6" style="edgeStyle=orthogonalEdgeStyle;rounded=0;orthogonalLoop=1;jettySize=auto;html=1;exitX=0;exitY=0.5;exitDx=0;exitDy=0;entryX=0.5;entryY=1;entryDx=0;entryDy=0;" edge="1" parent="1" source="eqO_NFKNhgGhrtfG9ZRE-33" target="eqO_NFKNhgGhrtfG9ZRE-2">
          <mxGeometry relative="1" as="geometry">
            <mxPoint x="1735" y="382.55" as="targetPoint" />
          </mxGeometry>
        </mxCell>
        <mxCell id="eqO_NFKNhgGhrtfG9ZRE-7" value="&lt;div&gt;&lt;font style=&quot;font-size: 16px;&quot; face=&quot;Times New Roman&quot;&gt;Next Iteration&lt;br&gt;&lt;/font&gt;&lt;/div&gt;" style="edgeLabel;html=1;align=center;verticalAlign=middle;resizable=0;points=[];labelBackgroundColor=none;" connectable="0" vertex="1" parent="eqO_NFKNhgGhrtfG9ZRE-6">
          <mxGeometry x="-0.1199" y="1" relative="1" as="geometry">
            <mxPoint x="40" y="-13" as="offset" />
          </mxGeometry>
        </mxCell>
        <mxCell id="eqO_NFKNhgGhrtfG9ZRE-8" value="" style="rounded=0;whiteSpace=wrap;html=1;fillColor=#cbcbcb;fontColor=#333333;strokeColor=#000000;fillStyle=solid;" vertex="1" parent="1">
          <mxGeometry x="2350" y="83.96000000000001" width="580" height="468.59" as="geometry" />
        </mxCell>
        <mxCell id="eqO_NFKNhgGhrtfG9ZRE-9" value="&lt;font style=&quot;font-size: 20px;&quot; face=&quot;Times New Roman&quot;&gt;Worker&lt;/font&gt;" style="text;html=1;align=center;verticalAlign=middle;whiteSpace=wrap;rounded=0;fontStyle=1" vertex="1" parent="1">
          <mxGeometry x="2350" y="78.73000000000002" width="97.09" height="46.06" as="geometry" />
        </mxCell>
        <mxCell id="eqO_NFKNhgGhrtfG9ZRE-10" style="edgeStyle=orthogonalEdgeStyle;rounded=0;orthogonalLoop=1;jettySize=auto;html=1;strokeColor=#FF0000;entryX=0;entryY=0.5;entryDx=0;entryDy=0;exitX=0.5;exitY=1;exitDx=0;exitDy=0;" edge="1" parent="1" source="eqO_NFKNhgGhrtfG9ZRE-14" target="eqO_NFKNhgGhrtfG9ZRE-27">
          <mxGeometry relative="1" as="geometry">
            <mxPoint x="2540" y="483.96" as="targetPoint" />
            <Array as="points">
              <mxPoint x="2417" y="485.96" />
            </Array>
          </mxGeometry>
        </mxCell>
        <mxCell id="eqO_NFKNhgGhrtfG9ZRE-11" value="&lt;font face=&quot;Times New Roman&quot; style=&quot;font-size: 14px;&quot;&gt;Yes&lt;/font&gt;" style="edgeLabel;html=1;align=center;verticalAlign=middle;resizable=0;points=[];rotation=-90;labelBackgroundColor=none;fontColor=#FF0000;" connectable="0" vertex="1" parent="eqO_NFKNhgGhrtfG9ZRE-10">
          <mxGeometry x="-0.3353" y="-2" relative="1" as="geometry">
            <mxPoint x="-12" y="-105" as="offset" />
          </mxGeometry>
        </mxCell>
        <mxCell id="eqO_NFKNhgGhrtfG9ZRE-12" style="edgeStyle=orthogonalEdgeStyle;rounded=0;orthogonalLoop=1;jettySize=auto;html=1;exitX=1;exitY=0.5;exitDx=0;exitDy=0;entryX=0;entryY=0.5;entryDx=0;entryDy=0;" edge="1" parent="1" source="eqO_NFKNhgGhrtfG9ZRE-14" target="eqO_NFKNhgGhrtfG9ZRE-47">
          <mxGeometry relative="1" as="geometry" />
        </mxCell>
        <mxCell id="eqO_NFKNhgGhrtfG9ZRE-13" value="&lt;font face=&quot;Times New Roman&quot; style=&quot;font-size: 14px;&quot;&gt;No&lt;/font&gt;" style="edgeLabel;html=1;align=center;verticalAlign=middle;resizable=0;points=[];labelBackgroundColor=none;" connectable="0" vertex="1" parent="eqO_NFKNhgGhrtfG9ZRE-12">
          <mxGeometry x="-0.2558" y="1" relative="1" as="geometry">
            <mxPoint y="-11" as="offset" />
          </mxGeometry>
        </mxCell>
        <mxCell id="eqO_NFKNhgGhrtfG9ZRE-14" value="&lt;div&gt;&lt;font style=&quot;font-size: 18px;&quot; face=&quot;Times New Roman&quot;&gt;In&lt;br&gt;DHT&lt;/font&gt;&lt;font style=&quot;font-size: 18px;&quot;&gt;?&lt;/font&gt;&lt;/div&gt;" style="rhombus;whiteSpace=wrap;html=1;fillColor=#afd094;" vertex="1" parent="1">
          <mxGeometry x="2367" y="161.92000000000002" width="100" height="75.91" as="geometry" />
        </mxCell>
        <mxCell id="eqO_NFKNhgGhrtfG9ZRE-15" style="edgeStyle=orthogonalEdgeStyle;rounded=0;orthogonalLoop=1;jettySize=auto;html=1;entryX=0;entryY=0.5;entryDx=0;entryDy=0;dashed=1;" edge="1" parent="1" source="eqO_NFKNhgGhrtfG9ZRE-32" target="eqO_NFKNhgGhrtfG9ZRE-14">
          <mxGeometry relative="1" as="geometry" />
        </mxCell>
        <mxCell id="eqO_NFKNhgGhrtfG9ZRE-16" style="edgeStyle=orthogonalEdgeStyle;rounded=0;orthogonalLoop=1;jettySize=auto;html=1;exitX=0.5;exitY=1;exitDx=0;exitDy=0;entryX=0.5;entryY=0;entryDx=0;entryDy=0;" edge="1" parent="1" source="eqO_NFKNhgGhrtfG9ZRE-20" target="eqO_NFKNhgGhrtfG9ZRE-23">
          <mxGeometry relative="1" as="geometry" />
        </mxCell>
        <mxCell id="eqO_NFKNhgGhrtfG9ZRE-17" value="&lt;font face=&quot;Times New Roman&quot;&gt;No&lt;/font&gt;" style="edgeLabel;html=1;align=center;verticalAlign=middle;resizable=0;points=[];fontSize=14;labelBackgroundColor=none;" connectable="0" vertex="1" parent="eqO_NFKNhgGhrtfG9ZRE-16">
          <mxGeometry x="-0.2705" relative="1" as="geometry">
            <mxPoint x="14" y="4" as="offset" />
          </mxGeometry>
        </mxCell>
        <mxCell id="eqO_NFKNhgGhrtfG9ZRE-18" style="edgeStyle=orthogonalEdgeStyle;rounded=0;orthogonalLoop=1;jettySize=auto;html=1;entryX=1;entryY=0.5;entryDx=0;entryDy=0;strokeColor=#eb4948;" edge="1" parent="1" source="eqO_NFKNhgGhrtfG9ZRE-20" target="eqO_NFKNhgGhrtfG9ZRE-27">
          <mxGeometry relative="1" as="geometry">
            <Array as="points">
              <mxPoint x="2890" y="199.96000000000004" />
              <mxPoint x="2890" y="485.96" />
            </Array>
          </mxGeometry>
        </mxCell>
        <mxCell id="eqO_NFKNhgGhrtfG9ZRE-19" value="&lt;font color=&quot;#eb4948&quot; style=&quot;font-size: 14px;&quot; face=&quot;Times New Roman&quot;&gt;Yes&lt;/font&gt;" style="edgeLabel;html=1;align=center;verticalAlign=middle;resizable=0;points=[];rotation=-90;labelBackgroundColor=none;" connectable="0" vertex="1" parent="eqO_NFKNhgGhrtfG9ZRE-18">
          <mxGeometry x="-0.1845" y="-4" relative="1" as="geometry">
            <mxPoint x="-10" y="-7" as="offset" />
          </mxGeometry>
        </mxCell>
        <mxCell id="eqO_NFKNhgGhrtfG9ZRE-20" value="&lt;div&gt;&lt;font style=&quot;font-size: 18px;&quot; face=&quot;Times New Roman&quot;&gt;AI Surrogate&lt;/font&gt;&lt;/div&gt;&lt;div&gt;&lt;font style=&quot;font-size: 18px;&quot; face=&quot;Times New Roman&quot;&gt;valid&lt;/font&gt;&lt;font face=&quot;Times New Roman&quot; style=&quot;font-size: 14px;&quot;&gt;?&lt;br&gt;&lt;/font&gt;&lt;/div&gt;" style="rhombus;whiteSpace=wrap;html=1;fillColor=#B4C6DC;strokeColor=#000000;" vertex="1" parent="1">
          <mxGeometry x="2696" y="156.68" width="150" height="85.91" as="geometry" />
        </mxCell>
        <mxCell id="eqO_NFKNhgGhrtfG9ZRE-21" style="edgeStyle=orthogonalEdgeStyle;rounded=0;orthogonalLoop=1;jettySize=auto;html=1;exitX=1;exitY=0.25;exitDx=0;exitDy=0;entryX=0.5;entryY=0;entryDx=0;entryDy=0;dashed=1;" edge="1" parent="1" source="eqO_NFKNhgGhrtfG9ZRE-30" target="eqO_NFKNhgGhrtfG9ZRE-20">
          <mxGeometry relative="1" as="geometry" />
        </mxCell>
        <mxCell id="eqO_NFKNhgGhrtfG9ZRE-22" style="edgeStyle=orthogonalEdgeStyle;rounded=0;orthogonalLoop=1;jettySize=auto;html=1;exitX=0.5;exitY=1;exitDx=0;exitDy=0;entryX=0.5;entryY=0;entryDx=0;entryDy=0;" edge="1" parent="1" source="eqO_NFKNhgGhrtfG9ZRE-23" target="eqO_NFKNhgGhrtfG9ZRE-25">
          <mxGeometry relative="1" as="geometry" />
        </mxCell>
        <mxCell id="eqO_NFKNhgGhrtfG9ZRE-23" value="&lt;font face=&quot;Times New Roman&quot;&gt;&lt;b&gt;&lt;font style=&quot;font-size: 18px;&quot;&gt;PHREEQC&lt;/font&gt;&lt;/b&gt;&lt;/font&gt;" style="rounded=1;whiteSpace=wrap;html=1;fillColor=#D98382;strokeColor=#b85450;" vertex="1" parent="1">
          <mxGeometry x="2706" y="287.55" width="130" height="50" as="geometry" />
        </mxCell>
        <mxCell id="eqO_NFKNhgGhrtfG9ZRE-24" style="edgeStyle=orthogonalEdgeStyle;rounded=0;orthogonalLoop=1;jettySize=auto;html=1;exitX=0.5;exitY=1;exitDx=0;exitDy=0;entryX=0.5;entryY=0;entryDx=0;entryDy=0;" edge="1" parent="1" source="eqO_NFKNhgGhrtfG9ZRE-25" target="eqO_NFKNhgGhrtfG9ZRE-27">
          <mxGeometry relative="1" as="geometry" />
        </mxCell>
        <mxCell id="eqO_NFKNhgGhrtfG9ZRE-25" value="&lt;font face=&quot;Times New Roman&quot; style=&quot;font-size: 18px;&quot;&gt;Store in&lt;br&gt;DHT&lt;/font&gt;" style="rounded=1;whiteSpace=wrap;html=1;fillColor=#AFD094;strokeColor=#000000;" vertex="1" parent="1">
          <mxGeometry x="2725.79" y="373.96" width="90.43" height="57" as="geometry" />
        </mxCell>
        <mxCell id="eqO_NFKNhgGhrtfG9ZRE-26" style="edgeStyle=orthogonalEdgeStyle;rounded=0;orthogonalLoop=1;jettySize=auto;html=1;entryX=0.5;entryY=1;entryDx=0;entryDy=0;dashed=1;" edge="1" parent="1" source="eqO_NFKNhgGhrtfG9ZRE-27" target="eqO_NFKNhgGhrtfG9ZRE-33">
          <mxGeometry relative="1" as="geometry">
            <Array as="points">
              <mxPoint x="2772" y="532.55" />
              <mxPoint x="2113" y="532.55" />
            </Array>
          </mxGeometry>
        </mxCell>
        <mxCell id="eqO_NFKNhgGhrtfG9ZRE-27" value="&lt;div&gt;&lt;font face=&quot;Times New Roman&quot; style=&quot;font-size: 18px;&quot;&gt;Retrieve&lt;/font&gt;&lt;/div&gt;&lt;div&gt;&lt;font face=&quot;Times New Roman&quot; style=&quot;font-size: 18px;&quot;&gt;Result&lt;br&gt;&lt;/font&gt;&lt;/div&gt;" style="rounded=1;whiteSpace=wrap;html=1;fillColor=#AFD094;strokeColor=#000000;" vertex="1" parent="1">
          <mxGeometry x="2725.79" y="457.50999999999993" width="91.6" height="57" as="geometry" />
        </mxCell>
        <mxCell id="eqO_NFKNhgGhrtfG9ZRE-28" value="&lt;font style=&quot;font-size: 20px;&quot; face=&quot;Times New Roman&quot;&gt;Master&lt;/font&gt;" style="text;html=1;align=center;verticalAlign=middle;whiteSpace=wrap;rounded=0;fontStyle=1" vertex="1" parent="1">
          <mxGeometry x="1700" y="70" width="136.3984674329502" height="59.470129870129874" as="geometry" />
        </mxCell>
        <mxCell id="eqO_NFKNhgGhrtfG9ZRE-29" style="edgeStyle=orthogonalEdgeStyle;rounded=0;orthogonalLoop=1;jettySize=auto;html=1;entryX=0.5;entryY=0;entryDx=0;entryDy=0;" edge="1" parent="1" source="eqO_NFKNhgGhrtfG9ZRE-30" target="eqO_NFKNhgGhrtfG9ZRE-32">
          <mxGeometry relative="1" as="geometry" />
        </mxCell>
        <mxCell id="eqO_NFKNhgGhrtfG9ZRE-30" value="&lt;font face=&quot;Times New Roman&quot; style=&quot;font-size: 18px;&quot;&gt;&lt;b&gt;AI Surrogate&lt;/b&gt;&lt;/font&gt;" style="rounded=1;whiteSpace=wrap;html=1;fillColor=#b7c5da;strokeColor=default;" vertex="1" parent="1">
          <mxGeometry x="2051.16" y="126.21000000000004" width="123.84" height="38.64" as="geometry" />
        </mxCell>
        <mxCell id="eqO_NFKNhgGhrtfG9ZRE-31" style="edgeStyle=orthogonalEdgeStyle;rounded=0;orthogonalLoop=1;jettySize=auto;html=1;entryX=1;entryY=0.5;entryDx=0;entryDy=0;exitX=0.5;exitY=1;exitDx=0;exitDy=0;" edge="1" parent="1" source="eqO_NFKNhgGhrtfG9ZRE-32" target="eqO_NFKNhgGhrtfG9ZRE-33">
          <mxGeometry relative="1" as="geometry" />
        </mxCell>
        <mxCell id="eqO_NFKNhgGhrtfG9ZRE-32" value="&lt;div&gt;&lt;font face=&quot;Times New Roman&quot; style=&quot;font-size: 18px;&quot;&gt;Distribute&amp;nbsp;&lt;/font&gt;&lt;/div&gt;&lt;div&gt;&lt;font face=&quot;Times New Roman&quot; style=&quot;font-size: 18px;&quot;&gt;Work&lt;/font&gt;&lt;/div&gt;" style="rounded=1;whiteSpace=wrap;html=1;fillColor=#AFD094;strokeColor=#000000;" vertex="1" parent="1">
          <mxGeometry x="2200.16" y="164.85140320855618" width="100.86" height="70.04480000000001" as="geometry" />
        </mxCell>
        <mxCell id="eqO_NFKNhgGhrtfG9ZRE-33" value="&lt;div&gt;&lt;font style=&quot;font-size: 18px;&quot; face=&quot;Times New Roman&quot;&gt;Gather&lt;/font&gt;&lt;/div&gt;&lt;div&gt;&lt;font style=&quot;font-size: 18px;&quot; face=&quot;Times New Roman&quot;&gt;Work&lt;/font&gt;&lt;/div&gt;" style="rounded=1;whiteSpace=wrap;html=1;fillColor=#AFD094;strokeColor=#000000;" vertex="1" parent="1">
          <mxGeometry x="2050" y="444.46999999999997" width="125" height="49.49" as="geometry" />
        </mxCell>
        <mxCell id="eqO_NFKNhgGhrtfG9ZRE-34" value="&lt;font style=&quot;font-size: 18px;&quot; face=&quot;Times New Roman&quot;&gt;Online Training&lt;/font&gt;" style="text;html=1;align=center;verticalAlign=middle;whiteSpace=wrap;rounded=0;strokeColor=#000000;fillColor=#bac4d7;" vertex="1" parent="1">
          <mxGeometry x="2107" y="290.75" width="75" height="43.61" as="geometry" />
        </mxCell>
        <mxCell id="eqO_NFKNhgGhrtfG9ZRE-35" value="" style="endArrow=classic;html=1;rounded=0;exitX=0.25;exitY=1;exitDx=0;exitDy=0;entryX=0.25;entryY=0;entryDx=0;entryDy=0;" edge="1" parent="1" source="eqO_NFKNhgGhrtfG9ZRE-30" target="eqO_NFKNhgGhrtfG9ZRE-33">
          <mxGeometry width="50" height="50" relative="1" as="geometry">
            <mxPoint x="2090.4" y="234.58395721925137" as="sourcePoint" />
            <mxPoint x="2090.4" y="393.3005347593583" as="targetPoint" />
          </mxGeometry>
        </mxCell>
        <mxCell id="eqO_NFKNhgGhrtfG9ZRE-36" value="" style="endArrow=classic;html=1;rounded=0;entryX=0.75;entryY=1;entryDx=0;entryDy=0;exitX=0.5;exitY=0;exitDx=0;exitDy=0;fillColor=#dae8fc;strokeColor=#000000;" edge="1" parent="1" source="eqO_NFKNhgGhrtfG9ZRE-34" target="eqO_NFKNhgGhrtfG9ZRE-30">
          <mxGeometry width="50" height="50" relative="1" as="geometry">
            <mxPoint x="2144" y="293.96000000000004" as="sourcePoint" />
            <mxPoint x="2144" y="234.14181818181822" as="targetPoint" />
          </mxGeometry>
        </mxCell>
        <mxCell id="eqO_NFKNhgGhrtfG9ZRE-37" value="&lt;div&gt;&lt;font face=&quot;Times New Roman&quot; style=&quot;font-size: 14px;&quot;&gt;Update&lt;/font&gt;&lt;/div&gt;" style="edgeLabel;html=1;align=center;verticalAlign=middle;resizable=0;points=[];rotation=-90;fontColor=#000000;labelBackgroundColor=none;" connectable="0" vertex="1" parent="eqO_NFKNhgGhrtfG9ZRE-36">
          <mxGeometry x="0.0763" y="-1" relative="1" as="geometry">
            <mxPoint x="-15" y="15" as="offset" />
          </mxGeometry>
        </mxCell>
        <mxCell id="eqO_NFKNhgGhrtfG9ZRE-38" value="" style="endArrow=classic;html=1;rounded=0;startSize=6;" edge="1" parent="1">
          <mxGeometry width="50" height="50" relative="1" as="geometry">
            <mxPoint x="2143.89" y="444.96" as="sourcePoint" />
            <mxPoint x="2143.89" y="334.36" as="targetPoint" />
          </mxGeometry>
        </mxCell>
        <mxCell id="eqO_NFKNhgGhrtfG9ZRE-39" value="" style="shape=image;verticalLabelPosition=bottom;labelBackgroundColor=default;verticalAlign=top;aspect=fixed;imageAspect=0;image=https://upload.wikimedia.org/wikipedia/commons/thumb/e/eb/OpenMP_logo.png/800px-OpenMP_logo.png;imageBorder=default;rotation=-90;fillColor=none;" vertex="1" parent="1">
          <mxGeometry x="1862.99" y="249.14999999999998" width="80.01" height="26" as="geometry" />
        </mxCell>
        <mxCell id="eqO_NFKNhgGhrtfG9ZRE-40" value="&lt;font style=&quot;font-size: 18px;&quot; face=&quot;Times New Roman&quot;&gt;&lt;b&gt;&lt;font&gt;FTCS&lt;/font&gt;&lt;/b&gt;&lt;/font&gt;" style="rounded=0;whiteSpace=wrap;html=1;fillColor=none;" vertex="1" parent="1">
          <mxGeometry x="1791.13" y="222.23999999999995" width="81" height="36.32" as="geometry" />
        </mxCell>
        <mxCell id="eqO_NFKNhgGhrtfG9ZRE-41" value="&lt;font style=&quot;font-size: 18px;&quot; face=&quot;Times New Roman&quot;&gt;&lt;b&gt;BTCS&lt;/b&gt;&lt;/font&gt;" style="rounded=0;whiteSpace=wrap;html=1;fillColor=none;" vertex="1" parent="1">
          <mxGeometry x="1792.13" y="267.05" width="80" height="36.32" as="geometry" />
        </mxCell>
        <mxCell id="eqO_NFKNhgGhrtfG9ZRE-42" value="&lt;font style=&quot;font-size: 18px;&quot;&gt;&lt;b&gt;&lt;font face=&quot;Times New Roman&quot;&gt;Numerical Methods&lt;/font&gt;&lt;/b&gt;&lt;/font&gt;" style="text;html=1;align=center;verticalAlign=middle;whiteSpace=wrap;rounded=0;fillColor=none;" vertex="1" parent="1">
          <mxGeometry x="1777" y="180.33000000000004" width="161" height="30" as="geometry" />
        </mxCell>
        <mxCell id="eqO_NFKNhgGhrtfG9ZRE-43" style="edgeStyle=orthogonalEdgeStyle;rounded=0;orthogonalLoop=1;jettySize=auto;html=1;entryX=0;entryY=0.5;entryDx=0;entryDy=0;" edge="1" parent="1" source="eqO_NFKNhgGhrtfG9ZRE-47" target="eqO_NFKNhgGhrtfG9ZRE-20">
          <mxGeometry relative="1" as="geometry" />
        </mxCell>
        <mxCell id="eqO_NFKNhgGhrtfG9ZRE-44" value="&lt;font style=&quot;font-size: 14px;&quot; face=&quot;Times New Roman&quot;&gt;No&lt;/font&gt;" style="edgeLabel;html=1;align=center;verticalAlign=middle;resizable=0;points=[];labelBackgroundColor=none;" connectable="0" vertex="1" parent="eqO_NFKNhgGhrtfG9ZRE-43">
          <mxGeometry x="-0.0199" relative="1" as="geometry">
            <mxPoint x="-3" y="-13" as="offset" />
          </mxGeometry>
        </mxCell>
        <mxCell id="eqO_NFKNhgGhrtfG9ZRE-45" style="edgeStyle=orthogonalEdgeStyle;rounded=0;orthogonalLoop=1;jettySize=auto;html=1;exitX=0.5;exitY=1;exitDx=0;exitDy=0;strokeColor=#FF0000;" edge="1" parent="1" source="eqO_NFKNhgGhrtfG9ZRE-47" target="eqO_NFKNhgGhrtfG9ZRE-49">
          <mxGeometry relative="1" as="geometry" />
        </mxCell>
        <mxCell id="eqO_NFKNhgGhrtfG9ZRE-46" value="&lt;font face=&quot;Times New Roman&quot; color=&quot;#ff0000&quot; style=&quot;font-size: 14px;&quot;&gt;Yes&lt;/font&gt;" style="edgeLabel;html=1;align=center;verticalAlign=middle;resizable=0;points=[];rotation=-90;labelBackgroundColor=none;" connectable="0" vertex="1" parent="eqO_NFKNhgGhrtfG9ZRE-45">
          <mxGeometry x="-0.0374" relative="1" as="geometry">
            <mxPoint x="-10" y="1" as="offset" />
          </mxGeometry>
        </mxCell>
        <mxCell id="eqO_NFKNhgGhrtfG9ZRE-47" value="&lt;div&gt;&lt;font face=&quot;Times New Roman&quot; style=&quot;font-size: 18px;&quot;&gt;PHT&lt;/font&gt;&lt;/div&gt;&lt;div&gt;&lt;font face=&quot;Times New Roman&quot; style=&quot;font-size: 18px;&quot;&gt;&amp;nbsp;activated?&lt;/font&gt;&lt;/div&gt;" style="rhombus;whiteSpace=wrap;html=1;fillColor=#afd094;" vertex="1" parent="1">
          <mxGeometry x="2510.91" y="157.08000000000004" width="132.91" height="85.51" as="geometry" />
        </mxCell>
        <mxCell id="eqO_NFKNhgGhrtfG9ZRE-48" style="edgeStyle=orthogonalEdgeStyle;rounded=0;orthogonalLoop=1;jettySize=auto;html=1;exitX=0.5;exitY=1;exitDx=0;exitDy=0;entryX=0.5;entryY=0;entryDx=0;entryDy=0;" edge="1" parent="1" source="eqO_NFKNhgGhrtfG9ZRE-49" target="eqO_NFKNhgGhrtfG9ZRE-59">
          <mxGeometry relative="1" as="geometry" />
        </mxCell>
        <mxCell id="eqO_NFKNhgGhrtfG9ZRE-49" value="&lt;font style=&quot;font-size: 18px;&quot; face=&quot;Times New Roman&quot;&gt;Interpolate result&lt;br&gt;&lt;/font&gt;" style="rounded=1;whiteSpace=wrap;html=1;fillColor=#AFD094;strokeColor=#000000;" vertex="1" parent="1">
          <mxGeometry x="2522.36" y="287.55" width="110" height="50" as="geometry" />
        </mxCell>
        <mxCell id="eqO_NFKNhgGhrtfG9ZRE-50" value="&lt;div style=&quot;padding-bottom: 5px;&quot;&gt;&lt;font style=&quot;font-size: 18px;&quot; face=&quot;Times New Roman&quot;&gt;&lt;b&gt;POET: &lt;/b&gt;Potsdam rEactive Transport&lt;b&gt; &lt;br&gt;&lt;/b&gt;&lt;/font&gt;&lt;/div&gt;&lt;div style=&quot;padding-bottom: 5px;&quot;&gt;&lt;font style=&quot;font-size: 18px;&quot; face=&quot;Times New Roman&quot;&gt;&lt;b&gt;TUG: &lt;/b&gt;Transport on Uniform Grids&lt;/font&gt;&lt;/div&gt;" style="text;html=1;align=left;verticalAlign=middle;resizable=0;points=[];autosize=1;strokeColor=none;fillColor=none;rounded=1;imageAspect=0;arcSize=0;" vertex="1" parent="1">
          <mxGeometry x="1730" y="551.1399999999999" width="280" height="70" as="geometry" />
        </mxCell>
        <mxCell id="eqO_NFKNhgGhrtfG9ZRE-51" value="&lt;div style=&quot;padding-bottom: 5px;&quot;&gt;&lt;font face=&quot;Times New Roman&quot; style=&quot;font-size: 18px;&quot;&gt;&lt;b&gt;FTCS:&lt;/b&gt; Forward Time-Centered Space&lt;/font&gt;&lt;/div&gt;&lt;div style=&quot;padding-bottom: 5px;&quot;&gt;&lt;font face=&quot;Times New Roman&quot; style=&quot;font-size: 18px;&quot;&gt;&lt;b&gt;BTCS:&lt;/b&gt; Backward Time-Centered Space&lt;/font&gt;&lt;font face=&quot;Times New Roman&quot; style=&quot;font-size: 18px;&quot;&gt;&lt;b&gt;&lt;br&gt;&lt;/b&gt;&lt;/font&gt;&lt;/div&gt;&lt;div&gt;&lt;div style=&quot;padding-bottom: 5px;&quot;&gt;&lt;br&gt;&lt;/div&gt;&lt;/div&gt;" style="text;html=1;align=left;verticalAlign=middle;whiteSpace=wrap;rounded=0;" vertex="1" parent="1">
          <mxGeometry x="2019.7599999999998" y="577.55" width="309.6" height="35" as="geometry" />
        </mxCell>
        <mxCell id="eqO_NFKNhgGhrtfG9ZRE-52" value="&lt;div&gt;&lt;div style=&quot;padding-bottom: 5px;&quot;&gt;&lt;div style=&quot;padding-bottom: 5px;&quot;&gt;&lt;font face=&quot;Times New Roman&quot; style=&quot;font-size: 18px;&quot;&gt;&lt;b&gt;DHT: &lt;/b&gt;Distributed Hash Map&lt;/font&gt;&lt;/div&gt;&lt;div style=&quot;padding-bottom: 5px;&quot;&gt;&lt;font face=&quot;Times New Roman&quot; style=&quot;font-size: 18px;&quot;&gt;&lt;b&gt;PHT: &lt;/b&gt;Proximity&lt;/font&gt;&lt;font style=&quot;font-size: 18px;&quot; face=&quot;Times New Roman&quot;&gt; Hash Table&lt;/font&gt;&lt;/div&gt;&lt;/div&gt;&lt;/div&gt;" style="text;html=1;align=center;verticalAlign=middle;whiteSpace=wrap;rounded=0;" vertex="1" parent="1">
          <mxGeometry x="2350" y="562.55" width="219" height="51.41" as="geometry" />
        </mxCell>
        <mxCell id="eqO_NFKNhgGhrtfG9ZRE-53" value="" style="endArrow=classic;html=1;rounded=0;" edge="1" parent="1">
          <mxGeometry width="50" height="50" relative="1" as="geometry">
            <mxPoint x="2581.16" y="570.76" as="sourcePoint" />
            <mxPoint x="2631.16" y="570.76" as="targetPoint" />
          </mxGeometry>
        </mxCell>
        <mxCell id="eqO_NFKNhgGhrtfG9ZRE-54" value="" style="endArrow=classic;html=1;rounded=0;dashed=1;" edge="1" parent="1">
          <mxGeometry width="50" height="50" relative="1" as="geometry">
            <mxPoint x="2581.16" y="598.76" as="sourcePoint" />
            <mxPoint x="2631.16" y="598.76" as="targetPoint" />
          </mxGeometry>
        </mxCell>
        <mxCell id="eqO_NFKNhgGhrtfG9ZRE-55" value="&lt;font style=&quot;font-size: 18px;&quot;&gt;Program flow&lt;/font&gt;" style="text;html=1;align=center;verticalAlign=middle;whiteSpace=wrap;rounded=0;fontFamily=Times New Roman;" vertex="1" parent="1">
          <mxGeometry x="2632.3599999999997" y="553.76" width="108.08" height="30" as="geometry" />
        </mxCell>
        <mxCell id="eqO_NFKNhgGhrtfG9ZRE-56" value="&lt;font style=&quot;font-size: 18px;&quot;&gt;MPI communication&lt;/font&gt;" style="text;html=1;align=center;verticalAlign=middle;whiteSpace=wrap;rounded=0;fontFamily=Times New Roman;" vertex="1" parent="1">
          <mxGeometry x="2637.0299999999997" y="583.76" width="153.21" height="30" as="geometry" />
        </mxCell>
        <mxCell id="eqO_NFKNhgGhrtfG9ZRE-57" style="edgeStyle=orthogonalEdgeStyle;rounded=0;orthogonalLoop=1;jettySize=auto;html=1;exitX=0.5;exitY=1;exitDx=0;exitDy=0;fontColor=#FF0000;strokeColor=#FF0000;" edge="1" parent="1" source="eqO_NFKNhgGhrtfG9ZRE-59">
          <mxGeometry relative="1" as="geometry">
            <mxPoint x="2577.333333333333" y="483.96" as="targetPoint" />
          </mxGeometry>
        </mxCell>
        <mxCell id="eqO_NFKNhgGhrtfG9ZRE-58" style="edgeStyle=orthogonalEdgeStyle;rounded=0;orthogonalLoop=1;jettySize=auto;html=1;exitX=1;exitY=0.5;exitDx=0;exitDy=0;entryX=0;entryY=0.5;entryDx=0;entryDy=0;" edge="1" parent="1" source="eqO_NFKNhgGhrtfG9ZRE-59" target="eqO_NFKNhgGhrtfG9ZRE-20">
          <mxGeometry relative="1" as="geometry">
            <mxPoint x="2670" y="199.55" as="targetPoint" />
            <Array as="points">
              <mxPoint x="2670" y="402.55" />
              <mxPoint x="2670" y="199.55" />
            </Array>
          </mxGeometry>
        </mxCell>
        <mxCell id="eqO_NFKNhgGhrtfG9ZRE-59" value="&lt;font style=&quot;font-size: 18px;&quot; face=&quot;Times New Roman&quot;&gt;valid&lt;/font&gt;" style="rhombus;whiteSpace=wrap;html=1;fillColor=#afd094;" vertex="1" parent="1">
          <mxGeometry x="2538.43" y="377.46" width="77.87" height="50" as="geometry" />
        </mxCell>
        <mxCell id="eqO_NFKNhgGhrtfG9ZRE-60" value="&lt;font face=&quot;Times New Roman&quot; color=&quot;#ff0000&quot; style=&quot;font-size: 14px;&quot;&gt;Yes&lt;/font&gt;" style="edgeLabel;html=1;align=center;verticalAlign=middle;resizable=0;points=[];rotation=-90;labelBackgroundColor=none;" connectable="0" vertex="1" parent="1">
          <mxGeometry x="2600.005" y="353.9614814814812" as="geometry">
            <mxPoint x="-100" y="-31.999999999999993" as="offset" />
          </mxGeometry>
        </mxCell>
        <mxCell id="eqO_NFKNhgGhrtfG9ZRE-61" value="" style="endArrow=classic;html=1;rounded=0;" edge="1" parent="1">
          <mxGeometry width="50" height="50" relative="1" as="geometry">
            <mxPoint x="1961.16" y="145.11" as="sourcePoint" />
            <mxPoint x="2051.16" y="145.11" as="targetPoint" />
          </mxGeometry>
        </mxCell>
        <mxCell id="eqO_NFKNhgGhrtfG9ZRE-62" value="&lt;font style=&quot;font-size: 30px;&quot; face=&quot;Times New Roman&quot;&gt;POET&lt;/font&gt;" style="text;html=1;align=center;verticalAlign=middle;whiteSpace=wrap;rounded=0;fontStyle=1" vertex="1" parent="1">
          <mxGeometry x="1721.2" y="30" width="100" height="40" as="geometry" />
        </mxCell>
        <mxCell id="eqO_NFKNhgGhrtfG9ZRE-63" value="" style="endArrow=none;dashed=1;html=1;rounded=0;exitX=0.49;exitY=0.999;exitDx=0;exitDy=0;exitPerimeter=0;fillColor=#f8cecc;strokeColor=#B85450;dashPattern=1 1;" edge="1" parent="1">
          <mxGeometry width="50" height="50" relative="1" as="geometry">
            <mxPoint x="2013.5899999999997" y="552.0800000000002" as="sourcePoint" />
            <mxPoint x="2013.76" y="82.55000000000001" as="targetPoint" />
          </mxGeometry>
        </mxCell>
        <mxCell id="eqO_NFKNhgGhrtfG9ZRE-64" value="&lt;font face=&quot;Times New Roman&quot; style=&quot;font-size: 14px;&quot;&gt;&lt;i&gt;Transport / Flow&lt;/i&gt;&lt;/font&gt;" style="text;html=1;align=center;verticalAlign=middle;whiteSpace=wrap;rounded=0;rotation=-90;" vertex="1" parent="1">
          <mxGeometry x="1949.16" y="302.55" width="102" height="30" as="geometry" />
        </mxCell>
        <mxCell id="eqO_NFKNhgGhrtfG9ZRE-65" value="&lt;font face=&quot;Times New Roman&quot; style=&quot;font-size: 14px;&quot;&gt;&lt;i&gt;Chemistry&lt;/i&gt;&lt;/font&gt;" style="text;html=1;align=center;verticalAlign=middle;whiteSpace=wrap;rounded=0;rotation=-90;" vertex="1" parent="1">
          <mxGeometry x="1980.5" y="302.55" width="90" height="30" as="geometry" />
        </mxCell>
      </root>
    </mxGraphModel>
  </diagram>
</mxfile>
